M48
; DRILL file {KiCad 9.0.5-9.0.5~ubuntu24.04.1} date 2025-11-10T21:39:02+0200
; FORMAT={-:-/ absolute / metric / decimal}
; #@! TF.CreationDate,2025-11-10T21:39:02+02:00
; #@! TF.GenerationSoftware,Kicad,Pcbnew,9.0.5-9.0.5~ubuntu24.04.1
; #@! TF.FileFunction,Plated,1,4,PTH
FMAT,2
METRIC
; #@! TA.AperFunction,Plated,PTH,ViaDrill
T1C0.200
; #@! TA.AperFunction,Plated,PTH,ViaDrill
T2C0.300
; #@! TA.AperFunction,Plated,PTH,ViaDrill
T3C0.400
; #@! TA.AperFunction,Plated,PTH,ViaDrill
T4C0.500
; #@! TA.AperFunction,Plated,PTH,ComponentDrill
T5C0.500
; #@! TA.AperFunction,Plated,PTH,ComponentDrill
T6C0.800
; #@! TA.AperFunction,Plated,PTH,ComponentDrill
T7C1.000
%
G90
G05
T1
X83.2Y-109.5
X83.2Y-110.0
X83.2Y-110.5
X83.7Y-109.5
X83.7Y-110.0
X83.7Y-110.5
X84.2Y-109.5
X84.2Y-110.0
X84.2Y-110.5
X96.6Y-109.1
X96.6Y-109.6
X96.6Y-110.1
X97.1Y-109.1
X97.1Y-109.6
X97.1Y-110.1
X97.6Y-109.1
X97.6Y-109.6
X97.6Y-110.1
X110.2Y-109.1
X110.2Y-109.6
X110.2Y-110.1
X110.7Y-109.1
X110.7Y-109.6
X110.7Y-110.1
X111.2Y-109.1
X111.2Y-109.6
X111.2Y-110.1
T2
X68.4Y-95.8
X69.0Y-74.51
X69.28Y-70.7
X70.06Y-101.15
X70.725Y-84.275
X70.775Y-77.7
X70.95Y-79.9
X71.0Y-82.3
X71.81Y-70.71
X73.07Y-70.79
X73.2Y-84.2
X73.3Y-82.3
X73.4Y-74.58
X73.475Y-77.7
X73.731Y-105.479
X74.525Y-107.575
X74.66Y-85.2
X74.66Y-93.54
X74.66Y-96.39
X75.05Y-99.15
X75.05Y-115.65
X75.1Y-114.55
X75.15Y-72.96
X75.55Y-105.4
X75.64Y-82.63
X75.7Y-97.54
X75.89Y-107.78
X76.15Y-75.57
X77.25Y-93.415
X77.988Y-94.015
X78.3Y-69.1
X78.4Y-76.75
X78.47Y-85.21
X78.61Y-93.511
X79.2Y-94.8
X79.2Y-103.4
X79.2Y-104.0
X79.677Y-110.385
X79.72Y-85.18
X79.8Y-103.7
X79.85Y-70.6
X79.87Y-108.49
X79.885Y-109.612
X79.9Y-79.6
X79.901Y-93.501
X80.35Y-102.64
X80.36Y-101.89
X80.5Y-109.1
X80.9Y-116.3
X80.909Y-85.263
X81.04Y-102.65
X81.05Y-101.91
X81.6Y-116.3
X81.7Y-104.8
X81.7Y-105.45
X81.72Y-102.67
X81.73Y-101.92
X81.875Y-84.7
X82.0Y-106.2
X82.0Y-106.85
X82.049Y-78.801
X82.2Y-94.1
X82.3Y-107.6
X82.3Y-116.3
X82.35Y-105.1
X82.41Y-101.93
X82.41Y-102.68
X82.54Y-78.17
X82.65Y-106.55
X82.89Y-75.76
X83.0Y-114.9
X83.0Y-115.6
X83.0Y-116.3
X83.09Y-102.7
X83.1Y-101.93
X83.625Y-78.01
X83.7Y-114.9
X83.7Y-115.6
X83.7Y-116.3
X83.77Y-101.95
X83.79Y-102.69
X84.375Y-77.4
X84.4Y-107.5
X84.4Y-114.9
X84.4Y-115.6
X84.4Y-116.3
X84.7Y-84.38
X84.88Y-103.72
X85.0Y-87.1
X85.1Y-116.3
X85.325Y-92.2
X85.65Y-103.71
X85.8Y-116.3
X85.875Y-108.0
X86.44Y-103.7
X86.5Y-85.425
X86.5Y-116.3
X86.6Y-108.0
X87.23Y-103.67
X87.3Y-74.0
X87.45Y-92.23
X87.6Y-102.1
X87.6Y-103.0
X87.8Y-72.5
X88.33Y-82.74
X88.68Y-92.24
X89.49Y-107.6
X89.55Y-69.0
X89.56Y-100.66
X89.674Y-74.826
X90.31Y-85.425
X90.6Y-97.3
X90.797Y-110.336
X91.09Y-106.45
X91.175Y-82.8
X91.3Y-87.2
X91.436Y-82.044
X91.7Y-105.2
X91.8Y-77.2
X91.9Y-78.7
X92.08Y-103.5
X92.225Y-82.99
X92.5Y-96.5
X92.7Y-106.22
X93.0Y-81.4
X93.0Y-97.7
X93.36Y-94.12
X93.6Y-100.4
X93.8Y-110.0
X93.932Y-109.211
X94.05Y-102.95
X94.4Y-116.3
X94.475Y-82.7
X94.6Y-73.9
X94.63Y-94.25
X95.0Y-72.25
X95.1Y-116.3
X95.24Y-103.329
X95.275Y-69.3
X95.3Y-74.65
X95.412Y-82.562
X95.8Y-116.3
X96.125Y-85.4
X96.3Y-82.563
X96.363Y-80.389
X96.5Y-77.85
X96.5Y-114.9
X96.5Y-115.6
X96.5Y-116.3
X96.8Y-100.9
X96.9Y-74.65
X96.918Y-85.502
X96.96Y-78.8
X97.06Y-79.625
X97.13Y-107.22
X97.2Y-114.9
X97.2Y-115.6
X97.2Y-116.3
X97.9Y-114.9
X97.9Y-115.6
X97.9Y-116.3
X98.2Y-93.6
X98.225Y-96.325
X98.48Y-85.12
X98.6Y-98.7
X98.6Y-116.3
X98.9Y-74.75
X98.94Y-70.43
X99.3Y-116.3
X99.51Y-102.68
X99.634Y-98.934
X99.7Y-86.425
X99.75Y-78.8
X100.0Y-116.3
X100.05Y-82.45
X100.25Y-87.8
X100.73Y-106.06
X100.85Y-84.95
X101.0Y-98.9
X101.2Y-110.25
X101.425Y-93.171
X102.02Y-86.21
X102.07Y-82.6
X102.2Y-81.225
X102.23Y-78.99
X102.33Y-102.72
X102.73Y-98.99
X103.05Y-82.825
X103.08Y-107.64
X103.84Y-80.49
X104.15Y-69.15
X104.3Y-102.7
X104.5Y-98.8
X104.5Y-106.18
X104.54Y-96.8
X105.3Y-110.208
X105.4Y-76.2
X105.6Y-98.8
X105.975Y-82.675
X106.0Y-86.25
X106.113Y-81.412
X106.25Y-96.65
X106.5Y-99.7
X106.7Y-94.6
X107.1Y-101.9
X107.3Y-110.0
X107.4Y-108.9
X107.68Y-85.35
X107.8Y-116.3
X108.3Y-95.2
X108.5Y-116.3
X108.6Y-98.75
X108.7Y-102.35
X108.8Y-84.1
X108.81Y-79.95
X108.81Y-82.1
X109.012Y-95.887
X109.05Y-105.55
X109.2Y-116.3
X109.55Y-71.2
X109.7Y-84.35
X109.77Y-75.17
X109.9Y-114.9
X109.9Y-115.6
X109.9Y-116.3
X110.6Y-114.9
X110.6Y-115.6
X110.6Y-116.3
X110.7Y-68.25
X111.3Y-114.9
X111.3Y-115.6
X111.3Y-116.3
X112.0Y-116.3
X112.62Y-105.6
X112.7Y-116.3
X112.85Y-85.47
X113.35Y-78.1
X113.4Y-81.35
X113.4Y-116.3
X113.85Y-74.4
X113.95Y-96.75
X115.0Y-110.15
X115.1Y-96.75
X115.5Y-100.4
X115.5Y-104.5
X116.35Y-96.75
X116.982Y-69.295
X117.0Y-74.4
X117.35Y-80.15
X117.35Y-82.0
X117.35Y-85.4
T3
X69.3Y-114.4
X69.3Y-115.65
X70.2Y-114.4
X70.2Y-115.65
X71.1Y-114.4
X71.1Y-115.65
X72.0Y-114.4
X72.0Y-115.65
X75.6Y-109.4
X75.6Y-110.8
X75.6Y-112.3
X76.6Y-109.4
X76.6Y-110.8
X76.6Y-112.3
X77.625Y-109.425
X77.625Y-110.475
X78.1Y-111.8
X79.3Y-111.8
X80.4Y-111.8
X87.075Y-111.55
X88.275Y-111.55
X89.45Y-111.55
X91.5Y-111.6
X92.7Y-111.6
X93.8Y-111.6
X100.6Y-111.6
X101.75Y-111.575
X102.825Y-111.575
X105.0Y-111.6
X106.2Y-111.6
X107.3Y-111.6
X114.1Y-111.6
X115.3Y-111.6
X116.4Y-111.6
T4
X85.0Y-99.15
X85.1Y-97.0
T6
X69.8Y-95.81
X69.8Y-98.35
X72.34Y-97.08
X72.34Y-99.62
X84.035Y-71.575
X85.305Y-69.035
X86.575Y-71.575
X87.845Y-69.035
X98.645Y-71.72
X99.915Y-69.18
X101.185Y-71.72
X102.455Y-69.18
X111.565Y-71.84
X112.835Y-69.3
X114.105Y-71.84
X115.375Y-69.3
T7
X110.5Y-98.7
X110.52Y-102.3
X111.2Y-79.31
X111.2Y-81.85
X113.04Y-98.7
X113.06Y-102.3
X115.58Y-98.7
X115.6Y-76.92
X115.6Y-79.46
X115.6Y-82.0
X115.6Y-84.54
X115.6Y-102.3
T5
G00X69.15Y-77.7
M15
G01X69.85Y-77.7
M16
G05
G00X69.15Y-84.3
M15
G01X69.85Y-84.3
M16
G05
M30
