%TF.GenerationSoftware,KiCad,Pcbnew,9.0.5-9.0.5~ubuntu24.04.1*%
%TF.CreationDate,2025-11-10T21:38:20+02:00*%
%TF.ProjectId,picr_1_9tdi,70696372-5f31-45f3-9974-64692e6b6963,1*%
%TF.SameCoordinates,Original*%
%TF.FileFunction,Paste,Bot*%
%TF.FilePolarity,Positive*%
%FSLAX46Y46*%
G04 Gerber Fmt 4.6, Leading zero omitted, Abs format (unit mm)*
G04 Created by KiCad (PCBNEW 9.0.5-9.0.5~ubuntu24.04.1) date 2025-11-10 21:38:20*
%MOMM*%
%LPD*%
G01*
G04 APERTURE LIST*
G04 Aperture macros list*
%AMRoundRect*
0 Rectangle with rounded corners*
0 $1 Rounding radius*
0 $2 $3 $4 $5 $6 $7 $8 $9 X,Y pos of 4 corners*
0 Add a 4 corners polygon primitive as box body*
4,1,4,$2,$3,$4,$5,$6,$7,$8,$9,$2,$3,0*
0 Add four circle primitives for the rounded corners*
1,1,$1+$1,$2,$3*
1,1,$1+$1,$4,$5*
1,1,$1+$1,$6,$7*
1,1,$1+$1,$8,$9*
0 Add four rect primitives between the rounded corners*
20,1,$1+$1,$2,$3,$4,$5,0*
20,1,$1+$1,$4,$5,$6,$7,0*
20,1,$1+$1,$6,$7,$8,$9,0*
20,1,$1+$1,$8,$9,$2,$3,0*%
G04 Aperture macros list end*
%ADD10RoundRect,0.250000X-0.475000X0.337500X-0.475000X-0.337500X0.475000X-0.337500X0.475000X0.337500X0*%
%ADD11RoundRect,0.237500X-0.237500X0.300000X-0.237500X-0.300000X0.237500X-0.300000X0.237500X0.300000X0*%
%ADD12RoundRect,0.237500X0.237500X-0.250000X0.237500X0.250000X-0.237500X0.250000X-0.237500X-0.250000X0*%
%ADD13RoundRect,0.237500X-0.250000X-0.237500X0.250000X-0.237500X0.250000X0.237500X-0.250000X0.237500X0*%
G04 APERTURE END LIST*
D10*
%TO.C,C2*%
X89800000Y-112662500D03*
X89800000Y-114737500D03*
%TD*%
%TO.C,C15*%
X103100000Y-112762500D03*
X103100000Y-114837500D03*
%TD*%
%TO.C,C4*%
X78100000Y-112937500D03*
X78100000Y-115012500D03*
%TD*%
%TO.C,C29*%
X116500000Y-112862500D03*
X116500000Y-114937500D03*
%TD*%
%TO.C,C23*%
X105100000Y-112762500D03*
X105100000Y-114837500D03*
%TD*%
D11*
%TO.C,C20*%
X101300000Y-113162500D03*
X101300000Y-114887500D03*
%TD*%
D10*
%TO.C,C17*%
X99500000Y-112725000D03*
X99500000Y-114800000D03*
%TD*%
D11*
%TO.C,C30*%
X114737500Y-113275000D03*
X114737500Y-115000000D03*
%TD*%
D10*
%TO.C,C13*%
X95500000Y-112662500D03*
X95500000Y-114737500D03*
%TD*%
D11*
%TO.C,C9*%
X88000000Y-113062500D03*
X88000000Y-114787500D03*
%TD*%
D10*
%TO.C,C14*%
X91900000Y-112662500D03*
X91900000Y-114737500D03*
%TD*%
D11*
%TO.C,C31*%
X106900000Y-113137500D03*
X106900000Y-114862500D03*
%TD*%
D10*
%TO.C,C1*%
X86200000Y-112662500D03*
X86200000Y-114737500D03*
%TD*%
D11*
%TO.C,C19*%
X93700000Y-113062500D03*
X93700000Y-114787500D03*
%TD*%
D10*
%TO.C,C3*%
X81700000Y-112937500D03*
X81700000Y-115012500D03*
%TD*%
D11*
%TO.C,C7*%
X79900000Y-113037500D03*
X79900000Y-114762500D03*
%TD*%
D10*
%TO.C,C28*%
X113000000Y-112862500D03*
X113000000Y-114937500D03*
%TD*%
%TO.C,C26*%
X108700000Y-112737500D03*
X108700000Y-114812500D03*
%TD*%
D12*
%TO.C,R2*%
X80550000Y-107250000D03*
X80550000Y-105425000D03*
%TD*%
D13*
%TO.C,R3*%
X86100000Y-109900000D03*
X87925000Y-109900000D03*
%TD*%
M02*
