%TF.GenerationSoftware,KiCad,Pcbnew,9.0.6*%
%TF.CreationDate,2025-11-11T12:39:31+02:00*%
%TF.ProjectId,picr_1_9tdi,70696372-5f31-45f3-9974-64692e6b6963,1*%
%TF.SameCoordinates,Original*%
%TF.FileFunction,Legend,Top*%
%TF.FilePolarity,Positive*%
%FSLAX46Y46*%
G04 Gerber Fmt 4.6, Leading zero omitted, Abs format (unit mm)*
G04 Created by KiCad (PCBNEW 9.0.6) date 2025-11-11 12:39:31*
%MOMM*%
%LPD*%
G01*
G04 APERTURE LIST*
%ADD10C,0.170000*%
%ADD11C,0.160000*%
%ADD12C,0.120000*%
%ADD13C,0.152500*%
%ADD14C,0.300000*%
%ADD15C,0.152400*%
%ADD16C,0.100000*%
%ADD17C,0.000000*%
%ADD18C,0.254000*%
G04 APERTURE END LIST*
D10*
X112899937Y-96487826D02*
X113661842Y-96487826D01*
X113280889Y-96868779D02*
X113280889Y-96106874D01*
X69907080Y-101718779D02*
X70478508Y-101718779D01*
X70192794Y-102718779D02*
X70192794Y-101718779D01*
X70811842Y-102718779D02*
X70811842Y-101718779D01*
X70811842Y-102194969D02*
X71383270Y-102194969D01*
X71383270Y-102718779D02*
X71383270Y-101718779D01*
X110757080Y-76268779D02*
X111328508Y-76268779D01*
X111042794Y-77268779D02*
X111042794Y-76268779D01*
X111566604Y-76268779D02*
X112233270Y-77268779D01*
X112233270Y-76268779D02*
X111566604Y-77268779D01*
X112941398Y-81801253D02*
X112893779Y-81896491D01*
X112893779Y-81896491D02*
X112893779Y-82039348D01*
X112893779Y-82039348D02*
X112941398Y-82182205D01*
X112941398Y-82182205D02*
X113036636Y-82277443D01*
X113036636Y-82277443D02*
X113131874Y-82325062D01*
X113131874Y-82325062D02*
X113322350Y-82372681D01*
X113322350Y-82372681D02*
X113465207Y-82372681D01*
X113465207Y-82372681D02*
X113655683Y-82325062D01*
X113655683Y-82325062D02*
X113750921Y-82277443D01*
X113750921Y-82277443D02*
X113846160Y-82182205D01*
X113846160Y-82182205D02*
X113893779Y-82039348D01*
X113893779Y-82039348D02*
X113893779Y-81944110D01*
X113893779Y-81944110D02*
X113846160Y-81801253D01*
X113846160Y-81801253D02*
X113798540Y-81753634D01*
X113798540Y-81753634D02*
X113465207Y-81753634D01*
X113465207Y-81753634D02*
X113465207Y-81944110D01*
D11*
X86067167Y-90169299D02*
X85495739Y-90169299D01*
X85781453Y-90169299D02*
X85781453Y-89169299D01*
X85781453Y-89169299D02*
X85686215Y-89312156D01*
X85686215Y-89312156D02*
X85590977Y-89407394D01*
X85590977Y-89407394D02*
X85495739Y-89455013D01*
X86495739Y-90074060D02*
X86543358Y-90121680D01*
X86543358Y-90121680D02*
X86495739Y-90169299D01*
X86495739Y-90169299D02*
X86448120Y-90121680D01*
X86448120Y-90121680D02*
X86495739Y-90074060D01*
X86495739Y-90074060D02*
X86495739Y-90169299D01*
X87019548Y-90169299D02*
X87210024Y-90169299D01*
X87210024Y-90169299D02*
X87305262Y-90121680D01*
X87305262Y-90121680D02*
X87352881Y-90074060D01*
X87352881Y-90074060D02*
X87448119Y-89931203D01*
X87448119Y-89931203D02*
X87495738Y-89740727D01*
X87495738Y-89740727D02*
X87495738Y-89359775D01*
X87495738Y-89359775D02*
X87448119Y-89264537D01*
X87448119Y-89264537D02*
X87400500Y-89216918D01*
X87400500Y-89216918D02*
X87305262Y-89169299D01*
X87305262Y-89169299D02*
X87114786Y-89169299D01*
X87114786Y-89169299D02*
X87019548Y-89216918D01*
X87019548Y-89216918D02*
X86971929Y-89264537D01*
X86971929Y-89264537D02*
X86924310Y-89359775D01*
X86924310Y-89359775D02*
X86924310Y-89597870D01*
X86924310Y-89597870D02*
X86971929Y-89693108D01*
X86971929Y-89693108D02*
X87019548Y-89740727D01*
X87019548Y-89740727D02*
X87114786Y-89788346D01*
X87114786Y-89788346D02*
X87305262Y-89788346D01*
X87305262Y-89788346D02*
X87400500Y-89740727D01*
X87400500Y-89740727D02*
X87448119Y-89693108D01*
X87448119Y-89693108D02*
X87495738Y-89597870D01*
X88543358Y-89169299D02*
X89114786Y-89169299D01*
X88829072Y-90169299D02*
X88829072Y-89169299D01*
X89448120Y-90169299D02*
X89448120Y-89169299D01*
X89448120Y-89169299D02*
X89686215Y-89169299D01*
X89686215Y-89169299D02*
X89829072Y-89216918D01*
X89829072Y-89216918D02*
X89924310Y-89312156D01*
X89924310Y-89312156D02*
X89971929Y-89407394D01*
X89971929Y-89407394D02*
X90019548Y-89597870D01*
X90019548Y-89597870D02*
X90019548Y-89740727D01*
X90019548Y-89740727D02*
X89971929Y-89931203D01*
X89971929Y-89931203D02*
X89924310Y-90026441D01*
X89924310Y-90026441D02*
X89829072Y-90121680D01*
X89829072Y-90121680D02*
X89686215Y-90169299D01*
X89686215Y-90169299D02*
X89448120Y-90169299D01*
X90448120Y-90169299D02*
X90448120Y-89169299D01*
D10*
X111904699Y-106343779D02*
X112523746Y-106343779D01*
X112523746Y-106343779D02*
X112190413Y-106724731D01*
X112190413Y-106724731D02*
X112333270Y-106724731D01*
X112333270Y-106724731D02*
X112428508Y-106772350D01*
X112428508Y-106772350D02*
X112476127Y-106819969D01*
X112476127Y-106819969D02*
X112523746Y-106915207D01*
X112523746Y-106915207D02*
X112523746Y-107153302D01*
X112523746Y-107153302D02*
X112476127Y-107248540D01*
X112476127Y-107248540D02*
X112428508Y-107296160D01*
X112428508Y-107296160D02*
X112333270Y-107343779D01*
X112333270Y-107343779D02*
X112047556Y-107343779D01*
X112047556Y-107343779D02*
X111952318Y-107296160D01*
X111952318Y-107296160D02*
X111904699Y-107248540D01*
X107374937Y-68833835D02*
X107374937Y-67833835D01*
X107374937Y-67833835D02*
X107708270Y-68548120D01*
X107708270Y-68548120D02*
X108041603Y-67833835D01*
X108041603Y-67833835D02*
X108041603Y-68833835D01*
X108422556Y-67833835D02*
X109041603Y-67833835D01*
X109041603Y-67833835D02*
X108708270Y-68214787D01*
X108708270Y-68214787D02*
X108851127Y-68214787D01*
X108851127Y-68214787D02*
X108946365Y-68262406D01*
X108946365Y-68262406D02*
X108993984Y-68310025D01*
X108993984Y-68310025D02*
X109041603Y-68405263D01*
X109041603Y-68405263D02*
X109041603Y-68643358D01*
X109041603Y-68643358D02*
X108993984Y-68738596D01*
X108993984Y-68738596D02*
X108946365Y-68786216D01*
X108946365Y-68786216D02*
X108851127Y-68833835D01*
X108851127Y-68833835D02*
X108565413Y-68833835D01*
X108565413Y-68833835D02*
X108470175Y-68786216D01*
X108470175Y-68786216D02*
X108422556Y-68738596D01*
X116492318Y-104681160D02*
X116635175Y-104728779D01*
X116635175Y-104728779D02*
X116873270Y-104728779D01*
X116873270Y-104728779D02*
X116968508Y-104681160D01*
X116968508Y-104681160D02*
X117016127Y-104633540D01*
X117016127Y-104633540D02*
X117063746Y-104538302D01*
X117063746Y-104538302D02*
X117063746Y-104443064D01*
X117063746Y-104443064D02*
X117016127Y-104347826D01*
X117016127Y-104347826D02*
X116968508Y-104300207D01*
X116968508Y-104300207D02*
X116873270Y-104252588D01*
X116873270Y-104252588D02*
X116682794Y-104204969D01*
X116682794Y-104204969D02*
X116587556Y-104157350D01*
X116587556Y-104157350D02*
X116539937Y-104109731D01*
X116539937Y-104109731D02*
X116492318Y-104014493D01*
X116492318Y-104014493D02*
X116492318Y-103919255D01*
X116492318Y-103919255D02*
X116539937Y-103824017D01*
X116539937Y-103824017D02*
X116587556Y-103776398D01*
X116587556Y-103776398D02*
X116682794Y-103728779D01*
X116682794Y-103728779D02*
X116920889Y-103728779D01*
X116920889Y-103728779D02*
X117063746Y-103776398D01*
X113324937Y-104362826D02*
X114086842Y-104362826D01*
X113705889Y-104743779D02*
X113705889Y-103981874D01*
X99107818Y-106514017D02*
X99155437Y-106466398D01*
X99155437Y-106466398D02*
X99250675Y-106418779D01*
X99250675Y-106418779D02*
X99488770Y-106418779D01*
X99488770Y-106418779D02*
X99584008Y-106466398D01*
X99584008Y-106466398D02*
X99631627Y-106514017D01*
X99631627Y-106514017D02*
X99679246Y-106609255D01*
X99679246Y-106609255D02*
X99679246Y-106704493D01*
X99679246Y-106704493D02*
X99631627Y-106847350D01*
X99631627Y-106847350D02*
X99060199Y-107418779D01*
X99060199Y-107418779D02*
X99679246Y-107418779D01*
X94474937Y-68818779D02*
X94474937Y-67818779D01*
X94474937Y-67818779D02*
X94808270Y-68533064D01*
X94808270Y-68533064D02*
X95141603Y-67818779D01*
X95141603Y-67818779D02*
X95141603Y-68818779D01*
X96141603Y-68818779D02*
X95570175Y-68818779D01*
X95855889Y-68818779D02*
X95855889Y-67818779D01*
X95855889Y-67818779D02*
X95760651Y-67961636D01*
X95760651Y-67961636D02*
X95665413Y-68056874D01*
X95665413Y-68056874D02*
X95570175Y-68104493D01*
X115449937Y-74587826D02*
X116211842Y-74587826D01*
X115830889Y-74968779D02*
X115830889Y-74206874D01*
X115552318Y-96821160D02*
X115695175Y-96868779D01*
X115695175Y-96868779D02*
X115933270Y-96868779D01*
X115933270Y-96868779D02*
X116028508Y-96821160D01*
X116028508Y-96821160D02*
X116076127Y-96773540D01*
X116076127Y-96773540D02*
X116123746Y-96678302D01*
X116123746Y-96678302D02*
X116123746Y-96583064D01*
X116123746Y-96583064D02*
X116076127Y-96487826D01*
X116076127Y-96487826D02*
X116028508Y-96440207D01*
X116028508Y-96440207D02*
X115933270Y-96392588D01*
X115933270Y-96392588D02*
X115742794Y-96344969D01*
X115742794Y-96344969D02*
X115647556Y-96297350D01*
X115647556Y-96297350D02*
X115599937Y-96249731D01*
X115599937Y-96249731D02*
X115552318Y-96154493D01*
X115552318Y-96154493D02*
X115552318Y-96059255D01*
X115552318Y-96059255D02*
X115599937Y-95964017D01*
X115599937Y-95964017D02*
X115647556Y-95916398D01*
X115647556Y-95916398D02*
X115742794Y-95868779D01*
X115742794Y-95868779D02*
X115980889Y-95868779D01*
X115980889Y-95868779D02*
X116123746Y-95916398D01*
X111773746Y-83716398D02*
X111678508Y-83668779D01*
X111678508Y-83668779D02*
X111535651Y-83668779D01*
X111535651Y-83668779D02*
X111392794Y-83716398D01*
X111392794Y-83716398D02*
X111297556Y-83811636D01*
X111297556Y-83811636D02*
X111249937Y-83906874D01*
X111249937Y-83906874D02*
X111202318Y-84097350D01*
X111202318Y-84097350D02*
X111202318Y-84240207D01*
X111202318Y-84240207D02*
X111249937Y-84430683D01*
X111249937Y-84430683D02*
X111297556Y-84525921D01*
X111297556Y-84525921D02*
X111392794Y-84621160D01*
X111392794Y-84621160D02*
X111535651Y-84668779D01*
X111535651Y-84668779D02*
X111630889Y-84668779D01*
X111630889Y-84668779D02*
X111773746Y-84621160D01*
X111773746Y-84621160D02*
X111821365Y-84573540D01*
X111821365Y-84573540D02*
X111821365Y-84240207D01*
X111821365Y-84240207D02*
X111630889Y-84240207D01*
X112726127Y-84668779D02*
X112249937Y-84668779D01*
X112249937Y-84668779D02*
X112249937Y-83668779D01*
X113249937Y-83668779D02*
X113440413Y-83668779D01*
X113440413Y-83668779D02*
X113535651Y-83716398D01*
X113535651Y-83716398D02*
X113630889Y-83811636D01*
X113630889Y-83811636D02*
X113678508Y-84002112D01*
X113678508Y-84002112D02*
X113678508Y-84335445D01*
X113678508Y-84335445D02*
X113630889Y-84525921D01*
X113630889Y-84525921D02*
X113535651Y-84621160D01*
X113535651Y-84621160D02*
X113440413Y-84668779D01*
X113440413Y-84668779D02*
X113249937Y-84668779D01*
X113249937Y-84668779D02*
X113154699Y-84621160D01*
X113154699Y-84621160D02*
X113059461Y-84525921D01*
X113059461Y-84525921D02*
X113011842Y-84335445D01*
X113011842Y-84335445D02*
X113011842Y-84002112D01*
X113011842Y-84002112D02*
X113059461Y-83811636D01*
X113059461Y-83811636D02*
X113154699Y-83716398D01*
X113154699Y-83716398D02*
X113249937Y-83668779D01*
X113898779Y-79368634D02*
X113422588Y-79701967D01*
X113898779Y-79940062D02*
X112898779Y-79940062D01*
X112898779Y-79940062D02*
X112898779Y-79559110D01*
X112898779Y-79559110D02*
X112946398Y-79463872D01*
X112946398Y-79463872D02*
X112994017Y-79416253D01*
X112994017Y-79416253D02*
X113089255Y-79368634D01*
X113089255Y-79368634D02*
X113232112Y-79368634D01*
X113232112Y-79368634D02*
X113327350Y-79416253D01*
X113327350Y-79416253D02*
X113374969Y-79463872D01*
X113374969Y-79463872D02*
X113422588Y-79559110D01*
X113422588Y-79559110D02*
X113422588Y-79940062D01*
X112898779Y-79035300D02*
X113898779Y-78368634D01*
X112898779Y-78368634D02*
X113898779Y-79035300D01*
X86250146Y-107418779D02*
X85678718Y-107418779D01*
X85964432Y-107418779D02*
X85964432Y-106418779D01*
X85964432Y-106418779D02*
X85869194Y-106561636D01*
X85869194Y-106561636D02*
X85773956Y-106656874D01*
X85773956Y-106656874D02*
X85678718Y-106704493D01*
X79649937Y-68818779D02*
X79649937Y-67818779D01*
X79649937Y-67818779D02*
X79983270Y-68533064D01*
X79983270Y-68533064D02*
X80316603Y-67818779D01*
X80316603Y-67818779D02*
X80316603Y-68818779D01*
X80745175Y-67914017D02*
X80792794Y-67866398D01*
X80792794Y-67866398D02*
X80888032Y-67818779D01*
X80888032Y-67818779D02*
X81126127Y-67818779D01*
X81126127Y-67818779D02*
X81221365Y-67866398D01*
X81221365Y-67866398D02*
X81268984Y-67914017D01*
X81268984Y-67914017D02*
X81316603Y-68009255D01*
X81316603Y-68009255D02*
X81316603Y-68104493D01*
X81316603Y-68104493D02*
X81268984Y-68247350D01*
X81268984Y-68247350D02*
X80697556Y-68818779D01*
X80697556Y-68818779D02*
X81316603Y-68818779D01*
D12*
%TO.C,R1*%
X88842224Y-108127500D02*
X88332776Y-108127500D01*
X88842224Y-109172500D02*
X88332776Y-109172500D01*
D13*
%TO.C,U13*%
X101419000Y-88914000D02*
X111471000Y-88914000D01*
X101419000Y-91957000D02*
X101419000Y-88914000D01*
X111471000Y-88914000D02*
X111471000Y-91957000D01*
X111471000Y-91957000D02*
X101419000Y-91957000D01*
D14*
X111040000Y-89666500D02*
G75*
G02*
X110740000Y-89666500I-150000J0D01*
G01*
X110740000Y-89666500D02*
G75*
G02*
X111040000Y-89666500I150000J0D01*
G01*
X111793000Y-87700000D02*
G75*
G02*
X111493000Y-87700000I-150000J0D01*
G01*
X111493000Y-87700000D02*
G75*
G02*
X111793000Y-87700000I150000J0D01*
G01*
D12*
%TO.C,R14*%
X113177500Y-106282776D02*
X113177500Y-106792224D01*
X114222500Y-106282776D02*
X114222500Y-106792224D01*
%TO.C,C22*%
X98832922Y-84045829D02*
X98626069Y-84252682D01*
X99554171Y-84767078D02*
X99347318Y-84973931D01*
D15*
%TO.C,U1*%
X82023600Y-115621100D02*
X85376400Y-115621100D01*
X85376400Y-108178900D02*
X82023600Y-108178900D01*
D16*
X80800000Y-108300000D02*
G75*
G02*
X80600000Y-108300000I-100000J0D01*
G01*
X80600000Y-108300000D02*
G75*
G02*
X80800000Y-108300000I100000J0D01*
G01*
D17*
G36*
X80766300Y-113340815D02*
G01*
X80512300Y-113340815D01*
X80512300Y-112959815D01*
X80766300Y-112959815D01*
X80766300Y-113340815D01*
G37*
G36*
X86887700Y-112840689D02*
G01*
X86633700Y-112840689D01*
X86633700Y-112459689D01*
X86887700Y-112459689D01*
X86887700Y-112840689D01*
G37*
D12*
%TO.C,C35*%
X110608767Y-94790000D02*
X110316233Y-94790000D01*
X110608767Y-95810000D02*
X110316233Y-95810000D01*
%TO.C,R19*%
X75377500Y-96042224D02*
X75377500Y-95532776D01*
X76422500Y-96042224D02*
X76422500Y-95532776D01*
%TO.C,R9*%
X102367224Y-108127500D02*
X101857776Y-108127500D01*
X102367224Y-109172500D02*
X101857776Y-109172500D01*
D18*
%TO.C,Q1*%
X69795000Y-107738000D02*
X73825000Y-107738000D01*
X73825000Y-107738000D02*
X73825000Y-112798000D01*
X73825000Y-112798000D02*
X69705000Y-112798000D01*
X74686000Y-112935000D02*
G75*
G02*
X74432000Y-112935000I-127000J0D01*
G01*
X74432000Y-112935000D02*
G75*
G02*
X74686000Y-112935000I127000J0D01*
G01*
D12*
%TO.C,U3*%
X76390000Y-102490000D02*
X76390000Y-103540000D01*
X78710000Y-102490000D02*
X78710000Y-103790000D01*
X76390000Y-104180000D02*
X76110000Y-103900000D01*
X76390000Y-103900000D01*
X76390000Y-104180000D01*
G36*
X76390000Y-104180000D02*
G01*
X76110000Y-103900000D01*
X76390000Y-103900000D01*
X76390000Y-104180000D01*
G37*
%TO.C,C36*%
X98316233Y-87290000D02*
X98608767Y-87290000D01*
X98316233Y-88310000D02*
X98608767Y-88310000D01*
%TO.C,R10*%
X94845276Y-106677500D02*
X95354724Y-106677500D01*
X94845276Y-107722500D02*
X95354724Y-107722500D01*
%TO.C,C33*%
X82883767Y-84190000D02*
X82591233Y-84190000D01*
X82883767Y-85210000D02*
X82591233Y-85210000D01*
D15*
%TO.C,U6*%
X109023600Y-115621100D02*
X112376400Y-115621100D01*
X112376400Y-108178900D02*
X109023600Y-108178900D01*
D16*
X107800000Y-108300000D02*
G75*
G02*
X107600000Y-108300000I-100000J0D01*
G01*
X107600000Y-108300000D02*
G75*
G02*
X107800000Y-108300000I100000J0D01*
G01*
D17*
G36*
X107766300Y-113340815D02*
G01*
X107512300Y-113340815D01*
X107512300Y-112959815D01*
X107766300Y-112959815D01*
X107766300Y-113340815D01*
G37*
G36*
X113887700Y-112840689D02*
G01*
X113633700Y-112840689D01*
X113633700Y-112459689D01*
X113887700Y-112459689D01*
X113887700Y-112840689D01*
G37*
D12*
%TO.C,C16*%
X77890000Y-75741233D02*
X77890000Y-76033767D01*
X78910000Y-75741233D02*
X78910000Y-76033767D01*
%TO.C,L1*%
X82900000Y-96600000D02*
X78800000Y-96600000D01*
X82900000Y-100800000D02*
X78800000Y-100800000D01*
%TO.C,C24*%
X88570829Y-75207922D02*
X88777682Y-75001069D01*
X89292078Y-75929171D02*
X89498931Y-75722318D01*
%TO.C,R16*%
X107377500Y-106692224D02*
X107377500Y-106182776D01*
X108422500Y-106692224D02*
X108422500Y-106182776D01*
%TO.C,R15*%
X88132776Y-84902500D02*
X88642224Y-84902500D01*
X88132776Y-85947500D02*
X88642224Y-85947500D01*
%TO.C,C37*%
X94278766Y-95340000D02*
X93986232Y-95340000D01*
X94278766Y-96360000D02*
X93986232Y-96360000D01*
%TO.C,R4*%
X76277500Y-106632776D02*
X76277500Y-107142224D01*
X77322500Y-106632776D02*
X77322500Y-107142224D01*
%TO.C,R11*%
X92177500Y-108442224D02*
X92177500Y-107932776D01*
X93222500Y-108442224D02*
X93222500Y-107932776D01*
D15*
%TO.C,U4*%
X95452700Y-115570281D02*
X98805500Y-115570281D01*
X98805500Y-108128081D02*
X95452700Y-108128081D01*
D16*
X94229100Y-108249181D02*
G75*
G02*
X94029100Y-108249181I-100000J0D01*
G01*
X94029100Y-108249181D02*
G75*
G02*
X94229100Y-108249181I100000J0D01*
G01*
D17*
G36*
X94195400Y-113289996D02*
G01*
X93941400Y-113289996D01*
X93941400Y-112908996D01*
X94195400Y-112908996D01*
X94195400Y-113289996D01*
G37*
G36*
X100316800Y-112789870D02*
G01*
X100062800Y-112789870D01*
X100062800Y-112408870D01*
X100316800Y-112408870D01*
X100316800Y-112789870D01*
G37*
D12*
%TO.C,J4*%
X109190000Y-100970000D02*
X109190000Y-103630000D01*
X114330000Y-100970000D02*
X109190000Y-100970000D01*
X114330000Y-100970000D02*
X114330000Y-103630000D01*
X114330000Y-103630000D02*
X109190000Y-103630000D01*
X115600000Y-100970000D02*
X116930000Y-100970000D01*
X116930000Y-100970000D02*
X116930000Y-102300000D01*
%TO.C,R8*%
X73277500Y-103245276D02*
X73277500Y-103754724D01*
X74322500Y-103245276D02*
X74322500Y-103754724D01*
%TO.C,C21*%
X92626247Y-71490000D02*
X93148753Y-71490000D01*
X92626247Y-72960000D02*
X93148753Y-72960000D01*
%TO.C,U7*%
X90490000Y-76390000D02*
X90490000Y-76690000D01*
X90490000Y-83610000D02*
X90490000Y-83310000D01*
X90790000Y-76390000D02*
X90490000Y-76390000D01*
X90790000Y-83610000D02*
X90490000Y-83610000D01*
X97410000Y-76390000D02*
X97710000Y-76390000D01*
X97410000Y-83610000D02*
X97710000Y-83610000D01*
X97710000Y-76390000D02*
X97710000Y-76690000D01*
X97710000Y-83610000D02*
X97710000Y-83310000D01*
X98652500Y-83780000D02*
X97972500Y-83780000D01*
X98312500Y-83310000D01*
X98652500Y-83780000D01*
G36*
X98652500Y-83780000D02*
G01*
X97972500Y-83780000D01*
X98312500Y-83310000D01*
X98652500Y-83780000D01*
G37*
%TO.C,J1*%
X72910000Y-76740000D02*
X68550000Y-76740000D01*
X72910000Y-76740000D02*
X72910000Y-79240000D01*
X72910000Y-79240000D02*
X73110000Y-79240000D01*
X72910000Y-82760000D02*
X72910000Y-85260000D01*
X72910000Y-85260000D02*
X68550000Y-85260000D01*
X73110000Y-79900000D02*
X73110000Y-79240000D01*
%TO.C,C34*%
X83208767Y-93490000D02*
X82916233Y-93490000D01*
X83208767Y-94510000D02*
X82916233Y-94510000D01*
D18*
%TO.C,U8*%
X68498000Y-69222000D02*
X68649000Y-69222000D01*
X68498000Y-72778000D02*
X68498000Y-69222000D01*
X68649000Y-72778000D02*
X68498000Y-72778000D01*
X69871000Y-69222000D02*
X69919000Y-69222000D01*
X69919000Y-72778000D02*
X69871000Y-72778000D01*
X71141000Y-69222000D02*
X71189000Y-69222000D01*
X71189000Y-72778000D02*
X71141000Y-72778000D01*
X72411000Y-69222000D02*
X72459000Y-69222000D01*
X72459000Y-72778000D02*
X72411000Y-72778000D01*
X73681000Y-69222000D02*
X73729000Y-69222000D01*
X73729000Y-72778000D02*
X73681000Y-72778000D01*
X74951000Y-69222000D02*
X75102000Y-69222000D01*
X75102000Y-69222000D02*
X75102000Y-72778000D01*
X75102000Y-72778000D02*
X74951000Y-72778000D01*
X75229000Y-68714000D02*
G75*
G02*
X74975000Y-68714000I-127000J0D01*
G01*
X74975000Y-68714000D02*
G75*
G02*
X75229000Y-68714000I127000J0D01*
G01*
D12*
%TO.C,U5*%
X81337500Y-74240000D02*
X80537500Y-74240000D01*
X81337500Y-74240000D02*
X82137500Y-74240000D01*
X81337500Y-77360000D02*
X80537500Y-77360000D01*
X81337500Y-77360000D02*
X82137500Y-77360000D01*
X80037500Y-74290000D02*
X79797500Y-73960000D01*
X80277500Y-73960000D01*
X80037500Y-74290000D01*
G36*
X80037500Y-74290000D02*
G01*
X79797500Y-73960000D01*
X80277500Y-73960000D01*
X80037500Y-74290000D01*
G37*
%TO.C,C25*%
X101216233Y-79490000D02*
X101508767Y-79490000D01*
X101216233Y-80510000D02*
X101508767Y-80510000D01*
%TO.C,R12*%
X103677500Y-83282776D02*
X103677500Y-83792224D01*
X104722500Y-83282776D02*
X104722500Y-83792224D01*
%TO.C,R5*%
X90577500Y-108692224D02*
X90577500Y-108182776D01*
X91622500Y-108692224D02*
X91622500Y-108182776D01*
%TO.C,J3*%
X114270000Y-83270000D02*
X114270000Y-75590000D01*
X116930000Y-75590000D02*
X114270000Y-75590000D01*
X116930000Y-83270000D02*
X114270000Y-83270000D01*
X116930000Y-83270000D02*
X116930000Y-75590000D01*
X116930000Y-84540000D02*
X116930000Y-85870000D01*
X116930000Y-85870000D02*
X115600000Y-85870000D01*
D13*
%TO.C,U14*%
X91469000Y-88451000D02*
X96521000Y-88451000D01*
X91469000Y-91494000D02*
X91469000Y-88451000D01*
X96521000Y-88451000D02*
X96521000Y-91494000D01*
X96521000Y-91494000D02*
X91469000Y-91494000D01*
D14*
X96050000Y-89203500D02*
G75*
G02*
X95750000Y-89203500I-150000J0D01*
G01*
X95750000Y-89203500D02*
G75*
G02*
X96050000Y-89203500I150000J0D01*
G01*
X96796500Y-87200000D02*
G75*
G02*
X96496500Y-87200000I-150000J0D01*
G01*
X96496500Y-87200000D02*
G75*
G02*
X96796500Y-87200000I150000J0D01*
G01*
D13*
%TO.C,U12*%
X74079000Y-87814000D02*
X84131000Y-87814000D01*
X74079000Y-90857000D02*
X74079000Y-87814000D01*
X84131000Y-87814000D02*
X84131000Y-90857000D01*
X84131000Y-90857000D02*
X74079000Y-90857000D01*
D14*
X83700000Y-88566500D02*
G75*
G02*
X83400000Y-88566500I-150000J0D01*
G01*
X83400000Y-88566500D02*
G75*
G02*
X83700000Y-88566500I150000J0D01*
G01*
X84453000Y-86600000D02*
G75*
G02*
X84153000Y-86600000I-150000J0D01*
G01*
X84153000Y-86600000D02*
G75*
G02*
X84453000Y-86600000I150000J0D01*
G01*
D12*
%TO.C,C12*%
X85890000Y-101341233D02*
X85890000Y-101633767D01*
X86910000Y-101341233D02*
X86910000Y-101633767D01*
%TO.C,R18*%
X114977500Y-106792224D02*
X114977500Y-106282776D01*
X116022500Y-106792224D02*
X116022500Y-106282776D01*
%TO.C,C5*%
X79476248Y-106315000D02*
X79998752Y-106315000D01*
X79476248Y-107785000D02*
X79998752Y-107785000D01*
%TO.C,C6*%
X79391233Y-104740000D02*
X79683767Y-104740000D01*
X79391233Y-105760000D02*
X79683767Y-105760000D01*
%TO.C,C10*%
X75990000Y-100208767D02*
X75990000Y-99916233D01*
X77010000Y-100208767D02*
X77010000Y-99916233D01*
%TO.C,J6*%
X109170000Y-97370000D02*
X109170000Y-100030000D01*
X114310000Y-97370000D02*
X109170000Y-97370000D01*
X114310000Y-97370000D02*
X114310000Y-100030000D01*
X114310000Y-100030000D02*
X109170000Y-100030000D01*
X115580000Y-97370000D02*
X116910000Y-97370000D01*
X116910000Y-97370000D02*
X116910000Y-98700000D01*
%TO.C,J5*%
X109870000Y-80580000D02*
X109870000Y-77980000D01*
X112530000Y-77980000D02*
X109870000Y-77980000D01*
X112530000Y-80580000D02*
X109870000Y-80580000D01*
X112530000Y-80580000D02*
X112530000Y-77980000D01*
X112530000Y-81850000D02*
X112530000Y-83180000D01*
X112530000Y-83180000D02*
X111200000Y-83180000D01*
%TO.C,R13*%
X103977500Y-108592224D02*
X103977500Y-108082776D01*
X105022500Y-108592224D02*
X105022500Y-108082776D01*
%TO.C,C32*%
X110708767Y-84890000D02*
X110416233Y-84890000D01*
X110708767Y-85910000D02*
X110416233Y-85910000D01*
%TO.C,R20*%
X101907776Y-95327500D02*
X102417224Y-95327500D01*
X101907776Y-96372500D02*
X102417224Y-96372500D01*
%TO.C,C27*%
X92641232Y-73465000D02*
X92933766Y-73465000D01*
X92641232Y-74485000D02*
X92933766Y-74485000D01*
%TO.C,R7*%
X74777500Y-103754724D02*
X74777500Y-103245276D01*
X75822500Y-103754724D02*
X75822500Y-103245276D01*
%TO.C,R17*%
X105527500Y-108542224D02*
X105527500Y-108032776D01*
X106572500Y-108542224D02*
X106572500Y-108032776D01*
%TO.C,C8*%
X74490000Y-100133767D02*
X74490000Y-99841233D01*
X75510000Y-100133767D02*
X75510000Y-99841233D01*
%TO.C,D1*%
X105240000Y-81890000D02*
X105240000Y-84350000D01*
X106710000Y-81890000D02*
X105240000Y-81890000D01*
X106710000Y-84350000D02*
X106710000Y-81890000D01*
%TO.C,C18*%
X85016233Y-74490000D02*
X85308767Y-74490000D01*
X85016233Y-75510000D02*
X85308767Y-75510000D01*
%TO.C,C11*%
X84390000Y-101366233D02*
X84390000Y-101658767D01*
X85410000Y-101366233D02*
X85410000Y-101658767D01*
D18*
%TO.C,U2*%
X74101000Y-79976500D02*
X74101000Y-81373500D01*
X75244000Y-79786000D02*
X76006000Y-79786000D01*
X77022000Y-80252500D02*
X77022000Y-81097500D01*
D14*
X74815000Y-82685000D02*
G75*
G02*
X74515000Y-82685000I-150000J0D01*
G01*
X74515000Y-82685000D02*
G75*
G02*
X74815000Y-82685000I150000J0D01*
G01*
D12*
%TO.C,R6*%
X107477500Y-77607776D02*
X107477500Y-78117224D01*
X108522500Y-77607776D02*
X108522500Y-78117224D01*
%TD*%
M02*
