%TF.GenerationSoftware,KiCad,Pcbnew,9.0.6*%
%TF.CreationDate,2025-11-11T12:39:31+02:00*%
%TF.ProjectId,picr_1_9tdi,70696372-5f31-45f3-9974-64692e6b6963,1*%
%TF.SameCoordinates,Original*%
%TF.FileFunction,Soldermask,Bot*%
%TF.FilePolarity,Negative*%
%FSLAX46Y46*%
G04 Gerber Fmt 4.6, Leading zero omitted, Abs format (unit mm)*
G04 Created by KiCad (PCBNEW 9.0.6) date 2025-11-11 12:39:31*
%MOMM*%
%LPD*%
G01*
G04 APERTURE LIST*
G04 Aperture macros list*
%AMRoundRect*
0 Rectangle with rounded corners*
0 $1 Rounding radius*
0 $2 $3 $4 $5 $6 $7 $8 $9 X,Y pos of 4 corners*
0 Add a 4 corners polygon primitive as box body*
4,1,4,$2,$3,$4,$5,$6,$7,$8,$9,$2,$3,0*
0 Add four circle primitives for the rounded corners*
1,1,$1+$1,$2,$3*
1,1,$1+$1,$4,$5*
1,1,$1+$1,$6,$7*
1,1,$1+$1,$8,$9*
0 Add four rect primitives between the rounded corners*
20,1,$1+$1,$2,$3,$4,$5,0*
20,1,$1+$1,$4,$5,$6,$7,0*
20,1,$1+$1,$6,$7,$8,$9,0*
20,1,$1+$1,$8,$9,$2,$3,0*%
G04 Aperture macros list end*
%ADD10C,1.500000*%
%ADD11R,1.300000X1.300000*%
%ADD12C,1.300000*%
%ADD13R,1.700000X1.700000*%
%ADD14O,1.700000X1.700000*%
%ADD15O,1.600000X0.900000*%
%ADD16RoundRect,0.250000X-0.475000X0.337500X-0.475000X-0.337500X0.475000X-0.337500X0.475000X0.337500X0*%
%ADD17RoundRect,0.237500X-0.237500X0.300000X-0.237500X-0.300000X0.237500X-0.300000X0.237500X0.300000X0*%
%ADD18RoundRect,0.237500X0.237500X-0.250000X0.237500X0.250000X-0.237500X0.250000X-0.237500X-0.250000X0*%
%ADD19RoundRect,0.237500X-0.250000X-0.237500X0.250000X-0.237500X0.250000X0.237500X-0.250000X0.237500X0*%
G04 APERTURE END LIST*
D10*
%TO.C,U11*%
X116775000Y-71100000D03*
D11*
X115375000Y-69300000D03*
D12*
X114105000Y-71840000D03*
X112835000Y-69300000D03*
X111565000Y-71840000D03*
%TD*%
D10*
%TO.C,U9*%
X103855000Y-70980000D03*
D11*
X102455000Y-69180000D03*
D12*
X101185000Y-71720000D03*
X99915000Y-69180000D03*
X98645000Y-71720000D03*
%TD*%
D10*
%TO.C,U15*%
X71600000Y-94410000D03*
D11*
X69800000Y-95810000D03*
D12*
X72340000Y-97080000D03*
X69800000Y-98350000D03*
X72340000Y-99620000D03*
%TD*%
D13*
%TO.C,J4*%
X115600000Y-102300000D03*
D14*
X113060000Y-102300000D03*
X110520000Y-102300000D03*
%TD*%
D15*
%TO.C,J1*%
X69500000Y-77700000D03*
X69500000Y-84300000D03*
%TD*%
D13*
%TO.C,J3*%
X115600000Y-84540000D03*
D14*
X115600000Y-82000000D03*
X115600000Y-79460000D03*
X115600000Y-76920000D03*
%TD*%
D13*
%TO.C,J6*%
X115580000Y-98700000D03*
D14*
X113040000Y-98700000D03*
X110500000Y-98700000D03*
%TD*%
D10*
%TO.C,U10*%
X89245000Y-70835000D03*
D11*
X87845000Y-69035000D03*
D12*
X86575000Y-71575000D03*
X85305000Y-69035000D03*
X84035000Y-71575000D03*
%TD*%
D13*
%TO.C,J5*%
X111200000Y-81850000D03*
D14*
X111200000Y-79310000D03*
%TD*%
D16*
%TO.C,C2*%
X89800000Y-112662500D03*
X89800000Y-114737500D03*
%TD*%
%TO.C,C15*%
X103100000Y-112762500D03*
X103100000Y-114837500D03*
%TD*%
%TO.C,C4*%
X78100000Y-112937500D03*
X78100000Y-115012500D03*
%TD*%
%TO.C,C29*%
X116500000Y-112862500D03*
X116500000Y-114937500D03*
%TD*%
%TO.C,C23*%
X105100000Y-112762500D03*
X105100000Y-114837500D03*
%TD*%
D17*
%TO.C,C20*%
X101300000Y-113162500D03*
X101300000Y-114887500D03*
%TD*%
D16*
%TO.C,C17*%
X99500000Y-112725000D03*
X99500000Y-114800000D03*
%TD*%
D17*
%TO.C,C30*%
X114737500Y-113275000D03*
X114737500Y-115000000D03*
%TD*%
D16*
%TO.C,C13*%
X95500000Y-112662500D03*
X95500000Y-114737500D03*
%TD*%
D17*
%TO.C,C9*%
X88000000Y-113062500D03*
X88000000Y-114787500D03*
%TD*%
D16*
%TO.C,C14*%
X91900000Y-112662500D03*
X91900000Y-114737500D03*
%TD*%
D17*
%TO.C,C31*%
X106900000Y-113137500D03*
X106900000Y-114862500D03*
%TD*%
D16*
%TO.C,C1*%
X86200000Y-112662500D03*
X86200000Y-114737500D03*
%TD*%
D17*
%TO.C,C19*%
X93700000Y-113062500D03*
X93700000Y-114787500D03*
%TD*%
D16*
%TO.C,C3*%
X81700000Y-112937500D03*
X81700000Y-115012500D03*
%TD*%
D17*
%TO.C,C7*%
X79900000Y-113037500D03*
X79900000Y-114762500D03*
%TD*%
D16*
%TO.C,C28*%
X113000000Y-112862500D03*
X113000000Y-114937500D03*
%TD*%
%TO.C,C26*%
X108700000Y-112737500D03*
X108700000Y-114812500D03*
%TD*%
D18*
%TO.C,R2*%
X80550000Y-107250000D03*
X80550000Y-105425000D03*
%TD*%
D19*
%TO.C,R3*%
X86100000Y-109900000D03*
X87925000Y-109900000D03*
%TD*%
M02*
