%TF.GenerationSoftware,KiCad,Pcbnew,9.0.5-9.0.5~ubuntu24.04.1*%
%TF.CreationDate,2025-11-11T07:58:39+02:00*%
%TF.ProjectId,picr_1_9tdi,70696372-5f31-45f3-9974-64692e6b6963,1*%
%TF.SameCoordinates,Original*%
%TF.FileFunction,Copper,L3,Inr*%
%TF.FilePolarity,Positive*%
%FSLAX46Y46*%
G04 Gerber Fmt 4.6, Leading zero omitted, Abs format (unit mm)*
G04 Created by KiCad (PCBNEW 9.0.5-9.0.5~ubuntu24.04.1) date 2025-11-11 07:58:39*
%MOMM*%
%LPD*%
G01*
G04 APERTURE LIST*
%TA.AperFunction,ComponentPad*%
%ADD10R,1.300000X1.300000*%
%TD*%
%TA.AperFunction,ComponentPad*%
%ADD11C,1.300000*%
%TD*%
%TA.AperFunction,ComponentPad*%
%ADD12R,1.700000X1.700000*%
%TD*%
%TA.AperFunction,ComponentPad*%
%ADD13O,1.700000X1.700000*%
%TD*%
%TA.AperFunction,HeatsinkPad*%
%ADD14O,1.600000X0.900000*%
%TD*%
%TA.AperFunction,ViaPad*%
%ADD15C,0.600000*%
%TD*%
%TA.AperFunction,ViaPad*%
%ADD16C,0.400000*%
%TD*%
%TA.AperFunction,ViaPad*%
%ADD17C,0.800000*%
%TD*%
G04 APERTURE END LIST*
D10*
%TO.N,GND_MCU*%
%TO.C,U11*%
X115375000Y-69300000D03*
D11*
%TO.N,+3.3V*%
X114105000Y-71840000D03*
%TO.N,/E_M3_A*%
X112835000Y-69300000D03*
%TO.N,/E_M3_B*%
X111565000Y-71840000D03*
%TD*%
D10*
%TO.N,GND_MCU*%
%TO.C,U9*%
X102455000Y-69180000D03*
D11*
%TO.N,+3.3V*%
X101185000Y-71720000D03*
%TO.N,/E_M1_A*%
X99915000Y-69180000D03*
%TO.N,/E_M1_B*%
X98645000Y-71720000D03*
%TD*%
D10*
%TO.N,GND_MOT*%
%TO.C,U15*%
X69800000Y-95810000D03*
D11*
%TO.N,/PWM_TH_O*%
X72340000Y-97080000D03*
%TO.N,unconnected-(U15-Pad3)*%
X69800000Y-98350000D03*
%TO.N,unconnected-(U15-Pad4)*%
X72340000Y-99620000D03*
%TD*%
D12*
%TO.N,/PWM_GRB_O*%
%TO.C,J4*%
X115600000Y-102300000D03*
D13*
%TO.N,/5V_MOT*%
X113060000Y-102300000D03*
%TO.N,GND_MOT*%
X110520000Y-102300000D03*
%TD*%
D14*
%TO.N,GND_MCU*%
%TO.C,J1*%
X69500000Y-77700000D03*
X69500000Y-84300000D03*
%TD*%
D12*
%TO.N,/GLo*%
%TO.C,J3*%
X115600000Y-84540000D03*
D13*
%TO.N,GND_MCU*%
X115600000Y-82000000D03*
%TO.N,/IR_RX*%
X115600000Y-79460000D03*
%TO.N,+3.3V*%
X115600000Y-76920000D03*
%TD*%
D12*
%TO.N,/PWM_ANG_O*%
%TO.C,J6*%
X115580000Y-98700000D03*
D13*
%TO.N,/5V_MOT*%
X113040000Y-98700000D03*
%TO.N,GND_MOT*%
X110500000Y-98700000D03*
%TD*%
D10*
%TO.N,GND_MCU*%
%TO.C,U10*%
X87845000Y-69035000D03*
D11*
%TO.N,+3.3V*%
X86575000Y-71575000D03*
%TO.N,/E_M2_A*%
X85305000Y-69035000D03*
%TO.N,/E_M2_B*%
X84035000Y-71575000D03*
%TD*%
D12*
%TO.N,/GLo*%
%TO.C,J5*%
X111200000Y-81850000D03*
D13*
%TO.N,/IR_TX*%
X111200000Y-79310000D03*
%TD*%
D15*
%TO.N,GND_MOT*%
X79200000Y-94800000D03*
D16*
X110700000Y-109600000D03*
D15*
X97200000Y-115600000D03*
X105600000Y-98800000D03*
X82410000Y-102680000D03*
D16*
X110200000Y-110100000D03*
D15*
X94400000Y-116300000D03*
X71100000Y-115650000D03*
X100000000Y-116300000D03*
D16*
X111200000Y-110100000D03*
D15*
X96500000Y-114900000D03*
X75050000Y-115650000D03*
X109900000Y-116300000D03*
X103080000Y-107640000D03*
X85650000Y-103710000D03*
X87600000Y-103000000D03*
X83090000Y-102700000D03*
X82200000Y-94100000D03*
X81040000Y-102650000D03*
D16*
X96600000Y-109100000D03*
D15*
X69300000Y-114400000D03*
X82350000Y-105100000D03*
X107800000Y-116300000D03*
X74525000Y-107575000D03*
X109050000Y-105550000D03*
X70200000Y-115650000D03*
X101425000Y-93171000D03*
X96800000Y-100900000D03*
D16*
X97600000Y-110100000D03*
D15*
X69300000Y-115650000D03*
X84400000Y-116300000D03*
D16*
X97100000Y-109100000D03*
D15*
X80360000Y-101890000D03*
D16*
X83200000Y-110000000D03*
D15*
X68400000Y-95800000D03*
D16*
X83700000Y-110000000D03*
D15*
X111300000Y-115600000D03*
X79200000Y-103400000D03*
X73730735Y-105479265D03*
X79870000Y-108490000D03*
D16*
X97600000Y-109600000D03*
D15*
X98225000Y-96325000D03*
X83100000Y-101930000D03*
X82000000Y-106200000D03*
X89490000Y-107600000D03*
X97900000Y-115600000D03*
D16*
X110700000Y-110100000D03*
D15*
X97900000Y-114900000D03*
X109900000Y-115600000D03*
X91090000Y-106450000D03*
X89560000Y-100660000D03*
X83700000Y-116300000D03*
X92080000Y-103500000D03*
X74660000Y-96390000D03*
X111300000Y-116300000D03*
D16*
X83700000Y-110500000D03*
D15*
X80350000Y-102640000D03*
X97130000Y-107220000D03*
X83000000Y-114900000D03*
X110600000Y-114900000D03*
X99510000Y-102680000D03*
X75050000Y-99150000D03*
X88680000Y-92240000D03*
X75100000Y-114550000D03*
X98600000Y-98700000D03*
X70200000Y-114400000D03*
X108600000Y-98750000D03*
X80900000Y-116300000D03*
D16*
X83200000Y-110500000D03*
D15*
X95800000Y-116300000D03*
X109200000Y-116300000D03*
X81720000Y-102670000D03*
D16*
X110200000Y-109100000D03*
D15*
X96500000Y-116300000D03*
D16*
X110200000Y-109600000D03*
X97600000Y-109100000D03*
D15*
X81700000Y-104800000D03*
X97200000Y-114900000D03*
D16*
X111200000Y-109600000D03*
D15*
X98600000Y-116300000D03*
X83000000Y-115600000D03*
X102330000Y-102720000D03*
X87450000Y-92230000D03*
X99300000Y-116300000D03*
X115500000Y-100400000D03*
X85100000Y-116300000D03*
X86600000Y-108000000D03*
X110600000Y-116300000D03*
X83790000Y-102690000D03*
X84400000Y-107500000D03*
X109900000Y-114900000D03*
X109012500Y-95887500D03*
X85875000Y-108000000D03*
X81700000Y-105450000D03*
X85800000Y-116300000D03*
X93000000Y-97700000D03*
X110600000Y-115600000D03*
X71100000Y-114400000D03*
X83700000Y-115600000D03*
X72000000Y-115650000D03*
D16*
X96600000Y-109600000D03*
X110700000Y-109100000D03*
D15*
X97900000Y-116300000D03*
X108500000Y-116300000D03*
D16*
X96600000Y-110100000D03*
X97100000Y-109600000D03*
D15*
X90600000Y-97300000D03*
X97200000Y-116300000D03*
X81050000Y-101910000D03*
X102730000Y-98990000D03*
X84880000Y-103720000D03*
X81600000Y-116300000D03*
X96500000Y-115600000D03*
X104500000Y-106180000D03*
X70060000Y-101150000D03*
D16*
X97100000Y-110100000D03*
D15*
X115500000Y-104500000D03*
X82650000Y-106550000D03*
X112620000Y-105600000D03*
X86440000Y-103700000D03*
X98200000Y-93600000D03*
X116350000Y-96750000D03*
D16*
X84200000Y-109500000D03*
D15*
X82300000Y-116300000D03*
D16*
X111200000Y-109100000D03*
D15*
X115100000Y-96750000D03*
X113950000Y-96750000D03*
X113400000Y-116300000D03*
X94050000Y-102950000D03*
X82410000Y-101930000D03*
X82000000Y-106850000D03*
X86500000Y-116300000D03*
X79800000Y-103700000D03*
X84400000Y-114900000D03*
X92700000Y-106220000D03*
X72000000Y-114400000D03*
D16*
X83700000Y-109500000D03*
X84200000Y-110500000D03*
D15*
X93600000Y-100400000D03*
X75890000Y-107780000D03*
D16*
X83200000Y-109500000D03*
D15*
X83770000Y-101950000D03*
X100730000Y-106060000D03*
X87230000Y-103670000D03*
X79200000Y-104000000D03*
X108700000Y-102350000D03*
X111300000Y-114900000D03*
X95100000Y-116300000D03*
X83000000Y-116300000D03*
X74660000Y-93540000D03*
X87600000Y-102100000D03*
X81730000Y-101920000D03*
D16*
X84200000Y-110000000D03*
D15*
X92500000Y-96500000D03*
X112000000Y-116300000D03*
X83700000Y-114900000D03*
X85325000Y-92200000D03*
X112700000Y-116300000D03*
X84400000Y-115600000D03*
%TO.N,/VBAT*%
X92700000Y-111600000D03*
X77625000Y-109425000D03*
X87075000Y-111550000D03*
X115300000Y-111600000D03*
X75600000Y-110800000D03*
X100600000Y-111600000D03*
X80400000Y-111800000D03*
X105000000Y-111600000D03*
X76600000Y-109400000D03*
X101750000Y-111575000D03*
X107300000Y-111600000D03*
X78100000Y-111800000D03*
X76600000Y-110800000D03*
X93800000Y-111600000D03*
X75600000Y-112300000D03*
X102825000Y-111575000D03*
X91500000Y-111600000D03*
X116400000Y-111600000D03*
X88275000Y-111550000D03*
X89450000Y-111550000D03*
X75600000Y-109400000D03*
X114100000Y-111600000D03*
X106200000Y-111600000D03*
X77625000Y-110475000D03*
X79300000Y-111800000D03*
X76600000Y-112300000D03*
%TO.N,GND_MCU*%
X85000000Y-87100000D03*
X73070000Y-70790000D03*
X98480240Y-85119760D03*
X100850000Y-84950000D03*
X73300000Y-82300000D03*
X74660000Y-85200000D03*
X103840000Y-80490000D03*
X73475000Y-77700000D03*
X113350000Y-78100000D03*
X109770000Y-75170000D03*
X88330000Y-82740000D03*
X79850000Y-70600000D03*
X82540000Y-78170000D03*
X75640000Y-82630000D03*
X108810000Y-79950000D03*
X87300000Y-74000000D03*
X109550000Y-71200000D03*
X73200000Y-84200000D03*
X91800000Y-77200000D03*
X78400000Y-76750000D03*
X108810000Y-82100000D03*
X95275000Y-69300000D03*
X113850000Y-74400000D03*
X102020000Y-86210000D03*
X89674265Y-74825735D03*
X70950000Y-79900000D03*
X76150000Y-75570000D03*
X96918425Y-85502377D03*
X117350000Y-85400000D03*
X96500000Y-77850000D03*
X98900000Y-74750000D03*
X71000000Y-82300000D03*
X117350000Y-80150000D03*
X70775000Y-77700000D03*
X70725000Y-84275000D03*
X87800000Y-72500000D03*
X81875000Y-84700000D03*
X99750000Y-78800000D03*
X98940000Y-70430000D03*
X109700000Y-84350000D03*
X91900000Y-78700000D03*
X105975000Y-82675000D03*
X113400000Y-81350000D03*
X86500000Y-85425000D03*
X116981568Y-69294576D03*
X91300000Y-87200000D03*
X82370000Y-81670000D03*
X78300000Y-69100000D03*
X100250000Y-87800000D03*
X117350000Y-82000000D03*
X110700000Y-68250000D03*
X94600000Y-73900000D03*
X93000000Y-81400000D03*
X102230000Y-78990000D03*
X69280000Y-70700000D03*
X89550000Y-69000000D03*
X71810000Y-70710000D03*
X82890000Y-75760000D03*
X95000000Y-72250000D03*
X102070000Y-82600000D03*
X117000000Y-74400000D03*
X104150000Y-69150000D03*
X105400000Y-76200000D03*
D17*
%TO.N,/5V_MOT*%
X85100000Y-97000000D03*
D15*
X75550000Y-105400000D03*
X75700000Y-97540000D03*
D17*
X85000000Y-99150000D03*
D15*
%TO.N,+3.3V*%
X84375000Y-77400000D03*
X99700000Y-86425000D03*
X84700000Y-84380000D03*
X112850000Y-85470000D03*
%TO.N,/NRST*%
X69000000Y-74510000D03*
X96362528Y-80388943D03*
%TO.N,/IR_RX*%
X102200000Y-81225000D03*
%TO.N,/PWM_GRB_O*%
X93360000Y-94120000D03*
%TO.N,/PWM_ANG_O*%
X94630000Y-94250000D03*
%TO.N,Net-(U1-SR)*%
X82300000Y-107600000D03*
%TO.N,Net-(U1-DRVOFF)*%
X79677200Y-110384579D03*
%TO.N,Net-(U7-PB8)*%
X96125000Y-85400000D03*
X90310000Y-85425000D03*
%TO.N,/PWM_M1_O*%
X77987851Y-94014579D03*
X79885421Y-109612149D03*
%TO.N,/M1_DIR_O*%
X108300000Y-95200000D03*
X80500000Y-109100000D03*
X101000000Y-98900000D03*
X91700000Y-105200000D03*
%TO.N,/M_NSLEEP_O*%
X104300000Y-102700000D03*
X90796979Y-110335723D03*
X104540000Y-96800000D03*
X104500000Y-98800000D03*
X105300000Y-110208038D03*
X115000000Y-110150000D03*
X101200000Y-110250000D03*
%TO.N,/PWM_M2_O*%
X93800000Y-109999685D03*
X79900707Y-93500706D03*
%TO.N,/M2_DIR_O*%
X99634313Y-98934313D03*
X95240000Y-103328626D03*
X93931587Y-109210579D03*
X106700000Y-94600000D03*
%TO.N,/M3_DIR_O*%
X107100000Y-101900000D03*
X107400000Y-108900000D03*
X106250000Y-96650000D03*
X106500000Y-99700000D03*
%TO.N,/PWM_M3_O*%
X107300000Y-109999685D03*
X78609659Y-93511232D03*
%TO.N,/E_M3_A*%
X94475000Y-82700000D03*
%TO.N,/PWM_M3_I*%
X78470000Y-85210000D03*
X79900000Y-79600000D03*
%TO.N,/SWCLK*%
X73400000Y-74580000D03*
X91175000Y-82800000D03*
%TO.N,/E_M1_A*%
X97060000Y-79625000D03*
%TO.N,/MCU_LED*%
X103050000Y-82825000D03*
X92225000Y-82990000D03*
%TO.N,/E_M2_A*%
X95300000Y-74650000D03*
%TO.N,/E_M3_B*%
X95411765Y-82561765D03*
%TO.N,/PWM_M2_I*%
X82048846Y-78801484D03*
X79720000Y-85180000D03*
%TO.N,/M3_DIR_I*%
X106000000Y-86250000D03*
X107680000Y-85350000D03*
%TO.N,/SWDIO*%
X75150000Y-72960000D03*
X91435636Y-82043645D03*
%TO.N,/M1_DIR_I*%
X108800000Y-84100000D03*
X106113235Y-81411765D03*
%TO.N,/PWM_M1_I*%
X80908883Y-85263162D03*
X83625000Y-78010000D03*
%TO.N,/E_M2_B*%
X96900000Y-74650000D03*
%TO.N,/M_NSLEEP_I*%
X100050000Y-82450000D03*
X96300000Y-82562765D03*
%TO.N,/E_M1_B*%
X96960000Y-78800000D03*
%TO.N,/PWM_TH_O*%
X77250000Y-93414579D03*
%TD*%
%TA.AperFunction,Conductor*%
%TO.N,GND_MOT*%
G36*
X111900000Y-104200000D02*
G01*
X108700000Y-104200000D01*
X108700000Y-97300000D01*
X111900000Y-97300000D01*
X111900000Y-104200000D01*
G37*
%TD.AperFunction*%
%TD*%
%TA.AperFunction,Conductor*%
%TO.N,GND_MOT*%
G36*
X84407112Y-91045674D02*
G01*
X84421657Y-91080241D01*
X84421658Y-91080667D01*
X84419269Y-91852087D01*
X84419270Y-91852087D01*
X84419270Y-91852088D01*
X90969886Y-91857838D01*
X90969886Y-91857837D01*
X90987447Y-91857853D01*
X90991519Y-91856175D01*
X96986240Y-91838342D01*
X96993106Y-91838805D01*
X100546754Y-92331240D01*
X100546760Y-92331239D01*
X100546761Y-92331240D01*
X102144228Y-92309256D01*
X111887139Y-92175179D01*
X111921980Y-92189052D01*
X111936807Y-92223500D01*
X111936812Y-92224174D01*
X111936812Y-96222236D01*
X117650096Y-96175018D01*
X117684861Y-96189083D01*
X117699498Y-96223611D01*
X117699500Y-96224016D01*
X117699500Y-117050500D01*
X117685148Y-117085148D01*
X117650500Y-117099500D01*
X68149500Y-117099500D01*
X68114852Y-117085148D01*
X68100500Y-117050500D01*
X68100500Y-112234104D01*
X75099500Y-112234104D01*
X75099500Y-112365895D01*
X75133607Y-112493184D01*
X75133608Y-112493188D01*
X75199500Y-112607314D01*
X75292686Y-112700500D01*
X75334457Y-112724617D01*
X75406811Y-112766391D01*
X75406813Y-112766391D01*
X75406814Y-112766392D01*
X75507207Y-112793292D01*
X75534104Y-112800499D01*
X75534105Y-112800500D01*
X75534108Y-112800500D01*
X75665895Y-112800500D01*
X75665895Y-112800499D01*
X75793186Y-112766392D01*
X75907314Y-112700500D01*
X76000500Y-112607314D01*
X76057565Y-112508475D01*
X76087318Y-112485645D01*
X76124500Y-112490540D01*
X76142435Y-112508475D01*
X76199500Y-112607314D01*
X76292686Y-112700500D01*
X76334457Y-112724617D01*
X76406811Y-112766391D01*
X76406813Y-112766391D01*
X76406814Y-112766392D01*
X76507207Y-112793292D01*
X76534104Y-112800499D01*
X76534105Y-112800500D01*
X76534108Y-112800500D01*
X76665895Y-112800500D01*
X76665895Y-112800499D01*
X76793186Y-112766392D01*
X76907314Y-112700500D01*
X77000500Y-112607314D01*
X77066392Y-112493186D01*
X77100499Y-112365895D01*
X77100500Y-112365895D01*
X77100500Y-112234105D01*
X77100499Y-112234104D01*
X77068412Y-112114354D01*
X77066392Y-112106814D01*
X77066391Y-112106813D01*
X77066391Y-112106811D01*
X77005011Y-112000499D01*
X77000500Y-111992686D01*
X76907314Y-111899500D01*
X76877549Y-111882315D01*
X76793188Y-111833608D01*
X76793184Y-111833607D01*
X76665895Y-111799500D01*
X76665892Y-111799500D01*
X76534108Y-111799500D01*
X76534105Y-111799500D01*
X76406815Y-111833607D01*
X76406811Y-111833608D01*
X76292685Y-111899500D01*
X76292685Y-111899501D01*
X76199501Y-111992685D01*
X76199500Y-111992685D01*
X76142435Y-112091524D01*
X76112682Y-112114354D01*
X76075500Y-112109459D01*
X76057565Y-112091524D01*
X76005011Y-112000499D01*
X76000500Y-111992686D01*
X75907314Y-111899500D01*
X75877549Y-111882315D01*
X75793188Y-111833608D01*
X75793184Y-111833607D01*
X75665895Y-111799500D01*
X75665892Y-111799500D01*
X75534108Y-111799500D01*
X75534105Y-111799500D01*
X75406815Y-111833607D01*
X75406811Y-111833608D01*
X75292685Y-111899500D01*
X75292685Y-111899501D01*
X75199501Y-111992685D01*
X75199500Y-111992685D01*
X75133608Y-112106811D01*
X75133607Y-112106815D01*
X75099500Y-112234104D01*
X68100500Y-112234104D01*
X68100500Y-111734104D01*
X77599500Y-111734104D01*
X77599500Y-111865895D01*
X77633607Y-111993184D01*
X77633608Y-111993188D01*
X77695565Y-112100499D01*
X77699500Y-112107314D01*
X77792686Y-112200500D01*
X77834457Y-112224617D01*
X77906811Y-112266391D01*
X77906813Y-112266391D01*
X77906814Y-112266392D01*
X78007207Y-112293292D01*
X78034104Y-112300499D01*
X78034105Y-112300500D01*
X78034108Y-112300500D01*
X78165895Y-112300500D01*
X78165895Y-112300499D01*
X78293186Y-112266392D01*
X78407314Y-112200500D01*
X78500500Y-112107314D01*
X78566392Y-111993186D01*
X78600499Y-111865895D01*
X78600500Y-111865895D01*
X78600500Y-111734105D01*
X78600499Y-111734104D01*
X78799500Y-111734104D01*
X78799500Y-111865895D01*
X78833607Y-111993184D01*
X78833608Y-111993188D01*
X78895565Y-112100499D01*
X78899500Y-112107314D01*
X78992686Y-112200500D01*
X79034457Y-112224617D01*
X79106811Y-112266391D01*
X79106813Y-112266391D01*
X79106814Y-112266392D01*
X79207207Y-112293292D01*
X79234104Y-112300499D01*
X79234105Y-112300500D01*
X79234108Y-112300500D01*
X79365895Y-112300500D01*
X79365895Y-112300499D01*
X79493186Y-112266392D01*
X79607314Y-112200500D01*
X79700500Y-112107314D01*
X79766392Y-111993186D01*
X79800499Y-111865895D01*
X79800500Y-111865895D01*
X79800500Y-111734105D01*
X79800499Y-111734104D01*
X79899500Y-111734104D01*
X79899500Y-111865895D01*
X79933607Y-111993184D01*
X79933608Y-111993188D01*
X79995565Y-112100499D01*
X79999500Y-112107314D01*
X80092686Y-112200500D01*
X80134457Y-112224617D01*
X80206811Y-112266391D01*
X80206813Y-112266391D01*
X80206814Y-112266392D01*
X80307207Y-112293292D01*
X80334104Y-112300499D01*
X80334105Y-112300500D01*
X80334108Y-112300500D01*
X80465895Y-112300500D01*
X80465895Y-112300499D01*
X80593186Y-112266392D01*
X80707314Y-112200500D01*
X80800500Y-112107314D01*
X80866392Y-111993186D01*
X80900499Y-111865895D01*
X80900500Y-111865895D01*
X80900500Y-111734105D01*
X80900499Y-111734104D01*
X80893292Y-111707207D01*
X80866392Y-111606814D01*
X80866391Y-111606813D01*
X80866391Y-111606811D01*
X80809981Y-111509108D01*
X80800500Y-111492686D01*
X80791918Y-111484104D01*
X86574500Y-111484104D01*
X86574500Y-111615895D01*
X86608607Y-111743184D01*
X86608608Y-111743188D01*
X86660813Y-111833608D01*
X86674500Y-111857314D01*
X86767686Y-111950500D01*
X86809457Y-111974617D01*
X86881811Y-112016391D01*
X86881813Y-112016391D01*
X86881814Y-112016392D01*
X86975112Y-112041391D01*
X87009104Y-112050499D01*
X87009105Y-112050500D01*
X87009108Y-112050500D01*
X87140895Y-112050500D01*
X87140895Y-112050499D01*
X87268186Y-112016392D01*
X87382314Y-111950500D01*
X87475500Y-111857314D01*
X87541392Y-111743186D01*
X87575499Y-111615895D01*
X87575500Y-111615895D01*
X87575500Y-111484105D01*
X87575499Y-111484104D01*
X87774500Y-111484104D01*
X87774500Y-111615895D01*
X87808607Y-111743184D01*
X87808608Y-111743188D01*
X87860813Y-111833608D01*
X87874500Y-111857314D01*
X87967686Y-111950500D01*
X88009457Y-111974617D01*
X88081811Y-112016391D01*
X88081813Y-112016391D01*
X88081814Y-112016392D01*
X88175112Y-112041391D01*
X88209104Y-112050499D01*
X88209105Y-112050500D01*
X88209108Y-112050500D01*
X88340895Y-112050500D01*
X88340895Y-112050499D01*
X88468186Y-112016392D01*
X88582314Y-111950500D01*
X88675500Y-111857314D01*
X88741392Y-111743186D01*
X88775499Y-111615895D01*
X88775500Y-111615895D01*
X88775500Y-111484105D01*
X88775499Y-111484104D01*
X88949500Y-111484104D01*
X88949500Y-111615895D01*
X88983607Y-111743184D01*
X88983608Y-111743188D01*
X89035813Y-111833608D01*
X89049500Y-111857314D01*
X89142686Y-111950500D01*
X89184457Y-111974617D01*
X89256811Y-112016391D01*
X89256813Y-112016391D01*
X89256814Y-112016392D01*
X89350112Y-112041391D01*
X89384104Y-112050499D01*
X89384105Y-112050500D01*
X89384108Y-112050500D01*
X89515895Y-112050500D01*
X89515895Y-112050499D01*
X89643186Y-112016392D01*
X89757314Y-111950500D01*
X89850500Y-111857314D01*
X89916392Y-111743186D01*
X89950499Y-111615895D01*
X89950500Y-111615895D01*
X89950500Y-111534104D01*
X90999500Y-111534104D01*
X90999500Y-111665895D01*
X91033607Y-111793184D01*
X91033608Y-111793188D01*
X91094989Y-111899501D01*
X91099500Y-111907314D01*
X91192686Y-112000500D01*
X91220210Y-112016391D01*
X91306811Y-112066391D01*
X91306813Y-112066391D01*
X91306814Y-112066392D01*
X91400609Y-112091524D01*
X91434104Y-112100499D01*
X91434105Y-112100500D01*
X91434108Y-112100500D01*
X91565895Y-112100500D01*
X91565895Y-112100499D01*
X91693186Y-112066392D01*
X91807314Y-112000500D01*
X91900500Y-111907314D01*
X91966392Y-111793186D01*
X92000499Y-111665895D01*
X92000500Y-111665895D01*
X92000500Y-111534105D01*
X92000499Y-111534104D01*
X92199500Y-111534104D01*
X92199500Y-111665895D01*
X92233607Y-111793184D01*
X92233608Y-111793188D01*
X92294989Y-111899501D01*
X92299500Y-111907314D01*
X92392686Y-112000500D01*
X92420210Y-112016391D01*
X92506811Y-112066391D01*
X92506813Y-112066391D01*
X92506814Y-112066392D01*
X92600609Y-112091524D01*
X92634104Y-112100499D01*
X92634105Y-112100500D01*
X92634108Y-112100500D01*
X92765895Y-112100500D01*
X92765895Y-112100499D01*
X92893186Y-112066392D01*
X93007314Y-112000500D01*
X93100500Y-111907314D01*
X93166392Y-111793186D01*
X93200499Y-111665895D01*
X93200500Y-111665895D01*
X93200500Y-111534105D01*
X93200499Y-111534104D01*
X93299500Y-111534104D01*
X93299500Y-111665895D01*
X93333607Y-111793184D01*
X93333608Y-111793188D01*
X93394989Y-111899501D01*
X93399500Y-111907314D01*
X93492686Y-112000500D01*
X93520210Y-112016391D01*
X93606811Y-112066391D01*
X93606813Y-112066391D01*
X93606814Y-112066392D01*
X93700609Y-112091524D01*
X93734104Y-112100499D01*
X93734105Y-112100500D01*
X93734108Y-112100500D01*
X93865895Y-112100500D01*
X93865895Y-112100499D01*
X93993186Y-112066392D01*
X94107314Y-112000500D01*
X94200500Y-111907314D01*
X94266392Y-111793186D01*
X94300499Y-111665895D01*
X94300500Y-111665895D01*
X94300500Y-111534105D01*
X94300499Y-111534104D01*
X100099500Y-111534104D01*
X100099500Y-111665895D01*
X100133607Y-111793184D01*
X100133608Y-111793188D01*
X100194989Y-111899501D01*
X100199500Y-111907314D01*
X100292686Y-112000500D01*
X100320210Y-112016391D01*
X100406811Y-112066391D01*
X100406813Y-112066391D01*
X100406814Y-112066392D01*
X100500609Y-112091524D01*
X100534104Y-112100499D01*
X100534105Y-112100500D01*
X100534108Y-112100500D01*
X100665895Y-112100500D01*
X100665895Y-112100499D01*
X100793186Y-112066392D01*
X100907314Y-112000500D01*
X101000500Y-111907314D01*
X101066392Y-111793186D01*
X101100499Y-111665895D01*
X101100500Y-111665895D01*
X101100500Y-111534107D01*
X101096339Y-111518577D01*
X101096339Y-111518575D01*
X101093801Y-111509104D01*
X101249500Y-111509104D01*
X101249500Y-111640895D01*
X101283607Y-111768184D01*
X101283608Y-111768188D01*
X101335066Y-111857314D01*
X101349500Y-111882314D01*
X101442686Y-111975500D01*
X101484457Y-111999617D01*
X101556811Y-112041391D01*
X101556813Y-112041391D01*
X101556814Y-112041392D01*
X101650112Y-112066391D01*
X101684104Y-112075499D01*
X101684105Y-112075500D01*
X101684108Y-112075500D01*
X101815895Y-112075500D01*
X101815895Y-112075499D01*
X101943186Y-112041392D01*
X102057314Y-111975500D01*
X102150500Y-111882314D01*
X102216392Y-111768186D01*
X102240170Y-111679446D01*
X102263000Y-111649693D01*
X102300182Y-111644798D01*
X102329935Y-111667628D01*
X102334830Y-111679446D01*
X102358607Y-111768185D01*
X102358608Y-111768188D01*
X102410066Y-111857314D01*
X102424500Y-111882314D01*
X102517686Y-111975500D01*
X102559457Y-111999617D01*
X102631811Y-112041391D01*
X102631813Y-112041391D01*
X102631814Y-112041392D01*
X102725112Y-112066391D01*
X102759104Y-112075499D01*
X102759105Y-112075500D01*
X102759108Y-112075500D01*
X102890895Y-112075500D01*
X102890895Y-112075499D01*
X103018186Y-112041392D01*
X103132314Y-111975500D01*
X103225500Y-111882314D01*
X103291392Y-111768186D01*
X103325499Y-111640895D01*
X103325500Y-111640895D01*
X103325500Y-111534104D01*
X104499500Y-111534104D01*
X104499500Y-111665895D01*
X104533607Y-111793184D01*
X104533608Y-111793188D01*
X104594989Y-111899501D01*
X104599500Y-111907314D01*
X104692686Y-112000500D01*
X104720210Y-112016391D01*
X104806811Y-112066391D01*
X104806813Y-112066391D01*
X104806814Y-112066392D01*
X104900609Y-112091524D01*
X104934104Y-112100499D01*
X104934105Y-112100500D01*
X104934108Y-112100500D01*
X105065895Y-112100500D01*
X105065895Y-112100499D01*
X105193186Y-112066392D01*
X105307314Y-112000500D01*
X105400500Y-111907314D01*
X105466392Y-111793186D01*
X105500499Y-111665895D01*
X105500500Y-111665895D01*
X105500500Y-111534105D01*
X105500499Y-111534104D01*
X105699500Y-111534104D01*
X105699500Y-111665895D01*
X105733607Y-111793184D01*
X105733608Y-111793188D01*
X105794989Y-111899501D01*
X105799500Y-111907314D01*
X105892686Y-112000500D01*
X105920210Y-112016391D01*
X106006811Y-112066391D01*
X106006813Y-112066391D01*
X106006814Y-112066392D01*
X106100609Y-112091524D01*
X106134104Y-112100499D01*
X106134105Y-112100500D01*
X106134108Y-112100500D01*
X106265895Y-112100500D01*
X106265895Y-112100499D01*
X106393186Y-112066392D01*
X106507314Y-112000500D01*
X106600500Y-111907314D01*
X106666392Y-111793186D01*
X106700499Y-111665895D01*
X106700500Y-111665895D01*
X106700500Y-111534105D01*
X106700499Y-111534104D01*
X106799500Y-111534104D01*
X106799500Y-111665895D01*
X106833607Y-111793184D01*
X106833608Y-111793188D01*
X106894989Y-111899501D01*
X106899500Y-111907314D01*
X106992686Y-112000500D01*
X107020210Y-112016391D01*
X107106811Y-112066391D01*
X107106813Y-112066391D01*
X107106814Y-112066392D01*
X107200609Y-112091524D01*
X107234104Y-112100499D01*
X107234105Y-112100500D01*
X107234108Y-112100500D01*
X107365895Y-112100500D01*
X107365895Y-112100499D01*
X107493186Y-112066392D01*
X107607314Y-112000500D01*
X107700500Y-111907314D01*
X107766392Y-111793186D01*
X107800499Y-111665895D01*
X107800500Y-111665895D01*
X107800500Y-111534105D01*
X107800499Y-111534104D01*
X113599500Y-111534104D01*
X113599500Y-111665895D01*
X113633607Y-111793184D01*
X113633608Y-111793188D01*
X113694989Y-111899501D01*
X113699500Y-111907314D01*
X113792686Y-112000500D01*
X113820210Y-112016391D01*
X113906811Y-112066391D01*
X113906813Y-112066391D01*
X113906814Y-112066392D01*
X114000609Y-112091524D01*
X114034104Y-112100499D01*
X114034105Y-112100500D01*
X114034108Y-112100500D01*
X114165895Y-112100500D01*
X114165895Y-112100499D01*
X114293186Y-112066392D01*
X114407314Y-112000500D01*
X114500500Y-111907314D01*
X114566392Y-111793186D01*
X114600499Y-111665895D01*
X114600500Y-111665895D01*
X114600500Y-111534105D01*
X114600499Y-111534104D01*
X114799500Y-111534104D01*
X114799500Y-111665895D01*
X114833607Y-111793184D01*
X114833608Y-111793188D01*
X114894989Y-111899501D01*
X114899500Y-111907314D01*
X114992686Y-112000500D01*
X115020210Y-112016391D01*
X115106811Y-112066391D01*
X115106813Y-112066391D01*
X115106814Y-112066392D01*
X115200609Y-112091524D01*
X115234104Y-112100499D01*
X115234105Y-112100500D01*
X115234108Y-112100500D01*
X115365895Y-112100500D01*
X115365895Y-112100499D01*
X115493186Y-112066392D01*
X115607314Y-112000500D01*
X115700500Y-111907314D01*
X115766392Y-111793186D01*
X115800499Y-111665895D01*
X115800500Y-111665895D01*
X115800500Y-111534105D01*
X115800499Y-111534104D01*
X115899500Y-111534104D01*
X115899500Y-111665895D01*
X115933607Y-111793184D01*
X115933608Y-111793188D01*
X115994989Y-111899501D01*
X115999500Y-111907314D01*
X116092686Y-112000500D01*
X116120210Y-112016391D01*
X116206811Y-112066391D01*
X116206813Y-112066391D01*
X116206814Y-112066392D01*
X116300609Y-112091524D01*
X116334104Y-112100499D01*
X116334105Y-112100500D01*
X116334108Y-112100500D01*
X116465895Y-112100500D01*
X116465895Y-112100499D01*
X116593186Y-112066392D01*
X116707314Y-112000500D01*
X116800500Y-111907314D01*
X116866392Y-111793186D01*
X116900499Y-111665895D01*
X116900500Y-111665895D01*
X116900500Y-111534105D01*
X116900499Y-111534104D01*
X116866392Y-111406815D01*
X116866391Y-111406811D01*
X116800499Y-111292685D01*
X116707314Y-111199500D01*
X116593188Y-111133608D01*
X116593184Y-111133607D01*
X116465895Y-111099500D01*
X116465892Y-111099500D01*
X116334108Y-111099500D01*
X116334105Y-111099500D01*
X116206815Y-111133607D01*
X116206811Y-111133608D01*
X116092685Y-111199500D01*
X116092685Y-111199501D01*
X115999501Y-111292685D01*
X115999500Y-111292685D01*
X115933608Y-111406811D01*
X115933607Y-111406815D01*
X115899500Y-111534104D01*
X115800499Y-111534104D01*
X115766392Y-111406815D01*
X115766391Y-111406811D01*
X115700499Y-111292685D01*
X115607314Y-111199500D01*
X115493188Y-111133608D01*
X115493184Y-111133607D01*
X115365895Y-111099500D01*
X115365892Y-111099500D01*
X115234108Y-111099500D01*
X115234105Y-111099500D01*
X115106815Y-111133607D01*
X115106811Y-111133608D01*
X114992685Y-111199500D01*
X114992685Y-111199501D01*
X114899501Y-111292685D01*
X114899500Y-111292685D01*
X114833608Y-111406811D01*
X114833607Y-111406815D01*
X114799500Y-111534104D01*
X114600499Y-111534104D01*
X114566392Y-111406815D01*
X114566391Y-111406811D01*
X114500499Y-111292685D01*
X114407314Y-111199500D01*
X114293188Y-111133608D01*
X114293184Y-111133607D01*
X114165895Y-111099500D01*
X114165892Y-111099500D01*
X114034108Y-111099500D01*
X114034105Y-111099500D01*
X113906815Y-111133607D01*
X113906811Y-111133608D01*
X113792685Y-111199500D01*
X113792685Y-111199501D01*
X113699501Y-111292685D01*
X113699500Y-111292685D01*
X113633608Y-111406811D01*
X113633607Y-111406815D01*
X113599500Y-111534104D01*
X107800499Y-111534104D01*
X107766392Y-111406815D01*
X107766391Y-111406811D01*
X107700499Y-111292685D01*
X107607314Y-111199500D01*
X107493188Y-111133608D01*
X107493184Y-111133607D01*
X107365895Y-111099500D01*
X107365892Y-111099500D01*
X107234108Y-111099500D01*
X107234105Y-111099500D01*
X107106815Y-111133607D01*
X107106811Y-111133608D01*
X106992685Y-111199500D01*
X106992685Y-111199501D01*
X106899501Y-111292685D01*
X106899500Y-111292685D01*
X106833608Y-111406811D01*
X106833607Y-111406815D01*
X106799500Y-111534104D01*
X106700499Y-111534104D01*
X106666392Y-111406815D01*
X106666391Y-111406811D01*
X106600499Y-111292685D01*
X106507314Y-111199500D01*
X106393188Y-111133608D01*
X106393184Y-111133607D01*
X106265895Y-111099500D01*
X106265892Y-111099500D01*
X106134108Y-111099500D01*
X106134105Y-111099500D01*
X106006815Y-111133607D01*
X106006811Y-111133608D01*
X105892685Y-111199500D01*
X105892685Y-111199501D01*
X105799501Y-111292685D01*
X105799500Y-111292685D01*
X105733608Y-111406811D01*
X105733607Y-111406815D01*
X105699500Y-111534104D01*
X105500499Y-111534104D01*
X105466392Y-111406815D01*
X105466391Y-111406811D01*
X105400499Y-111292685D01*
X105307314Y-111199500D01*
X105193188Y-111133608D01*
X105193184Y-111133607D01*
X105065895Y-111099500D01*
X105065892Y-111099500D01*
X104934108Y-111099500D01*
X104934105Y-111099500D01*
X104806815Y-111133607D01*
X104806811Y-111133608D01*
X104692685Y-111199500D01*
X104692685Y-111199501D01*
X104599501Y-111292685D01*
X104599500Y-111292685D01*
X104533608Y-111406811D01*
X104533607Y-111406815D01*
X104499500Y-111534104D01*
X103325500Y-111534104D01*
X103325500Y-111509105D01*
X103325499Y-111509104D01*
X103298091Y-111406815D01*
X103291392Y-111381814D01*
X103291391Y-111381813D01*
X103291391Y-111381811D01*
X103225499Y-111267685D01*
X103132314Y-111174500D01*
X103018188Y-111108608D01*
X103018184Y-111108607D01*
X102890895Y-111074500D01*
X102890892Y-111074500D01*
X102759108Y-111074500D01*
X102759105Y-111074500D01*
X102631815Y-111108607D01*
X102631811Y-111108608D01*
X102517685Y-111174500D01*
X102517685Y-111174501D01*
X102424501Y-111267685D01*
X102424500Y-111267685D01*
X102358608Y-111381811D01*
X102358607Y-111381815D01*
X102334830Y-111470553D01*
X102312000Y-111500306D01*
X102274818Y-111505201D01*
X102245065Y-111482371D01*
X102240170Y-111470553D01*
X102216392Y-111381815D01*
X102216391Y-111381811D01*
X102150499Y-111267685D01*
X102057314Y-111174500D01*
X101943188Y-111108608D01*
X101943184Y-111108607D01*
X101815895Y-111074500D01*
X101815892Y-111074500D01*
X101684108Y-111074500D01*
X101684105Y-111074500D01*
X101556815Y-111108607D01*
X101556811Y-111108608D01*
X101442685Y-111174500D01*
X101442685Y-111174501D01*
X101349501Y-111267685D01*
X101349500Y-111267685D01*
X101283608Y-111381811D01*
X101283607Y-111381815D01*
X101249500Y-111509104D01*
X101093801Y-111509104D01*
X101066392Y-111406815D01*
X101066391Y-111406811D01*
X101000499Y-111292685D01*
X100907314Y-111199500D01*
X100793188Y-111133608D01*
X100793184Y-111133607D01*
X100665895Y-111099500D01*
X100665892Y-111099500D01*
X100534108Y-111099500D01*
X100534105Y-111099500D01*
X100406815Y-111133607D01*
X100406811Y-111133608D01*
X100292685Y-111199500D01*
X100292685Y-111199501D01*
X100199501Y-111292685D01*
X100199500Y-111292685D01*
X100133608Y-111406811D01*
X100133607Y-111406815D01*
X100099500Y-111534104D01*
X94300499Y-111534104D01*
X94266392Y-111406815D01*
X94266391Y-111406811D01*
X94200499Y-111292685D01*
X94107314Y-111199500D01*
X93993188Y-111133608D01*
X93993184Y-111133607D01*
X93865895Y-111099500D01*
X93865892Y-111099500D01*
X93734108Y-111099500D01*
X93734105Y-111099500D01*
X93606815Y-111133607D01*
X93606811Y-111133608D01*
X93492685Y-111199500D01*
X93492685Y-111199501D01*
X93399501Y-111292685D01*
X93399500Y-111292685D01*
X93333608Y-111406811D01*
X93333607Y-111406815D01*
X93299500Y-111534104D01*
X93200499Y-111534104D01*
X93166392Y-111406815D01*
X93166391Y-111406811D01*
X93100499Y-111292685D01*
X93007314Y-111199500D01*
X92893188Y-111133608D01*
X92893184Y-111133607D01*
X92765895Y-111099500D01*
X92765892Y-111099500D01*
X92634108Y-111099500D01*
X92634105Y-111099500D01*
X92506815Y-111133607D01*
X92506811Y-111133608D01*
X92392685Y-111199500D01*
X92392685Y-111199501D01*
X92299501Y-111292685D01*
X92299500Y-111292685D01*
X92233608Y-111406811D01*
X92233607Y-111406815D01*
X92199500Y-111534104D01*
X92000499Y-111534104D01*
X91966392Y-111406815D01*
X91966391Y-111406811D01*
X91900499Y-111292685D01*
X91807314Y-111199500D01*
X91693188Y-111133608D01*
X91693184Y-111133607D01*
X91565895Y-111099500D01*
X91565892Y-111099500D01*
X91434108Y-111099500D01*
X91434105Y-111099500D01*
X91306815Y-111133607D01*
X91306811Y-111133608D01*
X91192685Y-111199500D01*
X91192685Y-111199501D01*
X91099501Y-111292685D01*
X91099500Y-111292685D01*
X91033608Y-111406811D01*
X91033607Y-111406815D01*
X90999500Y-111534104D01*
X89950500Y-111534104D01*
X89950500Y-111484105D01*
X89950499Y-111484104D01*
X89943292Y-111457207D01*
X89916392Y-111356814D01*
X89916391Y-111356813D01*
X89916391Y-111356811D01*
X89850499Y-111242685D01*
X89757314Y-111149500D01*
X89643188Y-111083608D01*
X89643184Y-111083607D01*
X89515895Y-111049500D01*
X89515892Y-111049500D01*
X89384108Y-111049500D01*
X89384105Y-111049500D01*
X89256815Y-111083607D01*
X89256811Y-111083608D01*
X89142685Y-111149500D01*
X89142685Y-111149501D01*
X89049501Y-111242685D01*
X89049500Y-111242685D01*
X88983608Y-111356811D01*
X88983607Y-111356815D01*
X88949500Y-111484104D01*
X88775499Y-111484104D01*
X88768292Y-111457207D01*
X88741392Y-111356814D01*
X88741391Y-111356813D01*
X88741391Y-111356811D01*
X88675499Y-111242685D01*
X88582314Y-111149500D01*
X88468188Y-111083608D01*
X88468184Y-111083607D01*
X88340895Y-111049500D01*
X88340892Y-111049500D01*
X88209108Y-111049500D01*
X88209105Y-111049500D01*
X88081815Y-111083607D01*
X88081811Y-111083608D01*
X87967685Y-111149500D01*
X87967685Y-111149501D01*
X87874501Y-111242685D01*
X87874500Y-111242685D01*
X87808608Y-111356811D01*
X87808607Y-111356815D01*
X87774500Y-111484104D01*
X87575499Y-111484104D01*
X87568292Y-111457207D01*
X87541392Y-111356814D01*
X87541391Y-111356813D01*
X87541391Y-111356811D01*
X87475499Y-111242685D01*
X87382314Y-111149500D01*
X87268188Y-111083608D01*
X87268184Y-111083607D01*
X87140895Y-111049500D01*
X87140892Y-111049500D01*
X87009108Y-111049500D01*
X87009105Y-111049500D01*
X86881815Y-111083607D01*
X86881811Y-111083608D01*
X86767685Y-111149500D01*
X86767685Y-111149501D01*
X86674501Y-111242685D01*
X86674500Y-111242685D01*
X86608608Y-111356811D01*
X86608607Y-111356815D01*
X86574500Y-111484104D01*
X80791918Y-111484104D01*
X80707314Y-111399500D01*
X80676683Y-111381815D01*
X80593188Y-111333608D01*
X80593184Y-111333607D01*
X80465895Y-111299500D01*
X80465892Y-111299500D01*
X80334108Y-111299500D01*
X80334105Y-111299500D01*
X80206815Y-111333607D01*
X80206811Y-111333608D01*
X80092685Y-111399500D01*
X80092685Y-111399501D01*
X79999501Y-111492685D01*
X79999500Y-111492685D01*
X79933608Y-111606811D01*
X79933607Y-111606815D01*
X79899500Y-111734104D01*
X79800499Y-111734104D01*
X79793292Y-111707207D01*
X79766392Y-111606814D01*
X79766391Y-111606813D01*
X79766391Y-111606811D01*
X79709981Y-111509108D01*
X79700500Y-111492686D01*
X79607314Y-111399500D01*
X79576683Y-111381815D01*
X79493188Y-111333608D01*
X79493184Y-111333607D01*
X79365895Y-111299500D01*
X79365892Y-111299500D01*
X79234108Y-111299500D01*
X79234105Y-111299500D01*
X79106815Y-111333607D01*
X79106811Y-111333608D01*
X78992685Y-111399500D01*
X78992685Y-111399501D01*
X78899501Y-111492685D01*
X78899500Y-111492685D01*
X78833608Y-111606811D01*
X78833607Y-111606815D01*
X78799500Y-111734104D01*
X78600499Y-111734104D01*
X78593292Y-111707207D01*
X78566392Y-111606814D01*
X78566391Y-111606813D01*
X78566391Y-111606811D01*
X78509981Y-111509108D01*
X78500500Y-111492686D01*
X78407314Y-111399500D01*
X78376683Y-111381815D01*
X78293188Y-111333608D01*
X78293184Y-111333607D01*
X78165895Y-111299500D01*
X78165892Y-111299500D01*
X78034108Y-111299500D01*
X78034105Y-111299500D01*
X77906815Y-111333607D01*
X77906811Y-111333608D01*
X77792685Y-111399500D01*
X77792685Y-111399501D01*
X77699501Y-111492685D01*
X77699500Y-111492685D01*
X77633608Y-111606811D01*
X77633607Y-111606815D01*
X77599500Y-111734104D01*
X68100500Y-111734104D01*
X68100500Y-109334104D01*
X75099500Y-109334104D01*
X75099500Y-109465895D01*
X75133607Y-109593184D01*
X75133608Y-109593188D01*
X75199500Y-109707314D01*
X75292686Y-109800500D01*
X75304878Y-109807539D01*
X75406811Y-109866391D01*
X75406813Y-109866391D01*
X75406814Y-109866392D01*
X75500112Y-109891391D01*
X75534104Y-109900499D01*
X75534105Y-109900500D01*
X75534108Y-109900500D01*
X75665895Y-109900500D01*
X75665895Y-109900499D01*
X75793186Y-109866392D01*
X75907314Y-109800500D01*
X76000500Y-109707314D01*
X76056059Y-109611083D01*
X76057565Y-109608475D01*
X76087318Y-109585645D01*
X76124500Y-109590540D01*
X76142435Y-109608475D01*
X76151127Y-109623530D01*
X76199500Y-109707314D01*
X76292686Y-109800500D01*
X76304878Y-109807539D01*
X76406811Y-109866391D01*
X76406813Y-109866391D01*
X76406814Y-109866392D01*
X76500112Y-109891391D01*
X76534104Y-109900499D01*
X76534105Y-109900500D01*
X76534108Y-109900500D01*
X76665895Y-109900500D01*
X76665895Y-109900499D01*
X76793186Y-109866392D01*
X76907314Y-109800500D01*
X77000500Y-109707314D01*
X77065654Y-109594464D01*
X77095406Y-109571635D01*
X77132588Y-109576530D01*
X77155418Y-109606282D01*
X77158608Y-109618186D01*
X77158608Y-109618188D01*
X77224500Y-109732314D01*
X77317686Y-109825500D01*
X77334527Y-109835223D01*
X77431811Y-109891391D01*
X77431813Y-109891391D01*
X77431814Y-109891392D01*
X77448858Y-109895959D01*
X77473903Y-109902670D01*
X77503656Y-109925500D01*
X77508551Y-109962682D01*
X77485721Y-109992435D01*
X77473903Y-109997330D01*
X77431815Y-110008607D01*
X77431811Y-110008608D01*
X77317685Y-110074500D01*
X77317685Y-110074501D01*
X77224501Y-110167685D01*
X77224500Y-110167685D01*
X77158608Y-110281811D01*
X77158607Y-110281815D01*
X77124500Y-110409104D01*
X77124500Y-110524590D01*
X77110148Y-110559238D01*
X77075500Y-110573590D01*
X77040852Y-110559238D01*
X77033065Y-110549090D01*
X77028332Y-110540892D01*
X77000500Y-110492686D01*
X76907314Y-110399500D01*
X76793188Y-110333608D01*
X76793184Y-110333607D01*
X76665895Y-110299500D01*
X76665892Y-110299500D01*
X76534108Y-110299500D01*
X76534105Y-110299500D01*
X76406815Y-110333607D01*
X76406811Y-110333608D01*
X76292685Y-110399500D01*
X76292685Y-110399501D01*
X76199501Y-110492685D01*
X76199500Y-110492685D01*
X76142435Y-110591524D01*
X76112682Y-110614354D01*
X76075500Y-110609459D01*
X76057565Y-110591524D01*
X76013586Y-110515352D01*
X76000500Y-110492686D01*
X75907314Y-110399500D01*
X75793188Y-110333608D01*
X75793184Y-110333607D01*
X75665895Y-110299500D01*
X75665892Y-110299500D01*
X75534108Y-110299500D01*
X75534105Y-110299500D01*
X75406815Y-110333607D01*
X75406811Y-110333608D01*
X75292685Y-110399500D01*
X75292685Y-110399501D01*
X75199501Y-110492685D01*
X75199500Y-110492685D01*
X75133608Y-110606811D01*
X75133607Y-110606815D01*
X75099500Y-110734104D01*
X75099500Y-110865895D01*
X75133607Y-110993184D01*
X75133608Y-110993188D01*
X75199500Y-111107314D01*
X75292686Y-111200500D01*
X75334457Y-111224617D01*
X75406811Y-111266391D01*
X75406813Y-111266391D01*
X75406814Y-111266392D01*
X75507207Y-111293292D01*
X75534104Y-111300499D01*
X75534105Y-111300500D01*
X75534108Y-111300500D01*
X75665895Y-111300500D01*
X75665895Y-111300499D01*
X75793186Y-111266392D01*
X75907314Y-111200500D01*
X76000500Y-111107314D01*
X76057565Y-111008475D01*
X76087318Y-110985645D01*
X76124500Y-110990540D01*
X76142435Y-111008475D01*
X76199500Y-111107314D01*
X76292686Y-111200500D01*
X76334457Y-111224617D01*
X76406811Y-111266391D01*
X76406813Y-111266391D01*
X76406814Y-111266392D01*
X76507207Y-111293292D01*
X76534104Y-111300499D01*
X76534105Y-111300500D01*
X76534108Y-111300500D01*
X76665895Y-111300500D01*
X76665895Y-111300499D01*
X76793186Y-111266392D01*
X76907314Y-111200500D01*
X77000500Y-111107314D01*
X77066392Y-110993186D01*
X77100499Y-110865895D01*
X77100500Y-110865895D01*
X77100500Y-110750409D01*
X77114852Y-110715761D01*
X77149500Y-110701409D01*
X77184148Y-110715761D01*
X77191932Y-110725906D01*
X77224500Y-110782314D01*
X77317686Y-110875500D01*
X77359457Y-110899617D01*
X77431811Y-110941391D01*
X77431813Y-110941391D01*
X77431814Y-110941392D01*
X77532207Y-110968292D01*
X77559104Y-110975499D01*
X77559105Y-110975500D01*
X77559108Y-110975500D01*
X77690895Y-110975500D01*
X77690895Y-110975499D01*
X77818186Y-110941392D01*
X77932314Y-110875500D01*
X78025500Y-110782314D01*
X78091392Y-110668186D01*
X78125499Y-110540895D01*
X78125500Y-110540895D01*
X78125500Y-110409105D01*
X78125499Y-110409104D01*
X78103810Y-110328157D01*
X78101271Y-110318683D01*
X79176700Y-110318683D01*
X79176700Y-110450474D01*
X79210807Y-110577763D01*
X79210808Y-110577767D01*
X79263014Y-110668188D01*
X79276700Y-110691893D01*
X79369886Y-110785079D01*
X79399393Y-110802115D01*
X79484011Y-110850970D01*
X79484013Y-110850970D01*
X79484014Y-110850971D01*
X79539712Y-110865895D01*
X79611304Y-110885078D01*
X79611305Y-110885079D01*
X79611308Y-110885079D01*
X79743095Y-110885079D01*
X79743095Y-110885078D01*
X79870386Y-110850971D01*
X79984514Y-110785079D01*
X80077700Y-110691893D01*
X80143592Y-110577765D01*
X80177699Y-110450474D01*
X80177700Y-110450474D01*
X80177700Y-110318685D01*
X80167147Y-110279302D01*
X80167147Y-110279301D01*
X80164608Y-110269827D01*
X90296479Y-110269827D01*
X90296479Y-110401618D01*
X90330586Y-110528907D01*
X90330587Y-110528911D01*
X90379919Y-110614354D01*
X90396479Y-110643037D01*
X90489665Y-110736223D01*
X90531436Y-110760340D01*
X90603790Y-110802114D01*
X90603792Y-110802114D01*
X90603793Y-110802115D01*
X90704186Y-110829015D01*
X90731083Y-110836222D01*
X90731084Y-110836223D01*
X90731087Y-110836223D01*
X90862874Y-110836223D01*
X90862874Y-110836222D01*
X90990165Y-110802115D01*
X91104293Y-110736223D01*
X91197479Y-110643037D01*
X91263371Y-110528909D01*
X91297478Y-110401618D01*
X91297479Y-110401618D01*
X91297479Y-110269828D01*
X91297478Y-110269827D01*
X91276858Y-110192871D01*
X91263371Y-110142537D01*
X91263370Y-110142536D01*
X91263370Y-110142534D01*
X91197478Y-110028408D01*
X91104293Y-109935223D01*
X91101809Y-109933789D01*
X93299500Y-109933789D01*
X93299500Y-110065580D01*
X93333607Y-110192869D01*
X93333608Y-110192873D01*
X93384959Y-110281814D01*
X93399500Y-110306999D01*
X93492686Y-110400185D01*
X93534457Y-110424302D01*
X93606811Y-110466076D01*
X93606813Y-110466076D01*
X93606814Y-110466077D01*
X93706117Y-110492685D01*
X93734104Y-110500184D01*
X93734105Y-110500185D01*
X93734108Y-110500185D01*
X93865895Y-110500185D01*
X93865895Y-110500184D01*
X93993186Y-110466077D01*
X94107314Y-110400185D01*
X94200500Y-110306999D01*
X94266392Y-110192871D01*
X94268741Y-110184104D01*
X100699500Y-110184104D01*
X100699500Y-110315895D01*
X100733607Y-110443184D01*
X100733608Y-110443188D01*
X100783099Y-110528907D01*
X100799500Y-110557314D01*
X100892686Y-110650500D01*
X100934132Y-110674429D01*
X101006811Y-110716391D01*
X101006813Y-110716391D01*
X101006814Y-110716392D01*
X101080825Y-110736223D01*
X101134104Y-110750499D01*
X101134105Y-110750500D01*
X101134108Y-110750500D01*
X101265895Y-110750500D01*
X101265895Y-110750499D01*
X101393186Y-110716392D01*
X101406790Y-110708538D01*
X101419137Y-110701409D01*
X101507314Y-110650500D01*
X101600500Y-110557314D01*
X101666392Y-110443186D01*
X101700499Y-110315895D01*
X101700500Y-110315895D01*
X101700500Y-110184105D01*
X101700499Y-110184104D01*
X101691795Y-110151616D01*
X101689256Y-110142142D01*
X104799500Y-110142142D01*
X104799500Y-110273933D01*
X104833607Y-110401222D01*
X104833608Y-110401226D01*
X104886413Y-110492685D01*
X104899500Y-110515352D01*
X104992686Y-110608538D01*
X105034457Y-110632655D01*
X105106811Y-110674429D01*
X105106813Y-110674429D01*
X105106814Y-110674430D01*
X105207207Y-110701330D01*
X105234104Y-110708537D01*
X105234105Y-110708538D01*
X105234108Y-110708538D01*
X105365895Y-110708538D01*
X105365895Y-110708537D01*
X105493186Y-110674430D01*
X105503998Y-110668188D01*
X105508478Y-110665601D01*
X105607314Y-110608538D01*
X105700500Y-110515352D01*
X105761842Y-110409105D01*
X105766391Y-110401226D01*
X105766391Y-110401225D01*
X105766392Y-110401224D01*
X105800499Y-110273933D01*
X105800500Y-110273933D01*
X105800500Y-110142143D01*
X105800499Y-110142142D01*
X105779984Y-110065580D01*
X105766392Y-110014852D01*
X105766391Y-110014851D01*
X105766391Y-110014849D01*
X105731883Y-109955081D01*
X105724685Y-109942613D01*
X105719590Y-109933789D01*
X106799500Y-109933789D01*
X106799500Y-110065580D01*
X106833607Y-110192869D01*
X106833608Y-110192873D01*
X106884959Y-110281814D01*
X106899500Y-110306999D01*
X106992686Y-110400185D01*
X107034457Y-110424302D01*
X107106811Y-110466076D01*
X107106813Y-110466076D01*
X107106814Y-110466077D01*
X107206117Y-110492685D01*
X107234104Y-110500184D01*
X107234105Y-110500185D01*
X107234108Y-110500185D01*
X107365895Y-110500185D01*
X107365895Y-110500184D01*
X107493186Y-110466077D01*
X107607314Y-110400185D01*
X107700500Y-110306999D01*
X107766392Y-110192871D01*
X107795535Y-110084108D01*
X107795536Y-110084104D01*
X114499500Y-110084104D01*
X114499500Y-110215895D01*
X114533607Y-110343184D01*
X114533608Y-110343188D01*
X114571666Y-110409105D01*
X114599500Y-110457314D01*
X114692686Y-110550500D01*
X114704490Y-110557315D01*
X114806811Y-110616391D01*
X114806813Y-110616391D01*
X114806814Y-110616392D01*
X114906255Y-110643037D01*
X114934104Y-110650499D01*
X114934105Y-110650500D01*
X114934108Y-110650500D01*
X115065895Y-110650500D01*
X115065895Y-110650499D01*
X115193186Y-110616392D01*
X115206790Y-110608538D01*
X115209781Y-110606811D01*
X115307314Y-110550500D01*
X115400500Y-110457314D01*
X115466392Y-110343186D01*
X115500499Y-110215895D01*
X115500500Y-110215895D01*
X115500500Y-110084105D01*
X115500499Y-110084104D01*
X115481353Y-110012649D01*
X115466392Y-109956814D01*
X115466391Y-109956813D01*
X115466391Y-109956811D01*
X115419548Y-109875678D01*
X115400500Y-109842686D01*
X115307314Y-109749500D01*
X115277549Y-109732315D01*
X115193188Y-109683608D01*
X115193184Y-109683607D01*
X115065895Y-109649500D01*
X115065892Y-109649500D01*
X114934108Y-109649500D01*
X114934105Y-109649500D01*
X114806815Y-109683607D01*
X114806811Y-109683608D01*
X114692685Y-109749500D01*
X114599501Y-109842685D01*
X114599500Y-109842685D01*
X114533608Y-109956811D01*
X114533607Y-109956815D01*
X114499500Y-110084104D01*
X107795536Y-110084104D01*
X107799794Y-110068214D01*
X107799794Y-110068212D01*
X107800500Y-110065577D01*
X107800500Y-109933790D01*
X107800499Y-109933789D01*
X107789139Y-109891392D01*
X107766392Y-109806499D01*
X107766391Y-109806498D01*
X107766391Y-109806496D01*
X107723561Y-109732314D01*
X107700500Y-109692371D01*
X107607314Y-109599185D01*
X107596927Y-109593188D01*
X107493188Y-109533293D01*
X107493184Y-109533292D01*
X107365895Y-109499185D01*
X107365892Y-109499185D01*
X107234108Y-109499185D01*
X107234105Y-109499185D01*
X107106815Y-109533292D01*
X107106811Y-109533293D01*
X106992685Y-109599185D01*
X106992685Y-109599186D01*
X106899501Y-109692370D01*
X106899500Y-109692370D01*
X106833608Y-109806496D01*
X106833607Y-109806500D01*
X106799500Y-109933789D01*
X105719590Y-109933789D01*
X105700500Y-109900724D01*
X105607314Y-109807538D01*
X105595122Y-109800499D01*
X105493188Y-109741646D01*
X105493184Y-109741645D01*
X105365895Y-109707538D01*
X105365892Y-109707538D01*
X105234108Y-109707538D01*
X105234105Y-109707538D01*
X105106815Y-109741645D01*
X105106811Y-109741646D01*
X104992685Y-109807538D01*
X104992685Y-109807539D01*
X104899501Y-109900723D01*
X104899500Y-109900723D01*
X104833608Y-110014849D01*
X104833607Y-110014853D01*
X104799500Y-110142142D01*
X101689256Y-110142142D01*
X101671131Y-110074500D01*
X101666392Y-110056814D01*
X101666391Y-110056813D01*
X101666391Y-110056811D01*
X101600499Y-109942685D01*
X101507314Y-109849500D01*
X101393188Y-109783608D01*
X101393184Y-109783607D01*
X101265895Y-109749500D01*
X101265892Y-109749500D01*
X101134108Y-109749500D01*
X101134105Y-109749500D01*
X101006815Y-109783607D01*
X101006811Y-109783608D01*
X100892685Y-109849500D01*
X100892685Y-109849501D01*
X100799501Y-109942685D01*
X100799500Y-109942685D01*
X100733608Y-110056811D01*
X100733607Y-110056815D01*
X100699500Y-110184104D01*
X94268741Y-110184104D01*
X94279985Y-110142143D01*
X94297368Y-110077265D01*
X94300499Y-110065580D01*
X94300500Y-110065580D01*
X94300500Y-109933790D01*
X94300499Y-109933789D01*
X94289139Y-109891392D01*
X94266392Y-109806499D01*
X94266391Y-109806498D01*
X94266391Y-109806496D01*
X94223561Y-109732314D01*
X94200500Y-109692371D01*
X94200498Y-109692369D01*
X94199399Y-109690465D01*
X94194504Y-109653283D01*
X94217333Y-109623530D01*
X94238901Y-109611079D01*
X94332087Y-109517893D01*
X94389206Y-109418960D01*
X94397978Y-109403767D01*
X94397978Y-109403766D01*
X94397979Y-109403765D01*
X94432086Y-109276474D01*
X94432087Y-109276474D01*
X94432087Y-109144684D01*
X94432086Y-109144683D01*
X94418287Y-109093184D01*
X94397979Y-109017393D01*
X94397978Y-109017392D01*
X94397978Y-109017390D01*
X94356204Y-108945036D01*
X94332087Y-108903265D01*
X94262926Y-108834104D01*
X106899500Y-108834104D01*
X106899500Y-108965895D01*
X106933607Y-109093184D01*
X106933608Y-109093188D01*
X106999209Y-109206810D01*
X106999500Y-109207314D01*
X107092686Y-109300500D01*
X107134457Y-109324617D01*
X107206811Y-109366391D01*
X107206813Y-109366391D01*
X107206814Y-109366392D01*
X107307207Y-109393292D01*
X107334104Y-109400499D01*
X107334105Y-109400500D01*
X107334108Y-109400500D01*
X107465895Y-109400500D01*
X107465895Y-109400499D01*
X107593186Y-109366392D01*
X107707314Y-109300500D01*
X107800500Y-109207314D01*
X107866392Y-109093186D01*
X107900499Y-108965895D01*
X107900500Y-108965895D01*
X107900500Y-108834105D01*
X107900499Y-108834104D01*
X107866392Y-108706815D01*
X107866391Y-108706811D01*
X107800499Y-108592685D01*
X107707314Y-108499500D01*
X107593188Y-108433608D01*
X107593184Y-108433607D01*
X107465895Y-108399500D01*
X107465892Y-108399500D01*
X107334108Y-108399500D01*
X107334105Y-108399500D01*
X107206815Y-108433607D01*
X107206811Y-108433608D01*
X107092685Y-108499500D01*
X107092685Y-108499501D01*
X106999501Y-108592685D01*
X106999500Y-108592685D01*
X106933608Y-108706811D01*
X106933607Y-108706815D01*
X106899500Y-108834104D01*
X94262926Y-108834104D01*
X94238901Y-108810079D01*
X94208774Y-108792685D01*
X94124775Y-108744187D01*
X94124771Y-108744186D01*
X93997482Y-108710079D01*
X93997479Y-108710079D01*
X93865695Y-108710079D01*
X93865692Y-108710079D01*
X93738402Y-108744186D01*
X93738398Y-108744187D01*
X93624272Y-108810079D01*
X93624272Y-108810080D01*
X93531088Y-108903264D01*
X93531087Y-108903264D01*
X93465195Y-109017390D01*
X93465194Y-109017394D01*
X93431087Y-109144683D01*
X93431087Y-109276474D01*
X93465194Y-109403763D01*
X93465195Y-109403767D01*
X93532187Y-109519798D01*
X93537082Y-109556980D01*
X93514253Y-109586733D01*
X93492689Y-109599183D01*
X93492682Y-109599188D01*
X93399501Y-109692370D01*
X93399500Y-109692370D01*
X93333608Y-109806496D01*
X93333607Y-109806500D01*
X93299500Y-109933789D01*
X91101809Y-109933789D01*
X90990167Y-109869331D01*
X90990163Y-109869330D01*
X90862874Y-109835223D01*
X90862871Y-109835223D01*
X90731087Y-109835223D01*
X90731084Y-109835223D01*
X90603794Y-109869330D01*
X90603790Y-109869331D01*
X90489664Y-109935223D01*
X90489664Y-109935224D01*
X90396480Y-110028408D01*
X90396479Y-110028408D01*
X90330587Y-110142534D01*
X90330586Y-110142538D01*
X90296479Y-110269827D01*
X80164608Y-110269827D01*
X80143592Y-110191393D01*
X80143591Y-110191391D01*
X80102979Y-110121050D01*
X80098084Y-110083868D01*
X80120914Y-110054115D01*
X80122342Y-110053290D01*
X80192735Y-110012649D01*
X80285921Y-109919463D01*
X80350541Y-109807538D01*
X80351812Y-109805337D01*
X80351812Y-109805336D01*
X80351813Y-109805335D01*
X80385920Y-109678044D01*
X80385921Y-109678044D01*
X80385921Y-109649500D01*
X80400273Y-109614852D01*
X80434921Y-109600500D01*
X80565895Y-109600500D01*
X80565895Y-109600499D01*
X80693186Y-109566392D01*
X80807314Y-109500500D01*
X80900500Y-109407314D01*
X80966392Y-109293186D01*
X81000499Y-109165895D01*
X81000500Y-109165895D01*
X81000500Y-109034105D01*
X81000499Y-109034104D01*
X80991227Y-108999500D01*
X80966392Y-108906814D01*
X80966391Y-108906813D01*
X80966391Y-108906811D01*
X80900499Y-108792685D01*
X80807314Y-108699500D01*
X80693188Y-108633608D01*
X80693184Y-108633607D01*
X80565895Y-108599500D01*
X80565892Y-108599500D01*
X80434108Y-108599500D01*
X80434105Y-108599500D01*
X80306815Y-108633607D01*
X80306811Y-108633608D01*
X80192685Y-108699500D01*
X80192685Y-108699501D01*
X80099501Y-108792685D01*
X80099500Y-108792685D01*
X80033608Y-108906811D01*
X80033607Y-108906815D01*
X79999500Y-109034104D01*
X79999500Y-109062649D01*
X79985148Y-109097297D01*
X79950500Y-109111649D01*
X79819526Y-109111649D01*
X79692236Y-109145756D01*
X79692232Y-109145757D01*
X79578106Y-109211649D01*
X79578106Y-109211650D01*
X79484922Y-109304834D01*
X79484921Y-109304834D01*
X79419029Y-109418960D01*
X79419028Y-109418964D01*
X79384921Y-109546253D01*
X79384921Y-109678044D01*
X79419028Y-109805333D01*
X79419029Y-109805337D01*
X79459641Y-109875678D01*
X79464536Y-109912860D01*
X79441706Y-109942613D01*
X79369885Y-109984079D01*
X79369885Y-109984080D01*
X79276701Y-110077264D01*
X79276700Y-110077264D01*
X79210808Y-110191390D01*
X79210807Y-110191394D01*
X79176700Y-110318683D01*
X78101271Y-110318683D01*
X78091392Y-110281815D01*
X78091391Y-110281811D01*
X78040042Y-110192873D01*
X78025500Y-110167686D01*
X77932314Y-110074500D01*
X77818188Y-110008608D01*
X77818185Y-110008607D01*
X77776096Y-109997330D01*
X77746343Y-109974500D01*
X77741448Y-109937318D01*
X77764278Y-109907565D01*
X77776096Y-109902670D01*
X77789542Y-109899066D01*
X77818186Y-109891392D01*
X77932314Y-109825500D01*
X78025500Y-109732314D01*
X78091392Y-109618186D01*
X78125499Y-109490895D01*
X78125500Y-109490895D01*
X78125500Y-109359105D01*
X78125499Y-109359104D01*
X78097166Y-109253364D01*
X78091392Y-109231814D01*
X78091391Y-109231813D01*
X78091391Y-109231811D01*
X78041087Y-109144683D01*
X78025500Y-109117686D01*
X77932314Y-109024500D01*
X77920006Y-109017394D01*
X77818188Y-108958608D01*
X77818184Y-108958607D01*
X77690895Y-108924500D01*
X77690892Y-108924500D01*
X77559108Y-108924500D01*
X77559105Y-108924500D01*
X77431815Y-108958607D01*
X77431811Y-108958608D01*
X77317685Y-109024500D01*
X77317685Y-109024501D01*
X77224501Y-109117685D01*
X77224500Y-109117685D01*
X77159346Y-109230534D01*
X77129593Y-109253364D01*
X77092411Y-109248469D01*
X77069581Y-109218716D01*
X77066392Y-109206814D01*
X77057564Y-109191524D01*
X77030521Y-109144684D01*
X77000500Y-109092686D01*
X76907314Y-108999500D01*
X76793188Y-108933608D01*
X76793184Y-108933607D01*
X76665895Y-108899500D01*
X76665892Y-108899500D01*
X76534108Y-108899500D01*
X76534105Y-108899500D01*
X76406815Y-108933607D01*
X76406811Y-108933608D01*
X76292685Y-108999500D01*
X76292685Y-108999501D01*
X76199501Y-109092685D01*
X76199500Y-109092685D01*
X76142435Y-109191524D01*
X76112682Y-109214354D01*
X76075500Y-109209459D01*
X76057565Y-109191524D01*
X76021827Y-109129625D01*
X76000500Y-109092686D01*
X75907314Y-108999500D01*
X75793188Y-108933608D01*
X75793184Y-108933607D01*
X75665895Y-108899500D01*
X75665892Y-108899500D01*
X75534108Y-108899500D01*
X75534105Y-108899500D01*
X75406815Y-108933607D01*
X75406811Y-108933608D01*
X75292685Y-108999500D01*
X75292685Y-108999501D01*
X75199501Y-109092685D01*
X75199500Y-109092685D01*
X75133608Y-109206811D01*
X75133607Y-109206815D01*
X75099500Y-109334104D01*
X68100500Y-109334104D01*
X68100500Y-107534104D01*
X81799500Y-107534104D01*
X81799500Y-107665895D01*
X81833607Y-107793184D01*
X81833608Y-107793188D01*
X81899500Y-107907314D01*
X81992686Y-108000500D01*
X82034457Y-108024617D01*
X82106811Y-108066391D01*
X82106813Y-108066391D01*
X82106814Y-108066392D01*
X82207207Y-108093292D01*
X82234104Y-108100499D01*
X82234105Y-108100500D01*
X82234108Y-108100500D01*
X82365895Y-108100500D01*
X82365895Y-108100499D01*
X82493186Y-108066392D01*
X82607314Y-108000500D01*
X82700500Y-107907314D01*
X82766392Y-107793186D01*
X82800499Y-107665895D01*
X82800500Y-107665895D01*
X82800500Y-107534105D01*
X82800499Y-107534104D01*
X82766392Y-107406815D01*
X82766391Y-107406811D01*
X82700499Y-107292685D01*
X82607314Y-107199500D01*
X82493188Y-107133608D01*
X82493184Y-107133607D01*
X82365895Y-107099500D01*
X82365892Y-107099500D01*
X82234108Y-107099500D01*
X82234105Y-107099500D01*
X82106815Y-107133607D01*
X82106811Y-107133608D01*
X81992685Y-107199500D01*
X81992685Y-107199501D01*
X81899501Y-107292685D01*
X81899500Y-107292685D01*
X81833608Y-107406811D01*
X81833607Y-107406815D01*
X81799500Y-107534104D01*
X68100500Y-107534104D01*
X68100500Y-105334104D01*
X75049500Y-105334104D01*
X75049500Y-105465895D01*
X75083607Y-105593184D01*
X75083608Y-105593188D01*
X75145565Y-105700499D01*
X75149500Y-105707314D01*
X75242686Y-105800500D01*
X75284457Y-105824617D01*
X75356811Y-105866391D01*
X75356813Y-105866391D01*
X75356814Y-105866392D01*
X75457207Y-105893292D01*
X75484104Y-105900499D01*
X75484105Y-105900500D01*
X75484108Y-105900500D01*
X75615895Y-105900500D01*
X75615895Y-105900499D01*
X75743186Y-105866392D01*
X75857314Y-105800500D01*
X75950500Y-105707314D01*
X76016392Y-105593186D01*
X76050499Y-105465895D01*
X76050500Y-105465895D01*
X76050500Y-105334105D01*
X76050499Y-105334104D01*
X76043292Y-105307207D01*
X76016392Y-105206814D01*
X76016391Y-105206813D01*
X76016391Y-105206811D01*
X75986706Y-105155396D01*
X75974413Y-105134104D01*
X91199500Y-105134104D01*
X91199500Y-105265895D01*
X91233607Y-105393184D01*
X91233608Y-105393188D01*
X91299500Y-105507314D01*
X91392686Y-105600500D01*
X91434457Y-105624617D01*
X91506811Y-105666391D01*
X91506813Y-105666391D01*
X91506814Y-105666392D01*
X91607207Y-105693292D01*
X91634104Y-105700499D01*
X91634105Y-105700500D01*
X91634108Y-105700500D01*
X91765895Y-105700500D01*
X91765895Y-105700499D01*
X91893186Y-105666392D01*
X92007314Y-105600500D01*
X92100500Y-105507314D01*
X92166392Y-105393186D01*
X92200499Y-105265895D01*
X92200500Y-105265895D01*
X92200500Y-105134105D01*
X92200499Y-105134104D01*
X92166392Y-105006815D01*
X92166391Y-105006811D01*
X92100499Y-104892685D01*
X92007314Y-104799500D01*
X91893188Y-104733608D01*
X91893184Y-104733607D01*
X91765895Y-104699500D01*
X91765892Y-104699500D01*
X91634108Y-104699500D01*
X91634105Y-104699500D01*
X91506815Y-104733607D01*
X91506811Y-104733608D01*
X91392685Y-104799500D01*
X91392685Y-104799501D01*
X91299501Y-104892685D01*
X91299500Y-104892685D01*
X91233608Y-105006811D01*
X91233607Y-105006815D01*
X91199500Y-105134104D01*
X75974413Y-105134104D01*
X75950499Y-105092685D01*
X75857314Y-104999500D01*
X75743188Y-104933608D01*
X75743184Y-104933607D01*
X75615895Y-104899500D01*
X75615892Y-104899500D01*
X75484108Y-104899500D01*
X75484105Y-104899500D01*
X75356815Y-104933607D01*
X75356811Y-104933608D01*
X75242685Y-104999500D01*
X75242685Y-104999501D01*
X75149501Y-105092685D01*
X75149500Y-105092685D01*
X75083608Y-105206811D01*
X75083607Y-105206815D01*
X75049500Y-105334104D01*
X68100500Y-105334104D01*
X68100500Y-104200000D01*
X108700000Y-104200000D01*
X111900000Y-104200000D01*
X111900000Y-102196535D01*
X112009500Y-102196535D01*
X112009500Y-102403465D01*
X112036290Y-102538150D01*
X112049869Y-102606417D01*
X112049871Y-102606423D01*
X112129058Y-102797596D01*
X112129059Y-102797598D01*
X112244023Y-102969655D01*
X112390345Y-103115977D01*
X112562402Y-103230941D01*
X112753580Y-103310130D01*
X112956535Y-103350500D01*
X112956538Y-103350500D01*
X113163462Y-103350500D01*
X113163465Y-103350500D01*
X113366420Y-103310130D01*
X113557598Y-103230941D01*
X113729655Y-103115977D01*
X113875977Y-102969655D01*
X113990941Y-102797598D01*
X114070130Y-102606420D01*
X114110500Y-102403465D01*
X114110500Y-102196535D01*
X114070130Y-101993580D01*
X113990941Y-101802402D01*
X113875977Y-101630345D01*
X113729655Y-101484023D01*
X113649180Y-101430252D01*
X114549500Y-101430252D01*
X114549500Y-103169748D01*
X114561133Y-103228231D01*
X114562944Y-103230941D01*
X114605447Y-103294552D01*
X114628759Y-103310128D01*
X114671769Y-103338867D01*
X114730252Y-103350500D01*
X114730255Y-103350500D01*
X116469745Y-103350500D01*
X116469748Y-103350500D01*
X116528231Y-103338867D01*
X116594552Y-103294552D01*
X116638867Y-103228231D01*
X116650500Y-103169748D01*
X116650500Y-101430252D01*
X116638867Y-101371769D01*
X116612301Y-101332012D01*
X116594552Y-101305447D01*
X116554795Y-101278882D01*
X116528231Y-101261133D01*
X116469748Y-101249500D01*
X114730252Y-101249500D01*
X114671769Y-101261133D01*
X114605447Y-101305447D01*
X114562944Y-101369058D01*
X114561133Y-101371769D01*
X114549500Y-101430252D01*
X113649180Y-101430252D01*
X113557598Y-101369059D01*
X113557596Y-101369058D01*
X113366423Y-101289871D01*
X113366417Y-101289869D01*
X113284572Y-101273589D01*
X113163465Y-101249500D01*
X112956535Y-101249500D01*
X112855520Y-101269592D01*
X112753582Y-101289869D01*
X112753576Y-101289871D01*
X112562403Y-101369058D01*
X112390345Y-101484022D01*
X112244022Y-101630345D01*
X112129058Y-101802403D01*
X112049871Y-101993576D01*
X112049869Y-101993582D01*
X112038647Y-102050000D01*
X112009500Y-102196535D01*
X111900000Y-102196535D01*
X111900000Y-98596535D01*
X111989500Y-98596535D01*
X111989500Y-98803465D01*
X112013211Y-98922670D01*
X112029869Y-99006417D01*
X112029871Y-99006423D01*
X112096722Y-99167814D01*
X112109059Y-99197598D01*
X112122837Y-99218218D01*
X112221842Y-99366392D01*
X112224023Y-99369655D01*
X112370345Y-99515977D01*
X112542402Y-99630941D01*
X112733580Y-99710130D01*
X112936535Y-99750500D01*
X112936538Y-99750500D01*
X113143462Y-99750500D01*
X113143465Y-99750500D01*
X113346420Y-99710130D01*
X113537598Y-99630941D01*
X113709655Y-99515977D01*
X113855977Y-99369655D01*
X113970941Y-99197598D01*
X114050130Y-99006420D01*
X114090500Y-98803465D01*
X114090500Y-98596535D01*
X114050130Y-98393580D01*
X113970941Y-98202402D01*
X113855977Y-98030345D01*
X113709655Y-97884023D01*
X113629180Y-97830252D01*
X114529500Y-97830252D01*
X114529500Y-99569748D01*
X114541133Y-99628231D01*
X114545058Y-99634105D01*
X114585447Y-99694552D01*
X114607934Y-99709577D01*
X114651769Y-99738867D01*
X114710252Y-99750500D01*
X114710255Y-99750500D01*
X116449745Y-99750500D01*
X116449748Y-99750500D01*
X116508231Y-99738867D01*
X116574552Y-99694552D01*
X116618867Y-99628231D01*
X116630500Y-99569748D01*
X116630500Y-97830252D01*
X116618867Y-97771769D01*
X116592301Y-97732012D01*
X116574552Y-97705447D01*
X116534795Y-97678882D01*
X116508231Y-97661133D01*
X116449748Y-97649500D01*
X114710252Y-97649500D01*
X114651769Y-97661133D01*
X114585447Y-97705447D01*
X114542944Y-97769058D01*
X114541133Y-97771769D01*
X114529500Y-97830252D01*
X113629180Y-97830252D01*
X113537598Y-97769059D01*
X113468960Y-97740628D01*
X113346423Y-97689871D01*
X113346417Y-97689869D01*
X113264572Y-97673589D01*
X113143465Y-97649500D01*
X112936535Y-97649500D01*
X112835520Y-97669592D01*
X112733582Y-97689869D01*
X112733576Y-97689871D01*
X112542403Y-97769058D01*
X112370345Y-97884022D01*
X112224022Y-98030345D01*
X112109058Y-98202403D01*
X112029871Y-98393576D01*
X112029869Y-98393582D01*
X112018647Y-98450000D01*
X111989500Y-98596535D01*
X111900000Y-98596535D01*
X111900000Y-97300000D01*
X108700000Y-97300000D01*
X108700000Y-104200000D01*
X68100500Y-104200000D01*
X68100500Y-103262730D01*
X94739500Y-103262730D01*
X94739500Y-103394521D01*
X94773607Y-103521810D01*
X94773608Y-103521814D01*
X94828425Y-103616758D01*
X94839500Y-103635940D01*
X94932686Y-103729126D01*
X94974457Y-103753243D01*
X95046811Y-103795017D01*
X95046813Y-103795017D01*
X95046814Y-103795018D01*
X95147207Y-103821918D01*
X95174104Y-103829125D01*
X95174105Y-103829126D01*
X95174108Y-103829126D01*
X95305895Y-103829126D01*
X95305895Y-103829125D01*
X95433186Y-103795018D01*
X95547314Y-103729126D01*
X95640500Y-103635940D01*
X95706392Y-103521812D01*
X95740499Y-103394521D01*
X95740500Y-103394521D01*
X95740500Y-103262731D01*
X95740499Y-103262730D01*
X95715585Y-103169748D01*
X95706392Y-103135440D01*
X95706391Y-103135439D01*
X95706391Y-103135437D01*
X95640499Y-103021311D01*
X95547314Y-102928126D01*
X95433188Y-102862234D01*
X95433184Y-102862233D01*
X95305895Y-102828126D01*
X95305892Y-102828126D01*
X95174108Y-102828126D01*
X95174105Y-102828126D01*
X95046815Y-102862233D01*
X95046811Y-102862234D01*
X94932685Y-102928126D01*
X94932685Y-102928127D01*
X94839501Y-103021311D01*
X94839500Y-103021311D01*
X94773608Y-103135437D01*
X94773607Y-103135441D01*
X94739500Y-103262730D01*
X68100500Y-103262730D01*
X68100500Y-102634104D01*
X103799500Y-102634104D01*
X103799500Y-102765895D01*
X103833607Y-102893184D01*
X103833608Y-102893188D01*
X103899500Y-103007314D01*
X103992686Y-103100500D01*
X104019493Y-103115977D01*
X104106811Y-103166391D01*
X104106813Y-103166391D01*
X104106814Y-103166392D01*
X104155630Y-103179472D01*
X104234104Y-103200499D01*
X104234105Y-103200500D01*
X104234108Y-103200500D01*
X104365895Y-103200500D01*
X104365895Y-103200499D01*
X104493186Y-103166392D01*
X104607314Y-103100500D01*
X104700500Y-103007314D01*
X104766392Y-102893186D01*
X104800499Y-102765895D01*
X104800500Y-102765895D01*
X104800500Y-102634105D01*
X104800499Y-102634104D01*
X104777438Y-102548036D01*
X104766392Y-102506815D01*
X104766392Y-102506814D01*
X104766391Y-102506812D01*
X104766391Y-102506811D01*
X104700499Y-102392685D01*
X104607314Y-102299500D01*
X104493188Y-102233608D01*
X104493184Y-102233607D01*
X104365895Y-102199500D01*
X104365892Y-102199500D01*
X104234108Y-102199500D01*
X104234105Y-102199500D01*
X104106815Y-102233607D01*
X104106811Y-102233608D01*
X103992685Y-102299500D01*
X103992685Y-102299501D01*
X103899501Y-102392685D01*
X103899500Y-102392685D01*
X103833608Y-102506811D01*
X103833607Y-102506815D01*
X103799500Y-102634104D01*
X68100500Y-102634104D01*
X68100500Y-101834104D01*
X106599500Y-101834104D01*
X106599500Y-101965895D01*
X106633607Y-102093184D01*
X106633608Y-102093188D01*
X106699500Y-102207314D01*
X106792686Y-102300500D01*
X106834457Y-102324617D01*
X106906811Y-102366391D01*
X106906813Y-102366391D01*
X106906814Y-102366392D01*
X107007207Y-102393292D01*
X107034104Y-102400499D01*
X107034105Y-102400500D01*
X107034108Y-102400500D01*
X107165895Y-102400500D01*
X107165895Y-102400499D01*
X107293186Y-102366392D01*
X107294167Y-102365826D01*
X107308478Y-102357563D01*
X107407314Y-102300500D01*
X107500500Y-102207314D01*
X107537035Y-102144032D01*
X107566391Y-102093188D01*
X107566391Y-102093187D01*
X107566392Y-102093186D01*
X107600499Y-101965895D01*
X107600500Y-101965895D01*
X107600500Y-101834105D01*
X107600499Y-101834104D01*
X107566392Y-101706815D01*
X107566391Y-101706811D01*
X107500499Y-101592685D01*
X107407314Y-101499500D01*
X107293188Y-101433608D01*
X107293184Y-101433607D01*
X107165895Y-101399500D01*
X107165892Y-101399500D01*
X107034108Y-101399500D01*
X107034105Y-101399500D01*
X106906815Y-101433607D01*
X106906811Y-101433608D01*
X106792685Y-101499500D01*
X106792685Y-101499501D01*
X106699501Y-101592685D01*
X106699500Y-101592685D01*
X106633608Y-101706811D01*
X106633607Y-101706815D01*
X106599500Y-101834104D01*
X68100500Y-101834104D01*
X68100500Y-99536233D01*
X71489500Y-99536233D01*
X71489500Y-99703767D01*
X71501858Y-99765895D01*
X71522183Y-99868079D01*
X71522185Y-99868085D01*
X71586296Y-100022862D01*
X71679371Y-100162159D01*
X71797840Y-100280628D01*
X71937137Y-100373703D01*
X72091918Y-100437816D01*
X72256233Y-100470500D01*
X72256236Y-100470500D01*
X72423764Y-100470500D01*
X72423767Y-100470500D01*
X72588082Y-100437816D01*
X72742863Y-100373703D01*
X72882162Y-100280626D01*
X73000626Y-100162162D01*
X73093703Y-100022863D01*
X73157816Y-99868082D01*
X73190500Y-99703767D01*
X73190500Y-99536233D01*
X73157816Y-99371918D01*
X73093703Y-99217137D01*
X73087139Y-99207314D01*
X73012063Y-99094954D01*
X73000628Y-99077840D01*
X72993727Y-99070939D01*
X84399500Y-99070939D01*
X84399500Y-99229060D01*
X84440422Y-99381782D01*
X84440423Y-99381786D01*
X84519475Y-99518709D01*
X84519478Y-99518713D01*
X84519480Y-99518716D01*
X84631284Y-99630520D01*
X84631287Y-99630521D01*
X84631290Y-99630524D01*
X84768213Y-99709576D01*
X84768215Y-99709576D01*
X84768216Y-99709577D01*
X84843380Y-99729717D01*
X84920939Y-99750499D01*
X84920940Y-99750500D01*
X84920943Y-99750500D01*
X85079060Y-99750500D01*
X85079060Y-99750499D01*
X85231784Y-99709577D01*
X85241848Y-99703767D01*
X85362501Y-99634108D01*
X85362508Y-99634104D01*
X105999500Y-99634104D01*
X105999500Y-99765895D01*
X106033607Y-99893184D01*
X106033608Y-99893188D01*
X106067041Y-99951094D01*
X106099500Y-100007314D01*
X106192686Y-100100500D01*
X106234457Y-100124617D01*
X106306811Y-100166391D01*
X106306813Y-100166391D01*
X106306814Y-100166392D01*
X106407207Y-100193292D01*
X106434104Y-100200499D01*
X106434105Y-100200500D01*
X106434108Y-100200500D01*
X106565895Y-100200500D01*
X106565895Y-100200499D01*
X106693186Y-100166392D01*
X106807314Y-100100500D01*
X106900500Y-100007314D01*
X106966392Y-99893186D01*
X107000499Y-99765895D01*
X107000500Y-99765895D01*
X107000500Y-99634105D01*
X107000499Y-99634104D01*
X106983254Y-99569744D01*
X106966392Y-99506814D01*
X106966391Y-99506813D01*
X106966391Y-99506811D01*
X106909083Y-99407553D01*
X106900500Y-99392686D01*
X106807314Y-99299500D01*
X106693188Y-99233608D01*
X106693184Y-99233607D01*
X106565895Y-99199500D01*
X106565892Y-99199500D01*
X106434108Y-99199500D01*
X106434105Y-99199500D01*
X106306815Y-99233607D01*
X106306811Y-99233608D01*
X106192685Y-99299500D01*
X106192685Y-99299501D01*
X106099501Y-99392685D01*
X106099500Y-99392685D01*
X106033608Y-99506811D01*
X106033607Y-99506815D01*
X105999500Y-99634104D01*
X85362508Y-99634104D01*
X85368716Y-99630520D01*
X85480520Y-99518716D01*
X85528962Y-99434812D01*
X85559576Y-99381786D01*
X85559576Y-99381785D01*
X85559577Y-99381784D01*
X85600499Y-99229060D01*
X85600500Y-99229060D01*
X85600500Y-99070940D01*
X85600499Y-99070939D01*
X85579665Y-98993186D01*
X85559577Y-98918216D01*
X85559576Y-98918215D01*
X85559576Y-98918213D01*
X85543119Y-98889709D01*
X85530826Y-98868417D01*
X99133813Y-98868417D01*
X99133813Y-99000208D01*
X99167920Y-99127497D01*
X99167921Y-99127501D01*
X99220298Y-99218218D01*
X99233813Y-99241627D01*
X99326999Y-99334813D01*
X99368770Y-99358930D01*
X99441124Y-99400704D01*
X99441126Y-99400704D01*
X99441127Y-99400705D01*
X99541520Y-99427605D01*
X99568417Y-99434812D01*
X99568418Y-99434813D01*
X99568421Y-99434813D01*
X99700208Y-99434813D01*
X99700208Y-99434812D01*
X99827499Y-99400705D01*
X99941627Y-99334813D01*
X100034813Y-99241627D01*
X100100705Y-99127499D01*
X100134812Y-99000208D01*
X100134813Y-99000208D01*
X100134813Y-98868418D01*
X100128157Y-98843578D01*
X100125618Y-98834104D01*
X100499500Y-98834104D01*
X100499500Y-98965895D01*
X100533607Y-99093184D01*
X100533608Y-99093188D01*
X100595277Y-99200000D01*
X100599500Y-99207314D01*
X100692686Y-99300500D01*
X100734457Y-99324617D01*
X100806811Y-99366391D01*
X100806813Y-99366391D01*
X100806814Y-99366392D01*
X100907207Y-99393292D01*
X100934104Y-99400499D01*
X100934105Y-99400500D01*
X100934108Y-99400500D01*
X101065895Y-99400500D01*
X101065895Y-99400499D01*
X101193186Y-99366392D01*
X101307314Y-99300500D01*
X101400500Y-99207314D01*
X101466392Y-99093186D01*
X101500499Y-98965895D01*
X101500500Y-98965895D01*
X101500500Y-98834105D01*
X101500499Y-98834104D01*
X101476243Y-98743578D01*
X101473704Y-98734104D01*
X103999500Y-98734104D01*
X103999500Y-98865895D01*
X104033607Y-98993184D01*
X104033608Y-98993188D01*
X104078499Y-99070940D01*
X104099500Y-99107314D01*
X104192686Y-99200500D01*
X104234457Y-99224617D01*
X104306811Y-99266391D01*
X104306813Y-99266391D01*
X104306814Y-99266392D01*
X104407207Y-99293292D01*
X104434104Y-99300499D01*
X104434105Y-99300500D01*
X104434108Y-99300500D01*
X104565895Y-99300500D01*
X104565895Y-99300499D01*
X104693186Y-99266392D01*
X104807314Y-99200500D01*
X104900500Y-99107314D01*
X104966392Y-98993186D01*
X104977964Y-98950000D01*
X104985287Y-98922671D01*
X104985287Y-98922670D01*
X105000499Y-98865895D01*
X105000500Y-98865895D01*
X105000500Y-98734105D01*
X105000499Y-98734104D01*
X104966392Y-98606814D01*
X104966390Y-98606810D01*
X104924245Y-98533814D01*
X104900500Y-98492686D01*
X104807314Y-98399500D01*
X104797060Y-98393580D01*
X104693188Y-98333608D01*
X104693184Y-98333607D01*
X104565895Y-98299500D01*
X104565892Y-98299500D01*
X104434108Y-98299500D01*
X104434105Y-98299500D01*
X104306815Y-98333607D01*
X104306811Y-98333608D01*
X104192685Y-98399500D01*
X104099501Y-98492685D01*
X104099500Y-98492685D01*
X104033610Y-98606810D01*
X104033607Y-98606815D01*
X103999500Y-98734104D01*
X101473704Y-98734104D01*
X101466392Y-98706814D01*
X101466391Y-98706811D01*
X101408657Y-98606814D01*
X101400500Y-98592686D01*
X101307314Y-98499500D01*
X101295507Y-98492683D01*
X101193188Y-98433608D01*
X101193184Y-98433607D01*
X101065895Y-98399500D01*
X101065892Y-98399500D01*
X100934108Y-98399500D01*
X100934105Y-98399500D01*
X100806815Y-98433607D01*
X100806811Y-98433608D01*
X100692685Y-98499500D01*
X100692685Y-98499501D01*
X100599501Y-98592685D01*
X100599500Y-98592685D01*
X100533608Y-98706811D01*
X100533607Y-98706815D01*
X100499500Y-98834104D01*
X100125618Y-98834104D01*
X100107323Y-98765826D01*
X100100705Y-98741127D01*
X100100704Y-98741126D01*
X100100704Y-98741124D01*
X100034812Y-98626998D01*
X99941627Y-98533813D01*
X99827501Y-98467921D01*
X99827497Y-98467920D01*
X99700208Y-98433813D01*
X99700205Y-98433813D01*
X99568421Y-98433813D01*
X99568418Y-98433813D01*
X99441128Y-98467920D01*
X99441124Y-98467921D01*
X99326998Y-98533813D01*
X99326998Y-98533814D01*
X99233814Y-98626998D01*
X99233813Y-98626998D01*
X99167921Y-98741124D01*
X99167920Y-98741128D01*
X99133813Y-98868417D01*
X85530826Y-98868417D01*
X85480524Y-98781290D01*
X85480521Y-98781287D01*
X85480520Y-98781284D01*
X85368716Y-98669480D01*
X85368713Y-98669478D01*
X85368709Y-98669475D01*
X85231786Y-98590423D01*
X85231782Y-98590422D01*
X85079060Y-98549500D01*
X85079057Y-98549500D01*
X84920943Y-98549500D01*
X84920940Y-98549500D01*
X84768217Y-98590422D01*
X84768213Y-98590423D01*
X84631290Y-98669475D01*
X84631281Y-98669482D01*
X84519482Y-98781281D01*
X84519475Y-98781290D01*
X84440423Y-98918213D01*
X84440422Y-98918217D01*
X84399500Y-99070939D01*
X72993727Y-99070939D01*
X72882159Y-98959371D01*
X72742862Y-98866296D01*
X72588085Y-98802185D01*
X72588079Y-98802183D01*
X72521816Y-98789002D01*
X72423767Y-98769500D01*
X72256233Y-98769500D01*
X72174451Y-98785767D01*
X72091920Y-98802183D01*
X72091914Y-98802185D01*
X71937137Y-98866296D01*
X71797840Y-98959371D01*
X71679371Y-99077840D01*
X71586296Y-99217137D01*
X71522185Y-99371914D01*
X71522183Y-99371920D01*
X71505767Y-99454451D01*
X71489500Y-99536233D01*
X68100500Y-99536233D01*
X68100500Y-98266233D01*
X68949500Y-98266233D01*
X68949500Y-98433767D01*
X68964068Y-98507007D01*
X68982183Y-98598079D01*
X68982185Y-98598085D01*
X69046296Y-98752862D01*
X69139371Y-98892159D01*
X69257840Y-99010628D01*
X69348102Y-99070939D01*
X69397137Y-99103703D01*
X69551918Y-99167816D01*
X69716233Y-99200500D01*
X69716236Y-99200500D01*
X69883764Y-99200500D01*
X69883767Y-99200500D01*
X70048082Y-99167816D01*
X70202863Y-99103703D01*
X70342162Y-99010626D01*
X70460626Y-98892162D01*
X70553703Y-98752863D01*
X70617816Y-98598082D01*
X70650500Y-98433767D01*
X70650500Y-98266233D01*
X70617816Y-98101918D01*
X70553703Y-97947137D01*
X70549268Y-97940499D01*
X70460628Y-97807840D01*
X70342159Y-97689371D01*
X70202862Y-97596296D01*
X70048085Y-97532185D01*
X70048079Y-97532183D01*
X69981816Y-97519002D01*
X69883767Y-97499500D01*
X69716233Y-97499500D01*
X69634451Y-97515767D01*
X69551920Y-97532183D01*
X69551914Y-97532185D01*
X69397137Y-97596296D01*
X69257840Y-97689371D01*
X69139371Y-97807840D01*
X69046296Y-97947137D01*
X68982185Y-98101914D01*
X68982183Y-98101920D01*
X68966298Y-98181781D01*
X68949500Y-98266233D01*
X68100500Y-98266233D01*
X68100500Y-96996233D01*
X71489500Y-96996233D01*
X71489500Y-97163767D01*
X71503030Y-97231786D01*
X71522183Y-97328079D01*
X71522185Y-97328085D01*
X71586296Y-97482862D01*
X71679371Y-97622159D01*
X71797840Y-97740628D01*
X71898427Y-97807838D01*
X71937137Y-97833703D01*
X72091918Y-97897816D01*
X72256233Y-97930500D01*
X72256236Y-97930500D01*
X72423764Y-97930500D01*
X72423767Y-97930500D01*
X72588082Y-97897816D01*
X72742863Y-97833703D01*
X72882162Y-97740626D01*
X73000626Y-97622162D01*
X73093703Y-97482863D01*
X73097331Y-97474104D01*
X75199500Y-97474104D01*
X75199500Y-97605895D01*
X75233607Y-97733184D01*
X75233608Y-97733188D01*
X75284035Y-97820528D01*
X75299500Y-97847314D01*
X75392686Y-97940500D01*
X75404182Y-97947137D01*
X75506811Y-98006391D01*
X75506813Y-98006391D01*
X75506814Y-98006392D01*
X75596209Y-98030345D01*
X75634104Y-98040499D01*
X75634105Y-98040500D01*
X75634108Y-98040500D01*
X75765895Y-98040500D01*
X75765895Y-98040499D01*
X75893186Y-98006392D01*
X76007314Y-97940500D01*
X76100500Y-97847314D01*
X76166392Y-97733186D01*
X76200499Y-97605895D01*
X76200500Y-97605895D01*
X76200500Y-97474105D01*
X76200499Y-97474104D01*
X76172261Y-97368718D01*
X76166392Y-97346814D01*
X76166391Y-97346813D01*
X76166391Y-97346811D01*
X76100499Y-97232685D01*
X76007314Y-97139500D01*
X75893188Y-97073608D01*
X75893184Y-97073607D01*
X75765895Y-97039500D01*
X75765892Y-97039500D01*
X75634108Y-97039500D01*
X75634105Y-97039500D01*
X75506815Y-97073607D01*
X75506811Y-97073608D01*
X75392685Y-97139500D01*
X75392685Y-97139501D01*
X75299501Y-97232685D01*
X75299500Y-97232685D01*
X75233608Y-97346811D01*
X75233607Y-97346815D01*
X75199500Y-97474104D01*
X73097331Y-97474104D01*
X73157816Y-97328082D01*
X73190500Y-97163767D01*
X73190500Y-96996233D01*
X73175523Y-96920939D01*
X84499500Y-96920939D01*
X84499500Y-97079060D01*
X84540422Y-97231782D01*
X84540423Y-97231786D01*
X84619475Y-97368709D01*
X84619478Y-97368713D01*
X84619480Y-97368716D01*
X84731284Y-97480520D01*
X84731287Y-97480521D01*
X84731290Y-97480524D01*
X84868213Y-97559576D01*
X84868215Y-97559576D01*
X84868216Y-97559577D01*
X84988665Y-97591851D01*
X85020939Y-97600499D01*
X85020940Y-97600500D01*
X85020943Y-97600500D01*
X85179060Y-97600500D01*
X85179060Y-97600499D01*
X85331784Y-97559577D01*
X85356380Y-97545377D01*
X85468709Y-97480524D01*
X85468708Y-97480524D01*
X85468716Y-97480520D01*
X85580520Y-97368716D01*
X85659577Y-97231784D01*
X85700499Y-97079060D01*
X85700500Y-97079060D01*
X85700500Y-96920940D01*
X85700499Y-96920939D01*
X85685749Y-96865892D01*
X85659577Y-96768216D01*
X85639885Y-96734108D01*
X85639883Y-96734104D01*
X104039500Y-96734104D01*
X104039500Y-96865895D01*
X104073607Y-96993184D01*
X104073608Y-96993188D01*
X104139500Y-97107314D01*
X104232686Y-97200500D01*
X104274457Y-97224617D01*
X104346811Y-97266391D01*
X104346813Y-97266391D01*
X104346814Y-97266392D01*
X104447207Y-97293292D01*
X104474104Y-97300499D01*
X104474105Y-97300500D01*
X104474108Y-97300500D01*
X104605895Y-97300500D01*
X104605895Y-97300499D01*
X104733186Y-97266392D01*
X104847314Y-97200500D01*
X104940500Y-97107314D01*
X105006392Y-96993186D01*
X105040499Y-96865895D01*
X105040500Y-96865895D01*
X105040500Y-96734105D01*
X105040499Y-96734104D01*
X105012950Y-96631290D01*
X105006392Y-96606814D01*
X104993280Y-96584104D01*
X105749500Y-96584104D01*
X105749500Y-96715895D01*
X105783607Y-96843184D01*
X105783608Y-96843188D01*
X105844073Y-96947915D01*
X105849500Y-96957314D01*
X105942686Y-97050500D01*
X105982708Y-97073607D01*
X106056811Y-97116391D01*
X106056813Y-97116391D01*
X106056814Y-97116392D01*
X106143055Y-97139500D01*
X106184104Y-97150499D01*
X106184105Y-97150500D01*
X106184108Y-97150500D01*
X106315895Y-97150500D01*
X106315895Y-97150499D01*
X106443186Y-97116392D01*
X106557314Y-97050500D01*
X106650500Y-96957314D01*
X106716392Y-96843186D01*
X106750499Y-96715895D01*
X106750500Y-96715895D01*
X106750500Y-96584105D01*
X106750499Y-96584104D01*
X106726004Y-96492686D01*
X106716392Y-96456814D01*
X106716391Y-96456813D01*
X106716391Y-96456811D01*
X106650499Y-96342685D01*
X106557314Y-96249500D01*
X106443188Y-96183608D01*
X106443184Y-96183607D01*
X106315895Y-96149500D01*
X106315892Y-96149500D01*
X106184108Y-96149500D01*
X106184105Y-96149500D01*
X106056815Y-96183607D01*
X106056811Y-96183608D01*
X105942685Y-96249500D01*
X105942685Y-96249501D01*
X105849501Y-96342685D01*
X105849500Y-96342685D01*
X105783608Y-96456811D01*
X105783607Y-96456815D01*
X105749500Y-96584104D01*
X104993280Y-96584104D01*
X104940500Y-96492686D01*
X104847314Y-96399500D01*
X104733188Y-96333608D01*
X104733184Y-96333607D01*
X104605895Y-96299500D01*
X104605892Y-96299500D01*
X104474108Y-96299500D01*
X104474105Y-96299500D01*
X104346815Y-96333607D01*
X104346811Y-96333608D01*
X104232685Y-96399500D01*
X104139501Y-96492685D01*
X104139500Y-96492685D01*
X104073608Y-96606811D01*
X104073607Y-96606815D01*
X104039500Y-96734104D01*
X85639883Y-96734104D01*
X85580524Y-96631290D01*
X85580521Y-96631287D01*
X85580520Y-96631284D01*
X85468716Y-96519480D01*
X85468713Y-96519478D01*
X85468709Y-96519475D01*
X85331786Y-96440423D01*
X85331782Y-96440422D01*
X85179060Y-96399500D01*
X85179057Y-96399500D01*
X85020943Y-96399500D01*
X85020940Y-96399500D01*
X84868217Y-96440422D01*
X84868213Y-96440423D01*
X84731290Y-96519475D01*
X84731281Y-96519482D01*
X84619482Y-96631281D01*
X84619475Y-96631290D01*
X84540423Y-96768213D01*
X84540422Y-96768217D01*
X84499500Y-96920939D01*
X73175523Y-96920939D01*
X73157816Y-96831918D01*
X73093703Y-96677137D01*
X73046715Y-96606815D01*
X73000628Y-96537840D01*
X72882159Y-96419371D01*
X72742862Y-96326296D01*
X72588085Y-96262185D01*
X72588079Y-96262183D01*
X72521816Y-96249002D01*
X72423767Y-96229500D01*
X72256233Y-96229500D01*
X72174451Y-96245767D01*
X72091920Y-96262183D01*
X72091914Y-96262185D01*
X71937137Y-96326296D01*
X71797840Y-96419371D01*
X71679371Y-96537840D01*
X71586296Y-96677137D01*
X71522185Y-96831914D01*
X71522183Y-96831920D01*
X71507975Y-96903351D01*
X71489500Y-96996233D01*
X68100500Y-96996233D01*
X68100500Y-95018292D01*
X68114852Y-94983644D01*
X68149303Y-94969293D01*
X68617405Y-94967449D01*
X68652108Y-94981665D01*
X68666596Y-95016256D01*
X68663507Y-95033570D01*
X68656401Y-95052622D01*
X68656401Y-95052624D01*
X68650000Y-95112165D01*
X68650000Y-95560000D01*
X69484314Y-95560000D01*
X69479920Y-95564394D01*
X69427259Y-95655606D01*
X69400000Y-95757339D01*
X69400000Y-95862661D01*
X69427259Y-95964394D01*
X69479920Y-96055606D01*
X69484314Y-96060000D01*
X68650000Y-96060000D01*
X68650000Y-96507834D01*
X68656401Y-96567372D01*
X68656401Y-96567373D01*
X68706648Y-96702091D01*
X68792811Y-96817188D01*
X68907908Y-96903351D01*
X69042626Y-96953598D01*
X69102166Y-96960000D01*
X69550000Y-96960000D01*
X69550000Y-96125686D01*
X69554394Y-96130080D01*
X69645606Y-96182741D01*
X69747339Y-96210000D01*
X69852661Y-96210000D01*
X69954394Y-96182741D01*
X70045606Y-96130080D01*
X70050000Y-96125686D01*
X70050000Y-96960000D01*
X70497834Y-96960000D01*
X70557372Y-96953598D01*
X70557380Y-96953596D01*
X70572608Y-96947917D01*
X70572612Y-96947915D01*
X70692091Y-96903351D01*
X70807188Y-96817188D01*
X70893351Y-96702091D01*
X70943598Y-96567373D01*
X70943598Y-96567372D01*
X70950000Y-96507834D01*
X70950000Y-96060000D01*
X70115686Y-96060000D01*
X70120080Y-96055606D01*
X70172741Y-95964394D01*
X70200000Y-95862661D01*
X70200000Y-95757339D01*
X70172741Y-95655606D01*
X70120080Y-95564394D01*
X70115686Y-95560000D01*
X70950000Y-95560000D01*
X70950000Y-95270647D01*
X70964352Y-95235999D01*
X70999000Y-95221647D01*
X71026220Y-95229904D01*
X71126086Y-95296632D01*
X71308165Y-95372051D01*
X71501459Y-95410500D01*
X71698541Y-95410500D01*
X71891835Y-95372051D01*
X72073914Y-95296632D01*
X72237782Y-95187139D01*
X72290817Y-95134104D01*
X107799500Y-95134104D01*
X107799500Y-95265895D01*
X107833607Y-95393184D01*
X107833608Y-95393188D01*
X107899500Y-95507314D01*
X107992686Y-95600500D01*
X108034457Y-95624617D01*
X108106811Y-95666391D01*
X108106813Y-95666391D01*
X108106814Y-95666392D01*
X108207207Y-95693292D01*
X108234104Y-95700499D01*
X108234105Y-95700500D01*
X108234108Y-95700500D01*
X108365895Y-95700500D01*
X108365895Y-95700499D01*
X108493186Y-95666392D01*
X108607314Y-95600500D01*
X108700500Y-95507314D01*
X108766392Y-95393186D01*
X108800499Y-95265895D01*
X108800500Y-95265895D01*
X108800500Y-95134105D01*
X108800499Y-95134104D01*
X108782355Y-95066391D01*
X108766392Y-95006814D01*
X108766391Y-95006813D01*
X108766391Y-95006811D01*
X108708946Y-94907315D01*
X108700500Y-94892686D01*
X108607314Y-94799500D01*
X108493188Y-94733608D01*
X108493184Y-94733607D01*
X108365895Y-94699500D01*
X108365892Y-94699500D01*
X108234108Y-94699500D01*
X108234105Y-94699500D01*
X108106815Y-94733607D01*
X108106811Y-94733608D01*
X107992685Y-94799500D01*
X107899501Y-94892685D01*
X107899500Y-94892685D01*
X107833608Y-95006811D01*
X107833607Y-95006815D01*
X107799500Y-95134104D01*
X72290817Y-95134104D01*
X72377139Y-95047782D01*
X72426393Y-94974066D01*
X72457574Y-94953232D01*
X72466929Y-94952291D01*
X72500000Y-94952161D01*
X73143386Y-93348683D01*
X76749500Y-93348683D01*
X76749500Y-93480474D01*
X76783607Y-93607763D01*
X76783608Y-93607767D01*
X76839411Y-93704418D01*
X76849500Y-93721893D01*
X76942686Y-93815079D01*
X76948693Y-93818547D01*
X77056811Y-93880970D01*
X77056813Y-93880970D01*
X77056814Y-93880971D01*
X77089933Y-93889845D01*
X77184104Y-93915078D01*
X77184105Y-93915079D01*
X77184108Y-93915079D01*
X77315895Y-93915079D01*
X77315895Y-93915078D01*
X77428336Y-93884950D01*
X77465518Y-93889845D01*
X77488348Y-93919598D01*
X77488349Y-93944960D01*
X77487351Y-93948685D01*
X77487351Y-94080474D01*
X77521458Y-94207763D01*
X77521459Y-94207767D01*
X77570488Y-94292686D01*
X77587351Y-94321893D01*
X77680537Y-94415079D01*
X77722308Y-94439196D01*
X77794662Y-94480970D01*
X77794664Y-94480970D01*
X77794665Y-94480971D01*
X77889546Y-94506394D01*
X77921955Y-94515078D01*
X77921956Y-94515079D01*
X77921959Y-94515079D01*
X78053746Y-94515079D01*
X78053746Y-94515078D01*
X78181037Y-94480971D01*
X78295165Y-94415079D01*
X78388351Y-94321893D01*
X78454243Y-94207765D01*
X78488350Y-94080474D01*
X78488351Y-94080474D01*
X78488351Y-94060310D01*
X78490922Y-94054104D01*
X92859500Y-94054104D01*
X92859500Y-94185895D01*
X92893607Y-94313184D01*
X92893608Y-94313188D01*
X92952436Y-94415079D01*
X92959500Y-94427314D01*
X93052686Y-94520500D01*
X93076256Y-94534108D01*
X93166811Y-94586391D01*
X93166813Y-94586391D01*
X93166814Y-94586392D01*
X93267207Y-94613292D01*
X93294104Y-94620499D01*
X93294105Y-94620500D01*
X93294108Y-94620500D01*
X93425895Y-94620500D01*
X93425895Y-94620499D01*
X93553186Y-94586392D01*
X93667314Y-94520500D01*
X93760500Y-94427314D01*
X93826392Y-94313186D01*
X93860499Y-94185895D01*
X93860500Y-94185895D01*
X93860500Y-94184104D01*
X94129500Y-94184104D01*
X94129500Y-94315895D01*
X94163607Y-94443184D01*
X94163608Y-94443188D01*
X94216100Y-94534105D01*
X94229500Y-94557314D01*
X94322686Y-94650500D01*
X94349346Y-94665892D01*
X94436811Y-94716391D01*
X94436813Y-94716391D01*
X94436814Y-94716392D01*
X94501062Y-94733607D01*
X94564104Y-94750499D01*
X94564105Y-94750500D01*
X94564108Y-94750500D01*
X94695895Y-94750500D01*
X94695895Y-94750499D01*
X94823186Y-94716392D01*
X94937314Y-94650500D01*
X95030500Y-94557314D01*
X95043901Y-94534104D01*
X106199500Y-94534104D01*
X106199500Y-94665895D01*
X106233607Y-94793184D01*
X106233608Y-94793188D01*
X106285990Y-94883914D01*
X106299500Y-94907314D01*
X106392686Y-95000500D01*
X106403624Y-95006815D01*
X106506811Y-95066391D01*
X106506813Y-95066391D01*
X106506814Y-95066392D01*
X106570909Y-95083566D01*
X106634104Y-95100499D01*
X106634105Y-95100500D01*
X106634108Y-95100500D01*
X106765895Y-95100500D01*
X106765895Y-95100499D01*
X106783810Y-95095698D01*
X106829093Y-95083566D01*
X106859893Y-95075312D01*
X106893186Y-95066392D01*
X107007314Y-95000500D01*
X107100500Y-94907314D01*
X107166392Y-94793186D01*
X107200499Y-94665895D01*
X107200500Y-94665895D01*
X107200500Y-94534105D01*
X107200499Y-94534104D01*
X107171885Y-94427314D01*
X107166392Y-94406814D01*
X107166391Y-94406813D01*
X107166391Y-94406811D01*
X107112337Y-94313188D01*
X107100500Y-94292686D01*
X107007314Y-94199500D01*
X106983750Y-94185895D01*
X106893188Y-94133608D01*
X106893184Y-94133607D01*
X106765895Y-94099500D01*
X106765892Y-94099500D01*
X106634108Y-94099500D01*
X106634105Y-94099500D01*
X106506815Y-94133607D01*
X106506811Y-94133608D01*
X106392685Y-94199500D01*
X106392685Y-94199501D01*
X106299501Y-94292685D01*
X106299500Y-94292685D01*
X106233608Y-94406811D01*
X106233607Y-94406815D01*
X106199500Y-94534104D01*
X95043901Y-94534104D01*
X95074578Y-94480970D01*
X95096391Y-94443188D01*
X95096391Y-94443187D01*
X95096392Y-94443186D01*
X95130499Y-94315895D01*
X95130500Y-94315895D01*
X95130500Y-94184105D01*
X95130499Y-94184104D01*
X95112831Y-94118165D01*
X95096392Y-94056814D01*
X95096391Y-94056813D01*
X95096391Y-94056811D01*
X95054617Y-93984457D01*
X95030500Y-93942686D01*
X94937314Y-93849500D01*
X94918109Y-93838412D01*
X94823188Y-93783608D01*
X94823184Y-93783607D01*
X94695895Y-93749500D01*
X94695892Y-93749500D01*
X94564108Y-93749500D01*
X94564105Y-93749500D01*
X94436815Y-93783607D01*
X94436811Y-93783608D01*
X94322685Y-93849500D01*
X94322685Y-93849501D01*
X94229501Y-93942685D01*
X94229500Y-93942685D01*
X94163608Y-94056811D01*
X94163607Y-94056815D01*
X94129500Y-94184104D01*
X93860500Y-94184104D01*
X93860500Y-94054105D01*
X93860499Y-94054104D01*
X93830645Y-93942686D01*
X93826392Y-93926814D01*
X93826391Y-93926813D01*
X93826391Y-93926811D01*
X93775353Y-93838412D01*
X93760500Y-93812686D01*
X93667314Y-93719500D01*
X93641195Y-93704420D01*
X93553188Y-93653608D01*
X93553184Y-93653607D01*
X93425895Y-93619500D01*
X93425892Y-93619500D01*
X93294108Y-93619500D01*
X93294105Y-93619500D01*
X93166815Y-93653607D01*
X93166811Y-93653608D01*
X93052685Y-93719500D01*
X93052685Y-93719501D01*
X92959501Y-93812685D01*
X92959500Y-93812685D01*
X92893608Y-93926811D01*
X92893607Y-93926815D01*
X92859500Y-94054104D01*
X78490922Y-94054104D01*
X78502703Y-94025662D01*
X78537351Y-94011310D01*
X78543750Y-94011730D01*
X78543765Y-94011732D01*
X78543767Y-94011732D01*
X78675554Y-94011732D01*
X78675554Y-94011731D01*
X78681900Y-94010030D01*
X78706030Y-94003566D01*
X78762362Y-93988471D01*
X78802845Y-93977624D01*
X78916973Y-93911732D01*
X79010159Y-93818546D01*
X79076051Y-93704418D01*
X79110158Y-93577127D01*
X79110159Y-93577127D01*
X79110159Y-93445339D01*
X79109876Y-93444283D01*
X79109876Y-93444281D01*
X79107338Y-93434810D01*
X79400207Y-93434810D01*
X79400207Y-93566601D01*
X79434314Y-93693890D01*
X79434315Y-93693894D01*
X79500207Y-93808020D01*
X79593393Y-93901206D01*
X79611623Y-93911731D01*
X79707518Y-93967097D01*
X79707520Y-93967097D01*
X79707521Y-93967098D01*
X79807914Y-93993998D01*
X79834811Y-94001205D01*
X79834812Y-94001206D01*
X79834815Y-94001206D01*
X79966602Y-94001206D01*
X79966602Y-94001205D01*
X80093893Y-93967098D01*
X80208021Y-93901206D01*
X80301207Y-93808020D01*
X80367099Y-93693892D01*
X80401206Y-93566601D01*
X80401207Y-93566601D01*
X80401207Y-93434811D01*
X80401206Y-93434810D01*
X80393999Y-93407913D01*
X80367099Y-93307520D01*
X80367098Y-93307519D01*
X80367098Y-93307517D01*
X80307284Y-93203918D01*
X80301207Y-93193392D01*
X80208021Y-93100206D01*
X80093895Y-93034314D01*
X80093891Y-93034313D01*
X79966602Y-93000206D01*
X79966599Y-93000206D01*
X79834815Y-93000206D01*
X79834812Y-93000206D01*
X79707522Y-93034313D01*
X79707518Y-93034314D01*
X79593392Y-93100206D01*
X79593392Y-93100207D01*
X79500208Y-93193391D01*
X79500207Y-93193391D01*
X79434315Y-93307517D01*
X79434314Y-93307521D01*
X79400207Y-93434810D01*
X79107338Y-93434810D01*
X79076051Y-93318047D01*
X79076050Y-93318043D01*
X79010158Y-93203917D01*
X78916973Y-93110732D01*
X78802847Y-93044840D01*
X78802843Y-93044839D01*
X78675554Y-93010732D01*
X78675551Y-93010732D01*
X78543767Y-93010732D01*
X78543764Y-93010732D01*
X78416474Y-93044839D01*
X78416470Y-93044840D01*
X78302344Y-93110732D01*
X78302344Y-93110733D01*
X78209160Y-93203917D01*
X78209159Y-93203917D01*
X78143267Y-93318043D01*
X78143266Y-93318047D01*
X78109159Y-93445336D01*
X78109159Y-93465500D01*
X78094807Y-93500148D01*
X78060159Y-93514500D01*
X78053777Y-93514083D01*
X78053747Y-93514079D01*
X78053743Y-93514079D01*
X77921959Y-93514079D01*
X77921956Y-93514079D01*
X77809514Y-93544207D01*
X77772332Y-93539312D01*
X77749502Y-93509559D01*
X77749502Y-93484191D01*
X77750500Y-93480471D01*
X77750500Y-93348687D01*
X77750500Y-93348684D01*
X77750499Y-93348683D01*
X77716392Y-93221394D01*
X77716391Y-93221390D01*
X77652502Y-93110733D01*
X77650500Y-93107265D01*
X77557314Y-93014079D01*
X77551517Y-93010732D01*
X77443188Y-92948187D01*
X77443184Y-92948186D01*
X77315895Y-92914079D01*
X77315892Y-92914079D01*
X77184108Y-92914079D01*
X77184105Y-92914079D01*
X77056815Y-92948186D01*
X77056811Y-92948187D01*
X76942685Y-93014079D01*
X76942685Y-93014080D01*
X76849501Y-93107264D01*
X76849500Y-93107264D01*
X76783608Y-93221390D01*
X76783607Y-93221394D01*
X76749500Y-93348683D01*
X73143386Y-93348683D01*
X74037735Y-91119745D01*
X74063956Y-91092935D01*
X74082935Y-91088995D01*
X84372384Y-91031516D01*
X84407112Y-91045674D01*
G37*
%TD.AperFunction*%
%TD*%
%TA.AperFunction,Conductor*%
%TO.N,GND_MCU*%
G36*
X117685148Y-67514852D02*
G01*
X117699500Y-67549500D01*
X117699500Y-70521228D01*
X117685148Y-70555876D01*
X117650500Y-70570228D01*
X117615852Y-70555876D01*
X117609758Y-70548451D01*
X117552139Y-70462218D01*
X117412781Y-70322860D01*
X117358650Y-70286691D01*
X117248914Y-70213368D01*
X117248911Y-70213366D01*
X117248910Y-70213366D01*
X117066836Y-70137949D01*
X117066827Y-70137947D01*
X116873544Y-70099500D01*
X116873541Y-70099500D01*
X116676459Y-70099500D01*
X116676455Y-70099500D01*
X116483172Y-70137947D01*
X116483163Y-70137949D01*
X116301089Y-70213366D01*
X116137218Y-70322860D01*
X115997860Y-70462218D01*
X115888366Y-70626089D01*
X115812949Y-70808163D01*
X115812947Y-70808172D01*
X115774500Y-71001455D01*
X115774500Y-71198544D01*
X115812947Y-71391827D01*
X115812949Y-71391836D01*
X115854122Y-71491236D01*
X115888368Y-71573914D01*
X115945062Y-71658763D01*
X115987070Y-71721633D01*
X115997861Y-71737782D01*
X116137218Y-71877139D01*
X116301086Y-71986632D01*
X116483165Y-72062051D01*
X116676459Y-72100500D01*
X116873541Y-72100500D01*
X117066835Y-72062051D01*
X117248914Y-71986632D01*
X117412782Y-71877139D01*
X117552139Y-71737782D01*
X117609759Y-71651547D01*
X117640940Y-71630713D01*
X117677723Y-71638029D01*
X117698558Y-71669211D01*
X117699500Y-71678771D01*
X117699500Y-86956785D01*
X117685148Y-86991433D01*
X117650594Y-87005785D01*
X111873696Y-87016878D01*
X111873696Y-87016879D01*
X111891341Y-88349999D01*
X111895979Y-88700351D01*
X111882087Y-88735187D01*
X111847632Y-88749996D01*
X111846983Y-88750000D01*
X101353752Y-88750000D01*
X101348556Y-88749724D01*
X97599993Y-88349999D01*
X88953767Y-88300021D01*
X88946285Y-88299403D01*
X86095491Y-87841869D01*
X84900000Y-87650000D01*
X84448052Y-87645891D01*
X74248555Y-87553168D01*
X74214038Y-87538502D01*
X74200000Y-87504170D01*
X74200000Y-86359104D01*
X99199500Y-86359104D01*
X99199500Y-86490895D01*
X99233607Y-86618184D01*
X99233608Y-86618188D01*
X99290307Y-86716391D01*
X99299500Y-86732314D01*
X99392686Y-86825500D01*
X99434457Y-86849617D01*
X99506811Y-86891391D01*
X99506813Y-86891391D01*
X99506814Y-86891392D01*
X99607207Y-86918292D01*
X99634104Y-86925499D01*
X99634105Y-86925500D01*
X99634108Y-86925500D01*
X99765895Y-86925500D01*
X99765895Y-86925499D01*
X99893186Y-86891392D01*
X100007314Y-86825500D01*
X100100500Y-86732314D01*
X100166392Y-86618186D01*
X100200499Y-86490895D01*
X100200500Y-86490895D01*
X100200500Y-86359105D01*
X100200499Y-86359104D01*
X100166392Y-86231815D01*
X100166391Y-86231811D01*
X100151140Y-86205396D01*
X100138847Y-86184104D01*
X105499500Y-86184104D01*
X105499500Y-86315895D01*
X105533607Y-86443184D01*
X105533608Y-86443188D01*
X105599500Y-86557314D01*
X105692686Y-86650500D01*
X105734457Y-86674617D01*
X105806811Y-86716391D01*
X105806813Y-86716391D01*
X105806814Y-86716392D01*
X105866240Y-86732315D01*
X105934104Y-86750499D01*
X105934105Y-86750500D01*
X105934108Y-86750500D01*
X106065895Y-86750500D01*
X106065895Y-86750499D01*
X106193186Y-86716392D01*
X106307314Y-86650500D01*
X106400500Y-86557314D01*
X106466392Y-86443186D01*
X106500499Y-86315895D01*
X106500500Y-86315895D01*
X106500500Y-86184105D01*
X106500499Y-86184104D01*
X106466392Y-86056815D01*
X106466391Y-86056811D01*
X106416558Y-85970499D01*
X106400500Y-85942686D01*
X106307314Y-85849500D01*
X106193188Y-85783608D01*
X106193184Y-85783607D01*
X106065895Y-85749500D01*
X106065892Y-85749500D01*
X105934108Y-85749500D01*
X105934105Y-85749500D01*
X105806815Y-85783607D01*
X105806811Y-85783608D01*
X105692685Y-85849500D01*
X105692685Y-85849501D01*
X105599501Y-85942685D01*
X105599500Y-85942685D01*
X105533608Y-86056811D01*
X105533607Y-86056815D01*
X105499500Y-86184104D01*
X100138847Y-86184104D01*
X100100499Y-86117685D01*
X100007314Y-86024500D01*
X99893188Y-85958608D01*
X99893184Y-85958607D01*
X99765895Y-85924500D01*
X99765892Y-85924500D01*
X99634108Y-85924500D01*
X99634105Y-85924500D01*
X99506815Y-85958607D01*
X99506811Y-85958608D01*
X99392685Y-86024500D01*
X99392685Y-86024501D01*
X99299501Y-86117685D01*
X99299500Y-86117685D01*
X99233608Y-86231811D01*
X99233607Y-86231815D01*
X99199500Y-86359104D01*
X74200000Y-86359104D01*
X74200000Y-85250000D01*
X72550000Y-85250000D01*
X72548483Y-85144104D01*
X77969500Y-85144104D01*
X77969500Y-85275895D01*
X78003607Y-85403184D01*
X78003608Y-85403188D01*
X78052179Y-85487314D01*
X78069500Y-85517314D01*
X78162686Y-85610500D01*
X78175999Y-85618186D01*
X78276811Y-85676391D01*
X78276813Y-85676391D01*
X78276814Y-85676392D01*
X78377207Y-85703292D01*
X78404104Y-85710499D01*
X78404105Y-85710500D01*
X78404108Y-85710500D01*
X78535895Y-85710500D01*
X78535895Y-85710499D01*
X78663186Y-85676392D01*
X78777314Y-85610500D01*
X78870500Y-85517314D01*
X78929056Y-85415892D01*
X78936391Y-85403188D01*
X78936391Y-85403187D01*
X78936392Y-85403186D01*
X78970499Y-85275895D01*
X78970500Y-85275895D01*
X78970500Y-85144105D01*
X78970499Y-85144104D01*
X78965000Y-85123578D01*
X78962461Y-85114104D01*
X79219500Y-85114104D01*
X79219500Y-85245895D01*
X79253607Y-85373184D01*
X79253608Y-85373188D01*
X79308482Y-85468230D01*
X79319500Y-85487314D01*
X79412686Y-85580500D01*
X79454457Y-85604617D01*
X79526811Y-85646391D01*
X79526813Y-85646391D01*
X79526814Y-85646392D01*
X79591267Y-85663662D01*
X79654104Y-85680499D01*
X79654105Y-85680500D01*
X79654108Y-85680500D01*
X79785895Y-85680500D01*
X79785895Y-85680499D01*
X79913186Y-85646392D01*
X80027314Y-85580500D01*
X80120500Y-85487314D01*
X80186392Y-85373186D01*
X80220499Y-85245895D01*
X80220500Y-85245895D01*
X80220500Y-85197266D01*
X80408383Y-85197266D01*
X80408383Y-85329057D01*
X80442490Y-85456346D01*
X80442491Y-85456350D01*
X80492626Y-85543184D01*
X80508383Y-85570476D01*
X80601569Y-85663662D01*
X80630733Y-85680500D01*
X80715694Y-85729553D01*
X80715696Y-85729553D01*
X80715697Y-85729554D01*
X80816090Y-85756454D01*
X80842987Y-85763661D01*
X80842988Y-85763662D01*
X80842991Y-85763662D01*
X80974778Y-85763662D01*
X80974778Y-85763661D01*
X81102069Y-85729554D01*
X81216197Y-85663662D01*
X81309383Y-85570476D01*
X81375275Y-85456348D01*
X81389520Y-85403184D01*
X81401332Y-85359104D01*
X89809500Y-85359104D01*
X89809500Y-85490895D01*
X89843607Y-85618184D01*
X89843608Y-85618188D01*
X89909500Y-85732314D01*
X90002686Y-85825500D01*
X90044255Y-85849500D01*
X90116811Y-85891391D01*
X90116813Y-85891391D01*
X90116814Y-85891392D01*
X90217207Y-85918292D01*
X90244104Y-85925499D01*
X90244105Y-85925500D01*
X90244108Y-85925500D01*
X90375895Y-85925500D01*
X90375895Y-85925499D01*
X90503186Y-85891392D01*
X90617314Y-85825500D01*
X90710500Y-85732314D01*
X90776392Y-85618186D01*
X90810499Y-85490895D01*
X90810500Y-85490895D01*
X90810500Y-85359107D01*
X90806339Y-85343577D01*
X90806339Y-85343575D01*
X90803801Y-85334104D01*
X95624500Y-85334104D01*
X95624500Y-85465895D01*
X95658607Y-85593184D01*
X95658608Y-85593188D01*
X95706647Y-85676392D01*
X95724500Y-85707314D01*
X95817686Y-85800500D01*
X95845210Y-85816391D01*
X95931811Y-85866391D01*
X95931813Y-85866391D01*
X95931814Y-85866392D01*
X96025112Y-85891391D01*
X96059104Y-85900499D01*
X96059105Y-85900500D01*
X96059108Y-85900500D01*
X96190895Y-85900500D01*
X96190895Y-85900499D01*
X96318186Y-85866392D01*
X96432314Y-85800500D01*
X96525500Y-85707314D01*
X96591392Y-85593186D01*
X96625499Y-85465895D01*
X96625500Y-85465895D01*
X96625500Y-85334105D01*
X96625499Y-85334104D01*
X96614641Y-85293578D01*
X96612102Y-85284104D01*
X107179500Y-85284104D01*
X107179500Y-85415895D01*
X107213607Y-85543184D01*
X107213608Y-85543188D01*
X107273194Y-85646392D01*
X107279500Y-85657314D01*
X107372686Y-85750500D01*
X107414457Y-85774617D01*
X107486811Y-85816391D01*
X107486813Y-85816391D01*
X107486814Y-85816392D01*
X107587207Y-85843292D01*
X107614104Y-85850499D01*
X107614105Y-85850500D01*
X107614108Y-85850500D01*
X107745895Y-85850500D01*
X107745895Y-85850499D01*
X107873186Y-85816392D01*
X107987314Y-85750500D01*
X108080500Y-85657314D01*
X108146392Y-85543186D01*
X108180499Y-85415895D01*
X108180500Y-85415895D01*
X108180500Y-85404104D01*
X112349500Y-85404104D01*
X112349500Y-85535895D01*
X112383607Y-85663184D01*
X112383608Y-85663188D01*
X112434018Y-85750499D01*
X112449500Y-85777314D01*
X112542686Y-85870500D01*
X112578870Y-85891391D01*
X112656811Y-85936391D01*
X112656813Y-85936391D01*
X112656814Y-85936392D01*
X112739722Y-85958607D01*
X112784104Y-85970499D01*
X112784105Y-85970500D01*
X112784108Y-85970500D01*
X112915895Y-85970500D01*
X112915895Y-85970499D01*
X113043186Y-85936392D01*
X113157314Y-85870500D01*
X113250500Y-85777314D01*
X113307563Y-85678478D01*
X113316391Y-85663188D01*
X113316391Y-85663187D01*
X113316392Y-85663186D01*
X113350499Y-85535895D01*
X113350500Y-85535895D01*
X113350500Y-85404105D01*
X113350499Y-85404104D01*
X113330390Y-85329057D01*
X113316392Y-85276814D01*
X113316391Y-85276813D01*
X113316391Y-85276811D01*
X113250499Y-85162685D01*
X113157314Y-85069500D01*
X113043188Y-85003608D01*
X113043184Y-85003607D01*
X112915895Y-84969500D01*
X112915892Y-84969500D01*
X112784108Y-84969500D01*
X112784105Y-84969500D01*
X112656815Y-85003607D01*
X112656811Y-85003608D01*
X112542685Y-85069500D01*
X112542685Y-85069501D01*
X112449501Y-85162685D01*
X112449500Y-85162685D01*
X112383608Y-85276811D01*
X112383607Y-85276815D01*
X112349500Y-85404104D01*
X108180500Y-85404104D01*
X108180500Y-85284105D01*
X108180499Y-85284104D01*
X108166487Y-85231811D01*
X108146392Y-85156814D01*
X108146391Y-85156813D01*
X108146391Y-85156811D01*
X108104617Y-85084457D01*
X108080500Y-85042686D01*
X107987314Y-84949500D01*
X107873188Y-84883608D01*
X107873184Y-84883607D01*
X107745895Y-84849500D01*
X107745892Y-84849500D01*
X107614108Y-84849500D01*
X107614105Y-84849500D01*
X107486815Y-84883607D01*
X107486811Y-84883608D01*
X107372685Y-84949500D01*
X107372685Y-84949501D01*
X107279501Y-85042685D01*
X107279500Y-85042685D01*
X107213608Y-85156811D01*
X107213607Y-85156815D01*
X107179500Y-85284104D01*
X96612102Y-85284104D01*
X96591392Y-85206815D01*
X96591391Y-85206811D01*
X96549617Y-85134457D01*
X96525500Y-85092686D01*
X96432314Y-84999500D01*
X96410343Y-84986815D01*
X96318188Y-84933608D01*
X96318184Y-84933607D01*
X96190895Y-84899500D01*
X96190892Y-84899500D01*
X96059108Y-84899500D01*
X96059105Y-84899500D01*
X95931815Y-84933607D01*
X95931811Y-84933608D01*
X95817685Y-84999500D01*
X95817685Y-84999501D01*
X95724501Y-85092685D01*
X95724500Y-85092685D01*
X95658608Y-85206811D01*
X95658607Y-85206815D01*
X95624500Y-85334104D01*
X90803801Y-85334104D01*
X90776392Y-85231815D01*
X90776391Y-85231811D01*
X90725752Y-85144104D01*
X90710500Y-85117686D01*
X90617314Y-85024500D01*
X90604003Y-85016815D01*
X90503188Y-84958608D01*
X90503184Y-84958607D01*
X90375895Y-84924500D01*
X90375892Y-84924500D01*
X90244108Y-84924500D01*
X90244105Y-84924500D01*
X90116815Y-84958607D01*
X90116811Y-84958608D01*
X90002685Y-85024500D01*
X90002685Y-85024501D01*
X89909501Y-85117685D01*
X89909500Y-85117685D01*
X89843608Y-85231811D01*
X89843607Y-85231815D01*
X89809500Y-85359104D01*
X81401332Y-85359104D01*
X81405588Y-85343220D01*
X81405589Y-85343215D01*
X81409383Y-85329054D01*
X81409383Y-85197267D01*
X81409382Y-85197266D01*
X81375275Y-85069977D01*
X81375274Y-85069973D01*
X81327261Y-84986814D01*
X81309383Y-84955848D01*
X81216197Y-84862662D01*
X81188015Y-84846391D01*
X81102071Y-84796770D01*
X81102067Y-84796769D01*
X80974778Y-84762662D01*
X80974775Y-84762662D01*
X80842991Y-84762662D01*
X80842988Y-84762662D01*
X80715698Y-84796769D01*
X80715694Y-84796770D01*
X80601568Y-84862662D01*
X80601568Y-84862663D01*
X80508384Y-84955847D01*
X80508383Y-84955847D01*
X80442491Y-85069973D01*
X80442490Y-85069977D01*
X80408383Y-85197266D01*
X80220500Y-85197266D01*
X80220500Y-85114105D01*
X80220499Y-85114104D01*
X80196490Y-85024500D01*
X80186392Y-84986814D01*
X80186391Y-84986813D01*
X80186391Y-84986811D01*
X80144617Y-84914457D01*
X80120500Y-84872686D01*
X80027314Y-84779500D01*
X79998150Y-84762662D01*
X79913188Y-84713608D01*
X79913184Y-84713607D01*
X79785895Y-84679500D01*
X79785892Y-84679500D01*
X79654108Y-84679500D01*
X79654105Y-84679500D01*
X79526815Y-84713607D01*
X79526811Y-84713608D01*
X79412685Y-84779500D01*
X79412685Y-84779501D01*
X79319501Y-84872685D01*
X79319500Y-84872685D01*
X79253608Y-84986811D01*
X79253607Y-84986815D01*
X79219500Y-85114104D01*
X78962461Y-85114104D01*
X78936392Y-85016815D01*
X78936391Y-85016811D01*
X78870499Y-84902685D01*
X78777314Y-84809500D01*
X78663188Y-84743608D01*
X78663184Y-84743607D01*
X78535895Y-84709500D01*
X78535892Y-84709500D01*
X78404108Y-84709500D01*
X78404105Y-84709500D01*
X78276815Y-84743607D01*
X78276811Y-84743608D01*
X78162685Y-84809500D01*
X78162685Y-84809501D01*
X78069501Y-84902685D01*
X78069500Y-84902685D01*
X78003608Y-85016811D01*
X78003607Y-85016815D01*
X77969500Y-85144104D01*
X72548483Y-85144104D01*
X72536592Y-84314104D01*
X84199500Y-84314104D01*
X84199500Y-84445895D01*
X84233607Y-84573184D01*
X84233608Y-84573188D01*
X84299500Y-84687314D01*
X84392686Y-84780500D01*
X84434457Y-84804617D01*
X84506811Y-84846391D01*
X84506813Y-84846391D01*
X84506814Y-84846392D01*
X84607207Y-84873292D01*
X84634104Y-84880499D01*
X84634105Y-84880500D01*
X84634108Y-84880500D01*
X84765895Y-84880500D01*
X84765895Y-84880499D01*
X84893186Y-84846392D01*
X85007314Y-84780500D01*
X85100500Y-84687314D01*
X85166392Y-84573186D01*
X85200499Y-84445895D01*
X85200500Y-84445895D01*
X85200500Y-84314105D01*
X85200499Y-84314104D01*
X85166392Y-84186815D01*
X85166391Y-84186811D01*
X85100499Y-84072685D01*
X85061918Y-84034104D01*
X108299500Y-84034104D01*
X108299500Y-84165895D01*
X108333607Y-84293184D01*
X108333608Y-84293188D01*
X108399500Y-84407314D01*
X108492686Y-84500500D01*
X108534457Y-84524617D01*
X108606811Y-84566391D01*
X108606813Y-84566391D01*
X108606814Y-84566392D01*
X108707207Y-84593292D01*
X108734104Y-84600499D01*
X108734105Y-84600500D01*
X108734108Y-84600500D01*
X108865895Y-84600500D01*
X108865895Y-84600499D01*
X108993186Y-84566392D01*
X109107314Y-84500500D01*
X109200500Y-84407314D01*
X109266392Y-84293186D01*
X109300499Y-84165895D01*
X109300500Y-84165895D01*
X109300500Y-84034105D01*
X109300499Y-84034104D01*
X109266392Y-83906815D01*
X109266391Y-83906811D01*
X109200499Y-83792685D01*
X109107314Y-83699500D01*
X109056656Y-83670252D01*
X114549500Y-83670252D01*
X114549500Y-85409748D01*
X114561133Y-85468231D01*
X114573884Y-85487314D01*
X114605447Y-85534552D01*
X114618366Y-85543184D01*
X114671769Y-85578867D01*
X114730252Y-85590500D01*
X114730255Y-85590500D01*
X116469745Y-85590500D01*
X116469748Y-85590500D01*
X116528231Y-85578867D01*
X116594552Y-85534552D01*
X116638867Y-85468231D01*
X116650500Y-85409748D01*
X116650500Y-83670252D01*
X116638867Y-83611769D01*
X116612301Y-83572012D01*
X116594552Y-83545447D01*
X116554795Y-83518882D01*
X116528231Y-83501133D01*
X116469748Y-83489500D01*
X114730252Y-83489500D01*
X114671769Y-83501133D01*
X114605447Y-83545447D01*
X114569331Y-83599500D01*
X114561133Y-83611769D01*
X114549500Y-83670252D01*
X109056656Y-83670252D01*
X108993188Y-83633608D01*
X108993184Y-83633607D01*
X108865895Y-83599500D01*
X108865892Y-83599500D01*
X108734108Y-83599500D01*
X108734105Y-83599500D01*
X108606815Y-83633607D01*
X108606811Y-83633608D01*
X108492685Y-83699500D01*
X108492685Y-83699501D01*
X108399501Y-83792685D01*
X108399500Y-83792685D01*
X108333608Y-83906811D01*
X108333607Y-83906815D01*
X108299500Y-84034104D01*
X85061918Y-84034104D01*
X85007314Y-83979500D01*
X84893188Y-83913608D01*
X84893184Y-83913607D01*
X84765895Y-83879500D01*
X84765892Y-83879500D01*
X84634108Y-83879500D01*
X84634105Y-83879500D01*
X84506815Y-83913607D01*
X84506811Y-83913608D01*
X84392685Y-83979500D01*
X84392685Y-83979501D01*
X84299501Y-84072685D01*
X84299500Y-84072685D01*
X84233608Y-84186811D01*
X84233607Y-84186815D01*
X84199500Y-84314104D01*
X72536592Y-84314104D01*
X72513956Y-82734104D01*
X90674500Y-82734104D01*
X90674500Y-82865895D01*
X90708607Y-82993184D01*
X90708608Y-82993188D01*
X90749068Y-83063265D01*
X90774500Y-83107314D01*
X90867686Y-83200500D01*
X90909457Y-83224617D01*
X90981811Y-83266391D01*
X90981813Y-83266391D01*
X90981814Y-83266392D01*
X91075112Y-83291391D01*
X91109104Y-83300499D01*
X91109105Y-83300500D01*
X91109108Y-83300500D01*
X91240895Y-83300500D01*
X91240895Y-83300499D01*
X91368186Y-83266392D01*
X91482314Y-83200500D01*
X91575500Y-83107314D01*
X91633065Y-83007609D01*
X91662818Y-82984779D01*
X91700000Y-82989674D01*
X91722830Y-83019427D01*
X91724500Y-83032109D01*
X91724500Y-83055895D01*
X91758607Y-83183184D01*
X91758608Y-83183188D01*
X91806647Y-83266392D01*
X91824500Y-83297314D01*
X91917686Y-83390500D01*
X91959457Y-83414617D01*
X92031811Y-83456391D01*
X92031813Y-83456391D01*
X92031814Y-83456392D01*
X92132207Y-83483292D01*
X92159104Y-83490499D01*
X92159105Y-83490500D01*
X92159108Y-83490500D01*
X92290895Y-83490500D01*
X92290895Y-83490499D01*
X92418186Y-83456392D01*
X92532314Y-83390500D01*
X92625500Y-83297314D01*
X92691392Y-83183186D01*
X92725499Y-83055895D01*
X92725500Y-83055895D01*
X92725500Y-82924105D01*
X92725499Y-82924104D01*
X92716057Y-82888866D01*
X92691392Y-82796814D01*
X92691391Y-82796813D01*
X92691391Y-82796811D01*
X92646898Y-82719748D01*
X92625500Y-82682686D01*
X92576918Y-82634104D01*
X93974500Y-82634104D01*
X93974500Y-82765895D01*
X94008607Y-82893184D01*
X94008608Y-82893188D01*
X94066342Y-82993184D01*
X94074500Y-83007314D01*
X94167686Y-83100500D01*
X94179490Y-83107315D01*
X94281811Y-83166391D01*
X94281813Y-83166391D01*
X94281814Y-83166392D01*
X94344491Y-83183186D01*
X94409104Y-83200499D01*
X94409105Y-83200500D01*
X94409108Y-83200500D01*
X94540895Y-83200500D01*
X94540895Y-83200499D01*
X94668186Y-83166392D01*
X94782314Y-83100500D01*
X94875500Y-83007314D01*
X94927995Y-82916391D01*
X94942998Y-82890405D01*
X94944231Y-82891116D01*
X94967346Y-82867975D01*
X95004849Y-82867953D01*
X95020772Y-82878586D01*
X95104451Y-82962265D01*
X95143446Y-82984779D01*
X95218576Y-83028156D01*
X95218578Y-83028156D01*
X95218579Y-83028157D01*
X95318972Y-83055057D01*
X95345869Y-83062264D01*
X95345870Y-83062265D01*
X95345873Y-83062265D01*
X95477660Y-83062265D01*
X95477660Y-83062264D01*
X95604951Y-83028157D01*
X95719079Y-82962265D01*
X95812265Y-82869079D01*
X95813153Y-82867539D01*
X95813864Y-82866993D01*
X95814223Y-82866527D01*
X95814347Y-82866622D01*
X95842900Y-82844704D01*
X95880083Y-82849590D01*
X95898026Y-82867527D01*
X95898924Y-82869081D01*
X95899500Y-82870079D01*
X95992686Y-82963265D01*
X96029949Y-82984779D01*
X96106811Y-83029156D01*
X96106813Y-83029156D01*
X96106814Y-83029157D01*
X96206591Y-83055892D01*
X96234104Y-83063264D01*
X96234105Y-83063265D01*
X96234108Y-83063265D01*
X96365895Y-83063265D01*
X96365895Y-83063264D01*
X96493186Y-83029157D01*
X96607314Y-82963265D01*
X96700500Y-82870079D01*
X96766392Y-82755951D01*
X96800499Y-82628660D01*
X96800500Y-82628660D01*
X96800500Y-82496870D01*
X96800499Y-82496869D01*
X96772823Y-82393578D01*
X96770284Y-82384104D01*
X99549500Y-82384104D01*
X99549500Y-82515895D01*
X99583607Y-82643184D01*
X99583608Y-82643188D01*
X99636100Y-82734105D01*
X99649500Y-82757314D01*
X99742686Y-82850500D01*
X99776603Y-82870082D01*
X99856811Y-82916391D01*
X99856813Y-82916391D01*
X99856814Y-82916392D01*
X99885600Y-82924105D01*
X99984104Y-82950499D01*
X99984105Y-82950500D01*
X99984108Y-82950500D01*
X100115895Y-82950500D01*
X100115895Y-82950499D01*
X100243186Y-82916392D01*
X100357314Y-82850500D01*
X100448710Y-82759104D01*
X102549500Y-82759104D01*
X102549500Y-82890895D01*
X102583607Y-83018184D01*
X102583608Y-83018188D01*
X102631132Y-83100500D01*
X102649500Y-83132314D01*
X102742686Y-83225500D01*
X102784457Y-83249617D01*
X102856811Y-83291391D01*
X102856813Y-83291391D01*
X102856814Y-83291392D01*
X102957207Y-83318292D01*
X102984104Y-83325499D01*
X102984105Y-83325500D01*
X102984108Y-83325500D01*
X103115895Y-83325500D01*
X103115895Y-83325499D01*
X103243186Y-83291392D01*
X103357314Y-83225500D01*
X103450500Y-83132314D01*
X103516392Y-83018186D01*
X103550499Y-82890895D01*
X103550500Y-82890895D01*
X103550500Y-82759105D01*
X103550499Y-82759104D01*
X103530023Y-82682685D01*
X103516392Y-82631814D01*
X103516391Y-82631813D01*
X103516391Y-82631811D01*
X103450499Y-82517685D01*
X103357314Y-82424500D01*
X103243188Y-82358608D01*
X103243184Y-82358607D01*
X103115895Y-82324500D01*
X103115892Y-82324500D01*
X102984108Y-82324500D01*
X102984105Y-82324500D01*
X102856815Y-82358607D01*
X102856811Y-82358608D01*
X102742685Y-82424500D01*
X102742685Y-82424501D01*
X102649501Y-82517685D01*
X102649500Y-82517685D01*
X102583608Y-82631811D01*
X102583607Y-82631815D01*
X102549500Y-82759104D01*
X100448710Y-82759104D01*
X100450500Y-82757314D01*
X100516392Y-82643186D01*
X100550499Y-82515895D01*
X100550500Y-82515895D01*
X100550500Y-82384105D01*
X100550499Y-82384104D01*
X100527830Y-82299501D01*
X100516392Y-82256814D01*
X100516391Y-82256813D01*
X100516391Y-82256811D01*
X100474617Y-82184457D01*
X100450500Y-82142686D01*
X100357314Y-82049500D01*
X100243188Y-81983608D01*
X100243184Y-81983607D01*
X100115895Y-81949500D01*
X100115892Y-81949500D01*
X99984108Y-81949500D01*
X99984105Y-81949500D01*
X99856815Y-81983607D01*
X99856811Y-81983608D01*
X99742685Y-82049500D01*
X99742685Y-82049501D01*
X99649501Y-82142685D01*
X99649500Y-82142685D01*
X99583608Y-82256811D01*
X99583607Y-82256815D01*
X99549500Y-82384104D01*
X96770284Y-82384104D01*
X96766869Y-82371360D01*
X96766392Y-82369579D01*
X96766391Y-82369577D01*
X96766391Y-82369576D01*
X96711746Y-82274930D01*
X96700500Y-82255451D01*
X96607314Y-82162265D01*
X96605582Y-82161265D01*
X96493188Y-82096373D01*
X96493184Y-82096372D01*
X96365895Y-82062265D01*
X96365892Y-82062265D01*
X96234108Y-82062265D01*
X96234105Y-82062265D01*
X96106815Y-82096372D01*
X96106811Y-82096373D01*
X95992685Y-82162265D01*
X95992685Y-82162266D01*
X95899503Y-82255447D01*
X95899496Y-82255457D01*
X95898601Y-82257007D01*
X95897885Y-82257555D01*
X95897544Y-82258001D01*
X95897424Y-82257909D01*
X95868843Y-82279832D01*
X95831662Y-82274930D01*
X95813736Y-82256999D01*
X95812265Y-82254451D01*
X95719079Y-82161265D01*
X95604953Y-82095373D01*
X95604949Y-82095372D01*
X95477660Y-82061265D01*
X95477657Y-82061265D01*
X95345873Y-82061265D01*
X95345870Y-82061265D01*
X95218580Y-82095372D01*
X95218576Y-82095373D01*
X95104450Y-82161265D01*
X95104450Y-82161266D01*
X95011266Y-82254450D01*
X95011265Y-82254450D01*
X94943767Y-82371360D01*
X94942542Y-82370652D01*
X94919385Y-82393803D01*
X94881882Y-82393798D01*
X94865992Y-82383178D01*
X94782314Y-82299500D01*
X94668188Y-82233608D01*
X94668184Y-82233607D01*
X94540895Y-82199500D01*
X94540892Y-82199500D01*
X94409108Y-82199500D01*
X94409105Y-82199500D01*
X94281815Y-82233607D01*
X94281811Y-82233608D01*
X94167685Y-82299500D01*
X94167685Y-82299501D01*
X94074501Y-82392685D01*
X94074500Y-82392685D01*
X94008608Y-82506811D01*
X94008607Y-82506815D01*
X93974500Y-82634104D01*
X92576918Y-82634104D01*
X92532314Y-82589500D01*
X92418188Y-82523608D01*
X92418184Y-82523607D01*
X92290895Y-82489500D01*
X92290892Y-82489500D01*
X92159108Y-82489500D01*
X92159105Y-82489500D01*
X92031815Y-82523607D01*
X92031811Y-82523608D01*
X91917685Y-82589500D01*
X91917685Y-82589501D01*
X91824501Y-82682685D01*
X91824500Y-82682685D01*
X91766935Y-82782390D01*
X91737182Y-82805220D01*
X91700000Y-82800325D01*
X91677170Y-82770572D01*
X91675500Y-82757890D01*
X91675500Y-82734105D01*
X91675499Y-82734104D01*
X91648091Y-82631815D01*
X91641392Y-82606814D01*
X91620842Y-82571221D01*
X91615947Y-82534042D01*
X91638774Y-82504290D01*
X91742950Y-82444145D01*
X91836136Y-82350959D01*
X91902028Y-82236831D01*
X91936135Y-82109540D01*
X91936136Y-82109540D01*
X91936136Y-81977750D01*
X91936135Y-81977749D01*
X91918588Y-81912264D01*
X91902028Y-81850459D01*
X91902027Y-81850458D01*
X91902027Y-81850456D01*
X91836135Y-81736330D01*
X91742950Y-81643145D01*
X91628824Y-81577253D01*
X91628820Y-81577252D01*
X91501531Y-81543145D01*
X91501528Y-81543145D01*
X91369744Y-81543145D01*
X91369741Y-81543145D01*
X91242451Y-81577252D01*
X91242447Y-81577253D01*
X91128321Y-81643145D01*
X91128321Y-81643146D01*
X91035137Y-81736330D01*
X91035136Y-81736330D01*
X90969244Y-81850456D01*
X90969243Y-81850460D01*
X90935136Y-81977749D01*
X90935136Y-82109540D01*
X90969242Y-82236826D01*
X90969243Y-82236828D01*
X90969244Y-82236831D01*
X90989792Y-82272421D01*
X90994687Y-82309603D01*
X90971857Y-82339356D01*
X90867685Y-82399500D01*
X90867685Y-82399501D01*
X90774501Y-82492685D01*
X90774500Y-82492685D01*
X90708608Y-82606811D01*
X90708607Y-82606815D01*
X90674500Y-82734104D01*
X72513956Y-82734104D01*
X72491391Y-81159104D01*
X101699500Y-81159104D01*
X101699500Y-81290895D01*
X101733607Y-81418184D01*
X101733608Y-81418188D01*
X101767945Y-81477660D01*
X101799500Y-81532314D01*
X101892686Y-81625500D01*
X101923248Y-81643145D01*
X102006811Y-81691391D01*
X102006813Y-81691391D01*
X102006814Y-81691392D01*
X102107207Y-81718292D01*
X102134104Y-81725499D01*
X102134105Y-81725500D01*
X102134108Y-81725500D01*
X102265895Y-81725500D01*
X102265895Y-81725499D01*
X102393186Y-81691392D01*
X102507314Y-81625500D01*
X102600500Y-81532314D01*
X102666392Y-81418186D01*
X102685769Y-81345869D01*
X105612735Y-81345869D01*
X105612735Y-81477660D01*
X105646842Y-81604949D01*
X105646843Y-81604953D01*
X105696749Y-81691391D01*
X105712735Y-81719079D01*
X105805921Y-81812265D01*
X105847692Y-81836382D01*
X105920046Y-81878156D01*
X105920048Y-81878156D01*
X105920049Y-81878157D01*
X106020442Y-81905057D01*
X106047339Y-81912264D01*
X106047340Y-81912265D01*
X106047343Y-81912265D01*
X106179130Y-81912265D01*
X106179130Y-81912264D01*
X106306421Y-81878157D01*
X106420549Y-81812265D01*
X106513735Y-81719079D01*
X106579627Y-81604951D01*
X106613734Y-81477660D01*
X106613735Y-81477660D01*
X106613735Y-81345870D01*
X106613734Y-81345869D01*
X106579627Y-81218580D01*
X106579626Y-81218576D01*
X106513734Y-81104450D01*
X106420549Y-81011265D01*
X106366834Y-80980252D01*
X110149500Y-80980252D01*
X110149500Y-82719748D01*
X110161133Y-82778231D01*
X110171709Y-82794059D01*
X110205447Y-82844552D01*
X110232012Y-82862301D01*
X110271769Y-82888867D01*
X110330252Y-82900500D01*
X110330255Y-82900500D01*
X112069745Y-82900500D01*
X112069748Y-82900500D01*
X112128231Y-82888867D01*
X112194552Y-82844552D01*
X112238867Y-82778231D01*
X112250500Y-82719748D01*
X112250500Y-80980252D01*
X112238867Y-80921769D01*
X112212301Y-80882012D01*
X112194552Y-80855447D01*
X112148236Y-80824500D01*
X112128231Y-80811133D01*
X112069748Y-80799500D01*
X110330252Y-80799500D01*
X110271769Y-80811133D01*
X110205447Y-80855447D01*
X110163862Y-80917685D01*
X110161133Y-80921769D01*
X110149500Y-80980252D01*
X106366834Y-80980252D01*
X106306423Y-80945373D01*
X106306419Y-80945372D01*
X106179130Y-80911265D01*
X106179127Y-80911265D01*
X106047343Y-80911265D01*
X106047340Y-80911265D01*
X105920050Y-80945372D01*
X105920046Y-80945373D01*
X105805920Y-81011265D01*
X105805920Y-81011266D01*
X105712736Y-81104450D01*
X105712735Y-81104450D01*
X105646843Y-81218576D01*
X105646842Y-81218580D01*
X105612735Y-81345869D01*
X102685769Y-81345869D01*
X102700500Y-81290892D01*
X102700500Y-81159108D01*
X102700500Y-81159105D01*
X102700499Y-81159104D01*
X102685855Y-81104451D01*
X102666392Y-81031814D01*
X102666391Y-81031813D01*
X102666391Y-81031811D01*
X102616485Y-80945373D01*
X102600500Y-80917686D01*
X102507314Y-80824500D01*
X102484162Y-80811133D01*
X102393188Y-80758608D01*
X102393184Y-80758607D01*
X102265895Y-80724500D01*
X102265892Y-80724500D01*
X102134108Y-80724500D01*
X102134105Y-80724500D01*
X102006815Y-80758607D01*
X102006811Y-80758608D01*
X101892685Y-80824500D01*
X101892685Y-80824501D01*
X101799501Y-80917685D01*
X101799500Y-80917685D01*
X101733608Y-81031811D01*
X101733607Y-81031815D01*
X101699500Y-81159104D01*
X72491391Y-81159104D01*
X72479413Y-80323047D01*
X95862028Y-80323047D01*
X95862028Y-80454838D01*
X95896135Y-80582127D01*
X95896136Y-80582131D01*
X95962028Y-80696257D01*
X96055214Y-80789443D01*
X96092782Y-80811133D01*
X96169339Y-80855334D01*
X96169341Y-80855334D01*
X96169342Y-80855335D01*
X96269735Y-80882235D01*
X96296632Y-80889442D01*
X96296633Y-80889443D01*
X96296636Y-80889443D01*
X96428423Y-80889443D01*
X96428423Y-80889442D01*
X96555714Y-80855335D01*
X96669842Y-80789443D01*
X96763028Y-80696257D01*
X96828920Y-80582129D01*
X96863027Y-80454838D01*
X96863028Y-80454838D01*
X96863028Y-80323048D01*
X96863027Y-80323047D01*
X96828920Y-80195758D01*
X96828919Y-80195755D01*
X96809850Y-80162727D01*
X96804954Y-80125545D01*
X96827785Y-80095792D01*
X96864967Y-80090896D01*
X96864967Y-80090897D01*
X96994104Y-80125499D01*
X96994105Y-80125500D01*
X96994108Y-80125500D01*
X97125895Y-80125500D01*
X97125895Y-80125499D01*
X97253186Y-80091392D01*
X97254044Y-80090897D01*
X97296487Y-80066392D01*
X97367314Y-80025500D01*
X97460500Y-79932314D01*
X97526392Y-79818186D01*
X97560499Y-79690895D01*
X97560500Y-79690895D01*
X97560500Y-79559105D01*
X97560499Y-79559104D01*
X97526392Y-79431815D01*
X97526391Y-79431811D01*
X97482930Y-79356535D01*
X97460500Y-79317686D01*
X97367314Y-79224500D01*
X97341534Y-79209615D01*
X97339250Y-79207916D01*
X97338425Y-79206535D01*
X110149500Y-79206535D01*
X110149500Y-79413465D01*
X110173497Y-79534105D01*
X110189869Y-79616417D01*
X110189871Y-79616423D01*
X110263088Y-79793184D01*
X110269059Y-79807598D01*
X110276134Y-79818186D01*
X110352391Y-79932315D01*
X110384023Y-79979655D01*
X110530345Y-80125977D01*
X110702402Y-80240941D01*
X110893580Y-80320130D01*
X111096535Y-80360500D01*
X111096538Y-80360500D01*
X111303462Y-80360500D01*
X111303465Y-80360500D01*
X111506420Y-80320130D01*
X111697598Y-80240941D01*
X111869655Y-80125977D01*
X112015977Y-79979655D01*
X112130941Y-79807598D01*
X112210130Y-79616420D01*
X112250500Y-79413465D01*
X112250500Y-79356535D01*
X114549500Y-79356535D01*
X114549500Y-79563465D01*
X114574847Y-79690892D01*
X114589869Y-79766417D01*
X114589871Y-79766423D01*
X114658586Y-79932314D01*
X114669059Y-79957598D01*
X114697724Y-80000499D01*
X114781276Y-80125545D01*
X114784023Y-80129655D01*
X114930345Y-80275977D01*
X115102402Y-80390941D01*
X115293580Y-80470130D01*
X115496535Y-80510500D01*
X115496538Y-80510500D01*
X115703462Y-80510500D01*
X115703465Y-80510500D01*
X115906420Y-80470130D01*
X116097598Y-80390941D01*
X116269655Y-80275977D01*
X116415977Y-80129655D01*
X116530941Y-79957598D01*
X116610130Y-79766420D01*
X116650500Y-79563465D01*
X116650500Y-79356535D01*
X116610130Y-79153580D01*
X116530941Y-78962402D01*
X116415977Y-78790345D01*
X116269655Y-78644023D01*
X116264150Y-78640345D01*
X116184207Y-78586929D01*
X116097598Y-78529059D01*
X116052793Y-78510500D01*
X115906423Y-78449871D01*
X115906417Y-78449869D01*
X115824572Y-78433589D01*
X115703465Y-78409500D01*
X115496535Y-78409500D01*
X115395520Y-78429592D01*
X115293582Y-78449869D01*
X115293576Y-78449871D01*
X115102403Y-78529058D01*
X114930345Y-78644022D01*
X114784022Y-78790345D01*
X114669058Y-78962403D01*
X114589871Y-79153576D01*
X114589869Y-79153582D01*
X114579336Y-79206538D01*
X114549500Y-79356535D01*
X112250500Y-79356535D01*
X112250500Y-79206535D01*
X112210130Y-79003580D01*
X112130941Y-78812402D01*
X112015977Y-78640345D01*
X111869655Y-78494023D01*
X111867654Y-78492686D01*
X111744653Y-78410500D01*
X111697598Y-78379059D01*
X111591451Y-78335091D01*
X111506423Y-78299871D01*
X111506417Y-78299869D01*
X111424572Y-78283589D01*
X111303465Y-78259500D01*
X111096535Y-78259500D01*
X110995520Y-78279592D01*
X110893582Y-78299869D01*
X110893576Y-78299871D01*
X110702403Y-78379058D01*
X110530345Y-78494022D01*
X110384022Y-78640345D01*
X110269058Y-78812403D01*
X110189871Y-79003576D01*
X110189869Y-79003582D01*
X110170790Y-79099500D01*
X110149500Y-79206535D01*
X97338425Y-79206535D01*
X97330983Y-79194073D01*
X97321173Y-79181288D01*
X97321565Y-79178303D01*
X97320022Y-79175718D01*
X97323964Y-79160086D01*
X97326068Y-79144106D01*
X97328937Y-79140366D01*
X97329193Y-79139353D01*
X97330156Y-79138777D01*
X97333849Y-79133964D01*
X97360500Y-79107314D01*
X97425535Y-78994670D01*
X97426391Y-78993188D01*
X97426391Y-78993187D01*
X97426392Y-78993186D01*
X97460499Y-78865895D01*
X97460500Y-78865895D01*
X97460500Y-78734105D01*
X97460499Y-78734104D01*
X97436362Y-78644022D01*
X97426392Y-78606814D01*
X97426391Y-78606813D01*
X97426391Y-78606811D01*
X97370784Y-78510499D01*
X97360500Y-78492686D01*
X97267314Y-78399500D01*
X97153188Y-78333608D01*
X97153184Y-78333607D01*
X97025895Y-78299500D01*
X97025892Y-78299500D01*
X96894108Y-78299500D01*
X96894105Y-78299500D01*
X96766815Y-78333607D01*
X96766811Y-78333608D01*
X96652685Y-78399500D01*
X96652685Y-78399501D01*
X96559501Y-78492685D01*
X96559500Y-78492685D01*
X96493608Y-78606811D01*
X96493607Y-78606815D01*
X96459500Y-78734104D01*
X96459500Y-78865895D01*
X96493607Y-78993184D01*
X96493608Y-78993188D01*
X96559499Y-79107312D01*
X96559500Y-79107314D01*
X96652686Y-79200500D01*
X96665531Y-79207916D01*
X96675996Y-79213958D01*
X96698826Y-79243711D01*
X96693931Y-79280893D01*
X96686145Y-79291041D01*
X96659499Y-79317687D01*
X96593608Y-79431811D01*
X96593607Y-79431815D01*
X96559500Y-79559104D01*
X96559500Y-79690895D01*
X96593607Y-79818184D01*
X96593608Y-79818188D01*
X96612677Y-79851215D01*
X96617572Y-79888397D01*
X96594742Y-79918150D01*
X96557560Y-79923045D01*
X96428423Y-79888443D01*
X96428420Y-79888443D01*
X96296636Y-79888443D01*
X96296633Y-79888443D01*
X96169343Y-79922550D01*
X96169339Y-79922551D01*
X96055213Y-79988443D01*
X96055213Y-79988444D01*
X95962029Y-80081628D01*
X95962028Y-80081628D01*
X95896136Y-80195754D01*
X95896135Y-80195758D01*
X95862028Y-80323047D01*
X72479413Y-80323047D01*
X72468110Y-79534104D01*
X79399500Y-79534104D01*
X79399500Y-79665895D01*
X79433607Y-79793184D01*
X79433608Y-79793188D01*
X79467111Y-79851215D01*
X79499500Y-79907314D01*
X79592686Y-80000500D01*
X79634457Y-80024617D01*
X79706811Y-80066391D01*
X79706813Y-80066391D01*
X79706814Y-80066392D01*
X79763680Y-80081629D01*
X79834104Y-80100499D01*
X79834105Y-80100500D01*
X79834108Y-80100500D01*
X79965895Y-80100500D01*
X79965895Y-80100499D01*
X80093186Y-80066392D01*
X80207314Y-80000500D01*
X80300500Y-79907314D01*
X80366392Y-79793186D01*
X80400499Y-79665895D01*
X80400500Y-79665895D01*
X80400500Y-79534105D01*
X80400499Y-79534104D01*
X80373091Y-79431815D01*
X80366392Y-79406814D01*
X80366391Y-79406813D01*
X80366391Y-79406811D01*
X80305868Y-79301984D01*
X80300500Y-79292686D01*
X80207314Y-79199500D01*
X80197914Y-79194073D01*
X80093188Y-79133608D01*
X80093184Y-79133607D01*
X79965895Y-79099500D01*
X79965892Y-79099500D01*
X79834108Y-79099500D01*
X79834105Y-79099500D01*
X79706815Y-79133607D01*
X79706811Y-79133608D01*
X79592685Y-79199500D01*
X79592685Y-79199501D01*
X79499501Y-79292685D01*
X79499500Y-79292685D01*
X79433608Y-79406811D01*
X79433607Y-79406815D01*
X79399500Y-79534104D01*
X72468110Y-79534104D01*
X72456670Y-78735588D01*
X81548346Y-78735588D01*
X81548346Y-78867379D01*
X81582453Y-78994668D01*
X81582454Y-78994672D01*
X81642978Y-79099500D01*
X81648346Y-79108798D01*
X81741532Y-79201984D01*
X81762272Y-79213958D01*
X81855657Y-79267875D01*
X81855659Y-79267875D01*
X81855660Y-79267876D01*
X81904241Y-79280893D01*
X81982950Y-79301983D01*
X81982951Y-79301984D01*
X81982954Y-79301984D01*
X82114741Y-79301984D01*
X82114741Y-79301983D01*
X82242032Y-79267876D01*
X82356160Y-79201984D01*
X82449346Y-79108798D01*
X82515238Y-78994670D01*
X82549345Y-78867379D01*
X82549346Y-78867379D01*
X82549346Y-78735589D01*
X82549345Y-78735588D01*
X82515238Y-78608299D01*
X82515237Y-78608295D01*
X82458774Y-78510500D01*
X82449346Y-78494170D01*
X82356160Y-78400984D01*
X82353590Y-78399500D01*
X82242034Y-78335092D01*
X82242030Y-78335091D01*
X82114741Y-78300984D01*
X82114738Y-78300984D01*
X81982954Y-78300984D01*
X81982951Y-78300984D01*
X81855661Y-78335091D01*
X81855657Y-78335092D01*
X81741531Y-78400984D01*
X81741531Y-78400985D01*
X81648347Y-78494169D01*
X81648346Y-78494169D01*
X81582454Y-78608295D01*
X81582453Y-78608299D01*
X81548346Y-78735588D01*
X72456670Y-78735588D01*
X72445331Y-77944104D01*
X83124500Y-77944104D01*
X83124500Y-78075895D01*
X83158607Y-78203184D01*
X83158608Y-78203188D01*
X83214429Y-78299871D01*
X83224500Y-78317314D01*
X83317686Y-78410500D01*
X83359457Y-78434617D01*
X83431811Y-78476391D01*
X83431813Y-78476391D01*
X83431814Y-78476392D01*
X83498163Y-78494170D01*
X83559104Y-78510499D01*
X83559105Y-78510500D01*
X83559108Y-78510500D01*
X83690895Y-78510500D01*
X83690895Y-78510499D01*
X83818186Y-78476392D01*
X83932314Y-78410500D01*
X84025500Y-78317314D01*
X84091392Y-78203186D01*
X84125499Y-78075895D01*
X84125500Y-78075895D01*
X84125500Y-77944105D01*
X84120676Y-77926102D01*
X84125571Y-77888920D01*
X84155324Y-77866090D01*
X84180688Y-77866090D01*
X84181813Y-77866391D01*
X84181814Y-77866392D01*
X84214913Y-77875260D01*
X84309105Y-77900500D01*
X84309108Y-77900500D01*
X84440895Y-77900500D01*
X84440895Y-77900499D01*
X84568186Y-77866392D01*
X84682314Y-77800500D01*
X84775500Y-77707314D01*
X84841392Y-77593186D01*
X84875499Y-77465895D01*
X84875500Y-77465895D01*
X84875500Y-77334105D01*
X84875499Y-77334104D01*
X84846645Y-77226420D01*
X84841392Y-77206814D01*
X84841391Y-77206813D01*
X84841391Y-77206811D01*
X84775499Y-77092685D01*
X84682314Y-76999500D01*
X84568188Y-76933608D01*
X84568184Y-76933607D01*
X84440895Y-76899500D01*
X84440892Y-76899500D01*
X84309108Y-76899500D01*
X84309105Y-76899500D01*
X84181815Y-76933607D01*
X84181811Y-76933608D01*
X84067685Y-76999500D01*
X84067685Y-76999501D01*
X83974501Y-77092685D01*
X83974500Y-77092685D01*
X83908608Y-77206811D01*
X83908607Y-77206815D01*
X83874500Y-77334104D01*
X83874500Y-77465892D01*
X83879324Y-77483898D01*
X83874428Y-77521080D01*
X83844674Y-77543910D01*
X83819311Y-77543909D01*
X83690895Y-77509500D01*
X83690892Y-77509500D01*
X83559108Y-77509500D01*
X83559105Y-77509500D01*
X83431815Y-77543607D01*
X83431811Y-77543608D01*
X83317685Y-77609500D01*
X83317685Y-77609501D01*
X83224501Y-77702685D01*
X83224500Y-77702685D01*
X83158608Y-77816811D01*
X83158607Y-77816815D01*
X83124500Y-77944104D01*
X72445331Y-77944104D01*
X72429177Y-76816535D01*
X114549500Y-76816535D01*
X114549500Y-77023465D01*
X114563269Y-77092685D01*
X114589869Y-77226417D01*
X114589871Y-77226423D01*
X114669058Y-77417596D01*
X114753255Y-77543608D01*
X114784023Y-77589655D01*
X114930345Y-77735977D01*
X115102402Y-77850941D01*
X115293580Y-77930130D01*
X115496535Y-77970500D01*
X115496538Y-77970500D01*
X115703462Y-77970500D01*
X115703465Y-77970500D01*
X115906420Y-77930130D01*
X116097598Y-77850941D01*
X116269655Y-77735977D01*
X116415977Y-77589655D01*
X116530941Y-77417598D01*
X116610130Y-77226420D01*
X116650500Y-77023465D01*
X116650500Y-76816535D01*
X116610130Y-76613580D01*
X116530941Y-76422402D01*
X116415977Y-76250345D01*
X116269655Y-76104023D01*
X116097598Y-75989059D01*
X116097596Y-75989058D01*
X115906423Y-75909871D01*
X115906417Y-75909869D01*
X115824572Y-75893589D01*
X115703465Y-75869500D01*
X115496535Y-75869500D01*
X115395520Y-75889592D01*
X115293582Y-75909869D01*
X115293576Y-75909871D01*
X115102403Y-75989058D01*
X114930345Y-76104022D01*
X114784022Y-76250345D01*
X114669058Y-76422403D01*
X114589871Y-76613576D01*
X114589869Y-76613582D01*
X114569592Y-76715520D01*
X114549500Y-76816535D01*
X72429177Y-76816535D01*
X72425000Y-76525000D01*
X68150000Y-76475000D01*
X68150000Y-85250000D01*
X68149500Y-85250000D01*
X68114852Y-85235648D01*
X68100500Y-85201000D01*
X68100500Y-74444104D01*
X68499500Y-74444104D01*
X68499500Y-74575895D01*
X68533607Y-74703184D01*
X68533608Y-74703188D01*
X68599500Y-74817314D01*
X68692686Y-74910500D01*
X68734457Y-74934617D01*
X68806811Y-74976391D01*
X68806813Y-74976391D01*
X68806814Y-74976392D01*
X68907207Y-75003292D01*
X68934104Y-75010499D01*
X68934105Y-75010500D01*
X68934108Y-75010500D01*
X69065895Y-75010500D01*
X69065895Y-75010499D01*
X69193186Y-74976392D01*
X69307314Y-74910500D01*
X69400500Y-74817314D01*
X69466392Y-74703186D01*
X69500499Y-74575895D01*
X69500500Y-74575895D01*
X69500500Y-74514104D01*
X72899500Y-74514104D01*
X72899500Y-74645895D01*
X72933607Y-74773184D01*
X72933608Y-74773188D01*
X72999500Y-74887314D01*
X73092686Y-74980500D01*
X73134457Y-75004617D01*
X73206811Y-75046391D01*
X73206813Y-75046391D01*
X73206814Y-75046392D01*
X73307207Y-75073292D01*
X73334104Y-75080499D01*
X73334105Y-75080500D01*
X73334108Y-75080500D01*
X73465895Y-75080500D01*
X73465895Y-75080499D01*
X73593186Y-75046392D01*
X73707314Y-74980500D01*
X73800500Y-74887314D01*
X73866392Y-74773186D01*
X73900499Y-74645895D01*
X73900500Y-74645895D01*
X73900500Y-74584104D01*
X94799500Y-74584104D01*
X94799500Y-74715895D01*
X94833607Y-74843184D01*
X94833608Y-74843188D01*
X94899500Y-74957314D01*
X94992686Y-75050500D01*
X95034457Y-75074617D01*
X95106811Y-75116391D01*
X95106813Y-75116391D01*
X95106814Y-75116392D01*
X95207207Y-75143292D01*
X95234104Y-75150499D01*
X95234105Y-75150500D01*
X95234108Y-75150500D01*
X95365895Y-75150500D01*
X95365895Y-75150499D01*
X95493186Y-75116392D01*
X95607314Y-75050500D01*
X95700500Y-74957314D01*
X95766392Y-74843186D01*
X95800499Y-74715895D01*
X95800500Y-74715895D01*
X95800500Y-74584105D01*
X95800499Y-74584104D01*
X96399500Y-74584104D01*
X96399500Y-74715895D01*
X96433607Y-74843184D01*
X96433608Y-74843188D01*
X96499500Y-74957314D01*
X96592686Y-75050500D01*
X96634457Y-75074617D01*
X96706811Y-75116391D01*
X96706813Y-75116391D01*
X96706814Y-75116392D01*
X96807207Y-75143292D01*
X96834104Y-75150499D01*
X96834105Y-75150500D01*
X96834108Y-75150500D01*
X96965895Y-75150500D01*
X96965895Y-75150499D01*
X97093186Y-75116392D01*
X97207314Y-75050500D01*
X97300500Y-74957314D01*
X97366392Y-74843186D01*
X97400499Y-74715895D01*
X97400500Y-74715895D01*
X97400500Y-74584105D01*
X97400499Y-74584104D01*
X97366392Y-74456815D01*
X97366391Y-74456811D01*
X97300499Y-74342685D01*
X97207314Y-74249500D01*
X97093188Y-74183608D01*
X97093184Y-74183607D01*
X96965895Y-74149500D01*
X96965892Y-74149500D01*
X96834108Y-74149500D01*
X96834105Y-74149500D01*
X96706815Y-74183607D01*
X96706811Y-74183608D01*
X96592685Y-74249500D01*
X96592685Y-74249501D01*
X96499501Y-74342685D01*
X96499500Y-74342685D01*
X96433608Y-74456811D01*
X96433607Y-74456815D01*
X96399500Y-74584104D01*
X95800499Y-74584104D01*
X95766392Y-74456815D01*
X95766391Y-74456811D01*
X95700499Y-74342685D01*
X95607314Y-74249500D01*
X95493188Y-74183608D01*
X95493184Y-74183607D01*
X95365895Y-74149500D01*
X95365892Y-74149500D01*
X95234108Y-74149500D01*
X95234105Y-74149500D01*
X95106815Y-74183607D01*
X95106811Y-74183608D01*
X94992685Y-74249500D01*
X94992685Y-74249501D01*
X94899501Y-74342685D01*
X94899500Y-74342685D01*
X94833608Y-74456811D01*
X94833607Y-74456815D01*
X94799500Y-74584104D01*
X73900500Y-74584104D01*
X73900500Y-74514105D01*
X73900499Y-74514104D01*
X73893292Y-74487207D01*
X73866392Y-74386814D01*
X73866391Y-74386813D01*
X73866391Y-74386811D01*
X73800499Y-74272685D01*
X73707314Y-74179500D01*
X73593188Y-74113608D01*
X73593184Y-74113607D01*
X73465895Y-74079500D01*
X73465892Y-74079500D01*
X73334108Y-74079500D01*
X73334105Y-74079500D01*
X73206815Y-74113607D01*
X73206811Y-74113608D01*
X73092685Y-74179500D01*
X73092685Y-74179501D01*
X72999501Y-74272685D01*
X72999500Y-74272685D01*
X72933608Y-74386811D01*
X72933607Y-74386815D01*
X72899500Y-74514104D01*
X69500500Y-74514104D01*
X69500500Y-74444105D01*
X69500499Y-74444104D01*
X69493292Y-74417207D01*
X69466392Y-74316814D01*
X69466391Y-74316813D01*
X69466391Y-74316811D01*
X69400499Y-74202685D01*
X69307314Y-74109500D01*
X69193188Y-74043608D01*
X69193184Y-74043607D01*
X69065895Y-74009500D01*
X69065892Y-74009500D01*
X68934108Y-74009500D01*
X68934105Y-74009500D01*
X68806815Y-74043607D01*
X68806811Y-74043608D01*
X68692685Y-74109500D01*
X68692685Y-74109501D01*
X68599501Y-74202685D01*
X68599500Y-74202685D01*
X68533608Y-74316811D01*
X68533607Y-74316815D01*
X68499500Y-74444104D01*
X68100500Y-74444104D01*
X68100500Y-72894104D01*
X74649500Y-72894104D01*
X74649500Y-73025895D01*
X74683607Y-73153184D01*
X74683608Y-73153188D01*
X74749500Y-73267314D01*
X74842686Y-73360500D01*
X74884457Y-73384617D01*
X74956811Y-73426391D01*
X74956813Y-73426391D01*
X74956814Y-73426392D01*
X75057207Y-73453292D01*
X75084104Y-73460499D01*
X75084105Y-73460500D01*
X75084108Y-73460500D01*
X75215895Y-73460500D01*
X75215895Y-73460499D01*
X75343186Y-73426392D01*
X75457314Y-73360500D01*
X75550500Y-73267314D01*
X75616392Y-73153186D01*
X75650499Y-73025895D01*
X75650500Y-73025895D01*
X75650500Y-72894105D01*
X75650499Y-72894104D01*
X75616392Y-72766815D01*
X75616391Y-72766811D01*
X75572332Y-72690500D01*
X75550500Y-72652686D01*
X75457314Y-72559500D01*
X75343188Y-72493608D01*
X75343184Y-72493607D01*
X75215895Y-72459500D01*
X75215892Y-72459500D01*
X75084108Y-72459500D01*
X75084105Y-72459500D01*
X74956815Y-72493607D01*
X74956811Y-72493608D01*
X74842685Y-72559500D01*
X74842685Y-72559501D01*
X74749501Y-72652685D01*
X74749500Y-72652685D01*
X74683608Y-72766811D01*
X74683607Y-72766815D01*
X74649500Y-72894104D01*
X68100500Y-72894104D01*
X68100500Y-71491233D01*
X83184500Y-71491233D01*
X83184500Y-71658767D01*
X83197005Y-71721632D01*
X83217183Y-71823079D01*
X83217185Y-71823085D01*
X83281296Y-71977862D01*
X83374371Y-72117159D01*
X83492840Y-72235628D01*
X83632137Y-72328703D01*
X83786918Y-72392816D01*
X83951233Y-72425500D01*
X83951236Y-72425500D01*
X84118764Y-72425500D01*
X84118767Y-72425500D01*
X84283082Y-72392816D01*
X84437863Y-72328703D01*
X84577162Y-72235626D01*
X84695626Y-72117162D01*
X84788703Y-71977863D01*
X84852816Y-71823082D01*
X84885500Y-71658767D01*
X84885500Y-71491233D01*
X85724500Y-71491233D01*
X85724500Y-71658767D01*
X85737005Y-71721632D01*
X85757183Y-71823079D01*
X85757185Y-71823085D01*
X85821296Y-71977862D01*
X85914371Y-72117159D01*
X86032840Y-72235628D01*
X86172137Y-72328703D01*
X86326918Y-72392816D01*
X86491233Y-72425500D01*
X86491236Y-72425500D01*
X86658764Y-72425500D01*
X86658767Y-72425500D01*
X86823082Y-72392816D01*
X86977863Y-72328703D01*
X87117162Y-72235626D01*
X87235626Y-72117162D01*
X87328703Y-71977863D01*
X87392816Y-71823082D01*
X87425500Y-71658767D01*
X87425500Y-71491233D01*
X87392816Y-71326918D01*
X87328703Y-71172137D01*
X87298428Y-71126827D01*
X87235628Y-71032840D01*
X87117159Y-70914371D01*
X86977862Y-70821296D01*
X86876527Y-70779322D01*
X86823085Y-70757185D01*
X86823079Y-70757183D01*
X86756816Y-70744002D01*
X86718872Y-70736455D01*
X88244500Y-70736455D01*
X88244500Y-70933544D01*
X88282947Y-71126827D01*
X88282949Y-71126836D01*
X88343006Y-71271827D01*
X88358368Y-71308914D01*
X88413769Y-71391827D01*
X88467283Y-71471918D01*
X88467861Y-71472782D01*
X88607218Y-71612139D01*
X88771086Y-71721632D01*
X88953165Y-71797051D01*
X89146459Y-71835500D01*
X89343541Y-71835500D01*
X89536835Y-71797051D01*
X89718914Y-71721632D01*
X89846723Y-71636233D01*
X97794500Y-71636233D01*
X97794500Y-71803767D01*
X97816189Y-71912809D01*
X97827183Y-71968079D01*
X97827185Y-71968085D01*
X97891296Y-72122862D01*
X97984371Y-72262159D01*
X98102840Y-72380628D01*
X98169996Y-72425500D01*
X98242137Y-72473703D01*
X98396918Y-72537816D01*
X98561233Y-72570500D01*
X98561236Y-72570500D01*
X98728764Y-72570500D01*
X98728767Y-72570500D01*
X98893082Y-72537816D01*
X99047863Y-72473703D01*
X99187162Y-72380626D01*
X99305626Y-72262162D01*
X99398703Y-72122863D01*
X99462816Y-71968082D01*
X99495500Y-71803767D01*
X99495500Y-71636233D01*
X100334500Y-71636233D01*
X100334500Y-71803767D01*
X100356189Y-71912809D01*
X100367183Y-71968079D01*
X100367185Y-71968085D01*
X100431296Y-72122862D01*
X100524371Y-72262159D01*
X100642840Y-72380628D01*
X100709996Y-72425500D01*
X100782137Y-72473703D01*
X100936918Y-72537816D01*
X101101233Y-72570500D01*
X101101236Y-72570500D01*
X101268764Y-72570500D01*
X101268767Y-72570500D01*
X101433082Y-72537816D01*
X101587863Y-72473703D01*
X101727162Y-72380626D01*
X101845626Y-72262162D01*
X101938703Y-72122863D01*
X102002816Y-71968082D01*
X102035500Y-71803767D01*
X102035500Y-71636233D01*
X102002816Y-71471918D01*
X101938703Y-71317137D01*
X101908428Y-71271827D01*
X101845628Y-71177840D01*
X101727159Y-71059371D01*
X101587862Y-70966296D01*
X101486527Y-70924322D01*
X101433085Y-70902185D01*
X101433079Y-70902183D01*
X101366816Y-70889002D01*
X101328872Y-70881455D01*
X102854500Y-70881455D01*
X102854500Y-71078544D01*
X102892947Y-71271827D01*
X102892949Y-71271836D01*
X102968366Y-71453910D01*
X102968368Y-71453914D01*
X102987463Y-71482491D01*
X103060580Y-71591920D01*
X103077861Y-71617782D01*
X103217218Y-71757139D01*
X103381086Y-71866632D01*
X103563165Y-71942051D01*
X103756459Y-71980500D01*
X103953541Y-71980500D01*
X104146835Y-71942051D01*
X104328914Y-71866632D01*
X104492782Y-71757139D01*
X104493688Y-71756233D01*
X110714500Y-71756233D01*
X110714500Y-71923767D01*
X110725785Y-71980499D01*
X110747183Y-72088079D01*
X110747185Y-72088085D01*
X110811296Y-72242862D01*
X110904371Y-72382159D01*
X111022840Y-72500628D01*
X111110950Y-72559501D01*
X111162137Y-72593703D01*
X111316918Y-72657816D01*
X111481233Y-72690500D01*
X111481236Y-72690500D01*
X111648764Y-72690500D01*
X111648767Y-72690500D01*
X111813082Y-72657816D01*
X111967863Y-72593703D01*
X112107162Y-72500626D01*
X112225626Y-72382162D01*
X112318703Y-72242863D01*
X112382816Y-72088082D01*
X112415500Y-71923767D01*
X112415500Y-71756233D01*
X113254500Y-71756233D01*
X113254500Y-71923767D01*
X113265785Y-71980499D01*
X113287183Y-72088079D01*
X113287185Y-72088085D01*
X113351296Y-72242862D01*
X113444371Y-72382159D01*
X113562840Y-72500628D01*
X113650950Y-72559501D01*
X113702137Y-72593703D01*
X113856918Y-72657816D01*
X114021233Y-72690500D01*
X114021236Y-72690500D01*
X114188764Y-72690500D01*
X114188767Y-72690500D01*
X114353082Y-72657816D01*
X114507863Y-72593703D01*
X114647162Y-72500626D01*
X114765626Y-72382162D01*
X114858703Y-72242863D01*
X114922816Y-72088082D01*
X114955500Y-71923767D01*
X114955500Y-71756233D01*
X114922816Y-71591918D01*
X114858703Y-71437137D01*
X114828428Y-71391827D01*
X114765628Y-71297840D01*
X114647159Y-71179371D01*
X114507862Y-71086296D01*
X114353085Y-71022185D01*
X114353079Y-71022183D01*
X114286816Y-71009002D01*
X114188767Y-70989500D01*
X114021233Y-70989500D01*
X113961131Y-71001455D01*
X113856920Y-71022183D01*
X113856914Y-71022185D01*
X113702137Y-71086296D01*
X113562840Y-71179371D01*
X113444371Y-71297840D01*
X113351296Y-71437137D01*
X113287185Y-71591914D01*
X113287183Y-71591920D01*
X113278012Y-71638029D01*
X113254500Y-71756233D01*
X112415500Y-71756233D01*
X112382816Y-71591918D01*
X112318703Y-71437137D01*
X112288428Y-71391827D01*
X112225628Y-71297840D01*
X112107159Y-71179371D01*
X111967862Y-71086296D01*
X111813085Y-71022185D01*
X111813079Y-71022183D01*
X111746816Y-71009002D01*
X111648767Y-70989500D01*
X111481233Y-70989500D01*
X111421131Y-71001455D01*
X111316920Y-71022183D01*
X111316914Y-71022185D01*
X111162137Y-71086296D01*
X111022840Y-71179371D01*
X110904371Y-71297840D01*
X110811296Y-71437137D01*
X110747185Y-71591914D01*
X110747183Y-71591920D01*
X110738012Y-71638029D01*
X110714500Y-71756233D01*
X104493688Y-71756233D01*
X104632139Y-71617782D01*
X104741632Y-71453914D01*
X104817051Y-71271835D01*
X104855500Y-71078541D01*
X104855500Y-70881459D01*
X104817051Y-70688165D01*
X104741632Y-70506086D01*
X104632139Y-70342218D01*
X104492782Y-70202861D01*
X104328914Y-70093368D01*
X104328911Y-70093366D01*
X104328910Y-70093366D01*
X104146836Y-70017949D01*
X104146827Y-70017947D01*
X103953544Y-69979500D01*
X103953541Y-69979500D01*
X103756459Y-69979500D01*
X103756455Y-69979500D01*
X103563172Y-70017947D01*
X103563163Y-70017949D01*
X103381089Y-70093366D01*
X103217218Y-70202860D01*
X103077860Y-70342218D01*
X102968366Y-70506089D01*
X102892949Y-70688163D01*
X102892947Y-70688172D01*
X102854500Y-70881455D01*
X101328872Y-70881455D01*
X101268767Y-70869500D01*
X101101233Y-70869500D01*
X101041131Y-70881455D01*
X100936920Y-70902183D01*
X100936914Y-70902185D01*
X100782137Y-70966296D01*
X100642840Y-71059371D01*
X100524371Y-71177840D01*
X100431296Y-71317137D01*
X100367185Y-71471914D01*
X100367183Y-71471920D01*
X100363342Y-71491233D01*
X100334500Y-71636233D01*
X99495500Y-71636233D01*
X99462816Y-71471918D01*
X99398703Y-71317137D01*
X99368428Y-71271827D01*
X99305628Y-71177840D01*
X99187159Y-71059371D01*
X99047862Y-70966296D01*
X98893085Y-70902185D01*
X98893079Y-70902183D01*
X98826816Y-70889002D01*
X98728767Y-70869500D01*
X98561233Y-70869500D01*
X98501131Y-70881455D01*
X98396920Y-70902183D01*
X98396914Y-70902185D01*
X98242137Y-70966296D01*
X98102840Y-71059371D01*
X97984371Y-71177840D01*
X97891296Y-71317137D01*
X97827185Y-71471914D01*
X97827183Y-71471920D01*
X97823342Y-71491233D01*
X97794500Y-71636233D01*
X89846723Y-71636233D01*
X89882782Y-71612139D01*
X90022139Y-71472782D01*
X90131632Y-71308914D01*
X90207051Y-71126835D01*
X90245500Y-70933541D01*
X90245500Y-70736459D01*
X90207051Y-70543165D01*
X90131632Y-70361086D01*
X90022139Y-70197218D01*
X89882782Y-70057861D01*
X89876559Y-70053703D01*
X89737259Y-69960626D01*
X89718914Y-69948368D01*
X89718911Y-69948366D01*
X89718910Y-69948366D01*
X89536836Y-69872949D01*
X89536827Y-69872947D01*
X89343544Y-69834500D01*
X89343541Y-69834500D01*
X89146459Y-69834500D01*
X89146455Y-69834500D01*
X88953172Y-69872947D01*
X88953163Y-69872949D01*
X88771089Y-69948366D01*
X88607218Y-70057860D01*
X88467860Y-70197218D01*
X88358366Y-70361089D01*
X88282949Y-70543163D01*
X88282947Y-70543172D01*
X88244500Y-70736455D01*
X86718872Y-70736455D01*
X86658767Y-70724500D01*
X86491233Y-70724500D01*
X86431131Y-70736455D01*
X86326920Y-70757183D01*
X86326914Y-70757185D01*
X86172137Y-70821296D01*
X86032840Y-70914371D01*
X85914371Y-71032840D01*
X85821296Y-71172137D01*
X85757185Y-71326914D01*
X85757183Y-71326920D01*
X85744273Y-71391827D01*
X85724500Y-71491233D01*
X84885500Y-71491233D01*
X84852816Y-71326918D01*
X84788703Y-71172137D01*
X84758428Y-71126827D01*
X84695628Y-71032840D01*
X84577159Y-70914371D01*
X84437862Y-70821296D01*
X84283085Y-70757185D01*
X84283079Y-70757183D01*
X84216816Y-70744002D01*
X84118767Y-70724500D01*
X83951233Y-70724500D01*
X83891131Y-70736455D01*
X83786920Y-70757183D01*
X83786914Y-70757185D01*
X83632137Y-70821296D01*
X83492840Y-70914371D01*
X83374371Y-71032840D01*
X83281296Y-71172137D01*
X83217185Y-71326914D01*
X83217183Y-71326920D01*
X83204273Y-71391827D01*
X83184500Y-71491233D01*
X68100500Y-71491233D01*
X68100500Y-68951233D01*
X84454500Y-68951233D01*
X84454500Y-69118767D01*
X84473887Y-69216233D01*
X84487183Y-69283079D01*
X84487185Y-69283085D01*
X84551296Y-69437862D01*
X84644371Y-69577159D01*
X84762840Y-69695628D01*
X84902137Y-69788703D01*
X85056918Y-69852816D01*
X85221233Y-69885500D01*
X85221236Y-69885500D01*
X85388764Y-69885500D01*
X85388767Y-69885500D01*
X85553082Y-69852816D01*
X85707863Y-69788703D01*
X85847162Y-69695626D01*
X85965626Y-69577162D01*
X86058703Y-69437863D01*
X86122816Y-69283082D01*
X86155500Y-69118767D01*
X86155500Y-69096233D01*
X99064500Y-69096233D01*
X99064500Y-69263767D01*
X99068343Y-69283085D01*
X99097183Y-69428079D01*
X99097185Y-69428085D01*
X99161296Y-69582862D01*
X99254371Y-69722159D01*
X99372840Y-69840628D01*
X99439996Y-69885500D01*
X99512137Y-69933703D01*
X99666918Y-69997816D01*
X99831233Y-70030500D01*
X99831236Y-70030500D01*
X99998764Y-70030500D01*
X99998767Y-70030500D01*
X100163082Y-69997816D01*
X100317863Y-69933703D01*
X100457162Y-69840626D01*
X100575626Y-69722162D01*
X100668703Y-69582863D01*
X100732816Y-69428082D01*
X100765500Y-69263767D01*
X100765500Y-69216233D01*
X111984500Y-69216233D01*
X111984500Y-69383767D01*
X112006189Y-69492809D01*
X112017183Y-69548079D01*
X112017185Y-69548085D01*
X112081296Y-69702862D01*
X112174371Y-69842159D01*
X112292840Y-69960628D01*
X112397411Y-70030500D01*
X112432137Y-70053703D01*
X112586918Y-70117816D01*
X112751233Y-70150500D01*
X112751236Y-70150500D01*
X112918764Y-70150500D01*
X112918767Y-70150500D01*
X113083082Y-70117816D01*
X113237863Y-70053703D01*
X113377162Y-69960626D01*
X113495626Y-69842162D01*
X113588703Y-69702863D01*
X113652816Y-69548082D01*
X113685500Y-69383767D01*
X113685500Y-69216233D01*
X113652816Y-69051918D01*
X113588703Y-68897137D01*
X113495628Y-68757840D01*
X113377159Y-68639371D01*
X113237862Y-68546296D01*
X113083085Y-68482185D01*
X113083079Y-68482183D01*
X113016816Y-68469002D01*
X112918767Y-68449500D01*
X112751233Y-68449500D01*
X112669451Y-68465767D01*
X112586920Y-68482183D01*
X112586914Y-68482185D01*
X112432137Y-68546296D01*
X112292840Y-68639371D01*
X112174371Y-68757840D01*
X112081296Y-68897137D01*
X112017185Y-69051914D01*
X112017183Y-69051920D01*
X112003888Y-69118763D01*
X111984500Y-69216233D01*
X100765500Y-69216233D01*
X100765500Y-69096233D01*
X100732816Y-68931918D01*
X100668703Y-68777137D01*
X100655808Y-68757838D01*
X100575628Y-68637840D01*
X100457159Y-68519371D01*
X100317862Y-68426296D01*
X100163085Y-68362185D01*
X100163079Y-68362183D01*
X100096816Y-68349002D01*
X99998767Y-68329500D01*
X99831233Y-68329500D01*
X99749451Y-68345767D01*
X99666920Y-68362183D01*
X99666914Y-68362185D01*
X99512137Y-68426296D01*
X99372840Y-68519371D01*
X99254371Y-68637840D01*
X99161296Y-68777137D01*
X99097185Y-68931914D01*
X99097183Y-68931920D01*
X99093342Y-68951233D01*
X99064500Y-69096233D01*
X86155500Y-69096233D01*
X86155500Y-68951233D01*
X86122816Y-68786918D01*
X86058703Y-68632137D01*
X85965628Y-68492840D01*
X85847159Y-68374371D01*
X85707862Y-68281296D01*
X85553085Y-68217185D01*
X85553079Y-68217183D01*
X85486816Y-68204002D01*
X85388767Y-68184500D01*
X85221233Y-68184500D01*
X85139451Y-68200767D01*
X85056920Y-68217183D01*
X85056914Y-68217185D01*
X84902137Y-68281296D01*
X84762840Y-68374371D01*
X84644371Y-68492840D01*
X84551296Y-68632137D01*
X84487185Y-68786914D01*
X84487183Y-68786920D01*
X84470767Y-68869451D01*
X84454500Y-68951233D01*
X68100500Y-68951233D01*
X68100500Y-67549500D01*
X68114852Y-67514852D01*
X68149500Y-67500500D01*
X117650500Y-67500500D01*
X117685148Y-67514852D01*
G37*
%TD.AperFunction*%
%TD*%
%TA.AperFunction,Conductor*%
%TO.N,GND_MCU*%
G36*
X72425000Y-76525000D02*
G01*
X72550000Y-85250000D01*
X68150000Y-85250000D01*
X68150000Y-76475000D01*
X72425000Y-76525000D01*
G37*
%TD.AperFunction*%
%TD*%
M02*
