%TF.GenerationSoftware,KiCad,Pcbnew,9.0.5-9.0.5~ubuntu24.04.1*%
%TF.CreationDate,2025-11-11T07:58:49+02:00*%
%TF.ProjectId,picr_1_9tdi,70696372-5f31-45f3-9974-64692e6b6963,1*%
%TF.SameCoordinates,Original*%
%TF.FileFunction,Plated,1,4,PTH,Mixed*%
%TF.FilePolarity,Positive*%
%FSLAX46Y46*%
G04 Gerber Fmt 4.6, Leading zero omitted, Abs format (unit mm)*
G04 Created by KiCad (PCBNEW 9.0.5-9.0.5~ubuntu24.04.1) date 2025-11-11 07:58:49*
%MOMM*%
%LPD*%
G01*
G04 APERTURE LIST*
%TA.AperFunction,ViaDrill*%
%ADD10C,0.200000*%
%TD*%
%TA.AperFunction,ViaDrill*%
%ADD11C,0.300000*%
%TD*%
%TA.AperFunction,ViaDrill*%
%ADD12C,0.400000*%
%TD*%
%TA.AperFunction,ViaDrill*%
%ADD13C,0.500000*%
%TD*%
G04 aperture for slot hole*
%TA.AperFunction,ComponentDrill*%
%ADD14C,0.500000*%
%TD*%
%TA.AperFunction,ComponentDrill*%
%ADD15C,0.800000*%
%TD*%
%TA.AperFunction,ComponentDrill*%
%ADD16C,1.000000*%
%TD*%
G04 APERTURE END LIST*
D10*
X83200000Y-109500000D03*
X83200000Y-110000000D03*
X83200000Y-110500000D03*
X83700000Y-109500000D03*
X83700000Y-110000000D03*
X83700000Y-110500000D03*
X84200000Y-109500000D03*
X84200000Y-110000000D03*
X84200000Y-110500000D03*
X96600000Y-109100000D03*
X96600000Y-109600000D03*
X96600000Y-110100000D03*
X97100000Y-109100000D03*
X97100000Y-109600000D03*
X97100000Y-110100000D03*
X97600000Y-109100000D03*
X97600000Y-109600000D03*
X97600000Y-110100000D03*
X110200000Y-109100000D03*
X110200000Y-109600000D03*
X110200000Y-110100000D03*
X110700000Y-109100000D03*
X110700000Y-109600000D03*
X110700000Y-110100000D03*
X111200000Y-109100000D03*
X111200000Y-109600000D03*
X111200000Y-110100000D03*
D11*
X68400000Y-95800000D03*
X69000000Y-74510000D03*
X69280000Y-70700000D03*
X70060000Y-101150000D03*
X70725000Y-84275000D03*
X70775000Y-77700000D03*
X70950000Y-79900000D03*
X71000000Y-82300000D03*
X71810000Y-70710000D03*
X73070000Y-70790000D03*
X73200000Y-84200000D03*
X73300000Y-82300000D03*
X73400000Y-74580000D03*
X73475000Y-77700000D03*
X73730735Y-105479265D03*
X74525000Y-107575000D03*
X74660000Y-85200000D03*
X74660000Y-93540000D03*
X74660000Y-96390000D03*
X75050000Y-99150000D03*
X75050000Y-115650000D03*
X75100000Y-114550000D03*
X75150000Y-72960000D03*
X75550000Y-105400000D03*
X75640000Y-82630000D03*
X75700000Y-97540000D03*
X75890000Y-107780000D03*
X76150000Y-75570000D03*
X77250000Y-93414579D03*
X77987851Y-94014579D03*
X78300000Y-69100000D03*
X78400000Y-76750000D03*
X78470000Y-85210000D03*
X78609659Y-93511232D03*
X79200000Y-94800000D03*
X79200000Y-103400000D03*
X79200000Y-104000000D03*
X79677200Y-110384579D03*
X79720000Y-85180000D03*
X79800000Y-103700000D03*
X79850000Y-70600000D03*
X79870000Y-108490000D03*
X79885421Y-109612149D03*
X79900000Y-79600000D03*
X79900707Y-93500706D03*
X80350000Y-102640000D03*
X80360000Y-101890000D03*
X80500000Y-109100000D03*
X80900000Y-116300000D03*
X80908883Y-85263162D03*
X81040000Y-102650000D03*
X81050000Y-101910000D03*
X81600000Y-116300000D03*
X81700000Y-104800000D03*
X81700000Y-105450000D03*
X81720000Y-102670000D03*
X81730000Y-101920000D03*
X81875000Y-84700000D03*
X82000000Y-106200000D03*
X82000000Y-106850000D03*
X82048846Y-78801484D03*
X82200000Y-94100000D03*
X82300000Y-107600000D03*
X82300000Y-116300000D03*
X82350000Y-105100000D03*
X82370000Y-81670000D03*
X82410000Y-101930000D03*
X82410000Y-102680000D03*
X82540000Y-78170000D03*
X82650000Y-106550000D03*
X82890000Y-75760000D03*
X83000000Y-114900000D03*
X83000000Y-115600000D03*
X83000000Y-116300000D03*
X83090000Y-102700000D03*
X83100000Y-101930000D03*
X83625000Y-78010000D03*
X83700000Y-114900000D03*
X83700000Y-115600000D03*
X83700000Y-116300000D03*
X83770000Y-101950000D03*
X83790000Y-102690000D03*
X84375000Y-77400000D03*
X84400000Y-107500000D03*
X84400000Y-114900000D03*
X84400000Y-115600000D03*
X84400000Y-116300000D03*
X84700000Y-84380000D03*
X84880000Y-103720000D03*
X85000000Y-87100000D03*
X85100000Y-116300000D03*
X85325000Y-92200000D03*
X85650000Y-103710000D03*
X85800000Y-116300000D03*
X85875000Y-108000000D03*
X86440000Y-103700000D03*
X86500000Y-85425000D03*
X86500000Y-116300000D03*
X86600000Y-108000000D03*
X87230000Y-103670000D03*
X87300000Y-74000000D03*
X87450000Y-92230000D03*
X87600000Y-102100000D03*
X87600000Y-103000000D03*
X87800000Y-72500000D03*
X88330000Y-82740000D03*
X88680000Y-92240000D03*
X89490000Y-107600000D03*
X89550000Y-69000000D03*
X89560000Y-100660000D03*
X89674265Y-74825735D03*
X90310000Y-85425000D03*
X90600000Y-97300000D03*
X90796979Y-110335723D03*
X91090000Y-106450000D03*
X91175000Y-82800000D03*
X91300000Y-87200000D03*
X91435636Y-82043645D03*
X91700000Y-105200000D03*
X91800000Y-77200000D03*
X91900000Y-78700000D03*
X92080000Y-103500000D03*
X92225000Y-82990000D03*
X92500000Y-96500000D03*
X92700000Y-106220000D03*
X93000000Y-81400000D03*
X93000000Y-97700000D03*
X93360000Y-94120000D03*
X93600000Y-100400000D03*
X93800000Y-109999685D03*
X93931587Y-109210579D03*
X94050000Y-102950000D03*
X94400000Y-116300000D03*
X94475000Y-82700000D03*
X94600000Y-73900000D03*
X94630000Y-94250000D03*
X95000000Y-72250000D03*
X95100000Y-116300000D03*
X95240000Y-103328626D03*
X95275000Y-69300000D03*
X95300000Y-74650000D03*
X95411765Y-82561765D03*
X95800000Y-116300000D03*
X96125000Y-85400000D03*
X96300000Y-82562765D03*
X96362528Y-80388943D03*
X96500000Y-77850000D03*
X96500000Y-114900000D03*
X96500000Y-115600000D03*
X96500000Y-116300000D03*
X96800000Y-100900000D03*
X96900000Y-74650000D03*
X96918425Y-85502377D03*
X96960000Y-78800000D03*
X97060000Y-79625000D03*
X97130000Y-107220000D03*
X97200000Y-114900000D03*
X97200000Y-115600000D03*
X97200000Y-116300000D03*
X97900000Y-114900000D03*
X97900000Y-115600000D03*
X97900000Y-116300000D03*
X98200000Y-93600000D03*
X98225000Y-96325000D03*
X98480240Y-85119760D03*
X98600000Y-98700000D03*
X98600000Y-116300000D03*
X98900000Y-74750000D03*
X98940000Y-70430000D03*
X99300000Y-116300000D03*
X99510000Y-102680000D03*
X99634313Y-98934313D03*
X99700000Y-86425000D03*
X99750000Y-78800000D03*
X100000000Y-116300000D03*
X100050000Y-82450000D03*
X100250000Y-87800000D03*
X100730000Y-106060000D03*
X100850000Y-84950000D03*
X101000000Y-98900000D03*
X101200000Y-110250000D03*
X101425000Y-93171000D03*
X102020000Y-86210000D03*
X102070000Y-82600000D03*
X102200000Y-81225000D03*
X102230000Y-78990000D03*
X102330000Y-102720000D03*
X102730000Y-98990000D03*
X103050000Y-82825000D03*
X103080000Y-107640000D03*
X103840000Y-80490000D03*
X104150000Y-69150000D03*
X104300000Y-102700000D03*
X104500000Y-98800000D03*
X104500000Y-106180000D03*
X104540000Y-96800000D03*
X105300000Y-110208038D03*
X105400000Y-76200000D03*
X105600000Y-98800000D03*
X105975000Y-82675000D03*
X106000000Y-86250000D03*
X106113235Y-81411765D03*
X106250000Y-96650000D03*
X106500000Y-99700000D03*
X106700000Y-94600000D03*
X107100000Y-101900000D03*
X107300000Y-109999685D03*
X107400000Y-108900000D03*
X107680000Y-85350000D03*
X107800000Y-116300000D03*
X108300000Y-95200000D03*
X108500000Y-116300000D03*
X108600000Y-98750000D03*
X108700000Y-102350000D03*
X108800000Y-84100000D03*
X108810000Y-79950000D03*
X108810000Y-82100000D03*
X109012500Y-95887500D03*
X109050000Y-105550000D03*
X109200000Y-116300000D03*
X109550000Y-71200000D03*
X109700000Y-84350000D03*
X109770000Y-75170000D03*
X109900000Y-114900000D03*
X109900000Y-115600000D03*
X109900000Y-116300000D03*
X110600000Y-114900000D03*
X110600000Y-115600000D03*
X110600000Y-116300000D03*
X110700000Y-68250000D03*
X111300000Y-114900000D03*
X111300000Y-115600000D03*
X111300000Y-116300000D03*
X112000000Y-116300000D03*
X112620000Y-105600000D03*
X112700000Y-116300000D03*
X112850000Y-85470000D03*
X113350000Y-78100000D03*
X113400000Y-81350000D03*
X113400000Y-116300000D03*
X113850000Y-74400000D03*
X113950000Y-96750000D03*
X115000000Y-110150000D03*
X115100000Y-96750000D03*
X115500000Y-100400000D03*
X115500000Y-104500000D03*
X116350000Y-96750000D03*
X116981568Y-69294576D03*
X117000000Y-74400000D03*
X117350000Y-80150000D03*
X117350000Y-82000000D03*
X117350000Y-85400000D03*
D12*
X69300000Y-114400000D03*
X69300000Y-115650000D03*
X70200000Y-114400000D03*
X70200000Y-115650000D03*
X71100000Y-114400000D03*
X71100000Y-115650000D03*
X72000000Y-114400000D03*
X72000000Y-115650000D03*
X75600000Y-109400000D03*
X75600000Y-110800000D03*
X75600000Y-112300000D03*
X76600000Y-109400000D03*
X76600000Y-110800000D03*
X76600000Y-112300000D03*
X77625000Y-109425000D03*
X77625000Y-110475000D03*
X78100000Y-111800000D03*
X79300000Y-111800000D03*
X80400000Y-111800000D03*
X87075000Y-111550000D03*
X88275000Y-111550000D03*
X89450000Y-111550000D03*
X91500000Y-111600000D03*
X92700000Y-111600000D03*
X93800000Y-111600000D03*
X100600000Y-111600000D03*
X101750000Y-111575000D03*
X102825000Y-111575000D03*
X105000000Y-111600000D03*
X106200000Y-111600000D03*
X107300000Y-111600000D03*
X114100000Y-111600000D03*
X115300000Y-111600000D03*
X116400000Y-111600000D03*
D13*
X85000000Y-99150000D03*
X85100000Y-97000000D03*
D14*
%TO.C,J1*%
X69850000Y-77700000D02*
X69150000Y-77700000D01*
X69850000Y-84300000D02*
X69150000Y-84300000D01*
D15*
%TO.C,U15*%
X69800000Y-95810000D03*
X69800000Y-98350000D03*
X72340000Y-97080000D03*
X72340000Y-99620000D03*
%TO.C,U10*%
X84035000Y-71575000D03*
X85305000Y-69035000D03*
X86575000Y-71575000D03*
X87845000Y-69035000D03*
%TO.C,U9*%
X98645000Y-71720000D03*
X99915000Y-69180000D03*
X101185000Y-71720000D03*
X102455000Y-69180000D03*
%TO.C,U11*%
X111565000Y-71840000D03*
X112835000Y-69300000D03*
X114105000Y-71840000D03*
X115375000Y-69300000D03*
D16*
%TO.C,J6*%
X110500000Y-98700000D03*
%TO.C,J4*%
X110520000Y-102300000D03*
%TO.C,J5*%
X111200000Y-79310000D03*
X111200000Y-81850000D03*
%TO.C,J6*%
X113040000Y-98700000D03*
%TO.C,J4*%
X113060000Y-102300000D03*
%TO.C,J6*%
X115580000Y-98700000D03*
%TO.C,J3*%
X115600000Y-76920000D03*
X115600000Y-79460000D03*
X115600000Y-82000000D03*
X115600000Y-84540000D03*
%TO.C,J4*%
X115600000Y-102300000D03*
M02*
