%TF.GenerationSoftware,KiCad,Pcbnew,9.0.6*%
%TF.CreationDate,2025-11-11T12:39:31+02:00*%
%TF.ProjectId,picr_1_9tdi,70696372-5f31-45f3-9974-64692e6b6963,1*%
%TF.SameCoordinates,Original*%
%TF.FileFunction,Soldermask,Top*%
%TF.FilePolarity,Negative*%
%FSLAX46Y46*%
G04 Gerber Fmt 4.6, Leading zero omitted, Abs format (unit mm)*
G04 Created by KiCad (PCBNEW 9.0.6) date 2025-11-11 12:39:31*
%MOMM*%
%LPD*%
G01*
G04 APERTURE LIST*
G04 Aperture macros list*
%AMRoundRect*
0 Rectangle with rounded corners*
0 $1 Rounding radius*
0 $2 $3 $4 $5 $6 $7 $8 $9 X,Y pos of 4 corners*
0 Add a 4 corners polygon primitive as box body*
4,1,4,$2,$3,$4,$5,$6,$7,$8,$9,$2,$3,0*
0 Add four circle primitives for the rounded corners*
1,1,$1+$1,$2,$3*
1,1,$1+$1,$4,$5*
1,1,$1+$1,$6,$7*
1,1,$1+$1,$8,$9*
0 Add four rect primitives between the rounded corners*
20,1,$1+$1,$2,$3,$4,$5,0*
20,1,$1+$1,$4,$5,$6,$7,0*
20,1,$1+$1,$6,$7,$8,$9,0*
20,1,$1+$1,$8,$9,$2,$3,0*%
G04 Aperture macros list end*
%ADD10RoundRect,0.237500X0.250000X0.237500X-0.250000X0.237500X-0.250000X-0.237500X0.250000X-0.237500X0*%
%ADD11RoundRect,0.750000X-1.250000X0.750000X-1.250000X-0.750000X1.250000X-0.750000X1.250000X0.750000X0*%
%ADD12O,0.602000X1.971000*%
%ADD13RoundRect,0.237500X-0.237500X0.250000X-0.237500X-0.250000X0.237500X-0.250000X0.237500X0.250000X0*%
%ADD14RoundRect,0.237500X0.044194X0.380070X-0.380070X-0.044194X-0.044194X-0.380070X0.380070X0.044194X0*%
%ADD15R,1.117600X0.228600*%
%ADD16R,1.625600X4.927600*%
%ADD17RoundRect,0.237500X0.300000X0.237500X-0.300000X0.237500X-0.300000X-0.237500X0.300000X-0.237500X0*%
%ADD18RoundRect,0.750000X-0.750000X-1.250000X0.750000X-1.250000X0.750000X1.250000X-0.750000X1.250000X0*%
%ADD19RoundRect,0.237500X0.237500X-0.250000X0.237500X0.250000X-0.237500X0.250000X-0.237500X-0.250000X0*%
%ADD20C,1.500000*%
%ADD21R,1.300000X1.300000*%
%ADD22C,1.300000*%
%ADD23R,1.000000X0.595000*%
%ADD24R,4.500000X4.500000*%
%ADD25RoundRect,0.050000X0.100000X-0.285000X0.100000X0.285000X-0.100000X0.285000X-0.100000X-0.285000X0*%
%ADD26RoundRect,0.237500X-0.300000X-0.237500X0.300000X-0.237500X0.300000X0.237500X-0.300000X0.237500X0*%
%ADD27RoundRect,0.237500X-0.250000X-0.237500X0.250000X-0.237500X0.250000X0.237500X-0.250000X0.237500X0*%
%ADD28RoundRect,0.237500X-0.237500X0.300000X-0.237500X-0.300000X0.237500X-0.300000X0.237500X0.300000X0*%
%ADD29R,1.500000X3.500000*%
%ADD30RoundRect,0.237500X-0.044194X-0.380070X0.380070X0.044194X0.044194X0.380070X-0.380070X-0.044194X0*%
%ADD31R,1.700000X1.700000*%
%ADD32O,1.700000X1.700000*%
%ADD33RoundRect,0.250000X-0.337500X-0.475000X0.337500X-0.475000X0.337500X0.475000X-0.337500X0.475000X0*%
%ADD34RoundRect,0.125000X0.625000X0.125000X-0.625000X0.125000X-0.625000X-0.125000X0.625000X-0.125000X0*%
%ADD35RoundRect,0.125000X0.125000X0.625000X-0.125000X0.625000X-0.125000X-0.625000X0.125000X-0.625000X0*%
%ADD36RoundRect,0.100000X-0.575000X0.100000X-0.575000X-0.100000X0.575000X-0.100000X0.575000X0.100000X0*%
%ADD37O,1.600000X0.900000*%
%ADD38RoundRect,0.250000X-0.450000X0.550000X-0.450000X-0.550000X0.450000X-0.550000X0.450000X0.550000X0*%
%ADD39RoundRect,0.250000X-0.700000X0.700000X-0.700000X-0.700000X0.700000X-0.700000X0.700000X0.700000X0*%
%ADD40R,0.760000X2.400000*%
%ADD41RoundRect,0.150000X-0.512500X-0.150000X0.512500X-0.150000X0.512500X0.150000X-0.512500X0.150000X0*%
%ADD42O,0.588000X2.045000*%
%ADD43RoundRect,0.237500X0.237500X-0.300000X0.237500X0.300000X-0.237500X0.300000X-0.237500X-0.300000X0*%
%ADD44RoundRect,0.237500X-0.237500X0.287500X-0.237500X-0.287500X0.237500X-0.287500X0.237500X0.287500X0*%
%ADD45R,0.600000X1.000000*%
G04 APERTURE END LIST*
D10*
%TO.C,R1*%
X89500000Y-108650000D03*
X87675000Y-108650000D03*
%TD*%
D11*
%TO.C,J2*%
X70600000Y-105000000D03*
X70600000Y-115000000D03*
%TD*%
D12*
%TO.C,U13*%
X110890000Y-87700000D03*
X109620000Y-87700000D03*
X108350000Y-87700000D03*
X107080000Y-87700000D03*
X105810000Y-87700000D03*
X104540000Y-87700000D03*
X103270000Y-87700000D03*
X102000000Y-87700000D03*
X102000000Y-93171000D03*
X103270000Y-93171000D03*
X104540000Y-93171000D03*
X105810000Y-93171000D03*
X107080000Y-93171000D03*
X108350000Y-93171000D03*
X109620000Y-93171000D03*
X110890000Y-93171000D03*
%TD*%
D13*
%TO.C,R14*%
X113700000Y-105625000D03*
X113700000Y-107450000D03*
%TD*%
D14*
%TO.C,C22*%
X99700000Y-83900000D03*
X98480240Y-85119760D03*
%TD*%
D15*
%TO.C,U1*%
X81579100Y-108649181D03*
X81579100Y-109149307D03*
X81579100Y-109649433D03*
X81579100Y-110149559D03*
X81579100Y-110649685D03*
X81579100Y-111149811D03*
X81579100Y-111649937D03*
X81579100Y-112150063D03*
X81579100Y-112650189D03*
X81579100Y-113150315D03*
X81579100Y-113650441D03*
X81579100Y-114150567D03*
X81579100Y-114650693D03*
X81579100Y-115150819D03*
X85820900Y-115150819D03*
X85820900Y-114650693D03*
X85820900Y-114150567D03*
X85820900Y-113650441D03*
X85820900Y-113150315D03*
X85820900Y-112650189D03*
X85820900Y-112150063D03*
X85820900Y-111649937D03*
X85820900Y-111149811D03*
X85820900Y-110649685D03*
X85820900Y-110149559D03*
X85820900Y-109649433D03*
X85820900Y-109149307D03*
X85820900Y-108649181D03*
D16*
X83700000Y-111900000D03*
%TD*%
D17*
%TO.C,C35*%
X111325000Y-95300000D03*
X109600000Y-95300000D03*
%TD*%
D18*
%TO.C,J9*%
X92300000Y-114950000D03*
X102200000Y-114950000D03*
%TD*%
D19*
%TO.C,R19*%
X75900000Y-96700000D03*
X75900000Y-94875000D03*
%TD*%
D20*
%TO.C,U11*%
X116775000Y-71100000D03*
D21*
X115375000Y-69300000D03*
D22*
X114105000Y-71840000D03*
X112835000Y-69300000D03*
X111565000Y-71840000D03*
%TD*%
D10*
%TO.C,R9*%
X103025000Y-108650000D03*
X101200000Y-108650000D03*
%TD*%
D23*
%TO.C,Q1*%
X74532000Y-112173000D03*
X74532000Y-110903000D03*
X74532000Y-109633000D03*
X74532000Y-108363000D03*
D24*
X70618000Y-110268000D03*
%TD*%
D25*
%TO.C,U3*%
X76800000Y-103880000D03*
X77300000Y-103880000D03*
X77800000Y-103880000D03*
X78300000Y-103880000D03*
X78300000Y-102400000D03*
X77800000Y-102400000D03*
X77300000Y-102400000D03*
X76800000Y-102400000D03*
%TD*%
D20*
%TO.C,U9*%
X103855000Y-70980000D03*
D21*
X102455000Y-69180000D03*
D22*
X101185000Y-71720000D03*
X99915000Y-69180000D03*
X98645000Y-71720000D03*
%TD*%
D26*
%TO.C,C36*%
X97600000Y-87800000D03*
X99325000Y-87800000D03*
%TD*%
D27*
%TO.C,R10*%
X94187500Y-107200000D03*
X96012500Y-107200000D03*
%TD*%
D17*
%TO.C,C33*%
X83600000Y-84700000D03*
X81875000Y-84700000D03*
%TD*%
D15*
%TO.C,U6*%
X108579100Y-108649181D03*
X108579100Y-109149307D03*
X108579100Y-109649433D03*
X108579100Y-110149559D03*
X108579100Y-110649685D03*
X108579100Y-111149811D03*
X108579100Y-111649937D03*
X108579100Y-112150063D03*
X108579100Y-112650189D03*
X108579100Y-113150315D03*
X108579100Y-113650441D03*
X108579100Y-114150567D03*
X108579100Y-114650693D03*
X108579100Y-115150819D03*
X112820900Y-115150819D03*
X112820900Y-114650693D03*
X112820900Y-114150567D03*
X112820900Y-113650441D03*
X112820900Y-113150315D03*
X112820900Y-112650189D03*
X112820900Y-112150063D03*
X112820900Y-111649937D03*
X112820900Y-111149811D03*
X112820900Y-110649685D03*
X112820900Y-110149559D03*
X112820900Y-109649433D03*
X112820900Y-109149307D03*
X112820900Y-108649181D03*
D16*
X110700000Y-111900000D03*
%TD*%
D20*
%TO.C,U15*%
X71600000Y-94410000D03*
D21*
X69800000Y-95810000D03*
D22*
X72340000Y-97080000D03*
X69800000Y-98350000D03*
X72340000Y-99620000D03*
%TD*%
D28*
%TO.C,C16*%
X78400000Y-75025000D03*
X78400000Y-76750000D03*
%TD*%
D29*
%TO.C,L1*%
X79000000Y-98700000D03*
X82700000Y-98700000D03*
%TD*%
D30*
%TO.C,C24*%
X88425000Y-76075000D03*
X89644760Y-74855240D03*
%TD*%
D19*
%TO.C,R16*%
X107900000Y-107350000D03*
X107900000Y-105525000D03*
%TD*%
D27*
%TO.C,R15*%
X87475000Y-85425000D03*
X89300000Y-85425000D03*
%TD*%
D17*
%TO.C,C37*%
X94995000Y-95850000D03*
X93269998Y-95850000D03*
%TD*%
D13*
%TO.C,R4*%
X76800000Y-105975000D03*
X76800000Y-107800000D03*
%TD*%
D19*
%TO.C,R11*%
X92700000Y-109100000D03*
X92700000Y-107275000D03*
%TD*%
D15*
%TO.C,U4*%
X95008200Y-108598362D03*
X95008200Y-109098488D03*
X95008200Y-109598614D03*
X95008200Y-110098740D03*
X95008200Y-110598866D03*
X95008200Y-111098992D03*
X95008200Y-111599118D03*
X95008200Y-112099244D03*
X95008200Y-112599370D03*
X95008200Y-113099496D03*
X95008200Y-113599622D03*
X95008200Y-114099748D03*
X95008200Y-114599874D03*
X95008200Y-115100000D03*
X99250000Y-115100000D03*
X99250000Y-114599874D03*
X99250000Y-114099748D03*
X99250000Y-113599622D03*
X99250000Y-113099496D03*
X99250000Y-112599370D03*
X99250000Y-112099244D03*
X99250000Y-111599118D03*
X99250000Y-111098992D03*
X99250000Y-110598866D03*
X99250000Y-110098740D03*
X99250000Y-109598614D03*
X99250000Y-109098488D03*
X99250000Y-108598362D03*
D16*
X97129100Y-111849181D03*
%TD*%
D31*
%TO.C,J4*%
X115600000Y-102300000D03*
D32*
X113060000Y-102300000D03*
X110520000Y-102300000D03*
%TD*%
D13*
%TO.C,R8*%
X73800000Y-102587500D03*
X73800000Y-104412500D03*
%TD*%
D18*
%TO.C,J8*%
X78900000Y-114950000D03*
X88800000Y-114950000D03*
%TD*%
D33*
%TO.C,C21*%
X91850000Y-72225000D03*
X93925000Y-72225000D03*
%TD*%
D18*
%TO.C,J7*%
X105750000Y-114962500D03*
X115650000Y-114962500D03*
%TD*%
D34*
%TO.C,U7*%
X98275000Y-82800000D03*
X98275000Y-82000000D03*
X98275000Y-81200000D03*
X98275000Y-80400000D03*
X98275000Y-79600000D03*
X98275000Y-78800000D03*
X98275000Y-78000000D03*
X98275000Y-77200000D03*
D35*
X96900000Y-75825000D03*
X96100000Y-75825000D03*
X95300000Y-75825000D03*
X94500000Y-75825000D03*
X93700000Y-75825000D03*
X92900000Y-75825000D03*
X92100000Y-75825000D03*
X91300000Y-75825000D03*
D34*
X89925000Y-77200000D03*
X89925000Y-78000000D03*
X89925000Y-78800000D03*
X89925000Y-79600000D03*
X89925000Y-80400000D03*
X89925000Y-81200000D03*
X89925000Y-82000000D03*
X89925000Y-82800000D03*
D35*
X91300000Y-84175000D03*
X92100000Y-84175000D03*
X92900000Y-84175000D03*
X93700000Y-84175000D03*
X94500000Y-84175000D03*
X95300000Y-84175000D03*
X96100000Y-84175000D03*
X96900000Y-84175000D03*
%TD*%
D36*
%TO.C,J1*%
X72175000Y-79700000D03*
X72175000Y-80350000D03*
X72175000Y-81000000D03*
X72175000Y-81650000D03*
X72175000Y-82300000D03*
D37*
X69500000Y-77700000D03*
D38*
X71950000Y-77800000D03*
D39*
X69500000Y-79800000D03*
X69500000Y-82200000D03*
D38*
X71950000Y-84200000D03*
D37*
X69500000Y-84300000D03*
%TD*%
D17*
%TO.C,C34*%
X83925000Y-94000000D03*
X82200000Y-94000000D03*
%TD*%
D40*
%TO.C,U8*%
X74340000Y-69050000D03*
X74340000Y-72950000D03*
X73070000Y-69050000D03*
X73070000Y-72950000D03*
X71800000Y-69050000D03*
X71800000Y-72950000D03*
X70530000Y-69050000D03*
X70530000Y-72950000D03*
X69260000Y-69050000D03*
X69260000Y-72950000D03*
%TD*%
D41*
%TO.C,U5*%
X80200000Y-74850000D03*
X80200000Y-75800000D03*
X80200000Y-76750000D03*
X82475000Y-76750000D03*
X82475000Y-74850000D03*
%TD*%
D26*
%TO.C,C25*%
X100500000Y-80000000D03*
X102225000Y-80000000D03*
%TD*%
D13*
%TO.C,R12*%
X104200000Y-82625000D03*
X104200000Y-84450000D03*
%TD*%
D19*
%TO.C,R5*%
X91100000Y-109350000D03*
X91100000Y-107525000D03*
%TD*%
D31*
%TO.C,J3*%
X115600000Y-84540000D03*
D32*
X115600000Y-82000000D03*
X115600000Y-79460000D03*
X115600000Y-76920000D03*
%TD*%
D42*
%TO.C,U14*%
X95900000Y-87200000D03*
X94630000Y-87200000D03*
X93360000Y-87200000D03*
X92090000Y-87200000D03*
X92090000Y-92745000D03*
X93360000Y-92745000D03*
X94630000Y-92745000D03*
X95900000Y-92745000D03*
%TD*%
D12*
%TO.C,U12*%
X83550000Y-86600000D03*
X82280000Y-86600000D03*
X81010000Y-86600000D03*
X79740000Y-86600000D03*
X78470000Y-86600000D03*
X77200000Y-86600000D03*
X75930000Y-86600000D03*
X74660000Y-86600000D03*
X74660000Y-92071000D03*
X75930000Y-92071000D03*
X77200000Y-92071000D03*
X78470000Y-92071000D03*
X79740000Y-92071000D03*
X81010000Y-92071000D03*
X82280000Y-92071000D03*
X83550000Y-92071000D03*
%TD*%
D28*
%TO.C,C12*%
X86400000Y-100625000D03*
X86400000Y-102350000D03*
%TD*%
D19*
%TO.C,R18*%
X115500000Y-107450000D03*
X115500000Y-105625000D03*
%TD*%
D33*
%TO.C,C5*%
X78700000Y-107050000D03*
X80775000Y-107050000D03*
%TD*%
D26*
%TO.C,C6*%
X78675000Y-105250000D03*
X80400000Y-105250000D03*
%TD*%
D43*
%TO.C,C10*%
X76500000Y-100925000D03*
X76500000Y-99200000D03*
%TD*%
D31*
%TO.C,J6*%
X115580000Y-98700000D03*
D32*
X113040000Y-98700000D03*
X110500000Y-98700000D03*
%TD*%
D20*
%TO.C,U10*%
X89245000Y-70835000D03*
D21*
X87845000Y-69035000D03*
D22*
X86575000Y-71575000D03*
X85305000Y-69035000D03*
X84035000Y-71575000D03*
%TD*%
D31*
%TO.C,J5*%
X111200000Y-81850000D03*
D32*
X111200000Y-79310000D03*
%TD*%
D19*
%TO.C,R13*%
X104500000Y-109250000D03*
X104500000Y-107425000D03*
%TD*%
D17*
%TO.C,C32*%
X111425000Y-85400000D03*
X109700000Y-85400000D03*
%TD*%
D27*
%TO.C,R20*%
X101250000Y-95850000D03*
X103075000Y-95850000D03*
%TD*%
D26*
%TO.C,C27*%
X91924998Y-73975000D03*
X93650000Y-73975000D03*
%TD*%
D19*
%TO.C,R7*%
X75300000Y-104412500D03*
X75300000Y-102587500D03*
%TD*%
%TO.C,R17*%
X106050000Y-109200000D03*
X106050000Y-107375000D03*
%TD*%
D43*
%TO.C,C8*%
X75000000Y-100850000D03*
X75000000Y-99125000D03*
%TD*%
D44*
%TO.C,D1*%
X105975000Y-82675000D03*
X105975000Y-84425000D03*
%TD*%
D26*
%TO.C,C18*%
X84300000Y-75000000D03*
X86025000Y-75000000D03*
%TD*%
D28*
%TO.C,C11*%
X84900000Y-100650000D03*
X84900000Y-102375000D03*
%TD*%
D45*
%TO.C,U2*%
X74675000Y-81775000D03*
X75625000Y-81775000D03*
X76575000Y-81775000D03*
X76575000Y-79575000D03*
X74675000Y-79575000D03*
%TD*%
D13*
%TO.C,R6*%
X108000000Y-76950000D03*
X108000000Y-78775000D03*
%TD*%
M02*
