%TF.GenerationSoftware,KiCad,Pcbnew,9.0.6*%
%TF.CreationDate,2025-11-11T12:39:31+02:00*%
%TF.ProjectId,picr_1_9tdi,70696372-5f31-45f3-9974-64692e6b6963,1*%
%TF.SameCoordinates,Original*%
%TF.FileFunction,Legend,Bot*%
%TF.FilePolarity,Positive*%
%FSLAX46Y46*%
G04 Gerber Fmt 4.6, Leading zero omitted, Abs format (unit mm)*
G04 Created by KiCad (PCBNEW 9.0.6) date 2025-11-11 12:39:31*
%MOMM*%
%LPD*%
G01*
G04 APERTURE LIST*
%ADD10C,0.120000*%
G04 APERTURE END LIST*
D10*
%TO.C,C2*%
X89065000Y-113438748D02*
X89065000Y-113961252D01*
X90535000Y-113438748D02*
X90535000Y-113961252D01*
%TO.C,C15*%
X102365000Y-113538748D02*
X102365000Y-114061252D01*
X103835000Y-113538748D02*
X103835000Y-114061252D01*
%TO.C,C4*%
X77365000Y-113713748D02*
X77365000Y-114236252D01*
X78835000Y-113713748D02*
X78835000Y-114236252D01*
%TO.C,C29*%
X115765000Y-113638748D02*
X115765000Y-114161252D01*
X117235000Y-113638748D02*
X117235000Y-114161252D01*
%TO.C,C23*%
X104365000Y-113538748D02*
X104365000Y-114061252D01*
X105835000Y-113538748D02*
X105835000Y-114061252D01*
%TO.C,C20*%
X100790000Y-113878733D02*
X100790000Y-114171267D01*
X101810000Y-113878733D02*
X101810000Y-114171267D01*
%TO.C,C17*%
X98765000Y-113501248D02*
X98765000Y-114023752D01*
X100235000Y-113501248D02*
X100235000Y-114023752D01*
%TO.C,C30*%
X114227500Y-113991233D02*
X114227500Y-114283767D01*
X115247500Y-113991233D02*
X115247500Y-114283767D01*
%TO.C,C13*%
X94765000Y-113438748D02*
X94765000Y-113961252D01*
X96235000Y-113438748D02*
X96235000Y-113961252D01*
%TO.C,C9*%
X87490000Y-113778733D02*
X87490000Y-114071267D01*
X88510000Y-113778733D02*
X88510000Y-114071267D01*
%TO.C,C14*%
X91165000Y-113438748D02*
X91165000Y-113961252D01*
X92635000Y-113438748D02*
X92635000Y-113961252D01*
%TO.C,C31*%
X106390000Y-113853733D02*
X106390000Y-114146267D01*
X107410000Y-113853733D02*
X107410000Y-114146267D01*
%TO.C,C1*%
X85465000Y-113438748D02*
X85465000Y-113961252D01*
X86935000Y-113438748D02*
X86935000Y-113961252D01*
%TO.C,C19*%
X93190000Y-113778733D02*
X93190000Y-114071267D01*
X94210000Y-113778733D02*
X94210000Y-114071267D01*
%TO.C,C3*%
X80965000Y-113713748D02*
X80965000Y-114236252D01*
X82435000Y-113713748D02*
X82435000Y-114236252D01*
%TO.C,C7*%
X79390000Y-113753733D02*
X79390000Y-114046267D01*
X80410000Y-113753733D02*
X80410000Y-114046267D01*
%TO.C,C28*%
X112265000Y-113638748D02*
X112265000Y-114161252D01*
X113735000Y-113638748D02*
X113735000Y-114161252D01*
%TO.C,C26*%
X107965000Y-113513748D02*
X107965000Y-114036252D01*
X109435000Y-113513748D02*
X109435000Y-114036252D01*
%TO.C,R2*%
X80027500Y-106592224D02*
X80027500Y-106082776D01*
X81072500Y-106592224D02*
X81072500Y-106082776D01*
%TO.C,R3*%
X86757776Y-109377500D02*
X87267224Y-109377500D01*
X86757776Y-110422500D02*
X87267224Y-110422500D01*
%TD*%
M02*
