%TF.GenerationSoftware,KiCad,Pcbnew,9.0.5-9.0.5~ubuntu24.04.1*%
%TF.CreationDate,2025-11-11T07:58:39+02:00*%
%TF.ProjectId,picr_1_9tdi,70696372-5f31-45f3-9974-64692e6b6963,1*%
%TF.SameCoordinates,Original*%
%TF.FileFunction,Copper,L4,Bot*%
%TF.FilePolarity,Positive*%
%FSLAX46Y46*%
G04 Gerber Fmt 4.6, Leading zero omitted, Abs format (unit mm)*
G04 Created by KiCad (PCBNEW 9.0.5-9.0.5~ubuntu24.04.1) date 2025-11-11 07:58:39*
%MOMM*%
%LPD*%
G01*
G04 APERTURE LIST*
G04 Aperture macros list*
%AMRoundRect*
0 Rectangle with rounded corners*
0 $1 Rounding radius*
0 $2 $3 $4 $5 $6 $7 $8 $9 X,Y pos of 4 corners*
0 Add a 4 corners polygon primitive as box body*
4,1,4,$2,$3,$4,$5,$6,$7,$8,$9,$2,$3,0*
0 Add four circle primitives for the rounded corners*
1,1,$1+$1,$2,$3*
1,1,$1+$1,$4,$5*
1,1,$1+$1,$6,$7*
1,1,$1+$1,$8,$9*
0 Add four rect primitives between the rounded corners*
20,1,$1+$1,$2,$3,$4,$5,0*
20,1,$1+$1,$4,$5,$6,$7,0*
20,1,$1+$1,$6,$7,$8,$9,0*
20,1,$1+$1,$8,$9,$2,$3,0*%
G04 Aperture macros list end*
%TA.AperFunction,ComponentPad*%
%ADD10R,1.300000X1.300000*%
%TD*%
%TA.AperFunction,ComponentPad*%
%ADD11C,1.300000*%
%TD*%
%TA.AperFunction,ComponentPad*%
%ADD12R,1.700000X1.700000*%
%TD*%
%TA.AperFunction,ComponentPad*%
%ADD13O,1.700000X1.700000*%
%TD*%
%TA.AperFunction,HeatsinkPad*%
%ADD14O,1.600000X0.900000*%
%TD*%
%TA.AperFunction,SMDPad,CuDef*%
%ADD15RoundRect,0.250000X-0.475000X0.337500X-0.475000X-0.337500X0.475000X-0.337500X0.475000X0.337500X0*%
%TD*%
%TA.AperFunction,SMDPad,CuDef*%
%ADD16RoundRect,0.237500X-0.237500X0.300000X-0.237500X-0.300000X0.237500X-0.300000X0.237500X0.300000X0*%
%TD*%
%TA.AperFunction,SMDPad,CuDef*%
%ADD17RoundRect,0.237500X0.237500X-0.250000X0.237500X0.250000X-0.237500X0.250000X-0.237500X-0.250000X0*%
%TD*%
%TA.AperFunction,SMDPad,CuDef*%
%ADD18RoundRect,0.237500X-0.250000X-0.237500X0.250000X-0.237500X0.250000X0.237500X-0.250000X0.237500X0*%
%TD*%
%TA.AperFunction,ViaPad*%
%ADD19C,0.600000*%
%TD*%
%TA.AperFunction,ViaPad*%
%ADD20C,0.400000*%
%TD*%
%TA.AperFunction,ViaPad*%
%ADD21C,0.800000*%
%TD*%
%TA.AperFunction,Conductor*%
%ADD22C,0.200000*%
%TD*%
%TA.AperFunction,Conductor*%
%ADD23C,0.300000*%
%TD*%
%TA.AperFunction,Conductor*%
%ADD24C,0.500000*%
%TD*%
G04 APERTURE END LIST*
D10*
%TO.P,U11,1,1*%
%TO.N,GND_MCU*%
X115375000Y-69300000D03*
D11*
%TO.P,U11,2,2*%
%TO.N,+3.3V*%
X114105000Y-71840000D03*
%TO.P,U11,3,3*%
%TO.N,/E_M3_A*%
X112835000Y-69300000D03*
%TO.P,U11,4,4*%
%TO.N,/E_M3_B*%
X111565000Y-71840000D03*
%TD*%
D10*
%TO.P,U9,1,1*%
%TO.N,GND_MCU*%
X102455000Y-69180000D03*
D11*
%TO.P,U9,2,2*%
%TO.N,+3.3V*%
X101185000Y-71720000D03*
%TO.P,U9,3,3*%
%TO.N,/E_M1_A*%
X99915000Y-69180000D03*
%TO.P,U9,4,4*%
%TO.N,/E_M1_B*%
X98645000Y-71720000D03*
%TD*%
D10*
%TO.P,U15,1,1*%
%TO.N,GND_MOT*%
X69800000Y-95810000D03*
D11*
%TO.P,U15,2,2*%
%TO.N,/PWM_TH_O*%
X72340000Y-97080000D03*
%TO.P,U15,3,3*%
%TO.N,unconnected-(U15-Pad3)*%
X69800000Y-98350000D03*
%TO.P,U15,4,4*%
%TO.N,unconnected-(U15-Pad4)*%
X72340000Y-99620000D03*
%TD*%
D12*
%TO.P,J4,1,Pin_1*%
%TO.N,/PWM_GRB_O*%
X115600000Y-102300000D03*
D13*
%TO.P,J4,2,Pin_2*%
%TO.N,/5V_MOT*%
X113060000Y-102300000D03*
%TO.P,J4,3,Pin_3*%
%TO.N,GND_MOT*%
X110520000Y-102300000D03*
%TD*%
D14*
%TO.P,J1,6,Shield*%
%TO.N,GND_MCU*%
X69500000Y-77700000D03*
X69500000Y-84300000D03*
%TD*%
D12*
%TO.P,J3,1,Pin_1*%
%TO.N,/GLo*%
X115600000Y-84540000D03*
D13*
%TO.P,J3,2,Pin_2*%
%TO.N,GND_MCU*%
X115600000Y-82000000D03*
%TO.P,J3,3,Pin_3*%
%TO.N,/IR_RX*%
X115600000Y-79460000D03*
%TO.P,J3,4,Pin_4*%
%TO.N,+3.3V*%
X115600000Y-76920000D03*
%TD*%
D12*
%TO.P,J6,1,Pin_1*%
%TO.N,/PWM_ANG_O*%
X115580000Y-98700000D03*
D13*
%TO.P,J6,2,Pin_2*%
%TO.N,/5V_MOT*%
X113040000Y-98700000D03*
%TO.P,J6,3,Pin_3*%
%TO.N,GND_MOT*%
X110500000Y-98700000D03*
%TD*%
D10*
%TO.P,U10,1,1*%
%TO.N,GND_MCU*%
X87845000Y-69035000D03*
D11*
%TO.P,U10,2,2*%
%TO.N,+3.3V*%
X86575000Y-71575000D03*
%TO.P,U10,3,3*%
%TO.N,/E_M2_A*%
X85305000Y-69035000D03*
%TO.P,U10,4,4*%
%TO.N,/E_M2_B*%
X84035000Y-71575000D03*
%TD*%
D12*
%TO.P,J5,1,Pin_1*%
%TO.N,/GLo*%
X111200000Y-81850000D03*
D13*
%TO.P,J5,2,Pin_2*%
%TO.N,/IR_TX*%
X111200000Y-79310000D03*
%TD*%
D15*
%TO.P,C2,1*%
%TO.N,/VBAT*%
X89800000Y-112662500D03*
%TO.P,C2,2*%
%TO.N,GND_MOT*%
X89800000Y-114737500D03*
%TD*%
%TO.P,C15,1*%
%TO.N,/VBAT*%
X103100000Y-112762500D03*
%TO.P,C15,2*%
%TO.N,GND_MOT*%
X103100000Y-114837500D03*
%TD*%
%TO.P,C4,1*%
%TO.N,/VBAT*%
X78100000Y-112937500D03*
%TO.P,C4,2*%
%TO.N,GND_MOT*%
X78100000Y-115012500D03*
%TD*%
%TO.P,C29,1*%
%TO.N,/VBAT*%
X116500000Y-112862500D03*
%TO.P,C29,2*%
%TO.N,GND_MOT*%
X116500000Y-114937500D03*
%TD*%
%TO.P,C23,1*%
%TO.N,/VBAT*%
X105100000Y-112762500D03*
%TO.P,C23,2*%
%TO.N,GND_MOT*%
X105100000Y-114837500D03*
%TD*%
D16*
%TO.P,C20,1*%
%TO.N,/VBAT*%
X101300000Y-113162500D03*
%TO.P,C20,2*%
%TO.N,GND_MOT*%
X101300000Y-114887500D03*
%TD*%
D15*
%TO.P,C17,1*%
%TO.N,/VBAT*%
X99500000Y-112725000D03*
%TO.P,C17,2*%
%TO.N,GND_MOT*%
X99500000Y-114800000D03*
%TD*%
D16*
%TO.P,C30,1*%
%TO.N,/VBAT*%
X114737500Y-113275000D03*
%TO.P,C30,2*%
%TO.N,GND_MOT*%
X114737500Y-115000000D03*
%TD*%
D15*
%TO.P,C13,1*%
%TO.N,/VBAT*%
X95500000Y-112662500D03*
%TO.P,C13,2*%
%TO.N,GND_MOT*%
X95500000Y-114737500D03*
%TD*%
D16*
%TO.P,C9,1*%
%TO.N,/VBAT*%
X88000000Y-113062500D03*
%TO.P,C9,2*%
%TO.N,GND_MOT*%
X88000000Y-114787500D03*
%TD*%
D15*
%TO.P,C14,1*%
%TO.N,/VBAT*%
X91900000Y-112662500D03*
%TO.P,C14,2*%
%TO.N,GND_MOT*%
X91900000Y-114737500D03*
%TD*%
D16*
%TO.P,C31,1*%
%TO.N,/VBAT*%
X106900000Y-113137500D03*
%TO.P,C31,2*%
%TO.N,GND_MOT*%
X106900000Y-114862500D03*
%TD*%
D15*
%TO.P,C1,1*%
%TO.N,/VBAT*%
X86200000Y-112662500D03*
%TO.P,C1,2*%
%TO.N,GND_MOT*%
X86200000Y-114737500D03*
%TD*%
D16*
%TO.P,C19,1*%
%TO.N,/VBAT*%
X93700000Y-113062500D03*
%TO.P,C19,2*%
%TO.N,GND_MOT*%
X93700000Y-114787500D03*
%TD*%
D15*
%TO.P,C3,1*%
%TO.N,/VBAT*%
X81700000Y-112937500D03*
%TO.P,C3,2*%
%TO.N,GND_MOT*%
X81700000Y-115012500D03*
%TD*%
D16*
%TO.P,C7,1*%
%TO.N,/VBAT*%
X79900000Y-113037500D03*
%TO.P,C7,2*%
%TO.N,GND_MOT*%
X79900000Y-114762500D03*
%TD*%
D15*
%TO.P,C28,1*%
%TO.N,/VBAT*%
X113000000Y-112862500D03*
%TO.P,C28,2*%
%TO.N,GND_MOT*%
X113000000Y-114937500D03*
%TD*%
%TO.P,C26,1*%
%TO.N,/VBAT*%
X108700000Y-112737500D03*
%TO.P,C26,2*%
%TO.N,GND_MOT*%
X108700000Y-114812500D03*
%TD*%
D17*
%TO.P,R2,1*%
%TO.N,Net-(U1-SR)*%
X80550000Y-107250000D03*
%TO.P,R2,2*%
%TO.N,GND_MOT*%
X80550000Y-105425000D03*
%TD*%
D18*
%TO.P,R3,1*%
%TO.N,Net-(U1-DRVOFF)*%
X86100000Y-109900000D03*
%TO.P,R3,2*%
%TO.N,GND_MOT*%
X87925000Y-109900000D03*
%TD*%
D19*
%TO.N,GND_MOT*%
X79200000Y-94800000D03*
D20*
X110700000Y-109600000D03*
D19*
X97200000Y-115600000D03*
X105600000Y-98800000D03*
X82410000Y-102680000D03*
D20*
X110200000Y-110100000D03*
D19*
X94400000Y-116300000D03*
X71100000Y-115650000D03*
X100000000Y-116300000D03*
D20*
X111200000Y-110100000D03*
D19*
X96500000Y-114900000D03*
X75050000Y-115650000D03*
X109900000Y-116300000D03*
X103080000Y-107640000D03*
X85650000Y-103710000D03*
X87600000Y-103000000D03*
X83090000Y-102700000D03*
X82200000Y-94100000D03*
X81040000Y-102650000D03*
D20*
X96600000Y-109100000D03*
D19*
X69300000Y-114400000D03*
X82350000Y-105100000D03*
X107800000Y-116300000D03*
X74525000Y-107575000D03*
X109050000Y-105550000D03*
X70200000Y-115650000D03*
X101425000Y-93171000D03*
X96800000Y-100900000D03*
D20*
X97600000Y-110100000D03*
D19*
X69300000Y-115650000D03*
X84400000Y-116300000D03*
D20*
X97100000Y-109100000D03*
D19*
X80360000Y-101890000D03*
D20*
X83200000Y-110000000D03*
D19*
X68400000Y-95800000D03*
D20*
X83700000Y-110000000D03*
D19*
X111300000Y-115600000D03*
X79200000Y-103400000D03*
X73730735Y-105479265D03*
X79870000Y-108490000D03*
D20*
X97600000Y-109600000D03*
D19*
X98225000Y-96325000D03*
X83100000Y-101930000D03*
X82000000Y-106200000D03*
X89490000Y-107600000D03*
X97900000Y-115600000D03*
D20*
X110700000Y-110100000D03*
D19*
X97900000Y-114900000D03*
X109900000Y-115600000D03*
X91090000Y-106450000D03*
X89560000Y-100660000D03*
X83700000Y-116300000D03*
X92080000Y-103500000D03*
X74660000Y-96390000D03*
X111300000Y-116300000D03*
D20*
X83700000Y-110500000D03*
D19*
X80350000Y-102640000D03*
X97130000Y-107220000D03*
X83000000Y-114900000D03*
X110600000Y-114900000D03*
X99510000Y-102680000D03*
X75050000Y-99150000D03*
X88680000Y-92240000D03*
X75100000Y-114550000D03*
X98600000Y-98700000D03*
X70200000Y-114400000D03*
X108600000Y-98750000D03*
X80900000Y-116300000D03*
D20*
X83200000Y-110500000D03*
D19*
X95800000Y-116300000D03*
X109200000Y-116300000D03*
X81720000Y-102670000D03*
D20*
X110200000Y-109100000D03*
D19*
X96500000Y-116300000D03*
D20*
X110200000Y-109600000D03*
X97600000Y-109100000D03*
D19*
X81700000Y-104800000D03*
X97200000Y-114900000D03*
D20*
X111200000Y-109600000D03*
D19*
X98600000Y-116300000D03*
X83000000Y-115600000D03*
X102330000Y-102720000D03*
X87450000Y-92230000D03*
X99300000Y-116300000D03*
X115500000Y-100400000D03*
X85100000Y-116300000D03*
X86600000Y-108000000D03*
X110600000Y-116300000D03*
X83790000Y-102690000D03*
X84400000Y-107500000D03*
X109900000Y-114900000D03*
X109012500Y-95887500D03*
X85875000Y-108000000D03*
X81700000Y-105450000D03*
X85800000Y-116300000D03*
X93000000Y-97700000D03*
X110600000Y-115600000D03*
X71100000Y-114400000D03*
X83700000Y-115600000D03*
X72000000Y-115650000D03*
D20*
X96600000Y-109600000D03*
X110700000Y-109100000D03*
D19*
X97900000Y-116300000D03*
X108500000Y-116300000D03*
D20*
X96600000Y-110100000D03*
X97100000Y-109600000D03*
D19*
X90600000Y-97300000D03*
X97200000Y-116300000D03*
X81050000Y-101910000D03*
X102730000Y-98990000D03*
X84880000Y-103720000D03*
X81600000Y-116300000D03*
X96500000Y-115600000D03*
X104500000Y-106180000D03*
X70060000Y-101150000D03*
D20*
X97100000Y-110100000D03*
D19*
X115500000Y-104500000D03*
X82650000Y-106550000D03*
X112620000Y-105600000D03*
X86440000Y-103700000D03*
X98200000Y-93600000D03*
X116350000Y-96750000D03*
D20*
X84200000Y-109500000D03*
D19*
X82300000Y-116300000D03*
D20*
X111200000Y-109100000D03*
D19*
X115100000Y-96750000D03*
X113950000Y-96750000D03*
X113400000Y-116300000D03*
X94050000Y-102950000D03*
X82410000Y-101930000D03*
X82000000Y-106850000D03*
X86500000Y-116300000D03*
X79800000Y-103700000D03*
X84400000Y-114900000D03*
X92700000Y-106220000D03*
X72000000Y-114400000D03*
D20*
X83700000Y-109500000D03*
X84200000Y-110500000D03*
D19*
X93600000Y-100400000D03*
X75890000Y-107780000D03*
D20*
X83200000Y-109500000D03*
D19*
X83770000Y-101950000D03*
X100730000Y-106060000D03*
X87230000Y-103670000D03*
X79200000Y-104000000D03*
X108700000Y-102350000D03*
X111300000Y-114900000D03*
X95100000Y-116300000D03*
X83000000Y-116300000D03*
X74660000Y-93540000D03*
X87600000Y-102100000D03*
X81730000Y-101920000D03*
D20*
X84200000Y-110000000D03*
D19*
X92500000Y-96500000D03*
X112000000Y-116300000D03*
X83700000Y-114900000D03*
X85325000Y-92200000D03*
X112700000Y-116300000D03*
X84400000Y-115600000D03*
%TO.N,/VBAT*%
X92700000Y-111600000D03*
X77625000Y-109425000D03*
X87075000Y-111550000D03*
X115300000Y-111600000D03*
X75600000Y-110800000D03*
X100600000Y-111600000D03*
X80400000Y-111800000D03*
X105000000Y-111600000D03*
X76600000Y-109400000D03*
X101750000Y-111575000D03*
X107300000Y-111600000D03*
X78100000Y-111800000D03*
X76600000Y-110800000D03*
X93800000Y-111600000D03*
X75600000Y-112300000D03*
X102825000Y-111575000D03*
X91500000Y-111600000D03*
X116400000Y-111600000D03*
X88275000Y-111550000D03*
X89450000Y-111550000D03*
X75600000Y-109400000D03*
X114100000Y-111600000D03*
X106200000Y-111600000D03*
X77625000Y-110475000D03*
X79300000Y-111800000D03*
X76600000Y-112300000D03*
%TO.N,GND_MCU*%
X85000000Y-87100000D03*
X73070000Y-70790000D03*
X98480240Y-85119760D03*
X100850000Y-84950000D03*
X73300000Y-82300000D03*
X74660000Y-85200000D03*
X103840000Y-80490000D03*
X73475000Y-77700000D03*
X113350000Y-78100000D03*
X109770000Y-75170000D03*
X88330000Y-82740000D03*
X79850000Y-70600000D03*
X82540000Y-78170000D03*
X75640000Y-82630000D03*
X108810000Y-79950000D03*
X87300000Y-74000000D03*
X109550000Y-71200000D03*
X73200000Y-84200000D03*
X91800000Y-77200000D03*
X78400000Y-76750000D03*
X108810000Y-82100000D03*
X95275000Y-69300000D03*
X113850000Y-74400000D03*
X102020000Y-86210000D03*
X89674265Y-74825735D03*
X70950000Y-79900000D03*
X76150000Y-75570000D03*
X96918425Y-85502377D03*
X117350000Y-85400000D03*
X96500000Y-77850000D03*
X98900000Y-74750000D03*
X71000000Y-82300000D03*
X117350000Y-80150000D03*
X70775000Y-77700000D03*
X70725000Y-84275000D03*
X87800000Y-72500000D03*
X81875000Y-84700000D03*
X99750000Y-78800000D03*
X98940000Y-70430000D03*
X109700000Y-84350000D03*
X91900000Y-78700000D03*
X105975000Y-82675000D03*
X113400000Y-81350000D03*
X86500000Y-85425000D03*
X116981568Y-69294576D03*
X91300000Y-87200000D03*
X82370000Y-81670000D03*
X78300000Y-69100000D03*
X100250000Y-87800000D03*
X117350000Y-82000000D03*
X110700000Y-68250000D03*
X94600000Y-73900000D03*
X93000000Y-81400000D03*
X102230000Y-78990000D03*
X69280000Y-70700000D03*
X89550000Y-69000000D03*
X71810000Y-70710000D03*
X82890000Y-75760000D03*
X95000000Y-72250000D03*
X102070000Y-82600000D03*
X117000000Y-74400000D03*
X104150000Y-69150000D03*
X105400000Y-76200000D03*
D21*
%TO.N,/5V_MOT*%
X85100000Y-97000000D03*
D19*
X75550000Y-105400000D03*
X75700000Y-97540000D03*
D21*
X85000000Y-99150000D03*
D19*
%TO.N,+3.3V*%
X84375000Y-77400000D03*
X99700000Y-86425000D03*
X84700000Y-84380000D03*
X112850000Y-85470000D03*
%TO.N,/NRST*%
X69000000Y-74510000D03*
X96362528Y-80388943D03*
%TO.N,/IR_RX*%
X102200000Y-81225000D03*
%TO.N,/PWM_GRB_O*%
X93360000Y-94120000D03*
%TO.N,/PWM_ANG_O*%
X94630000Y-94250000D03*
%TO.N,Net-(U1-SR)*%
X82300000Y-107600000D03*
%TO.N,Net-(U1-DRVOFF)*%
X79677200Y-110384579D03*
%TO.N,Net-(U7-PB8)*%
X96125000Y-85400000D03*
X90310000Y-85425000D03*
%TO.N,/PWM_M1_O*%
X77987851Y-94014579D03*
X79885421Y-109612149D03*
%TO.N,/M1_DIR_O*%
X108300000Y-95200000D03*
X80500000Y-109100000D03*
X101000000Y-98900000D03*
X91700000Y-105200000D03*
%TO.N,/M_NSLEEP_O*%
X104300000Y-102700000D03*
X90796979Y-110335723D03*
X104540000Y-96800000D03*
X104500000Y-98800000D03*
X105300000Y-110208038D03*
X115000000Y-110150000D03*
X101200000Y-110250000D03*
%TO.N,/PWM_M2_O*%
X93800000Y-109999685D03*
X79900707Y-93500706D03*
%TO.N,/M2_DIR_O*%
X99634313Y-98934313D03*
X95240000Y-103328626D03*
X93931587Y-109210579D03*
X106700000Y-94600000D03*
%TO.N,/M3_DIR_O*%
X107100000Y-101900000D03*
X107400000Y-108900000D03*
X106250000Y-96650000D03*
X106500000Y-99700000D03*
%TO.N,/PWM_M3_O*%
X107300000Y-109999685D03*
X78609659Y-93511232D03*
%TO.N,/E_M3_A*%
X94475000Y-82700000D03*
%TO.N,/PWM_M3_I*%
X78470000Y-85210000D03*
X79900000Y-79600000D03*
%TO.N,/SWCLK*%
X73400000Y-74580000D03*
X91175000Y-82800000D03*
%TO.N,/E_M1_A*%
X97060000Y-79625000D03*
%TO.N,/MCU_LED*%
X103050000Y-82825000D03*
X92225000Y-82990000D03*
%TO.N,/E_M2_A*%
X95300000Y-74650000D03*
%TO.N,/E_M3_B*%
X95411765Y-82561765D03*
%TO.N,/PWM_M2_I*%
X82048846Y-78801484D03*
X79720000Y-85180000D03*
%TO.N,/M3_DIR_I*%
X106000000Y-86250000D03*
X107680000Y-85350000D03*
%TO.N,/SWDIO*%
X75150000Y-72960000D03*
X91435636Y-82043645D03*
%TO.N,/M1_DIR_I*%
X108800000Y-84100000D03*
X106113235Y-81411765D03*
%TO.N,/PWM_M1_I*%
X80908883Y-85263162D03*
X83625000Y-78010000D03*
%TO.N,/E_M2_B*%
X96900000Y-74650000D03*
%TO.N,/M_NSLEEP_I*%
X100050000Y-82450000D03*
X96300000Y-82562765D03*
%TO.N,/E_M1_B*%
X96960000Y-78800000D03*
%TO.N,/PWM_TH_O*%
X77250000Y-93414579D03*
%TD*%
D22*
%TO.N,GND_MOT*%
X87925000Y-109325000D02*
X87925000Y-109900000D01*
X86600000Y-108000000D02*
X87925000Y-109325000D01*
%TO.N,GND_MCU*%
X69500000Y-84300000D02*
X70100000Y-84300000D01*
D23*
%TO.N,/5V_MOT*%
X78920654Y-105500000D02*
X80430654Y-103990000D01*
X77640000Y-95600000D02*
X83100000Y-95600000D01*
X84500000Y-97000000D02*
X85100000Y-97000000D01*
X75650000Y-105500000D02*
X78920654Y-105500000D01*
X80430654Y-103990000D02*
X83689346Y-103990000D01*
X83100000Y-95600000D02*
X84500000Y-97000000D01*
X85000000Y-102679346D02*
X85000000Y-99150000D01*
X83689346Y-103990000D02*
X85000000Y-102679346D01*
X75550000Y-105400000D02*
X75650000Y-105500000D01*
X75700000Y-97540000D02*
X77640000Y-95600000D01*
X85000000Y-99150000D02*
X85100000Y-99250000D01*
D24*
%TO.N,+3.3V*%
X84375000Y-77400000D02*
X84375000Y-80725000D01*
X99700000Y-86425000D02*
X99675000Y-86450000D01*
X101525000Y-87025000D02*
X111295000Y-87025000D01*
X84630000Y-84310000D02*
X84700000Y-84380000D01*
X84350000Y-82965000D02*
X84350000Y-80750000D01*
X100925000Y-86425000D02*
X101525000Y-87025000D01*
X111295000Y-87025000D02*
X112850000Y-85470000D01*
X99700000Y-86425000D02*
X100925000Y-86425000D01*
X88030000Y-84380000D02*
X84700000Y-84380000D01*
X90100000Y-86450000D02*
X88030000Y-84380000D01*
X99675000Y-86450000D02*
X90100000Y-86450000D01*
X84350000Y-82965000D02*
X84350000Y-84030000D01*
X84350000Y-84030000D02*
X84700000Y-84380000D01*
D22*
%TO.N,/NRST*%
X71180000Y-72330000D02*
X69000000Y-74510000D01*
X90763235Y-80313235D02*
X82780000Y-72330000D01*
X96286820Y-80313235D02*
X90763235Y-80313235D01*
X82780000Y-72330000D02*
X71180000Y-72330000D01*
X96362528Y-80388943D02*
X96286820Y-80313235D01*
%TO.N,/IR_RX*%
X114409265Y-80650735D02*
X115600000Y-79460000D01*
X104974265Y-80650735D02*
X114409265Y-80650735D01*
X104400000Y-81225000D02*
X104974265Y-80650735D01*
X102200000Y-81225000D02*
X104400000Y-81225000D01*
%TO.N,/PWM_GRB_O*%
X93360000Y-94120000D02*
X93360000Y-96260000D01*
X114400000Y-101100000D02*
X115600000Y-102300000D01*
X93360000Y-96260000D02*
X98200000Y-101100000D01*
X98200000Y-101100000D02*
X114400000Y-101100000D01*
%TO.N,/PWM_ANG_O*%
X94630000Y-94250000D02*
X94100000Y-94780000D01*
X98575000Y-100575000D02*
X114075000Y-100575000D01*
X94100000Y-94780000D02*
X94100000Y-96100000D01*
X114075000Y-100575000D02*
X115600000Y-99050000D01*
X115600000Y-99050000D02*
X115600000Y-98600000D01*
X94100000Y-96100000D02*
X98575000Y-100575000D01*
%TO.N,Net-(U1-SR)*%
X82300000Y-107600000D02*
X80900000Y-107600000D01*
X80900000Y-107600000D02*
X80550000Y-107250000D01*
X82300000Y-107600000D02*
X82200000Y-107500000D01*
%TO.N,Net-(U1-DRVOFF)*%
X80265421Y-110384579D02*
X79677200Y-110384579D01*
X85075000Y-108875000D02*
X81775000Y-108875000D01*
X79677200Y-110384579D02*
X79761779Y-110300000D01*
X81775000Y-108875000D02*
X80265421Y-110384579D01*
X86100000Y-109900000D02*
X85075000Y-108875000D01*
X79692621Y-110400000D02*
X79677200Y-110384579D01*
%TO.N,Net-(U7-PB8)*%
X90310000Y-85425000D02*
X96100000Y-85425000D01*
X96100000Y-85425000D02*
X96125000Y-85400000D01*
%TO.N,/PWM_M1_O*%
X75585421Y-94014579D02*
X77987851Y-94014579D01*
X75175000Y-106075000D02*
X73700000Y-104600000D01*
X79885421Y-109612149D02*
X76348272Y-106075000D01*
X73700000Y-104600000D02*
X73700000Y-95900000D01*
X76348272Y-106075000D02*
X75175000Y-106075000D01*
X73700000Y-95900000D02*
X75585421Y-94014579D01*
%TO.N,/M1_DIR_O*%
X101000000Y-98890057D02*
X104690057Y-95200000D01*
X84550000Y-108200000D02*
X81400000Y-108200000D01*
X87550000Y-105200000D02*
X84550000Y-108200000D01*
X91700000Y-105200000D02*
X87550000Y-105200000D01*
X101000000Y-98900000D02*
X101000000Y-98890057D01*
X81400000Y-108200000D02*
X80500000Y-109100000D01*
X104690057Y-95200000D02*
X108300000Y-95200000D01*
%TO.N,/M_NSLEEP_O*%
X104540000Y-98760000D02*
X104500000Y-98800000D01*
X101200000Y-110250000D02*
X100813500Y-110636500D01*
X105258038Y-110250000D02*
X105300000Y-110208038D01*
X105300000Y-103700000D02*
X104300000Y-102700000D01*
X105692647Y-110600685D02*
X114549315Y-110600685D01*
X100813500Y-110636500D02*
X90970502Y-110636500D01*
X101200000Y-110250000D02*
X105258038Y-110250000D01*
X105300000Y-110208038D02*
X105692647Y-110600685D01*
X90970502Y-110636500D02*
X90934002Y-110600000D01*
X114549315Y-110600685D02*
X115000000Y-110150000D01*
X90934002Y-110472746D02*
X90796979Y-110335723D01*
X105300000Y-110208038D02*
X105300000Y-103700000D01*
X90934002Y-110600000D02*
X90934002Y-110472746D01*
X104540000Y-96800000D02*
X104540000Y-98760000D01*
%TO.N,/PWM_M2_O*%
X93300000Y-102400000D02*
X93300000Y-109499685D01*
X79900707Y-93500706D02*
X79901413Y-93500000D01*
X84400000Y-93500000D02*
X93300000Y-102400000D01*
X79901413Y-93500000D02*
X84400000Y-93500000D01*
X93300000Y-109499685D02*
X93800000Y-109999685D01*
%TO.N,/M2_DIR_O*%
X93931587Y-104637039D02*
X93931587Y-109210579D01*
X104400000Y-94600000D02*
X100065687Y-98934313D01*
X95240000Y-103328626D02*
X93931587Y-104637039D01*
X100065687Y-98934313D02*
X99634313Y-98934313D01*
X106700000Y-94600000D02*
X104400000Y-94600000D01*
%TO.N,/M3_DIR_O*%
X106500000Y-96900000D02*
X106500000Y-99700000D01*
X107400000Y-108900000D02*
X107400000Y-102200000D01*
X107400000Y-102200000D02*
X107100000Y-101900000D01*
X106250000Y-96650000D02*
X106500000Y-96900000D01*
%TO.N,/PWM_M3_O*%
X106100000Y-108799685D02*
X107300000Y-109999685D01*
X78609659Y-93511232D02*
X78711232Y-93511232D01*
X78609659Y-93511232D02*
X79470891Y-92650000D01*
X93550000Y-101650000D02*
X104350000Y-101650000D01*
X106100000Y-103400000D02*
X106100000Y-108799685D01*
X84550000Y-92650000D02*
X93550000Y-101650000D01*
X79470891Y-92650000D02*
X84550000Y-92650000D01*
X104350000Y-101650000D02*
X106100000Y-103400000D01*
%TO.N,/E_M3_A*%
X98100000Y-81450000D02*
X110250000Y-69300000D01*
X110250000Y-69300000D02*
X112835000Y-69300000D01*
X94475000Y-82700000D02*
X94475000Y-82525000D01*
X94475000Y-82525000D02*
X95550000Y-81450000D01*
X95550000Y-81450000D02*
X98100000Y-81450000D01*
%TO.N,/PWM_M3_I*%
X79840000Y-79660000D02*
X79380000Y-79660000D01*
X78950000Y-84730000D02*
X78470000Y-85210000D01*
X79900000Y-79600000D02*
X79840000Y-79660000D01*
X79380000Y-79660000D02*
X78950000Y-80090000D01*
X78950000Y-80090000D02*
X78950000Y-84730000D01*
%TO.N,/SWCLK*%
X91100056Y-82800000D02*
X91175000Y-82800000D01*
X90834636Y-82234636D02*
X90834636Y-82292588D01*
X91175000Y-82632952D02*
X91175000Y-82800000D01*
X73400000Y-74580000D02*
X83180000Y-74580000D01*
X90834636Y-82292588D02*
X91175000Y-82632952D01*
X83180000Y-74580000D02*
X90834636Y-82234636D01*
%TO.N,/E_M1_A*%
X99915000Y-69180000D02*
X99915000Y-76770000D01*
X99915000Y-76770000D02*
X97060000Y-79625000D01*
%TO.N,/MCU_LED*%
X92225000Y-82990000D02*
X92390000Y-82990000D01*
X92225000Y-82990000D02*
X92535000Y-83300000D01*
X102575000Y-83300000D02*
X103050000Y-82825000D01*
X92535000Y-83300000D02*
X102575000Y-83300000D01*
%TO.N,/E_M2_A*%
X85285000Y-69150000D02*
X85850000Y-69150000D01*
X85305000Y-69035000D02*
X85887951Y-69035000D01*
X91350000Y-74650000D02*
X95300000Y-74650000D01*
X85850000Y-69150000D02*
X91350000Y-74650000D01*
%TO.N,/E_M3_B*%
X95438235Y-82561765D02*
X96100000Y-81900000D01*
X96100000Y-81900000D02*
X98600000Y-81900000D01*
X98600000Y-81900000D02*
X101629000Y-78871000D01*
X95411765Y-82488235D02*
X95411765Y-82561765D01*
X95411765Y-82561765D02*
X95438235Y-82561765D01*
X108660000Y-71840000D02*
X111565000Y-71840000D01*
X101629000Y-78871000D02*
X101629000Y-78741057D01*
X101981057Y-78389000D02*
X102111000Y-78389000D01*
X101629000Y-78741057D02*
X101981057Y-78389000D01*
X102111000Y-78389000D02*
X108660000Y-71840000D01*
%TO.N,/PWM_M2_I*%
X82048846Y-78801484D02*
X81698516Y-78801484D01*
X80050000Y-84850000D02*
X79720000Y-85180000D01*
X80050000Y-80450000D02*
X80050000Y-84850000D01*
X81698516Y-78801484D02*
X80050000Y-80450000D01*
%TO.N,/M3_DIR_I*%
X106000000Y-86250000D02*
X106000000Y-86050000D01*
X106700000Y-85350000D02*
X107680000Y-85350000D01*
X106000000Y-86050000D02*
X106700000Y-85350000D01*
%TO.N,/SWDIO*%
X82320000Y-72960000D02*
X82351991Y-72960000D01*
X91435636Y-82043645D02*
X91393645Y-82043645D01*
X82320000Y-72960000D02*
X75150000Y-72960000D01*
X82351991Y-72960000D02*
X91435636Y-82043645D01*
%TO.N,/M1_DIR_I*%
X108475000Y-83775000D02*
X108475000Y-83773530D01*
X108475000Y-83773530D02*
X106113235Y-81411765D01*
X108800000Y-84100000D02*
X108475000Y-83775000D01*
%TO.N,/PWM_M1_I*%
X83500000Y-78135000D02*
X83625000Y-78010000D01*
X80908883Y-85128883D02*
X80750000Y-84970000D01*
X83500000Y-78330000D02*
X83500000Y-78135000D01*
X80750000Y-84970000D02*
X80750000Y-81080000D01*
X80908883Y-85263162D02*
X80908883Y-85128883D01*
X80750000Y-81080000D02*
X83500000Y-78330000D01*
%TO.N,/E_M2_B*%
X88624943Y-76549943D02*
X84035000Y-71960000D01*
X95650000Y-76549943D02*
X88624943Y-76549943D01*
X84035000Y-71960000D02*
X84035000Y-71575000D01*
X96900000Y-75299943D02*
X95650000Y-76549943D01*
X96900000Y-74650000D02*
X96900000Y-75299943D01*
X96900000Y-74650000D02*
X96850000Y-74700000D01*
%TO.N,/M_NSLEEP_I*%
X100050000Y-82450000D02*
X100000000Y-82500000D01*
X96362765Y-82500000D02*
X96300000Y-82562765D01*
X100000000Y-82500000D02*
X96362765Y-82500000D01*
%TO.N,/E_M1_B*%
X97800000Y-77960000D02*
X96960000Y-78800000D01*
X97800000Y-72565000D02*
X97800000Y-77960000D01*
X98645000Y-71720000D02*
X97800000Y-72565000D01*
%TO.N,/PWM_TH_O*%
X76774421Y-92939000D02*
X74411057Y-92939000D01*
X74411057Y-92939000D02*
X72970000Y-94380057D01*
X72970000Y-94380057D02*
X72970000Y-96450000D01*
X72970000Y-96450000D02*
X72340000Y-97080000D01*
X77250000Y-93414579D02*
X76774421Y-92939000D01*
%TO.N,/GLo*%
X113940000Y-84540000D02*
X115600000Y-84540000D01*
X111250000Y-81850000D02*
X113940000Y-84540000D01*
X111200000Y-81850000D02*
X111250000Y-81850000D01*
%TD*%
%TA.AperFunction,Conductor*%
%TO.N,GND_MCU*%
G36*
X117642539Y-67520185D02*
G01*
X117688294Y-67572989D01*
X117699500Y-67624500D01*
X117699500Y-70310216D01*
X117679815Y-70377255D01*
X117627011Y-70423010D01*
X117557853Y-70432954D01*
X117494297Y-70403929D01*
X117487819Y-70397897D01*
X117412785Y-70322863D01*
X117412781Y-70322860D01*
X117248920Y-70213371D01*
X117248907Y-70213364D01*
X117066839Y-70137950D01*
X117066829Y-70137947D01*
X116873543Y-70099500D01*
X116873541Y-70099500D01*
X116676459Y-70099500D01*
X116676457Y-70099500D01*
X116483170Y-70137947D01*
X116483160Y-70137950D01*
X116301092Y-70213364D01*
X116301079Y-70213371D01*
X116137218Y-70322860D01*
X116137214Y-70322863D01*
X115997863Y-70462214D01*
X115997860Y-70462218D01*
X115888371Y-70626079D01*
X115888364Y-70626092D01*
X115812950Y-70808160D01*
X115812947Y-70808170D01*
X115774500Y-71001456D01*
X115774500Y-71001459D01*
X115774500Y-71198541D01*
X115774500Y-71198543D01*
X115774499Y-71198543D01*
X115812947Y-71391829D01*
X115812950Y-71391839D01*
X115888364Y-71573907D01*
X115888371Y-71573920D01*
X115997860Y-71737781D01*
X115997863Y-71737785D01*
X116137214Y-71877136D01*
X116137218Y-71877139D01*
X116301079Y-71986628D01*
X116301092Y-71986635D01*
X116404579Y-72029500D01*
X116483165Y-72062051D01*
X116483169Y-72062051D01*
X116483170Y-72062052D01*
X116676456Y-72100500D01*
X116676459Y-72100500D01*
X116873543Y-72100500D01*
X117003582Y-72074632D01*
X117066835Y-72062051D01*
X117248914Y-71986632D01*
X117412782Y-71877139D01*
X117429688Y-71860233D01*
X117487819Y-71802103D01*
X117549142Y-71768618D01*
X117618834Y-71773602D01*
X117674767Y-71815474D01*
X117699184Y-71880938D01*
X117699500Y-71889784D01*
X117699500Y-85916728D01*
X117679815Y-85983767D01*
X117627011Y-86029522D01*
X117574533Y-86040724D01*
X113318656Y-86007548D01*
X113251772Y-85987342D01*
X113206431Y-85934183D01*
X113197026Y-85864949D01*
X113226546Y-85801621D01*
X113231928Y-85795885D01*
X113250500Y-85777314D01*
X113316392Y-85663186D01*
X113350500Y-85535892D01*
X113350500Y-85404108D01*
X113316392Y-85276814D01*
X113250500Y-85162686D01*
X113157314Y-85069500D01*
X113089764Y-85030500D01*
X113043187Y-85003608D01*
X112979539Y-84986554D01*
X112915892Y-84969500D01*
X112784108Y-84969500D01*
X112656812Y-85003608D01*
X112542686Y-85069500D01*
X112542683Y-85069502D01*
X112449502Y-85162683D01*
X112449498Y-85162689D01*
X112383606Y-85276816D01*
X112380495Y-85284328D01*
X112379158Y-85283774D01*
X112351887Y-85331008D01*
X111724777Y-85958117D01*
X111663454Y-85991602D01*
X111636130Y-85994432D01*
X111451054Y-85992989D01*
X111450752Y-86180980D01*
X111430959Y-86247987D01*
X111414434Y-86268461D01*
X111264490Y-86418407D01*
X111144714Y-86538182D01*
X111083394Y-86571666D01*
X111057035Y-86574500D01*
X106592806Y-86574500D01*
X106525767Y-86554815D01*
X106480012Y-86502011D01*
X106470068Y-86432853D01*
X106473031Y-86418407D01*
X106500500Y-86315892D01*
X106500500Y-86184108D01*
X106474727Y-86087921D01*
X106476390Y-86018072D01*
X106506817Y-85968152D01*
X106788153Y-85686816D01*
X106849475Y-85653334D01*
X106875833Y-85650500D01*
X107221324Y-85650500D01*
X107288363Y-85670185D01*
X107309004Y-85686818D01*
X107372686Y-85750500D01*
X107486814Y-85816392D01*
X107614108Y-85850500D01*
X107614110Y-85850500D01*
X107745890Y-85850500D01*
X107745892Y-85850500D01*
X107873186Y-85816392D01*
X107987314Y-85750500D01*
X108080500Y-85657314D01*
X108146392Y-85543186D01*
X108180500Y-85415892D01*
X108180500Y-85284108D01*
X108146392Y-85156814D01*
X108080500Y-85042686D01*
X107987314Y-84949500D01*
X107883499Y-84889562D01*
X107873187Y-84883608D01*
X107795021Y-84862664D01*
X107745892Y-84849500D01*
X107614108Y-84849500D01*
X107486812Y-84883608D01*
X107372686Y-84949500D01*
X107372683Y-84949502D01*
X107309005Y-85013181D01*
X107247682Y-85046666D01*
X107221324Y-85049500D01*
X106660438Y-85049500D01*
X106629867Y-85057691D01*
X106584008Y-85069979D01*
X106584007Y-85069980D01*
X106537569Y-85096792D01*
X106537568Y-85096793D01*
X106515490Y-85109539D01*
X106515487Y-85109541D01*
X105877581Y-85747446D01*
X105821999Y-85779538D01*
X105806816Y-85783606D01*
X105806814Y-85783607D01*
X105692686Y-85849500D01*
X105692683Y-85849502D01*
X105599502Y-85942683D01*
X105599500Y-85942686D01*
X105533608Y-86056812D01*
X105499500Y-86184108D01*
X105499500Y-86315891D01*
X105526969Y-86418407D01*
X105525306Y-86488257D01*
X105486143Y-86546119D01*
X105421915Y-86573623D01*
X105407194Y-86574500D01*
X101762965Y-86574500D01*
X101695926Y-86554815D01*
X101675284Y-86538181D01*
X101201616Y-86064513D01*
X101201614Y-86064511D01*
X101135317Y-86026234D01*
X101098888Y-86005201D01*
X101086780Y-86001957D01*
X101074673Y-85998713D01*
X101074670Y-85998712D01*
X101018304Y-85983609D01*
X100984309Y-85974500D01*
X100984308Y-85974500D01*
X99953937Y-85974500D01*
X99901249Y-85960381D01*
X99900696Y-85961719D01*
X99893188Y-85958609D01*
X99893186Y-85958608D01*
X99765892Y-85924500D01*
X99634108Y-85924500D01*
X99506814Y-85958608D01*
X99506811Y-85958609D01*
X99479288Y-85974500D01*
X99470083Y-85979815D01*
X99464762Y-85982887D01*
X99402762Y-85999500D01*
X96532676Y-85999500D01*
X96465637Y-85979815D01*
X96419882Y-85927011D01*
X96409938Y-85857853D01*
X96438963Y-85794297D01*
X96444995Y-85787819D01*
X96482317Y-85750497D01*
X96525500Y-85707314D01*
X96591392Y-85593186D01*
X96625500Y-85465892D01*
X96625500Y-85334108D01*
X96591392Y-85206814D01*
X96525500Y-85092686D01*
X96432314Y-84999500D01*
X96356702Y-84955845D01*
X96318187Y-84933608D01*
X96202782Y-84902686D01*
X96190892Y-84899500D01*
X96059108Y-84899500D01*
X95931812Y-84933608D01*
X95817686Y-84999500D01*
X95817683Y-84999502D01*
X95729005Y-85088181D01*
X95667682Y-85121666D01*
X95641324Y-85124500D01*
X90768676Y-85124500D01*
X90701637Y-85104815D01*
X90680995Y-85088181D01*
X90617316Y-85024502D01*
X90617314Y-85024500D01*
X90552040Y-84986814D01*
X90503187Y-84958608D01*
X90439539Y-84941554D01*
X90375892Y-84924500D01*
X90244108Y-84924500D01*
X90116812Y-84958608D01*
X90002686Y-85024500D01*
X90002683Y-85024502D01*
X89909502Y-85117683D01*
X89909500Y-85117686D01*
X89843607Y-85231814D01*
X89843607Y-85231815D01*
X89830579Y-85280435D01*
X89794214Y-85340095D01*
X89731366Y-85370623D01*
X89661991Y-85362328D01*
X89623124Y-85336021D01*
X88306616Y-84019513D01*
X88306614Y-84019511D01*
X88255117Y-83989779D01*
X88203888Y-83960201D01*
X88191780Y-83956957D01*
X88179673Y-83953713D01*
X88179670Y-83953712D01*
X88141478Y-83943478D01*
X88089309Y-83929500D01*
X88089308Y-83929500D01*
X84953938Y-83929500D01*
X84945758Y-83927872D01*
X84940681Y-83928789D01*
X84925552Y-83923853D01*
X84906483Y-83920060D01*
X84898972Y-83916949D01*
X84893186Y-83913608D01*
X84886732Y-83911878D01*
X84879216Y-83908765D01*
X84863232Y-83895884D01*
X84838990Y-83881886D01*
X84836819Y-83879715D01*
X84831829Y-83870577D01*
X84824813Y-83864923D01*
X84818681Y-83846498D01*
X84803334Y-83818392D01*
X84800500Y-83792034D01*
X84800500Y-80893934D01*
X84804725Y-80861840D01*
X84806468Y-80855335D01*
X84825500Y-80784309D01*
X84825500Y-77653936D01*
X84839618Y-77601246D01*
X84838282Y-77600693D01*
X84841388Y-77593192D01*
X84841392Y-77593186D01*
X84875500Y-77465892D01*
X84875500Y-77334108D01*
X84841392Y-77206814D01*
X84775500Y-77092686D01*
X84682314Y-76999500D01*
X84625250Y-76966554D01*
X84568187Y-76933608D01*
X84504539Y-76916554D01*
X84440892Y-76899500D01*
X84309108Y-76899500D01*
X84181812Y-76933608D01*
X84067686Y-76999500D01*
X84067683Y-76999502D01*
X83974502Y-77092683D01*
X83974500Y-77092686D01*
X83908608Y-77206812D01*
X83874500Y-77334108D01*
X83874500Y-77397097D01*
X83854815Y-77464136D01*
X83802011Y-77509891D01*
X83732853Y-77519835D01*
X83718410Y-77516873D01*
X83702713Y-77512667D01*
X83690892Y-77509500D01*
X83559108Y-77509500D01*
X83431812Y-77543608D01*
X83317686Y-77609500D01*
X83317683Y-77609502D01*
X83224502Y-77702683D01*
X83224500Y-77702686D01*
X83158608Y-77816812D01*
X83124500Y-77944108D01*
X83124500Y-78075893D01*
X83149215Y-78168133D01*
X83147552Y-78237982D01*
X83117121Y-78287906D01*
X82726592Y-78678436D01*
X82665269Y-78711921D01*
X82595578Y-78706937D01*
X82539644Y-78665066D01*
X82519136Y-78622847D01*
X82515238Y-78608298D01*
X82449346Y-78494170D01*
X82356160Y-78400984D01*
X82299096Y-78368038D01*
X82242033Y-78335092D01*
X82178385Y-78318038D01*
X82114738Y-78300984D01*
X81982954Y-78300984D01*
X81855658Y-78335092D01*
X81741532Y-78400984D01*
X81741528Y-78400987D01*
X81658648Y-78483866D01*
X81603067Y-78515957D01*
X81582532Y-78521460D01*
X81582528Y-78521461D01*
X81514005Y-78561024D01*
X81514002Y-78561026D01*
X80582042Y-79492985D01*
X80520719Y-79526470D01*
X80451027Y-79521486D01*
X80395094Y-79479614D01*
X80374587Y-79437399D01*
X80366392Y-79406814D01*
X80300500Y-79292686D01*
X80207314Y-79199500D01*
X80127787Y-79153585D01*
X80093187Y-79133608D01*
X80029539Y-79116554D01*
X79965892Y-79099500D01*
X79834108Y-79099500D01*
X79706812Y-79133608D01*
X79592686Y-79199500D01*
X79592683Y-79199502D01*
X79499501Y-79292684D01*
X79499497Y-79292689D01*
X79496719Y-79297502D01*
X79446151Y-79345716D01*
X79389333Y-79359500D01*
X79340438Y-79359500D01*
X79302224Y-79369739D01*
X79264009Y-79379979D01*
X79264008Y-79379980D01*
X79206011Y-79413464D01*
X79206011Y-79413465D01*
X79195489Y-79419540D01*
X79195486Y-79419542D01*
X78709541Y-79905487D01*
X78709535Y-79905495D01*
X78669982Y-79974004D01*
X78669979Y-79974009D01*
X78649500Y-80050439D01*
X78649500Y-84554165D01*
X78640855Y-84583605D01*
X78634332Y-84613592D01*
X78630577Y-84618607D01*
X78629815Y-84621204D01*
X78613181Y-84641846D01*
X78581846Y-84673181D01*
X78520523Y-84706666D01*
X78494165Y-84709500D01*
X78404108Y-84709500D01*
X78276812Y-84743608D01*
X78162686Y-84809500D01*
X78162683Y-84809502D01*
X78069502Y-84902683D01*
X78069500Y-84902686D01*
X78003608Y-85016812D01*
X77989362Y-85069980D01*
X77969500Y-85144108D01*
X77969500Y-85275892D01*
X77979581Y-85313516D01*
X78003608Y-85403187D01*
X78034301Y-85456348D01*
X78069500Y-85517314D01*
X78162686Y-85610500D01*
X78276814Y-85676392D01*
X78404108Y-85710500D01*
X78404110Y-85710500D01*
X78535890Y-85710500D01*
X78535892Y-85710500D01*
X78663186Y-85676392D01*
X78777314Y-85610500D01*
X78870500Y-85517314D01*
X78936392Y-85403186D01*
X78970500Y-85275892D01*
X78970500Y-85185832D01*
X78979144Y-85156391D01*
X78985668Y-85126405D01*
X78989422Y-85121389D01*
X78990185Y-85118793D01*
X79006819Y-85098151D01*
X79007819Y-85097151D01*
X79069142Y-85063666D01*
X79138834Y-85068650D01*
X79194767Y-85110522D01*
X79219184Y-85175986D01*
X79219500Y-85184832D01*
X79219500Y-85245892D01*
X79227786Y-85276816D01*
X79253608Y-85373187D01*
X79270929Y-85403187D01*
X79319500Y-85487314D01*
X79412686Y-85580500D01*
X79526814Y-85646392D01*
X79654108Y-85680500D01*
X79654110Y-85680500D01*
X79785890Y-85680500D01*
X79785892Y-85680500D01*
X79913186Y-85646392D01*
X80027314Y-85580500D01*
X80120500Y-85487314D01*
X80186392Y-85373186D01*
X80186392Y-85373183D01*
X80188572Y-85367922D01*
X80232409Y-85313516D01*
X80298701Y-85291446D01*
X80366402Y-85308721D01*
X80414016Y-85359855D01*
X80422910Y-85383271D01*
X80442491Y-85456348D01*
X80508383Y-85570476D01*
X80601569Y-85663662D01*
X80715697Y-85729554D01*
X80842991Y-85763662D01*
X80842993Y-85763662D01*
X80974773Y-85763662D01*
X80974775Y-85763662D01*
X81102069Y-85729554D01*
X81216197Y-85663662D01*
X81309383Y-85570476D01*
X81375275Y-85456348D01*
X81409383Y-85329054D01*
X81409383Y-85197270D01*
X81375275Y-85069976D01*
X81374509Y-85068650D01*
X81352483Y-85030500D01*
X81309383Y-84955848D01*
X81216197Y-84862662D01*
X81160491Y-84830500D01*
X81112499Y-84802791D01*
X81064284Y-84752223D01*
X81050500Y-84695404D01*
X81050500Y-81352995D01*
X81070185Y-81285956D01*
X81122989Y-81240201D01*
X81173634Y-81228998D01*
X83774636Y-81210873D01*
X83841811Y-81230090D01*
X83887933Y-81282574D01*
X83899500Y-81334870D01*
X83899500Y-84089308D01*
X83923712Y-84179672D01*
X83930200Y-84203885D01*
X83930200Y-84203886D01*
X83930201Y-84203887D01*
X83989511Y-84306614D01*
X83989513Y-84306616D01*
X84201886Y-84518990D01*
X84229160Y-84566224D01*
X84230495Y-84565672D01*
X84233606Y-84573183D01*
X84233608Y-84573186D01*
X84299500Y-84687314D01*
X84392686Y-84780500D01*
X84491521Y-84837563D01*
X84501425Y-84843281D01*
X84506814Y-84846392D01*
X84634108Y-84880500D01*
X84634110Y-84880500D01*
X84765890Y-84880500D01*
X84765892Y-84880500D01*
X84893186Y-84846392D01*
X84893194Y-84846387D01*
X84900696Y-84843281D01*
X84901249Y-84844618D01*
X84953937Y-84830500D01*
X87792035Y-84830500D01*
X87859074Y-84850185D01*
X87879716Y-84866819D01*
X89823386Y-86810489D01*
X89926113Y-86869799D01*
X89926112Y-86869799D01*
X89938394Y-86873089D01*
X89947387Y-86875499D01*
X89947389Y-86875500D01*
X89967106Y-86880782D01*
X90040691Y-86900500D01*
X99524481Y-86900500D01*
X99556574Y-86904725D01*
X99634108Y-86925500D01*
X99634110Y-86925500D01*
X99765890Y-86925500D01*
X99765892Y-86925500D01*
X99893186Y-86891392D01*
X99893194Y-86891387D01*
X99900696Y-86888281D01*
X99901249Y-86889618D01*
X99953937Y-86875500D01*
X100687035Y-86875500D01*
X100754074Y-86895185D01*
X100774716Y-86911819D01*
X101248386Y-87385489D01*
X101351113Y-87444799D01*
X101356919Y-87446354D01*
X101416580Y-87482714D01*
X101447113Y-87545559D01*
X101448403Y-87555832D01*
X101450000Y-87574999D01*
X101450000Y-87575000D01*
X101536725Y-88615704D01*
X101533872Y-88629602D01*
X101535892Y-88643647D01*
X101526986Y-88663147D01*
X101522676Y-88684145D01*
X101512761Y-88694294D01*
X101506867Y-88707203D01*
X101488833Y-88718792D01*
X101473855Y-88734127D01*
X101458877Y-88738043D01*
X101448089Y-88744977D01*
X101413154Y-88750000D01*
X101306059Y-88750000D01*
X101295329Y-88749535D01*
X101242852Y-88744977D01*
X96695405Y-88350000D01*
X96695400Y-88350000D01*
X91107186Y-88350000D01*
X91094316Y-88349330D01*
X84392871Y-87650001D01*
X84392861Y-87650000D01*
X84392856Y-87650000D01*
X84392847Y-87650000D01*
X74274000Y-87650000D01*
X74206961Y-87630315D01*
X74161206Y-87577511D01*
X74150000Y-87526000D01*
X74150000Y-85250000D01*
X68224500Y-85250000D01*
X68157461Y-85230315D01*
X68111706Y-85177511D01*
X68100500Y-85126000D01*
X68100500Y-76249000D01*
X68120185Y-76181961D01*
X68172989Y-76136206D01*
X68224500Y-76125000D01*
X75422993Y-76125000D01*
X75422994Y-76125000D01*
X75416082Y-75005264D01*
X75435353Y-74938106D01*
X75487873Y-74892026D01*
X75540080Y-74880500D01*
X83004167Y-74880500D01*
X83071206Y-74900185D01*
X83091848Y-74916819D01*
X90520509Y-82345480D01*
X90544265Y-82378776D01*
X90549508Y-82389520D01*
X90554615Y-82408577D01*
X90579566Y-82451793D01*
X90581720Y-82455524D01*
X90581722Y-82455528D01*
X90594175Y-82477098D01*
X90661215Y-82544138D01*
X90694700Y-82605461D01*
X90693309Y-82663911D01*
X90674500Y-82734108D01*
X90674500Y-82865892D01*
X90681199Y-82890892D01*
X90708608Y-82993187D01*
X90723042Y-83018187D01*
X90774500Y-83107314D01*
X90867686Y-83200500D01*
X90981814Y-83266392D01*
X91109108Y-83300500D01*
X91109110Y-83300500D01*
X91240890Y-83300500D01*
X91240892Y-83300500D01*
X91368186Y-83266392D01*
X91482314Y-83200500D01*
X91552014Y-83130799D01*
X91613333Y-83097317D01*
X91683025Y-83102301D01*
X91738959Y-83144172D01*
X91754471Y-83176107D01*
X91755500Y-83175682D01*
X91758607Y-83183185D01*
X91768604Y-83200500D01*
X91824500Y-83297314D01*
X91917686Y-83390500D01*
X92031814Y-83456392D01*
X92159108Y-83490500D01*
X92159110Y-83490500D01*
X92249167Y-83490500D01*
X92316206Y-83510185D01*
X92336848Y-83526819D01*
X92350489Y-83540460D01*
X92350491Y-83540461D01*
X92350495Y-83540464D01*
X92389843Y-83563181D01*
X92419011Y-83580021D01*
X92495438Y-83600500D01*
X92495440Y-83600500D01*
X102614560Y-83600500D01*
X102614562Y-83600500D01*
X102690989Y-83580021D01*
X102759511Y-83540460D01*
X102815460Y-83484511D01*
X102873628Y-83426341D01*
X102938152Y-83361819D01*
X102999475Y-83328334D01*
X103025833Y-83325500D01*
X103115890Y-83325500D01*
X103115892Y-83325500D01*
X103243186Y-83291392D01*
X103357314Y-83225500D01*
X103450500Y-83132314D01*
X103516392Y-83018186D01*
X103550500Y-82890892D01*
X103550500Y-82759108D01*
X103516392Y-82631814D01*
X103450500Y-82517686D01*
X103357314Y-82424500D01*
X103278118Y-82378776D01*
X103243187Y-82358608D01*
X103179539Y-82341554D01*
X103115892Y-82324500D01*
X102984108Y-82324500D01*
X102856812Y-82358608D01*
X102742686Y-82424500D01*
X102742683Y-82424502D01*
X102649502Y-82517683D01*
X102649500Y-82517686D01*
X102583608Y-82631812D01*
X102549500Y-82759108D01*
X102549500Y-82849165D01*
X102540855Y-82878604D01*
X102534333Y-82908590D01*
X102530577Y-82913607D01*
X102529815Y-82916204D01*
X102513183Y-82936845D01*
X102486849Y-82963180D01*
X102425526Y-82996666D01*
X102399166Y-82999500D01*
X100507676Y-82999500D01*
X100440637Y-82979815D01*
X100394882Y-82927011D01*
X100384938Y-82857853D01*
X100413963Y-82794297D01*
X100419995Y-82787819D01*
X100429585Y-82778229D01*
X100450500Y-82757314D01*
X100516392Y-82643186D01*
X100550500Y-82515892D01*
X100550500Y-82384108D01*
X100516392Y-82256814D01*
X100450500Y-82142686D01*
X100357314Y-82049500D01*
X100300250Y-82016554D01*
X100243187Y-81983608D01*
X100179539Y-81966554D01*
X100115892Y-81949500D01*
X99984108Y-81949500D01*
X99856812Y-81983608D01*
X99742686Y-82049500D01*
X99742683Y-82049502D01*
X99649502Y-82142683D01*
X99644552Y-82149135D01*
X99642192Y-82147324D01*
X99601920Y-82185720D01*
X99545107Y-82199500D01*
X99024833Y-82199500D01*
X98957794Y-82179815D01*
X98912039Y-82127011D01*
X98902095Y-82057853D01*
X98931120Y-81994297D01*
X98937152Y-81987819D01*
X99765863Y-81159108D01*
X101699500Y-81159108D01*
X101699500Y-81290891D01*
X101733608Y-81418187D01*
X101760902Y-81465460D01*
X101799500Y-81532314D01*
X101892686Y-81625500D01*
X102006814Y-81691392D01*
X102134108Y-81725500D01*
X102134110Y-81725500D01*
X102265890Y-81725500D01*
X102265892Y-81725500D01*
X102393186Y-81691392D01*
X102507314Y-81625500D01*
X102570995Y-81561819D01*
X102632318Y-81528334D01*
X102658676Y-81525500D01*
X104439560Y-81525500D01*
X104439562Y-81525500D01*
X104515989Y-81505021D01*
X104584511Y-81465460D01*
X104640460Y-81409511D01*
X105062417Y-80987554D01*
X105123740Y-80954069D01*
X105150098Y-80951235D01*
X105586420Y-80951235D01*
X105653459Y-80970920D01*
X105699214Y-81023724D01*
X105709158Y-81092882D01*
X105693807Y-81137236D01*
X105646843Y-81218577D01*
X105627467Y-81290891D01*
X105612735Y-81345873D01*
X105612735Y-81477657D01*
X105620066Y-81505017D01*
X105646843Y-81604952D01*
X105679789Y-81662015D01*
X105712735Y-81719079D01*
X105805921Y-81812265D01*
X105920049Y-81878157D01*
X106047343Y-81912265D01*
X106047345Y-81912265D01*
X106137402Y-81912265D01*
X106204441Y-81931950D01*
X106225083Y-81948584D01*
X108223943Y-83947444D01*
X108225540Y-83949071D01*
X108232952Y-83956760D01*
X108234540Y-83959511D01*
X108263977Y-83988948D01*
X108264778Y-83989779D01*
X108280443Y-84019765D01*
X108296666Y-84049475D01*
X108296847Y-84051167D01*
X108297130Y-84051707D01*
X108297027Y-84052840D01*
X108299500Y-84075833D01*
X108299500Y-84165892D01*
X108303193Y-84179673D01*
X108333608Y-84293187D01*
X108366554Y-84350250D01*
X108399500Y-84407314D01*
X108492686Y-84500500D01*
X108606814Y-84566392D01*
X108734108Y-84600500D01*
X108734110Y-84600500D01*
X108865890Y-84600500D01*
X108865892Y-84600500D01*
X108993186Y-84566392D01*
X109107314Y-84500500D01*
X109200500Y-84407314D01*
X109266392Y-84293186D01*
X109300500Y-84165892D01*
X109300500Y-84034108D01*
X109266392Y-83906814D01*
X109200500Y-83792686D01*
X109107314Y-83699500D01*
X109050250Y-83666554D01*
X108993187Y-83633608D01*
X108929539Y-83616554D01*
X108865892Y-83599500D01*
X108777303Y-83599500D01*
X108710264Y-83579815D01*
X108689622Y-83563181D01*
X106650054Y-81523613D01*
X106616569Y-81462290D01*
X106613735Y-81435932D01*
X106613735Y-81345875D01*
X106613735Y-81345873D01*
X106579627Y-81218579D01*
X106574409Y-81209542D01*
X106551567Y-81169978D01*
X106532662Y-81137234D01*
X106516190Y-81069336D01*
X106539042Y-81003308D01*
X106593963Y-80960118D01*
X106640050Y-80951235D01*
X110025500Y-80951235D01*
X110092539Y-80970920D01*
X110138294Y-81023724D01*
X110149500Y-81075235D01*
X110149500Y-82719752D01*
X110161131Y-82778229D01*
X110161132Y-82778230D01*
X110205447Y-82844552D01*
X110271769Y-82888867D01*
X110271770Y-82888868D01*
X110330247Y-82900499D01*
X110330250Y-82900500D01*
X110330252Y-82900500D01*
X110785163Y-82900500D01*
X110827237Y-82907856D01*
X110850902Y-82916392D01*
X112452480Y-83494094D01*
X112498085Y-83523056D01*
X113692091Y-84717062D01*
X113702630Y-84729054D01*
X113715264Y-84745449D01*
X114574237Y-85495569D01*
X114595775Y-85520076D01*
X114605446Y-85534549D01*
X114605450Y-85534554D01*
X114671769Y-85578867D01*
X114671770Y-85578868D01*
X114730247Y-85590499D01*
X114730250Y-85590500D01*
X114730252Y-85590500D01*
X116469750Y-85590500D01*
X116469751Y-85590499D01*
X116484568Y-85587552D01*
X116528229Y-85578868D01*
X116528229Y-85578867D01*
X116528231Y-85578867D01*
X116594552Y-85534552D01*
X116638867Y-85468231D01*
X116638867Y-85468229D01*
X116638868Y-85468229D01*
X116650499Y-85409752D01*
X116650500Y-85409750D01*
X116650500Y-83670249D01*
X116650499Y-83670247D01*
X116638868Y-83611770D01*
X116638867Y-83611769D01*
X116594552Y-83545447D01*
X116528230Y-83501132D01*
X116528229Y-83501131D01*
X116469752Y-83489500D01*
X116469748Y-83489500D01*
X114730252Y-83489500D01*
X114730247Y-83489500D01*
X114671771Y-83501131D01*
X114638959Y-83523056D01*
X114605450Y-83545447D01*
X114602795Y-83547221D01*
X114601262Y-83548595D01*
X114598014Y-83551202D01*
X114068098Y-84069679D01*
X114006414Y-84102493D01*
X113936780Y-84096748D01*
X113893698Y-84068727D01*
X112919835Y-83094864D01*
X112892274Y-83052958D01*
X112878462Y-83018186D01*
X112259258Y-81459283D01*
X112250500Y-81413508D01*
X112250500Y-81075235D01*
X112270185Y-81008196D01*
X112322989Y-80962441D01*
X112374500Y-80951235D01*
X114448825Y-80951235D01*
X114448827Y-80951235D01*
X114525254Y-80930756D01*
X114546775Y-80918330D01*
X114569625Y-80908060D01*
X115820891Y-80491921D01*
X115820896Y-80491918D01*
X115820903Y-80491916D01*
X115825603Y-80489910D01*
X115825824Y-80490429D01*
X115853133Y-80480728D01*
X115906420Y-80470130D01*
X116097598Y-80390941D01*
X116269655Y-80275977D01*
X116415977Y-80129655D01*
X116530941Y-79957598D01*
X116610130Y-79766420D01*
X116650500Y-79563465D01*
X116650500Y-79356535D01*
X116610130Y-79153580D01*
X116530941Y-78962402D01*
X116415977Y-78790345D01*
X116415975Y-78790342D01*
X116269657Y-78644024D01*
X116183626Y-78586541D01*
X116097598Y-78529059D01*
X116079257Y-78521462D01*
X115906420Y-78449870D01*
X115906412Y-78449868D01*
X115703469Y-78409500D01*
X115703465Y-78409500D01*
X115496535Y-78409500D01*
X115496530Y-78409500D01*
X115293587Y-78449868D01*
X115293579Y-78449870D01*
X115102403Y-78529058D01*
X114930342Y-78644024D01*
X114784024Y-78790342D01*
X114669058Y-78962403D01*
X114589870Y-79153579D01*
X114589868Y-79153585D01*
X114579342Y-79206505D01*
X114569449Y-79233052D01*
X114570557Y-79233546D01*
X114568075Y-79239112D01*
X114226770Y-80265367D01*
X114186936Y-80322769D01*
X114122391Y-80349521D01*
X114109107Y-80350235D01*
X111942803Y-80350235D01*
X111875764Y-80330550D01*
X111830009Y-80277746D01*
X111820065Y-80208588D01*
X111849090Y-80145032D01*
X111865517Y-80130536D01*
X111864947Y-80129841D01*
X111869651Y-80125979D01*
X111869655Y-80125977D01*
X112015977Y-79979655D01*
X112130941Y-79807598D01*
X112210130Y-79616420D01*
X112250500Y-79413465D01*
X112250500Y-79206535D01*
X112210130Y-79003580D01*
X112130941Y-78812402D01*
X112015977Y-78640345D01*
X112015975Y-78640342D01*
X111869657Y-78494024D01*
X111743156Y-78409500D01*
X111697598Y-78379059D01*
X111506420Y-78299870D01*
X111506412Y-78299868D01*
X111303469Y-78259500D01*
X111303465Y-78259500D01*
X111096535Y-78259500D01*
X111096530Y-78259500D01*
X110893587Y-78299868D01*
X110893579Y-78299870D01*
X110702403Y-78379058D01*
X110530342Y-78494024D01*
X110384024Y-78640342D01*
X110269058Y-78812403D01*
X110189870Y-79003579D01*
X110189868Y-79003587D01*
X110149500Y-79206530D01*
X110149500Y-79413469D01*
X110179337Y-79563469D01*
X110189870Y-79616420D01*
X110269059Y-79807598D01*
X110297084Y-79849540D01*
X110384024Y-79979657D01*
X110530341Y-80125974D01*
X110535053Y-80129841D01*
X110533390Y-80131866D01*
X110570898Y-80176756D01*
X110579598Y-80246082D01*
X110549438Y-80309106D01*
X110489991Y-80345820D01*
X110457197Y-80350235D01*
X104934703Y-80350235D01*
X104883751Y-80363887D01*
X104858275Y-80370714D01*
X104823244Y-80390940D01*
X104823242Y-80390940D01*
X104789760Y-80410270D01*
X104789752Y-80410276D01*
X104311848Y-80888181D01*
X104250525Y-80921666D01*
X104224167Y-80924500D01*
X102658676Y-80924500D01*
X102591637Y-80904815D01*
X102570995Y-80888181D01*
X102507316Y-80824502D01*
X102507314Y-80824500D01*
X102446592Y-80789442D01*
X102393187Y-80758608D01*
X102329539Y-80741554D01*
X102265892Y-80724500D01*
X102134108Y-80724500D01*
X102006812Y-80758608D01*
X101892686Y-80824500D01*
X101892683Y-80824502D01*
X101799502Y-80917683D01*
X101799500Y-80917686D01*
X101733608Y-81031812D01*
X101699500Y-81159108D01*
X99765863Y-81159108D01*
X99861671Y-81063300D01*
X100858579Y-80066392D01*
X101869460Y-79055511D01*
X101905443Y-78993186D01*
X101909021Y-78986989D01*
X101929500Y-78910562D01*
X101929500Y-78899035D01*
X101934538Y-78881905D01*
X101944169Y-78866932D01*
X101949185Y-78849851D01*
X101965819Y-78829209D01*
X102069209Y-78725819D01*
X102130532Y-78692334D01*
X102142566Y-78691040D01*
X102142503Y-78690561D01*
X102150559Y-78689500D01*
X102150562Y-78689500D01*
X102226989Y-78669021D01*
X102295511Y-78629460D01*
X102351460Y-78573511D01*
X104108441Y-76816530D01*
X114549500Y-76816530D01*
X114549500Y-77023469D01*
X114585970Y-77206814D01*
X114589870Y-77226420D01*
X114669059Y-77417598D01*
X114701327Y-77465891D01*
X114784024Y-77589657D01*
X114930342Y-77735975D01*
X114930345Y-77735977D01*
X115102402Y-77850941D01*
X115293580Y-77930130D01*
X115496530Y-77970499D01*
X115496534Y-77970500D01*
X115496535Y-77970500D01*
X115703466Y-77970500D01*
X115703467Y-77970499D01*
X115906420Y-77930130D01*
X116097598Y-77850941D01*
X116269655Y-77735977D01*
X116415977Y-77589655D01*
X116530941Y-77417598D01*
X116610130Y-77226420D01*
X116650500Y-77023465D01*
X116650500Y-76816535D01*
X116610130Y-76613580D01*
X116530941Y-76422402D01*
X116415977Y-76250345D01*
X116415975Y-76250342D01*
X116269657Y-76104024D01*
X116183626Y-76046541D01*
X116097598Y-75989059D01*
X115906420Y-75909870D01*
X115906412Y-75909868D01*
X115703469Y-75869500D01*
X115703465Y-75869500D01*
X115496535Y-75869500D01*
X115496530Y-75869500D01*
X115293587Y-75909868D01*
X115293579Y-75909870D01*
X115102403Y-75989058D01*
X114930342Y-76104024D01*
X114784024Y-76250342D01*
X114669058Y-76422403D01*
X114589870Y-76613579D01*
X114589868Y-76613587D01*
X114549500Y-76816530D01*
X104108441Y-76816530D01*
X108748152Y-72176819D01*
X108809475Y-72143334D01*
X108835833Y-72140500D01*
X110192630Y-72140500D01*
X110245874Y-72152513D01*
X111106520Y-72561710D01*
X111111145Y-72563472D01*
X111110750Y-72564508D01*
X111136103Y-72576308D01*
X111162129Y-72593698D01*
X111162131Y-72593699D01*
X111162137Y-72593703D01*
X111316918Y-72657816D01*
X111481228Y-72690499D01*
X111481232Y-72690500D01*
X111481233Y-72690500D01*
X111648768Y-72690500D01*
X111648769Y-72690499D01*
X111813082Y-72657816D01*
X111967863Y-72593703D01*
X112107162Y-72500626D01*
X112225626Y-72382162D01*
X112318703Y-72242863D01*
X112382816Y-72088082D01*
X112415500Y-71923767D01*
X112415500Y-71756233D01*
X112415499Y-71756228D01*
X113254500Y-71756228D01*
X113254500Y-71923771D01*
X113287182Y-72088074D01*
X113287184Y-72088082D01*
X113351295Y-72242860D01*
X113444373Y-72382162D01*
X113562837Y-72500626D01*
X113654253Y-72561708D01*
X113702137Y-72593703D01*
X113856918Y-72657816D01*
X114021228Y-72690499D01*
X114021232Y-72690500D01*
X114021233Y-72690500D01*
X114188768Y-72690500D01*
X114188769Y-72690499D01*
X114353082Y-72657816D01*
X114507863Y-72593703D01*
X114647162Y-72500626D01*
X114765626Y-72382162D01*
X114858703Y-72242863D01*
X114922816Y-72088082D01*
X114955500Y-71923767D01*
X114955500Y-71756233D01*
X114922816Y-71591918D01*
X114865652Y-71453914D01*
X114858704Y-71437139D01*
X114854702Y-71431150D01*
X114827537Y-71390494D01*
X114765626Y-71297837D01*
X114647162Y-71179373D01*
X114507860Y-71086295D01*
X114353082Y-71022184D01*
X114353074Y-71022182D01*
X114188771Y-70989500D01*
X114188767Y-70989500D01*
X114021233Y-70989500D01*
X114021228Y-70989500D01*
X113856925Y-71022182D01*
X113856917Y-71022184D01*
X113702139Y-71086295D01*
X113562837Y-71179373D01*
X113444373Y-71297837D01*
X113351295Y-71437139D01*
X113287184Y-71591917D01*
X113287182Y-71591925D01*
X113254500Y-71756228D01*
X112415499Y-71756228D01*
X112382816Y-71591918D01*
X112325652Y-71453914D01*
X112318704Y-71437139D01*
X112314702Y-71431150D01*
X112287537Y-71390494D01*
X112225626Y-71297837D01*
X112107162Y-71179373D01*
X111967860Y-71086295D01*
X111813082Y-71022184D01*
X111813074Y-71022182D01*
X111648771Y-70989500D01*
X111648767Y-70989500D01*
X111481233Y-70989500D01*
X111481228Y-70989500D01*
X111316925Y-71022182D01*
X111316917Y-71022184D01*
X111162139Y-71086295D01*
X111135910Y-71103821D01*
X111109040Y-71117381D01*
X111106519Y-71118288D01*
X110245871Y-71527487D01*
X110192627Y-71539500D01*
X108734833Y-71539500D01*
X108667794Y-71519815D01*
X108622039Y-71467011D01*
X108612095Y-71397853D01*
X108641120Y-71334297D01*
X108647152Y-71327819D01*
X110338152Y-69636819D01*
X110399475Y-69603334D01*
X110425833Y-69600500D01*
X111462630Y-69600500D01*
X111515874Y-69612513D01*
X112376520Y-70021710D01*
X112381145Y-70023472D01*
X112380750Y-70024508D01*
X112406103Y-70036308D01*
X112432129Y-70053698D01*
X112432131Y-70053699D01*
X112432137Y-70053703D01*
X112586918Y-70117816D01*
X112751228Y-70150499D01*
X112751232Y-70150500D01*
X112751233Y-70150500D01*
X112918768Y-70150500D01*
X112918769Y-70150499D01*
X113083082Y-70117816D01*
X113237863Y-70053703D01*
X113377162Y-69960626D01*
X113495626Y-69842162D01*
X113588703Y-69702863D01*
X113652816Y-69548082D01*
X113685500Y-69383767D01*
X113685500Y-69216233D01*
X113652816Y-69051918D01*
X113588703Y-68897137D01*
X113557537Y-68850494D01*
X113495626Y-68757837D01*
X113377162Y-68639373D01*
X113237860Y-68546295D01*
X113083082Y-68482184D01*
X113083074Y-68482182D01*
X112918771Y-68449500D01*
X112918767Y-68449500D01*
X112751233Y-68449500D01*
X112751228Y-68449500D01*
X112586925Y-68482182D01*
X112586917Y-68482184D01*
X112432139Y-68546295D01*
X112405910Y-68563821D01*
X112379040Y-68577381D01*
X112376519Y-68578288D01*
X111515871Y-68987487D01*
X111462627Y-68999500D01*
X110210438Y-68999500D01*
X110134010Y-69019978D01*
X110065489Y-69059540D01*
X110065486Y-69059542D01*
X98011848Y-81113181D01*
X97950525Y-81146666D01*
X97924167Y-81149500D01*
X95510438Y-81149500D01*
X95434010Y-81169978D01*
X95365489Y-81209540D01*
X95365486Y-81209542D01*
X94386732Y-82188295D01*
X94331147Y-82220388D01*
X94281815Y-82233607D01*
X94281814Y-82233607D01*
X94167686Y-82299500D01*
X94167683Y-82299502D01*
X94074502Y-82392683D01*
X94074500Y-82392686D01*
X94008608Y-82506812D01*
X93986452Y-82589502D01*
X93974500Y-82634108D01*
X93974500Y-82765892D01*
X93983773Y-82800500D01*
X93995270Y-82843407D01*
X93993607Y-82913257D01*
X93954444Y-82971119D01*
X93890216Y-82998623D01*
X93875495Y-82999500D01*
X92840849Y-82999500D01*
X92773810Y-82979815D01*
X92728055Y-82927011D01*
X92721077Y-82907602D01*
X92691392Y-82796814D01*
X92689801Y-82794059D01*
X92673539Y-82765892D01*
X92625500Y-82682686D01*
X92532314Y-82589500D01*
X92453745Y-82544138D01*
X92418187Y-82523608D01*
X92354539Y-82506554D01*
X92290892Y-82489500D01*
X92159108Y-82489500D01*
X92031814Y-82523608D01*
X92031813Y-82523608D01*
X92031811Y-82523609D01*
X92031806Y-82523610D01*
X91976027Y-82555815D01*
X91908127Y-82572288D01*
X91842100Y-82549435D01*
X91798910Y-82494514D01*
X91792269Y-82424960D01*
X91824285Y-82362858D01*
X91826307Y-82360787D01*
X91836136Y-82350959D01*
X91902028Y-82236831D01*
X91936136Y-82109537D01*
X91936136Y-81977753D01*
X91902028Y-81850459D01*
X91836136Y-81736331D01*
X91742950Y-81643145D01*
X91667355Y-81599500D01*
X91628823Y-81577253D01*
X91565175Y-81560199D01*
X91501528Y-81543145D01*
X91411469Y-81543145D01*
X91344430Y-81523460D01*
X91323788Y-81506826D01*
X90642378Y-80825416D01*
X90608893Y-80764093D01*
X90613877Y-80694401D01*
X90655749Y-80638468D01*
X90721213Y-80614051D01*
X90730059Y-80613735D01*
X95842792Y-80613735D01*
X95909831Y-80633420D01*
X95950179Y-80675734D01*
X95962028Y-80696257D01*
X96055214Y-80789443D01*
X96169342Y-80855335D01*
X96296636Y-80889443D01*
X96296638Y-80889443D01*
X96428418Y-80889443D01*
X96428420Y-80889443D01*
X96555714Y-80855335D01*
X96669842Y-80789443D01*
X96763028Y-80696257D01*
X96828920Y-80582129D01*
X96863028Y-80454835D01*
X96863028Y-80323051D01*
X96851396Y-80279639D01*
X96853059Y-80209795D01*
X96892221Y-80151932D01*
X96956449Y-80124427D01*
X96987358Y-80124611D01*
X96994106Y-80125499D01*
X96994108Y-80125500D01*
X96994110Y-80125500D01*
X97125890Y-80125500D01*
X97125892Y-80125500D01*
X97253186Y-80091392D01*
X97367314Y-80025500D01*
X97460500Y-79932314D01*
X97526392Y-79818186D01*
X97560500Y-79690892D01*
X97560500Y-79600832D01*
X97580185Y-79533793D01*
X97596819Y-79513151D01*
X98850470Y-78259500D01*
X100155460Y-76954511D01*
X100195022Y-76885988D01*
X100215500Y-76809562D01*
X100215500Y-76730438D01*
X100215500Y-72208672D01*
X100235185Y-72141633D01*
X100287989Y-72095878D01*
X100357147Y-72085934D01*
X100420703Y-72114959D01*
X100442602Y-72139782D01*
X100524370Y-72262157D01*
X100524376Y-72262165D01*
X100642837Y-72380626D01*
X100709995Y-72425499D01*
X100782137Y-72473703D01*
X100782138Y-72473703D01*
X100782139Y-72473704D01*
X100817201Y-72488227D01*
X100936918Y-72537816D01*
X101065901Y-72563472D01*
X101101228Y-72570499D01*
X101101232Y-72570500D01*
X101101233Y-72570500D01*
X101268768Y-72570500D01*
X101268769Y-72570499D01*
X101433082Y-72537816D01*
X101587863Y-72473703D01*
X101727162Y-72380626D01*
X101845626Y-72262162D01*
X101938703Y-72122863D01*
X102002816Y-71968082D01*
X102035500Y-71803767D01*
X102035500Y-71636233D01*
X102002816Y-71471918D01*
X101942757Y-71326925D01*
X101938704Y-71317139D01*
X101933212Y-71308920D01*
X101903287Y-71264133D01*
X101845626Y-71177837D01*
X101746332Y-71078543D01*
X102854499Y-71078543D01*
X102892947Y-71271829D01*
X102892950Y-71271839D01*
X102968364Y-71453907D01*
X102968371Y-71453920D01*
X103077860Y-71617781D01*
X103077863Y-71617785D01*
X103217214Y-71757136D01*
X103217218Y-71757139D01*
X103381079Y-71866628D01*
X103381092Y-71866635D01*
X103545592Y-71934772D01*
X103563165Y-71942051D01*
X103563169Y-71942051D01*
X103563170Y-71942052D01*
X103756456Y-71980500D01*
X103756459Y-71980500D01*
X103953543Y-71980500D01*
X104083582Y-71954632D01*
X104146835Y-71942051D01*
X104328914Y-71866632D01*
X104492782Y-71757139D01*
X104632139Y-71617782D01*
X104741632Y-71453914D01*
X104817051Y-71271835D01*
X104845895Y-71126829D01*
X104855500Y-71078543D01*
X104855500Y-70881456D01*
X104817052Y-70688170D01*
X104817051Y-70688169D01*
X104817051Y-70688165D01*
X104817049Y-70688160D01*
X104741635Y-70506092D01*
X104741628Y-70506079D01*
X104632139Y-70342218D01*
X104632136Y-70342214D01*
X104492785Y-70202863D01*
X104492781Y-70202860D01*
X104328920Y-70093371D01*
X104328907Y-70093364D01*
X104146839Y-70017950D01*
X104146829Y-70017947D01*
X103953543Y-69979500D01*
X103953541Y-69979500D01*
X103756459Y-69979500D01*
X103756457Y-69979500D01*
X103563170Y-70017947D01*
X103563160Y-70017950D01*
X103381092Y-70093364D01*
X103381079Y-70093371D01*
X103217218Y-70202860D01*
X103217214Y-70202863D01*
X103077863Y-70342214D01*
X103077860Y-70342218D01*
X102968371Y-70506079D01*
X102968364Y-70506092D01*
X102892950Y-70688160D01*
X102892947Y-70688170D01*
X102854500Y-70881456D01*
X102854500Y-70881459D01*
X102854500Y-71078541D01*
X102854500Y-71078543D01*
X102854499Y-71078543D01*
X101746332Y-71078543D01*
X101727165Y-71059376D01*
X101727157Y-71059370D01*
X101606129Y-70978502D01*
X101606128Y-70978501D01*
X101587863Y-70966297D01*
X101587862Y-70966296D01*
X101587860Y-70966295D01*
X101433082Y-70902184D01*
X101433074Y-70902182D01*
X101268771Y-70869500D01*
X101268767Y-70869500D01*
X101101233Y-70869500D01*
X101101228Y-70869500D01*
X100936925Y-70902182D01*
X100936917Y-70902184D01*
X100782139Y-70966295D01*
X100642837Y-71059373D01*
X100524376Y-71177834D01*
X100524373Y-71177838D01*
X100442602Y-71300218D01*
X100388990Y-71345023D01*
X100319665Y-71353730D01*
X100256638Y-71323576D01*
X100219918Y-71264133D01*
X100215500Y-71231327D01*
X100215500Y-70552369D01*
X100227513Y-70499125D01*
X100245061Y-70462218D01*
X100636708Y-69638483D01*
X100636709Y-69638478D01*
X100636712Y-69638473D01*
X100638474Y-69633848D01*
X100639534Y-69634252D01*
X100651306Y-69608898D01*
X100668703Y-69582863D01*
X100671065Y-69577162D01*
X100705548Y-69493911D01*
X100732816Y-69428082D01*
X100765500Y-69263767D01*
X100765500Y-69096233D01*
X100732816Y-68931918D01*
X100672757Y-68786925D01*
X100668704Y-68777139D01*
X100575626Y-68637837D01*
X100457162Y-68519373D01*
X100317860Y-68426295D01*
X100163082Y-68362184D01*
X100163074Y-68362182D01*
X99998771Y-68329500D01*
X99998767Y-68329500D01*
X99831233Y-68329500D01*
X99831228Y-68329500D01*
X99666925Y-68362182D01*
X99666917Y-68362184D01*
X99512139Y-68426295D01*
X99372837Y-68519373D01*
X99254373Y-68637837D01*
X99161295Y-68777139D01*
X99097184Y-68931917D01*
X99097182Y-68931925D01*
X99064500Y-69096228D01*
X99064500Y-69263771D01*
X99097182Y-69428074D01*
X99097184Y-69428082D01*
X99161297Y-69582863D01*
X99178823Y-69609094D01*
X99192382Y-69635959D01*
X99193290Y-69638480D01*
X99193291Y-69638483D01*
X99466622Y-70213368D01*
X99602487Y-70499126D01*
X99614500Y-70552370D01*
X99614500Y-71231327D01*
X99594815Y-71298366D01*
X99542011Y-71344121D01*
X99472853Y-71354065D01*
X99409297Y-71325040D01*
X99387398Y-71300218D01*
X99305626Y-71177838D01*
X99305623Y-71177834D01*
X99187162Y-71059373D01*
X99047860Y-70966295D01*
X98893082Y-70902184D01*
X98893074Y-70902182D01*
X98728771Y-70869500D01*
X98728767Y-70869500D01*
X98561233Y-70869500D01*
X98561228Y-70869500D01*
X98396925Y-70902182D01*
X98396917Y-70902184D01*
X98242139Y-70966295D01*
X98102837Y-71059373D01*
X97984373Y-71177837D01*
X97891295Y-71317139D01*
X97827183Y-71471919D01*
X97827183Y-71471920D01*
X97819070Y-71512704D01*
X97809241Y-71540760D01*
X97809342Y-71540800D01*
X97808403Y-71543153D01*
X97807583Y-71545496D01*
X97807088Y-71546451D01*
X97807084Y-71546461D01*
X97576600Y-72344231D01*
X97562238Y-72372664D01*
X97563603Y-72373452D01*
X97519980Y-72449008D01*
X97519979Y-72449009D01*
X97513362Y-72473704D01*
X97499500Y-72525438D01*
X97499500Y-72625988D01*
X97498681Y-72634282D01*
X97499500Y-72639101D01*
X97499500Y-74242324D01*
X97479815Y-74309363D01*
X97427011Y-74355118D01*
X97357853Y-74365062D01*
X97294297Y-74336037D01*
X97287819Y-74330005D01*
X97207316Y-74249502D01*
X97207314Y-74249500D01*
X97133721Y-74207011D01*
X97093187Y-74183608D01*
X96991143Y-74156266D01*
X96965892Y-74149500D01*
X96834108Y-74149500D01*
X96706812Y-74183608D01*
X96592686Y-74249500D01*
X96592683Y-74249502D01*
X96499502Y-74342683D01*
X96499500Y-74342686D01*
X96433608Y-74456812D01*
X96399500Y-74584108D01*
X96399500Y-74715891D01*
X96433608Y-74843187D01*
X96455151Y-74880500D01*
X96499500Y-74957314D01*
X96499502Y-74957316D01*
X96563181Y-75020995D01*
X96577884Y-75047922D01*
X96594477Y-75073741D01*
X96595368Y-75079941D01*
X96596666Y-75082318D01*
X96599500Y-75108676D01*
X96599500Y-75124110D01*
X96579815Y-75191149D01*
X96563181Y-75211791D01*
X95561848Y-76213124D01*
X95500525Y-76246609D01*
X95474167Y-76249443D01*
X88800776Y-76249443D01*
X88733737Y-76229758D01*
X88713095Y-76213124D01*
X85010628Y-72510657D01*
X84977143Y-72449334D01*
X84974891Y-72434972D01*
X84969595Y-72380489D01*
X84885500Y-71515294D01*
X84885500Y-71491233D01*
X84880926Y-71468238D01*
X84878294Y-71441158D01*
X84877073Y-71431150D01*
X84876906Y-71430014D01*
X84873278Y-71420572D01*
X84867411Y-71400293D01*
X84852816Y-71326918D01*
X84791700Y-71179373D01*
X84788704Y-71172139D01*
X84695626Y-71032837D01*
X84577162Y-70914373D01*
X84437860Y-70821295D01*
X84283082Y-70757184D01*
X84283074Y-70757182D01*
X84118771Y-70724500D01*
X84118767Y-70724500D01*
X83951233Y-70724500D01*
X83951228Y-70724500D01*
X83786925Y-70757182D01*
X83786917Y-70757184D01*
X83632139Y-70821295D01*
X83492837Y-70914373D01*
X83374373Y-71032837D01*
X83281295Y-71172139D01*
X83217184Y-71326917D01*
X83217182Y-71326925D01*
X83184500Y-71491228D01*
X83184500Y-71615514D01*
X83164815Y-71682553D01*
X83112011Y-71728308D01*
X83098569Y-71733526D01*
X82523612Y-71918996D01*
X82523611Y-71918996D01*
X82523611Y-71918997D01*
X82519780Y-71934772D01*
X82484826Y-71995270D01*
X82422713Y-72027266D01*
X82399284Y-72029500D01*
X71140438Y-72029500D01*
X71064010Y-72049978D01*
X70995489Y-72089540D01*
X70995486Y-72089542D01*
X70721348Y-72363681D01*
X70660025Y-72397166D01*
X70633667Y-72400000D01*
X68224500Y-72400000D01*
X68157461Y-72380315D01*
X68111706Y-72327511D01*
X68100500Y-72276000D01*
X68100500Y-68951228D01*
X84454500Y-68951228D01*
X84454500Y-69118771D01*
X84487182Y-69283074D01*
X84487184Y-69283082D01*
X84551295Y-69437860D01*
X84644373Y-69577162D01*
X84762837Y-69695626D01*
X84855494Y-69757537D01*
X84902137Y-69788703D01*
X85056918Y-69852816D01*
X85150619Y-69871453D01*
X85150620Y-69871454D01*
X85154737Y-69872273D01*
X85177532Y-69878438D01*
X85189975Y-69879281D01*
X85197799Y-69880838D01*
X85197809Y-69880840D01*
X85221232Y-69885500D01*
X85221233Y-69885500D01*
X85277346Y-69885500D01*
X85285744Y-69885784D01*
X86178156Y-69946373D01*
X86243706Y-69970553D01*
X86257436Y-69982407D01*
X86795095Y-70520066D01*
X86828580Y-70581389D01*
X86823596Y-70651081D01*
X86781724Y-70707014D01*
X86716260Y-70731431D01*
X86683223Y-70729364D01*
X86658771Y-70724500D01*
X86658767Y-70724500D01*
X86491233Y-70724500D01*
X86491228Y-70724500D01*
X86326925Y-70757182D01*
X86326917Y-70757184D01*
X86172139Y-70821295D01*
X86032837Y-70914373D01*
X85914373Y-71032837D01*
X85821295Y-71172139D01*
X85757184Y-71326917D01*
X85757182Y-71326925D01*
X85724500Y-71491228D01*
X85724500Y-71658771D01*
X85757182Y-71823074D01*
X85757184Y-71823082D01*
X85821295Y-71977860D01*
X85914373Y-72117162D01*
X86032837Y-72235626D01*
X86125494Y-72297537D01*
X86172137Y-72328703D01*
X86326918Y-72392816D01*
X86491228Y-72425499D01*
X86491232Y-72425500D01*
X86491233Y-72425500D01*
X86658768Y-72425500D01*
X86658769Y-72425499D01*
X86823082Y-72392816D01*
X86977863Y-72328703D01*
X87117162Y-72235626D01*
X87235626Y-72117162D01*
X87328703Y-71977863D01*
X87392816Y-71823082D01*
X87425500Y-71658767D01*
X87425500Y-71491233D01*
X87420635Y-71466776D01*
X87426861Y-71397187D01*
X87469723Y-71342009D01*
X87535612Y-71318763D01*
X87603610Y-71334829D01*
X87629933Y-71354904D01*
X91165489Y-74890460D01*
X91234012Y-74930022D01*
X91310438Y-74950500D01*
X91389562Y-74950500D01*
X94841324Y-74950500D01*
X94908363Y-74970185D01*
X94929005Y-74986819D01*
X94992686Y-75050500D01*
X95091521Y-75107563D01*
X95093449Y-75108676D01*
X95106814Y-75116392D01*
X95234108Y-75150500D01*
X95234110Y-75150500D01*
X95365890Y-75150500D01*
X95365892Y-75150500D01*
X95493186Y-75116392D01*
X95607314Y-75050500D01*
X95700500Y-74957314D01*
X95766392Y-74843186D01*
X95800500Y-74715892D01*
X95800500Y-74584108D01*
X95766392Y-74456814D01*
X95700500Y-74342686D01*
X95607314Y-74249500D01*
X95533721Y-74207011D01*
X95493187Y-74183608D01*
X95391143Y-74156266D01*
X95365892Y-74149500D01*
X95234108Y-74149500D01*
X95106812Y-74183608D01*
X94992686Y-74249500D01*
X94992683Y-74249502D01*
X94929005Y-74313181D01*
X94867682Y-74346666D01*
X94841324Y-74349500D01*
X91525833Y-74349500D01*
X91458794Y-74329815D01*
X91438152Y-74313181D01*
X89172152Y-72047181D01*
X89138667Y-71985858D01*
X89143651Y-71916166D01*
X89185523Y-71860233D01*
X89250987Y-71835816D01*
X89259833Y-71835500D01*
X89343543Y-71835500D01*
X89473582Y-71809632D01*
X89536835Y-71797051D01*
X89718914Y-71721632D01*
X89882782Y-71612139D01*
X90022139Y-71472782D01*
X90131632Y-71308914D01*
X90207051Y-71126835D01*
X90236563Y-70978469D01*
X90245500Y-70933543D01*
X90245500Y-70736456D01*
X90207052Y-70543170D01*
X90207051Y-70543169D01*
X90207051Y-70543165D01*
X90191695Y-70506092D01*
X90131635Y-70361092D01*
X90131628Y-70361079D01*
X90022139Y-70197218D01*
X90022136Y-70197214D01*
X89882785Y-70057863D01*
X89882781Y-70057860D01*
X89718920Y-69948371D01*
X89718907Y-69948364D01*
X89536839Y-69872950D01*
X89536829Y-69872947D01*
X89343543Y-69834500D01*
X89343541Y-69834500D01*
X89146459Y-69834500D01*
X89146457Y-69834500D01*
X88953170Y-69872947D01*
X88953160Y-69872950D01*
X88771092Y-69948364D01*
X88771079Y-69948371D01*
X88607219Y-70057859D01*
X88571715Y-70093364D01*
X88501396Y-70163682D01*
X88440076Y-70197166D01*
X88413717Y-70200000D01*
X87376333Y-70200000D01*
X87309294Y-70180315D01*
X87288652Y-70163681D01*
X86632178Y-69507207D01*
X86615725Y-69486847D01*
X86577735Y-69428082D01*
X86024471Y-68572271D01*
X86023854Y-68571328D01*
X86023274Y-68570440D01*
X86023188Y-68570311D01*
X86023186Y-68570309D01*
X86013977Y-68561044D01*
X85998823Y-68542522D01*
X85965626Y-68492838D01*
X85965624Y-68492836D01*
X85965622Y-68492833D01*
X85847162Y-68374373D01*
X85707860Y-68281295D01*
X85553082Y-68217184D01*
X85553074Y-68217182D01*
X85388771Y-68184500D01*
X85388767Y-68184500D01*
X85221233Y-68184500D01*
X85221228Y-68184500D01*
X85056925Y-68217182D01*
X85056917Y-68217184D01*
X84902139Y-68281295D01*
X84762837Y-68374373D01*
X84644373Y-68492837D01*
X84551295Y-68632139D01*
X84487184Y-68786917D01*
X84487182Y-68786925D01*
X84454500Y-68951228D01*
X68100500Y-68951228D01*
X68100500Y-67624500D01*
X68120185Y-67557461D01*
X68172989Y-67511706D01*
X68224500Y-67500500D01*
X117575500Y-67500500D01*
X117642539Y-67520185D01*
G37*
%TD.AperFunction*%
%TA.AperFunction,Conductor*%
G36*
X97418834Y-74941494D02*
G01*
X97474767Y-74983366D01*
X97499184Y-75048830D01*
X97499500Y-75057676D01*
X97499500Y-77784166D01*
X97479815Y-77851205D01*
X97463181Y-77871847D01*
X97071847Y-78263181D01*
X97010524Y-78296666D01*
X96984166Y-78299500D01*
X96894108Y-78299500D01*
X96766812Y-78333608D01*
X96652686Y-78399500D01*
X96652683Y-78399502D01*
X96559502Y-78492683D01*
X96559500Y-78492686D01*
X96493608Y-78606812D01*
X96459500Y-78734108D01*
X96459500Y-78865891D01*
X96493608Y-78993187D01*
X96499608Y-79003579D01*
X96559500Y-79107314D01*
X96559502Y-79107316D01*
X96632618Y-79180432D01*
X96666103Y-79241755D01*
X96661119Y-79311447D01*
X96652324Y-79330113D01*
X96593609Y-79431810D01*
X96593609Y-79431811D01*
X96593608Y-79431813D01*
X96593608Y-79431814D01*
X96571814Y-79513151D01*
X96559500Y-79559108D01*
X96559500Y-79690891D01*
X96571131Y-79734299D01*
X96569468Y-79804149D01*
X96530305Y-79862011D01*
X96466077Y-79889515D01*
X96435176Y-79889332D01*
X96428421Y-79888443D01*
X96428420Y-79888443D01*
X96296636Y-79888443D01*
X96169340Y-79922551D01*
X96089534Y-79968627D01*
X96055214Y-79988443D01*
X96055212Y-79988444D01*
X96048176Y-79992507D01*
X96047230Y-79990868D01*
X95991783Y-80012305D01*
X95981464Y-80012735D01*
X90944181Y-80012735D01*
X90877142Y-79993050D01*
X90831387Y-79940246D01*
X90820191Y-79890285D01*
X90814231Y-79413469D01*
X90800000Y-78275000D01*
X90748821Y-78230595D01*
X90140384Y-77702686D01*
X89408999Y-77068102D01*
X89371264Y-77009300D01*
X89371310Y-76939431D01*
X89409122Y-76880677D01*
X89472697Y-76851694D01*
X89490264Y-76850443D01*
X95689560Y-76850443D01*
X95689562Y-76850443D01*
X95765989Y-76829964D01*
X95834511Y-76790403D01*
X95890460Y-76734454D01*
X97140460Y-75484454D01*
X97180021Y-75415932D01*
X97200500Y-75339505D01*
X97200500Y-75108676D01*
X97209144Y-75079235D01*
X97215668Y-75049249D01*
X97219422Y-75044233D01*
X97220185Y-75041637D01*
X97236819Y-75020995D01*
X97287819Y-74969995D01*
X97349142Y-74936510D01*
X97418834Y-74941494D01*
G37*
%TD.AperFunction*%
%TA.AperFunction,Conductor*%
G36*
X99573362Y-72116423D02*
G01*
X99610082Y-72175866D01*
X99614500Y-72208672D01*
X99614500Y-76594167D01*
X99594815Y-76661206D01*
X99578181Y-76681848D01*
X98312181Y-77947848D01*
X98250858Y-77981333D01*
X98181166Y-77976349D01*
X98125233Y-77934477D01*
X98100816Y-77869013D01*
X98100500Y-77860167D01*
X98100500Y-72894300D01*
X98120185Y-72827261D01*
X98172989Y-72781506D01*
X98184142Y-72777051D01*
X98829015Y-72555151D01*
X98829022Y-72555146D01*
X98833627Y-72553131D01*
X98833956Y-72553884D01*
X98860768Y-72544242D01*
X98893082Y-72537816D01*
X99032750Y-72479962D01*
X99047861Y-72473704D01*
X99047861Y-72473703D01*
X99047863Y-72473703D01*
X99187162Y-72380626D01*
X99305626Y-72262162D01*
X99387398Y-72139781D01*
X99441010Y-72094976D01*
X99510335Y-72086269D01*
X99573362Y-72116423D01*
G37*
%TD.AperFunction*%
%TD*%
%TA.AperFunction,Conductor*%
%TO.N,/PWM_TH_O*%
G36*
X73065597Y-96056871D02*
G01*
X73069024Y-96065144D01*
X73068987Y-96066079D01*
X72978559Y-97193723D01*
X72974481Y-97201696D01*
X72965961Y-97204451D01*
X72964631Y-97204267D01*
X72344770Y-97081941D01*
X72337317Y-97076977D01*
X72337314Y-97076972D01*
X71985974Y-96550183D01*
X71984235Y-96541399D01*
X71989216Y-96533957D01*
X71990083Y-96533433D01*
X72867380Y-96054872D01*
X72872983Y-96053444D01*
X73057324Y-96053444D01*
X73065597Y-96056871D01*
G37*
%TD.AperFunction*%
%TD*%
%TA.AperFunction,Conductor*%
%TO.N,/E_M2_B*%
G36*
X84668626Y-71452451D02*
G01*
X84673591Y-71459903D01*
X84673758Y-71461039D01*
X84780488Y-72559102D01*
X84777878Y-72567668D01*
X84777116Y-72568507D01*
X84646117Y-72699506D01*
X84637844Y-72702933D01*
X84631740Y-72701215D01*
X83684254Y-72121799D01*
X83678984Y-72114559D01*
X83680376Y-72105713D01*
X83680596Y-72105367D01*
X84031597Y-71578340D01*
X84039029Y-71573357D01*
X84659846Y-71450693D01*
X84668626Y-71452451D01*
G37*
%TD.AperFunction*%
%TD*%
%TA.AperFunction,Conductor*%
%TO.N,GND_MOT*%
G36*
X112050000Y-101993265D02*
G01*
X112049870Y-101993579D01*
X112049868Y-101993587D01*
X112009500Y-102196530D01*
X112009500Y-102403469D01*
X112049868Y-102606412D01*
X112049870Y-102606420D01*
X112050000Y-102606733D01*
X112050000Y-104200000D01*
X108700000Y-104200000D01*
X108700000Y-101400500D01*
X112050000Y-101400500D01*
X112050000Y-101993265D01*
G37*
%TD.AperFunction*%
%TA.AperFunction,Conductor*%
G36*
X112050000Y-98344981D02*
G01*
X112029870Y-98393579D01*
X112029868Y-98393587D01*
X111989500Y-98596530D01*
X111989500Y-98803469D01*
X112029868Y-99006412D01*
X112029870Y-99006420D01*
X112050000Y-99055017D01*
X112050000Y-100274500D01*
X108700000Y-100274500D01*
X108700000Y-97300000D01*
X112050000Y-97300000D01*
X112050000Y-98344981D01*
G37*
%TD.AperFunction*%
%TD*%
%TA.AperFunction,Conductor*%
%TO.N,/E_M1_B*%
G36*
X98637314Y-71717483D02*
G01*
X98644767Y-71722447D01*
X98646525Y-71726683D01*
X98769819Y-72347491D01*
X98768069Y-72356273D01*
X98762150Y-72360833D01*
X97901851Y-72656863D01*
X97898044Y-72657500D01*
X97715558Y-72657500D01*
X97707285Y-72654073D01*
X97703858Y-72645800D01*
X97704318Y-72642553D01*
X97786670Y-72357510D01*
X98004511Y-71603498D01*
X98010099Y-71596503D01*
X98018015Y-71595268D01*
X98637314Y-71717483D01*
G37*
%TD.AperFunction*%
%TD*%
%TA.AperFunction,Conductor*%
%TO.N,/PWM_ANG_O*%
G36*
X114742777Y-98422600D02*
G01*
X115576092Y-98697769D01*
X115582873Y-98703617D01*
X115582884Y-98703639D01*
X116001454Y-99539251D01*
X116002095Y-99548183D01*
X115996233Y-99554952D01*
X115995947Y-99555090D01*
X114577098Y-100218278D01*
X114568152Y-100218677D01*
X114563871Y-100215952D01*
X114432582Y-100084663D01*
X114429155Y-100076390D01*
X114429342Y-100074309D01*
X114727596Y-98431619D01*
X114732446Y-98424092D01*
X114741198Y-98422198D01*
X114742777Y-98422600D01*
G37*
%TD.AperFunction*%
%TD*%
%TA.AperFunction,Conductor*%
%TO.N,/E_M2_A*%
G36*
X85851806Y-68683706D02*
G01*
X85851894Y-68683839D01*
X86444070Y-69599841D01*
X86445683Y-69608649D01*
X86442517Y-69614466D01*
X86311541Y-69745442D01*
X86303268Y-69748869D01*
X86302475Y-69748842D01*
X85191452Y-69673410D01*
X85183430Y-69669431D01*
X85180572Y-69660944D01*
X85180765Y-69659479D01*
X85303350Y-69039062D01*
X85308311Y-69031616D01*
X85835584Y-68680452D01*
X85844368Y-68678719D01*
X85851806Y-68683706D01*
G37*
%TD.AperFunction*%
%TD*%
%TA.AperFunction,Conductor*%
%TO.N,/IR_RX*%
G36*
X115410405Y-79421632D02*
G01*
X115593021Y-79457772D01*
X115600472Y-79462739D01*
X115602227Y-79466978D01*
X115763824Y-80283549D01*
X115762069Y-80292330D01*
X115756039Y-80296922D01*
X114487033Y-80718962D01*
X114478101Y-80718321D01*
X114475068Y-80716133D01*
X114343866Y-80584931D01*
X114340439Y-80576658D01*
X114341037Y-80572966D01*
X114763078Y-79303957D01*
X114768939Y-79297191D01*
X114776449Y-79296175D01*
X115410405Y-79421632D01*
G37*
%TD.AperFunction*%
%TD*%
%TA.AperFunction,Conductor*%
%TO.N,/E_M3_A*%
G36*
X112479500Y-68767935D02*
G01*
X112831636Y-69293487D01*
X112833394Y-69302268D01*
X112831636Y-69306513D01*
X112479500Y-69832064D01*
X112472048Y-69837029D01*
X112464756Y-69836117D01*
X111554166Y-69403174D01*
X111548166Y-69396527D01*
X111547490Y-69392608D01*
X111547490Y-69207391D01*
X111550917Y-69199118D01*
X111554162Y-69196827D01*
X112464757Y-68763881D01*
X112473699Y-68763424D01*
X112479500Y-68767935D01*
G37*
%TD.AperFunction*%
%TD*%
%TA.AperFunction,Conductor*%
%TO.N,/VBAT*%
G36*
X78284707Y-110910452D02*
G01*
X79400000Y-110931261D01*
X79384058Y-110913014D01*
X117336291Y-111001482D01*
X117403282Y-111021323D01*
X117448914Y-111074234D01*
X117460000Y-111125482D01*
X117460000Y-113676847D01*
X117440315Y-113743886D01*
X117387511Y-113789641D01*
X117336289Y-113800847D01*
X75029789Y-113899463D01*
X74962704Y-113879934D01*
X74916826Y-113827237D01*
X74905500Y-113775463D01*
X74905500Y-111026864D01*
X74925185Y-110959825D01*
X74977989Y-110914070D01*
X75029781Y-110902865D01*
X78284707Y-110910452D01*
G37*
%TD.AperFunction*%
%TD*%
%TA.AperFunction,Conductor*%
%TO.N,/VBAT*%
G36*
X75662904Y-109105065D02*
G01*
X75676179Y-109105500D01*
X75676192Y-109105500D01*
X76532248Y-109105500D01*
X76535818Y-109105266D01*
X76543929Y-109105000D01*
X76656071Y-109105000D01*
X76664182Y-109105266D01*
X76667752Y-109105500D01*
X77748483Y-109105500D01*
X77815522Y-109125185D01*
X77841862Y-109147913D01*
X79372287Y-110899543D01*
X79400000Y-110931261D01*
X78284686Y-110910451D01*
X78284740Y-110910452D01*
X78284678Y-110910450D01*
X78284740Y-110910451D01*
X77700023Y-110899542D01*
X75029581Y-110901285D01*
X74962529Y-110881644D01*
X74916739Y-110828870D01*
X74905500Y-110777285D01*
X74905500Y-109229500D01*
X74925185Y-109162461D01*
X74977989Y-109116706D01*
X75029500Y-109105500D01*
X75523808Y-109105500D01*
X75523821Y-109105500D01*
X75537095Y-109105065D01*
X75541120Y-109105000D01*
X75658880Y-109105000D01*
X75662904Y-109105065D01*
G37*
%TD.AperFunction*%
%TD*%
%TA.AperFunction,Conductor*%
%TO.N,/GLo*%
G36*
X114758183Y-83698183D02*
G01*
X115592359Y-84532359D01*
X115595786Y-84540632D01*
X115592359Y-84548905D01*
X115592284Y-84548979D01*
X114757731Y-85368636D01*
X114749428Y-85371989D01*
X114741838Y-85369102D01*
X113850433Y-84590658D01*
X113846457Y-84582637D01*
X113849317Y-84574151D01*
X113849842Y-84573589D01*
X113982426Y-84441006D01*
X114741728Y-83698092D01*
X114750038Y-83694757D01*
X114758183Y-83698183D01*
G37*
%TD.AperFunction*%
%TD*%
%TA.AperFunction,Conductor*%
%TO.N,/GLo*%
G36*
X112054316Y-81500015D02*
G01*
X112054416Y-81500257D01*
X112718910Y-83173179D01*
X112718779Y-83182133D01*
X112716309Y-83185771D01*
X112585583Y-83316497D01*
X112577310Y-83319924D01*
X112573341Y-83319230D01*
X111502158Y-82932845D01*
X110868053Y-82704118D01*
X110861433Y-82698087D01*
X110861017Y-82689142D01*
X110861151Y-82688789D01*
X111197478Y-81853798D01*
X111203744Y-81847408D01*
X112038983Y-81493801D01*
X112047935Y-81493732D01*
X112054316Y-81500015D01*
G37*
%TD.AperFunction*%
%TD*%
%TA.AperFunction,Conductor*%
%TO.N,/E_M3_B*%
G36*
X111209500Y-71307935D02*
G01*
X111561636Y-71833487D01*
X111563394Y-71842268D01*
X111561636Y-71846513D01*
X111209500Y-72372064D01*
X111202048Y-72377029D01*
X111194756Y-72376117D01*
X110284166Y-71943174D01*
X110278166Y-71936527D01*
X110277490Y-71932608D01*
X110277490Y-71747391D01*
X110280917Y-71739118D01*
X110284162Y-71736827D01*
X111194757Y-71303881D01*
X111203699Y-71303424D01*
X111209500Y-71307935D01*
G37*
%TD.AperFunction*%
%TD*%
%TA.AperFunction,Conductor*%
%TO.N,GND_MOT*%
G36*
X68609191Y-95518907D02*
G01*
X68619252Y-95532754D01*
X68621004Y-95531003D01*
X68650001Y-95560000D01*
X69484314Y-95560000D01*
X69479920Y-95564394D01*
X69427259Y-95655606D01*
X69400000Y-95757339D01*
X69400000Y-95862661D01*
X69427259Y-95964394D01*
X69479920Y-96055606D01*
X69484314Y-96060000D01*
X68650001Y-96060000D01*
X68650000Y-96060001D01*
X68650000Y-96507824D01*
X68649999Y-96507824D01*
X68656401Y-96567370D01*
X68656403Y-96567381D01*
X68706646Y-96702088D01*
X68706647Y-96702090D01*
X68792807Y-96817184D01*
X68792815Y-96817192D01*
X68907909Y-96903352D01*
X68907911Y-96903353D01*
X69042618Y-96953596D01*
X69042629Y-96953598D01*
X69102176Y-96960000D01*
X69549999Y-96960000D01*
X69550000Y-96959999D01*
X69550000Y-96125686D01*
X69554394Y-96130080D01*
X69645606Y-96182741D01*
X69747339Y-96210000D01*
X69852661Y-96210000D01*
X69954394Y-96182741D01*
X70045606Y-96130080D01*
X70050000Y-96125686D01*
X70050000Y-96959999D01*
X70050001Y-96960000D01*
X70497824Y-96960000D01*
X70557378Y-96953597D01*
X70561377Y-96952653D01*
X70584142Y-96950000D01*
X71390500Y-96950000D01*
X71448691Y-96968907D01*
X71484655Y-97018407D01*
X71489500Y-97049000D01*
X71489500Y-97163769D01*
X71522183Y-97328079D01*
X71522185Y-97328085D01*
X71586296Y-97482862D01*
X71617181Y-97529084D01*
X71679374Y-97622162D01*
X71797838Y-97740626D01*
X71937137Y-97833703D01*
X72091918Y-97897816D01*
X72171880Y-97913721D01*
X72207376Y-97920782D01*
X72260760Y-97950679D01*
X72286376Y-98006244D01*
X72287052Y-98019274D01*
X72277670Y-98685380D01*
X72257945Y-98743299D01*
X72207944Y-98778562D01*
X72197994Y-98781084D01*
X72091920Y-98802183D01*
X72091914Y-98802185D01*
X71937137Y-98866296D01*
X71797838Y-98959374D01*
X71797834Y-98959377D01*
X71679377Y-99077834D01*
X71679374Y-99077838D01*
X71586296Y-99217137D01*
X71522185Y-99371914D01*
X71522183Y-99371920D01*
X71489500Y-99536230D01*
X71489500Y-99703769D01*
X71522183Y-99868079D01*
X71522185Y-99868085D01*
X71586296Y-100022862D01*
X71617181Y-100069084D01*
X71679374Y-100162162D01*
X71797838Y-100280626D01*
X71937137Y-100373703D01*
X72091918Y-100437816D01*
X72171701Y-100453685D01*
X72225084Y-100483581D01*
X72250701Y-100539146D01*
X72251377Y-100552176D01*
X72249999Y-100649999D01*
X72250000Y-100649999D01*
X72250000Y-100650000D01*
X73300500Y-100650000D01*
X73358691Y-100668907D01*
X73394655Y-100718407D01*
X73399500Y-100749000D01*
X73399500Y-104639564D01*
X73419570Y-104714464D01*
X73419979Y-104715989D01*
X73441363Y-104753027D01*
X73459540Y-104784511D01*
X74934540Y-106259511D01*
X74934539Y-106259511D01*
X74990489Y-106315460D01*
X75059007Y-106355019D01*
X75059011Y-106355021D01*
X75135435Y-106375499D01*
X75135437Y-106375500D01*
X75135438Y-106375500D01*
X76182793Y-106375500D01*
X76240984Y-106394407D01*
X76252797Y-106404496D01*
X78579297Y-108730996D01*
X78607074Y-108785513D01*
X78597503Y-108845945D01*
X78554238Y-108889210D01*
X78509293Y-108900000D01*
X76667758Y-108900000D01*
X76665892Y-108899500D01*
X76534108Y-108899500D01*
X76532242Y-108900000D01*
X75676179Y-108900000D01*
X75668551Y-108899500D01*
X75665892Y-108899500D01*
X75534108Y-108899500D01*
X75531449Y-108899500D01*
X75523821Y-108900000D01*
X71100000Y-108900000D01*
X68100500Y-108900000D01*
X68100500Y-98266230D01*
X68949500Y-98266230D01*
X68949500Y-98433769D01*
X68982183Y-98598079D01*
X68982185Y-98598085D01*
X69046296Y-98752862D01*
X69065154Y-98781084D01*
X69139374Y-98892162D01*
X69257838Y-99010626D01*
X69397137Y-99103703D01*
X69551918Y-99167816D01*
X69716233Y-99200500D01*
X69716234Y-99200500D01*
X69883766Y-99200500D01*
X69883767Y-99200500D01*
X70048082Y-99167816D01*
X70202863Y-99103703D01*
X70342162Y-99010626D01*
X70460626Y-98892162D01*
X70553703Y-98752863D01*
X70617816Y-98598082D01*
X70650500Y-98433767D01*
X70650500Y-98266233D01*
X70617816Y-98101918D01*
X70553703Y-97947137D01*
X70460626Y-97807838D01*
X70342162Y-97689374D01*
X70217220Y-97605890D01*
X70202862Y-97596296D01*
X70048085Y-97532185D01*
X70048079Y-97532183D01*
X69883769Y-97499500D01*
X69883767Y-97499500D01*
X69716233Y-97499500D01*
X69716230Y-97499500D01*
X69551920Y-97532183D01*
X69551914Y-97532185D01*
X69397137Y-97596296D01*
X69257838Y-97689374D01*
X69257834Y-97689377D01*
X69139377Y-97807834D01*
X69139374Y-97807838D01*
X69046296Y-97947137D01*
X68982185Y-98101914D01*
X68982183Y-98101920D01*
X68949500Y-98266230D01*
X68100500Y-98266230D01*
X68100500Y-95599000D01*
X68119407Y-95540809D01*
X68168907Y-95504845D01*
X68199500Y-95500000D01*
X68551000Y-95500000D01*
X68609191Y-95518907D01*
G37*
%TD.AperFunction*%
%TA.AperFunction,Conductor*%
G36*
X79335017Y-93386759D02*
G01*
X79383252Y-93424403D01*
X79400207Y-93479807D01*
X79400207Y-93566598D01*
X79414382Y-93619500D01*
X79434316Y-93693896D01*
X79500203Y-93808015D01*
X79500205Y-93808017D01*
X79500207Y-93808020D01*
X79593393Y-93901206D01*
X79593395Y-93901207D01*
X79593397Y-93901209D01*
X79707517Y-93967096D01*
X79707515Y-93967096D01*
X79707519Y-93967097D01*
X79707521Y-93967098D01*
X79834815Y-94001206D01*
X79834817Y-94001206D01*
X79966597Y-94001206D01*
X79966599Y-94001206D01*
X80093893Y-93967098D01*
X80093895Y-93967096D01*
X80093897Y-93967096D01*
X80208016Y-93901209D01*
X80208016Y-93901208D01*
X80208021Y-93901206D01*
X80279732Y-93829494D01*
X80334247Y-93801719D01*
X80349734Y-93800500D01*
X84234521Y-93800500D01*
X84292712Y-93819407D01*
X84304525Y-93829496D01*
X92970504Y-102495475D01*
X92998281Y-102549992D01*
X92999500Y-102565479D01*
X92999500Y-108801000D01*
X92980593Y-108859191D01*
X92931093Y-108895155D01*
X92900500Y-108900000D01*
X85565979Y-108900000D01*
X85507788Y-108881093D01*
X85495975Y-108871004D01*
X85259510Y-108634539D01*
X85257892Y-108633605D01*
X85257892Y-108633604D01*
X85190989Y-108594979D01*
X85190985Y-108594977D01*
X85114564Y-108574500D01*
X85114562Y-108574500D01*
X84839479Y-108574500D01*
X84781288Y-108555593D01*
X84745324Y-108506093D01*
X84745324Y-108444907D01*
X84769475Y-108405496D01*
X87645475Y-105529496D01*
X87699992Y-105501719D01*
X87715479Y-105500500D01*
X91251679Y-105500500D01*
X91309870Y-105519407D01*
X91321676Y-105529490D01*
X91392686Y-105600500D01*
X91392688Y-105600501D01*
X91392690Y-105600503D01*
X91506810Y-105666390D01*
X91506808Y-105666390D01*
X91506812Y-105666391D01*
X91506814Y-105666392D01*
X91634108Y-105700500D01*
X91634110Y-105700500D01*
X91765890Y-105700500D01*
X91765892Y-105700500D01*
X91893186Y-105666392D01*
X91893188Y-105666390D01*
X91893190Y-105666390D01*
X92007309Y-105600503D01*
X92007309Y-105600502D01*
X92007314Y-105600500D01*
X92100500Y-105507314D01*
X92166392Y-105393186D01*
X92200500Y-105265892D01*
X92200500Y-105134108D01*
X92166392Y-105006814D01*
X92166390Y-105006811D01*
X92166390Y-105006809D01*
X92100503Y-104892690D01*
X92100501Y-104892688D01*
X92100500Y-104892686D01*
X92007314Y-104799500D01*
X92007311Y-104799498D01*
X92007309Y-104799496D01*
X91893189Y-104733609D01*
X91893191Y-104733609D01*
X91827419Y-104715986D01*
X91765892Y-104699500D01*
X91634108Y-104699500D01*
X91572581Y-104715986D01*
X91506809Y-104733609D01*
X91392690Y-104799496D01*
X91392689Y-104799497D01*
X91392686Y-104799499D01*
X91392686Y-104799500D01*
X91321680Y-104870505D01*
X91267166Y-104898281D01*
X91251679Y-104899500D01*
X87589562Y-104899500D01*
X87510438Y-104899500D01*
X87463661Y-104912033D01*
X87434007Y-104919979D01*
X87365493Y-104959536D01*
X84454525Y-107870504D01*
X84400008Y-107898281D01*
X84384521Y-107899500D01*
X82866924Y-107899500D01*
X82808733Y-107880593D01*
X82772769Y-107831093D01*
X82771297Y-107774879D01*
X82800500Y-107665892D01*
X82800500Y-107534108D01*
X82766392Y-107406814D01*
X82766390Y-107406811D01*
X82766390Y-107406809D01*
X82700503Y-107292690D01*
X82700501Y-107292688D01*
X82700500Y-107292686D01*
X82607314Y-107199500D01*
X82607311Y-107199498D01*
X82607309Y-107199496D01*
X82493189Y-107133609D01*
X82493191Y-107133609D01*
X82443799Y-107120375D01*
X82365892Y-107099500D01*
X82234108Y-107099500D01*
X82156200Y-107120375D01*
X82106809Y-107133609D01*
X81992690Y-107199496D01*
X81992689Y-107199497D01*
X81992686Y-107199499D01*
X81992686Y-107199500D01*
X81921680Y-107270505D01*
X81867166Y-107298281D01*
X81851679Y-107299500D01*
X81324500Y-107299500D01*
X81266309Y-107280593D01*
X81230345Y-107231093D01*
X81225500Y-107200500D01*
X81225500Y-106947238D01*
X81225499Y-106947233D01*
X81222725Y-106917655D01*
X81222725Y-106917651D01*
X81179116Y-106793025D01*
X81100711Y-106686789D01*
X81100706Y-106686785D01*
X80994477Y-106608384D01*
X80938506Y-106588799D01*
X80889826Y-106551733D01*
X80872230Y-106493132D01*
X80892439Y-106435381D01*
X80940066Y-106401380D01*
X81101305Y-106347951D01*
X81248035Y-106257446D01*
X81369946Y-106135535D01*
X81460451Y-105988806D01*
X81514681Y-105825148D01*
X81525000Y-105724155D01*
X81525000Y-105675001D01*
X81524999Y-105675000D01*
X80649000Y-105675000D01*
X80590809Y-105656093D01*
X80554845Y-105606593D01*
X80550000Y-105576000D01*
X80550000Y-105274000D01*
X80568907Y-105215809D01*
X80618407Y-105179845D01*
X80649000Y-105175000D01*
X81524998Y-105175000D01*
X81524999Y-105174999D01*
X81524999Y-105125845D01*
X81514682Y-105024857D01*
X81514679Y-105024845D01*
X81460451Y-104861193D01*
X81369946Y-104714464D01*
X81248035Y-104592553D01*
X81136506Y-104523760D01*
X81096905Y-104477119D01*
X81092282Y-104416108D01*
X81124404Y-104364033D01*
X81181000Y-104340783D01*
X81188479Y-104340500D01*
X83735488Y-104340500D01*
X83735490Y-104340500D01*
X83824634Y-104316614D01*
X83854276Y-104299500D01*
X83904558Y-104270470D01*
X85280470Y-102894558D01*
X85326614Y-102814634D01*
X85331878Y-102794988D01*
X85337691Y-102773296D01*
X85343007Y-102753453D01*
X85350500Y-102725490D01*
X85350500Y-99689743D01*
X85369407Y-99631552D01*
X85379490Y-99619745D01*
X85480520Y-99518716D01*
X85559577Y-99381784D01*
X85600500Y-99229057D01*
X85600500Y-99070943D01*
X85559577Y-98918216D01*
X85480520Y-98781284D01*
X85368716Y-98669480D01*
X85231784Y-98590423D01*
X85079057Y-98549500D01*
X84920943Y-98549500D01*
X84768216Y-98590423D01*
X84631284Y-98669480D01*
X84519480Y-98781284D01*
X84440423Y-98918216D01*
X84399500Y-99070943D01*
X84399500Y-99229057D01*
X84440423Y-99381784D01*
X84519480Y-99518716D01*
X84620505Y-99619741D01*
X84648281Y-99674256D01*
X84649500Y-99689743D01*
X84649500Y-102493156D01*
X84630593Y-102551347D01*
X84620504Y-102563160D01*
X83573160Y-103610504D01*
X83518643Y-103638281D01*
X83503156Y-103639500D01*
X80384510Y-103639500D01*
X80329951Y-103654118D01*
X80295361Y-103663387D01*
X80215445Y-103709527D01*
X78804468Y-105120504D01*
X78749951Y-105148281D01*
X78734464Y-105149500D01*
X76040459Y-105149500D01*
X75982268Y-105130593D01*
X75954722Y-105099999D01*
X75950500Y-105092686D01*
X75857314Y-104999500D01*
X75857311Y-104999498D01*
X75857309Y-104999496D01*
X75743189Y-104933609D01*
X75743191Y-104933609D01*
X75692318Y-104919978D01*
X75615892Y-104899500D01*
X75484108Y-104899500D01*
X75407682Y-104919978D01*
X75356809Y-104933609D01*
X75242690Y-104999496D01*
X75149496Y-105092690D01*
X75083609Y-105206809D01*
X75053640Y-105318657D01*
X75020316Y-105369972D01*
X74963194Y-105391898D01*
X74904094Y-105376062D01*
X74888009Y-105363038D01*
X74029496Y-104504525D01*
X74001719Y-104450008D01*
X74000500Y-104434521D01*
X74000500Y-97474108D01*
X75199500Y-97474108D01*
X75199500Y-97605892D01*
X75229579Y-97718151D01*
X75233609Y-97733190D01*
X75299496Y-97847309D01*
X75299498Y-97847311D01*
X75299500Y-97847314D01*
X75392686Y-97940500D01*
X75392688Y-97940501D01*
X75392690Y-97940503D01*
X75506810Y-98006390D01*
X75506808Y-98006390D01*
X75506812Y-98006391D01*
X75506814Y-98006392D01*
X75634108Y-98040500D01*
X75634110Y-98040500D01*
X75765890Y-98040500D01*
X75765892Y-98040500D01*
X75893186Y-98006392D01*
X75893188Y-98006390D01*
X75893190Y-98006390D01*
X76007309Y-97940503D01*
X76007309Y-97940502D01*
X76007314Y-97940500D01*
X76100500Y-97847314D01*
X76123294Y-97807834D01*
X76166390Y-97733190D01*
X76166390Y-97733188D01*
X76166392Y-97733186D01*
X76200500Y-97605892D01*
X76200500Y-97576189D01*
X76219407Y-97517998D01*
X76229496Y-97506185D01*
X77756185Y-95979496D01*
X77810702Y-95951719D01*
X77826189Y-95950500D01*
X82913810Y-95950500D01*
X82972001Y-95969407D01*
X82983814Y-95979496D01*
X84284788Y-97280470D01*
X84354053Y-97320460D01*
X84364712Y-97326614D01*
X84453856Y-97350500D01*
X84560257Y-97350500D01*
X84618448Y-97369407D01*
X84630254Y-97379490D01*
X84731284Y-97480520D01*
X84868216Y-97559577D01*
X85020943Y-97600500D01*
X85020945Y-97600500D01*
X85179055Y-97600500D01*
X85179057Y-97600500D01*
X85331784Y-97559577D01*
X85468716Y-97480520D01*
X85580520Y-97368716D01*
X85659577Y-97231784D01*
X85700500Y-97079057D01*
X85700500Y-96920943D01*
X85659577Y-96768216D01*
X85580520Y-96631284D01*
X85468716Y-96519480D01*
X85331784Y-96440423D01*
X85179057Y-96399500D01*
X85020943Y-96399500D01*
X84868216Y-96440423D01*
X84731281Y-96519482D01*
X84693226Y-96557537D01*
X84638709Y-96585314D01*
X84578277Y-96575742D01*
X84553219Y-96557537D01*
X83945690Y-95950008D01*
X83315212Y-95319530D01*
X83235288Y-95273386D01*
X83146144Y-95249500D01*
X77593856Y-95249500D01*
X77504712Y-95273386D01*
X77504711Y-95273386D01*
X77504709Y-95273387D01*
X77424790Y-95319529D01*
X75733814Y-97010504D01*
X75679297Y-97038281D01*
X75663810Y-97039500D01*
X75634108Y-97039500D01*
X75556200Y-97060375D01*
X75506809Y-97073609D01*
X75392690Y-97139496D01*
X75299496Y-97232690D01*
X75233609Y-97346809D01*
X75224851Y-97379496D01*
X75199500Y-97474108D01*
X74000500Y-97474108D01*
X74000500Y-96065478D01*
X74019407Y-96007287D01*
X74029490Y-95995480D01*
X74860383Y-95164586D01*
X74871319Y-95155144D01*
X75965749Y-94341756D01*
X75997451Y-94326071D01*
X76022317Y-94318926D01*
X76049651Y-94315079D01*
X77539530Y-94315079D01*
X77597721Y-94333986D01*
X77609527Y-94344069D01*
X77680537Y-94415079D01*
X77680539Y-94415080D01*
X77680541Y-94415082D01*
X77794661Y-94480969D01*
X77794659Y-94480969D01*
X77794663Y-94480970D01*
X77794665Y-94480971D01*
X77921959Y-94515079D01*
X77921961Y-94515079D01*
X78053741Y-94515079D01*
X78053743Y-94515079D01*
X78181037Y-94480971D01*
X78181039Y-94480969D01*
X78181041Y-94480969D01*
X78295160Y-94415082D01*
X78295160Y-94415081D01*
X78295165Y-94415079D01*
X78388351Y-94321893D01*
X78401280Y-94299500D01*
X78454241Y-94207769D01*
X78454241Y-94207767D01*
X78454243Y-94207765D01*
X78487108Y-94085108D01*
X78520432Y-94033795D01*
X78577554Y-94011868D01*
X78582735Y-94011732D01*
X78675549Y-94011732D01*
X78675551Y-94011732D01*
X78802845Y-93977624D01*
X78802847Y-93977622D01*
X78802849Y-93977622D01*
X78916968Y-93911735D01*
X78916968Y-93911734D01*
X78916973Y-93911732D01*
X79010159Y-93818546D01*
X79050023Y-93749500D01*
X79076049Y-93704422D01*
X79076049Y-93704420D01*
X79076051Y-93704418D01*
X79110159Y-93577124D01*
X79110159Y-93506255D01*
X79110708Y-93504563D01*
X79110217Y-93502853D01*
X79120112Y-93475619D01*
X79129066Y-93448064D01*
X79130505Y-93447017D01*
X79131113Y-93445347D01*
X79155106Y-93429144D01*
X79178566Y-93412100D01*
X79181764Y-93411121D01*
X79273870Y-93384657D01*
X79335017Y-93386759D01*
G37*
%TD.AperFunction*%
%TA.AperFunction,Conductor*%
G36*
X104242712Y-101969407D02*
G01*
X104254525Y-101979496D01*
X104305525Y-102030496D01*
X104333302Y-102085013D01*
X104323731Y-102145445D01*
X104280466Y-102188710D01*
X104240496Y-102198305D01*
X104240542Y-102198653D01*
X104237235Y-102199088D01*
X104235521Y-102199500D01*
X104234108Y-102199500D01*
X104174436Y-102215489D01*
X104106809Y-102233609D01*
X103992690Y-102299496D01*
X103899496Y-102392690D01*
X103833609Y-102506809D01*
X103818510Y-102563160D01*
X103799500Y-102634108D01*
X103799500Y-102765892D01*
X103825315Y-102862234D01*
X103833609Y-102893190D01*
X103899496Y-103007309D01*
X103899498Y-103007311D01*
X103899500Y-103007314D01*
X103992686Y-103100500D01*
X103992688Y-103100501D01*
X103992690Y-103100503D01*
X104106810Y-103166390D01*
X104106808Y-103166390D01*
X104106812Y-103166391D01*
X104106814Y-103166392D01*
X104234108Y-103200500D01*
X104234110Y-103200500D01*
X104334521Y-103200500D01*
X104392712Y-103219407D01*
X104404525Y-103229496D01*
X104970504Y-103795475D01*
X104998281Y-103849992D01*
X104999500Y-103865479D01*
X104999500Y-108801000D01*
X104980593Y-108859191D01*
X104931093Y-108895155D01*
X104900500Y-108900000D01*
X94369830Y-108900000D01*
X94362232Y-108897531D01*
X94354343Y-108898781D01*
X94333687Y-108888256D01*
X94311639Y-108881093D01*
X94299826Y-108871004D01*
X94261083Y-108832261D01*
X94233306Y-108777744D01*
X94232087Y-108762257D01*
X94232087Y-104802517D01*
X94250994Y-104744326D01*
X94261077Y-104732519D01*
X95135474Y-103858121D01*
X95189991Y-103830345D01*
X95205478Y-103829126D01*
X95305890Y-103829126D01*
X95305892Y-103829126D01*
X95433186Y-103795018D01*
X95433188Y-103795016D01*
X95433190Y-103795016D01*
X95547309Y-103729129D01*
X95547309Y-103729128D01*
X95547314Y-103729126D01*
X95640500Y-103635940D01*
X95681181Y-103565479D01*
X95706390Y-103521816D01*
X95706390Y-103521814D01*
X95706392Y-103521812D01*
X95740500Y-103394518D01*
X95740500Y-103262734D01*
X95706392Y-103135440D01*
X95706390Y-103135437D01*
X95706390Y-103135435D01*
X95640503Y-103021316D01*
X95640501Y-103021314D01*
X95640500Y-103021312D01*
X95547314Y-102928126D01*
X95547311Y-102928124D01*
X95547309Y-102928122D01*
X95433189Y-102862235D01*
X95433191Y-102862235D01*
X95383799Y-102849001D01*
X95305892Y-102828126D01*
X95174108Y-102828126D01*
X95096200Y-102849001D01*
X95046809Y-102862235D01*
X94932690Y-102928122D01*
X94839496Y-103021316D01*
X94773609Y-103135435D01*
X94761812Y-103179464D01*
X94748745Y-103228233D01*
X94739500Y-103262735D01*
X94739500Y-103363146D01*
X94720593Y-103421337D01*
X94710504Y-103433150D01*
X93769504Y-104374150D01*
X93714987Y-104401927D01*
X93654555Y-104392356D01*
X93611290Y-104349091D01*
X93600500Y-104304146D01*
X93600500Y-102360439D01*
X93600500Y-102360438D01*
X93591485Y-102326793D01*
X93591485Y-102326792D01*
X93591485Y-102326791D01*
X93580022Y-102284012D01*
X93580020Y-102284008D01*
X93540463Y-102215493D01*
X93540461Y-102215491D01*
X93540460Y-102215489D01*
X93444472Y-102119501D01*
X93416697Y-102064987D01*
X93426268Y-102004555D01*
X93469533Y-101961290D01*
X93514478Y-101950500D01*
X93589562Y-101950500D01*
X104184521Y-101950500D01*
X104242712Y-101969407D01*
G37*
%TD.AperFunction*%
%TA.AperFunction,Conductor*%
G36*
X90802566Y-91700122D02*
G01*
X101248316Y-92200000D01*
X111701262Y-92100935D01*
X111759627Y-92119290D01*
X111796058Y-92168447D01*
X111801191Y-92198736D01*
X111850586Y-96290496D01*
X117599684Y-96242982D01*
X117658027Y-96261408D01*
X117694399Y-96310609D01*
X117699500Y-96341979D01*
X117699500Y-108801000D01*
X117680593Y-108859191D01*
X117631093Y-108895155D01*
X117600500Y-108900000D01*
X107994121Y-108900000D01*
X107935930Y-108881093D01*
X107899966Y-108831593D01*
X107898494Y-108826623D01*
X107895624Y-108815911D01*
X107866392Y-108706814D01*
X107866390Y-108706811D01*
X107866390Y-108706809D01*
X107800503Y-108592690D01*
X107800501Y-108592688D01*
X107800500Y-108592686D01*
X107729494Y-108521680D01*
X107701719Y-108467166D01*
X107700500Y-108451679D01*
X107700500Y-102160437D01*
X107700499Y-102160435D01*
X107696482Y-102145445D01*
X107680021Y-102084011D01*
X107640460Y-102015489D01*
X107640459Y-102015488D01*
X107629494Y-102004522D01*
X107601718Y-101950005D01*
X107600500Y-101934521D01*
X107600500Y-101834109D01*
X107586480Y-101781784D01*
X107566392Y-101706814D01*
X107566390Y-101706811D01*
X107566390Y-101706809D01*
X107500503Y-101592690D01*
X107500501Y-101592688D01*
X107500500Y-101592686D01*
X107477315Y-101569501D01*
X107449540Y-101514987D01*
X107459111Y-101454555D01*
X107502376Y-101411290D01*
X107547321Y-101400500D01*
X108700000Y-101400500D01*
X108700000Y-104200000D01*
X112050000Y-104200000D01*
X112050000Y-102606734D01*
X112129058Y-102797597D01*
X112216274Y-102928126D01*
X112244023Y-102969655D01*
X112390345Y-103115977D01*
X112562402Y-103230941D01*
X112753580Y-103310130D01*
X112956535Y-103350500D01*
X112956536Y-103350500D01*
X113163464Y-103350500D01*
X113163465Y-103350500D01*
X113366420Y-103310130D01*
X113557598Y-103230941D01*
X113729655Y-103115977D01*
X113875977Y-102969655D01*
X113990941Y-102797598D01*
X114070130Y-102606420D01*
X114110500Y-102403465D01*
X114110500Y-102276575D01*
X114129407Y-102218384D01*
X114178907Y-102182420D01*
X114240093Y-102182420D01*
X114289593Y-102218384D01*
X114299277Y-102234849D01*
X114527283Y-102725488D01*
X114540279Y-102753453D01*
X114549500Y-102795175D01*
X114549500Y-103169746D01*
X114549501Y-103169758D01*
X114561132Y-103228227D01*
X114561134Y-103228233D01*
X114605445Y-103294548D01*
X114605448Y-103294552D01*
X114671769Y-103338867D01*
X114716231Y-103347711D01*
X114730241Y-103350498D01*
X114730246Y-103350498D01*
X114730252Y-103350500D01*
X114730253Y-103350500D01*
X116469747Y-103350500D01*
X116469748Y-103350500D01*
X116528231Y-103338867D01*
X116594552Y-103294552D01*
X116638867Y-103228231D01*
X116650500Y-103169748D01*
X116650500Y-101430252D01*
X116638867Y-101371769D01*
X116594552Y-101305448D01*
X116579582Y-101295445D01*
X116528233Y-101261134D01*
X116528231Y-101261133D01*
X116528228Y-101261132D01*
X116528227Y-101261132D01*
X116469758Y-101249501D01*
X116469748Y-101249500D01*
X116469747Y-101249500D01*
X115947784Y-101249500D01*
X115924334Y-101246683D01*
X114691437Y-100946092D01*
X114644885Y-100919914D01*
X114584511Y-100859540D01*
X114584508Y-100859538D01*
X114515992Y-100819980D01*
X114515988Y-100819978D01*
X114475776Y-100809203D01*
X114424462Y-100775879D01*
X114402536Y-100718757D01*
X114418372Y-100659657D01*
X114431393Y-100643577D01*
X114663844Y-100411125D01*
X114691915Y-100391449D01*
X116043266Y-99759811D01*
X116085183Y-99750500D01*
X116449747Y-99750500D01*
X116449748Y-99750500D01*
X116508231Y-99738867D01*
X116574552Y-99694552D01*
X116618867Y-99628231D01*
X116630500Y-99569748D01*
X116630500Y-97830252D01*
X116618867Y-97771769D01*
X116574552Y-97705448D01*
X116574548Y-97705445D01*
X116508233Y-97661134D01*
X116508231Y-97661133D01*
X116508228Y-97661132D01*
X116508227Y-97661132D01*
X116449758Y-97649501D01*
X116449748Y-97649500D01*
X114710252Y-97649500D01*
X114710251Y-97649500D01*
X114710241Y-97649501D01*
X114651772Y-97661132D01*
X114651766Y-97661134D01*
X114585451Y-97705445D01*
X114585445Y-97705451D01*
X114541134Y-97771766D01*
X114541132Y-97771772D01*
X114529501Y-97830241D01*
X114529500Y-97830253D01*
X114529500Y-98366696D01*
X114526225Y-98390113D01*
X114526270Y-98390122D01*
X114526073Y-98391204D01*
X114525704Y-98393847D01*
X114525400Y-98394911D01*
X114241484Y-99958629D01*
X114214081Y-100010946D01*
X113979526Y-100245503D01*
X113925009Y-100273281D01*
X113909522Y-100274500D01*
X112050000Y-100274500D01*
X112050000Y-99055018D01*
X112109058Y-99197597D01*
X112224020Y-99369651D01*
X112224023Y-99369655D01*
X112370345Y-99515977D01*
X112542402Y-99630941D01*
X112733580Y-99710130D01*
X112936535Y-99750500D01*
X112936536Y-99750500D01*
X113143464Y-99750500D01*
X113143465Y-99750500D01*
X113346420Y-99710130D01*
X113537598Y-99630941D01*
X113709655Y-99515977D01*
X113855977Y-99369655D01*
X113970941Y-99197598D01*
X114050130Y-99006420D01*
X114090500Y-98803465D01*
X114090500Y-98596535D01*
X114050130Y-98393580D01*
X113970941Y-98202402D01*
X113855977Y-98030345D01*
X113709655Y-97884023D01*
X113654716Y-97847314D01*
X113537597Y-97769058D01*
X113346418Y-97689869D01*
X113143467Y-97649500D01*
X113143465Y-97649500D01*
X112936535Y-97649500D01*
X112936532Y-97649500D01*
X112733581Y-97689869D01*
X112542402Y-97769058D01*
X112370348Y-97884020D01*
X112224020Y-98030348D01*
X112109058Y-98202402D01*
X112050000Y-98344980D01*
X112050000Y-97300000D01*
X108700000Y-97300000D01*
X108700000Y-100274500D01*
X106872197Y-100274500D01*
X106814006Y-100255593D01*
X106778042Y-100206093D01*
X106778042Y-100144907D01*
X106804755Y-100107118D01*
X106802725Y-100105088D01*
X106807311Y-100100501D01*
X106807314Y-100100500D01*
X106900500Y-100007314D01*
X106911033Y-99989070D01*
X106966390Y-99893190D01*
X106966390Y-99893188D01*
X106966392Y-99893186D01*
X107000500Y-99765892D01*
X107000500Y-99634108D01*
X106966392Y-99506814D01*
X106966390Y-99506811D01*
X106966390Y-99506809D01*
X106900503Y-99392690D01*
X106900501Y-99392688D01*
X106900500Y-99392686D01*
X106829494Y-99321680D01*
X106801719Y-99267166D01*
X106800500Y-99251679D01*
X106800500Y-96860437D01*
X106800499Y-96860435D01*
X106780021Y-96784011D01*
X106780020Y-96784009D01*
X106763763Y-96755850D01*
X106750500Y-96706351D01*
X106750500Y-96584109D01*
X106746015Y-96567370D01*
X106716392Y-96456814D01*
X106716390Y-96456811D01*
X106716390Y-96456809D01*
X106650503Y-96342690D01*
X106650501Y-96342688D01*
X106650500Y-96342686D01*
X106557314Y-96249500D01*
X106557311Y-96249498D01*
X106557309Y-96249496D01*
X106443189Y-96183609D01*
X106443191Y-96183609D01*
X106393799Y-96170375D01*
X106315892Y-96149500D01*
X106184108Y-96149500D01*
X106106200Y-96170375D01*
X106056809Y-96183609D01*
X105942690Y-96249496D01*
X105849496Y-96342690D01*
X105783609Y-96456809D01*
X105783608Y-96456814D01*
X105749500Y-96584108D01*
X105749500Y-96715892D01*
X105760207Y-96755850D01*
X105783609Y-96843190D01*
X105849496Y-96957309D01*
X105849498Y-96957311D01*
X105849500Y-96957314D01*
X105942686Y-97050500D01*
X105942688Y-97050501D01*
X105942690Y-97050503D01*
X106056810Y-97116390D01*
X106056811Y-97116390D01*
X106056814Y-97116392D01*
X106126124Y-97134963D01*
X106177437Y-97168286D01*
X106199364Y-97225407D01*
X106199500Y-97230589D01*
X106199500Y-99251679D01*
X106180593Y-99309870D01*
X106170509Y-99321676D01*
X106125796Y-99366390D01*
X106099497Y-99392689D01*
X106099496Y-99392690D01*
X106033609Y-99506809D01*
X106033608Y-99506814D01*
X105999500Y-99634108D01*
X105999500Y-99765892D01*
X106026882Y-99868085D01*
X106033609Y-99893190D01*
X106099496Y-100007309D01*
X106099498Y-100007311D01*
X106099500Y-100007314D01*
X106192686Y-100100500D01*
X106192688Y-100100501D01*
X106197275Y-100105088D01*
X106195128Y-100107234D01*
X106222719Y-100147358D01*
X106221133Y-100208523D01*
X106183898Y-100257074D01*
X106127803Y-100274500D01*
X98740479Y-100274500D01*
X98682288Y-100255593D01*
X98670475Y-100245504D01*
X97293392Y-98868421D01*
X99133813Y-98868421D01*
X99133813Y-99000205D01*
X99163892Y-99112464D01*
X99167922Y-99127503D01*
X99233809Y-99241622D01*
X99233811Y-99241624D01*
X99233813Y-99241627D01*
X99326999Y-99334813D01*
X99327001Y-99334814D01*
X99327003Y-99334816D01*
X99441123Y-99400703D01*
X99441121Y-99400703D01*
X99441125Y-99400704D01*
X99441127Y-99400705D01*
X99568421Y-99434813D01*
X99568423Y-99434813D01*
X99700203Y-99434813D01*
X99700205Y-99434813D01*
X99827499Y-99400705D01*
X99827501Y-99400703D01*
X99827503Y-99400703D01*
X99941622Y-99334816D01*
X99941622Y-99334815D01*
X99941627Y-99334813D01*
X100012632Y-99263807D01*
X100067147Y-99236032D01*
X100082634Y-99234813D01*
X100105250Y-99234813D01*
X100105250Y-99234812D01*
X100181676Y-99214334D01*
X100250198Y-99174773D01*
X100278172Y-99146798D01*
X100306148Y-99118824D01*
X100369727Y-99055244D01*
X100424243Y-99027466D01*
X100484675Y-99037037D01*
X100527940Y-99080301D01*
X100531195Y-99087361D01*
X100533609Y-99093189D01*
X100599496Y-99207309D01*
X100599498Y-99207311D01*
X100599500Y-99207314D01*
X100692686Y-99300500D01*
X100692688Y-99300501D01*
X100692690Y-99300503D01*
X100806810Y-99366390D01*
X100806808Y-99366390D01*
X100806812Y-99366391D01*
X100806814Y-99366392D01*
X100934108Y-99400500D01*
X100934110Y-99400500D01*
X101065890Y-99400500D01*
X101065892Y-99400500D01*
X101193186Y-99366392D01*
X101193188Y-99366390D01*
X101193190Y-99366390D01*
X101307309Y-99300503D01*
X101307309Y-99300502D01*
X101307314Y-99300500D01*
X101400500Y-99207314D01*
X101423304Y-99167816D01*
X101466390Y-99093190D01*
X101466390Y-99093188D01*
X101466392Y-99093186D01*
X101500500Y-98965892D01*
X101500500Y-98855535D01*
X101502968Y-98847937D01*
X101501719Y-98840048D01*
X101512243Y-98819392D01*
X101519407Y-98797344D01*
X101529496Y-98785531D01*
X101580919Y-98734108D01*
X103999500Y-98734108D01*
X103999500Y-98865892D01*
X104022037Y-98950001D01*
X104033609Y-98993190D01*
X104099496Y-99107309D01*
X104099498Y-99107311D01*
X104099500Y-99107314D01*
X104192686Y-99200500D01*
X104192688Y-99200501D01*
X104192690Y-99200503D01*
X104306810Y-99266390D01*
X104306808Y-99266390D01*
X104306812Y-99266391D01*
X104306814Y-99266392D01*
X104434108Y-99300500D01*
X104434110Y-99300500D01*
X104565890Y-99300500D01*
X104565892Y-99300500D01*
X104693186Y-99266392D01*
X104693188Y-99266390D01*
X104693190Y-99266390D01*
X104807309Y-99200503D01*
X104807309Y-99200502D01*
X104807314Y-99200500D01*
X104900500Y-99107314D01*
X104941075Y-99037037D01*
X104966390Y-98993190D01*
X104966390Y-98993188D01*
X104966392Y-98993186D01*
X105000500Y-98865892D01*
X105000500Y-98734108D01*
X104966392Y-98606814D01*
X104966390Y-98606811D01*
X104966390Y-98606809D01*
X104900503Y-98492690D01*
X104900502Y-98492689D01*
X104900501Y-98492688D01*
X104900500Y-98492686D01*
X104869495Y-98461681D01*
X104841719Y-98407164D01*
X104840500Y-98391678D01*
X104840500Y-97248321D01*
X104859407Y-97190130D01*
X104869490Y-97178323D01*
X104940500Y-97107314D01*
X104956814Y-97079057D01*
X105006390Y-96993190D01*
X105006390Y-96993188D01*
X105006392Y-96993186D01*
X105040500Y-96865892D01*
X105040500Y-96734108D01*
X105006392Y-96606814D01*
X105006390Y-96606811D01*
X105006390Y-96606809D01*
X104940503Y-96492690D01*
X104940501Y-96492688D01*
X104940500Y-96492686D01*
X104847314Y-96399500D01*
X104847311Y-96399498D01*
X104847309Y-96399496D01*
X104733189Y-96333609D01*
X104733191Y-96333609D01*
X104683799Y-96320375D01*
X104605892Y-96299500D01*
X104474108Y-96299500D01*
X104396200Y-96320375D01*
X104346809Y-96333609D01*
X104232690Y-96399496D01*
X104139496Y-96492690D01*
X104073609Y-96606809D01*
X104073608Y-96606814D01*
X104039500Y-96734108D01*
X104039500Y-96865892D01*
X104062747Y-96952653D01*
X104073609Y-96993190D01*
X104139496Y-97107309D01*
X104139498Y-97107311D01*
X104139500Y-97107314D01*
X104210505Y-97178319D01*
X104238281Y-97232834D01*
X104239500Y-97248321D01*
X104239500Y-98315314D01*
X104220593Y-98373505D01*
X104197124Y-98394640D01*
X104197827Y-98395556D01*
X104192681Y-98399503D01*
X104099500Y-98492685D01*
X104099496Y-98492690D01*
X104033609Y-98606809D01*
X104033608Y-98606814D01*
X103999500Y-98734108D01*
X101580919Y-98734108D01*
X101657412Y-98657615D01*
X103164528Y-97150500D01*
X104785532Y-95529496D01*
X104840049Y-95501719D01*
X104855536Y-95500500D01*
X107851679Y-95500500D01*
X107909870Y-95519407D01*
X107921676Y-95529490D01*
X107992686Y-95600500D01*
X107992688Y-95600501D01*
X107992690Y-95600503D01*
X108106810Y-95666390D01*
X108106808Y-95666390D01*
X108106812Y-95666391D01*
X108106814Y-95666392D01*
X108234108Y-95700500D01*
X108234110Y-95700500D01*
X108365890Y-95700500D01*
X108365892Y-95700500D01*
X108493186Y-95666392D01*
X108493188Y-95666390D01*
X108493190Y-95666390D01*
X108607309Y-95600503D01*
X108607309Y-95600502D01*
X108607314Y-95600500D01*
X108700500Y-95507314D01*
X108700503Y-95507309D01*
X108766390Y-95393190D01*
X108766390Y-95393188D01*
X108766392Y-95393186D01*
X108800500Y-95265892D01*
X108800500Y-95134108D01*
X108766392Y-95006814D01*
X108766390Y-95006811D01*
X108766390Y-95006809D01*
X108700503Y-94892690D01*
X108700501Y-94892688D01*
X108700500Y-94892686D01*
X108607314Y-94799500D01*
X108607311Y-94799498D01*
X108607309Y-94799496D01*
X108493189Y-94733609D01*
X108493191Y-94733609D01*
X108428927Y-94716390D01*
X108365892Y-94699500D01*
X108234108Y-94699500D01*
X108171073Y-94716390D01*
X108106809Y-94733609D01*
X107992690Y-94799496D01*
X107992689Y-94799497D01*
X107992686Y-94799499D01*
X107992686Y-94799500D01*
X107921680Y-94870505D01*
X107867166Y-94898281D01*
X107851679Y-94899500D01*
X107266924Y-94899500D01*
X107208733Y-94880593D01*
X107172769Y-94831093D01*
X107171297Y-94774879D01*
X107200500Y-94665892D01*
X107200500Y-94534108D01*
X107166392Y-94406814D01*
X107166390Y-94406811D01*
X107166390Y-94406809D01*
X107100503Y-94292690D01*
X107100501Y-94292688D01*
X107100500Y-94292686D01*
X107007314Y-94199500D01*
X107007311Y-94199498D01*
X107007309Y-94199496D01*
X106893189Y-94133609D01*
X106893191Y-94133609D01*
X106835551Y-94118165D01*
X106765892Y-94099500D01*
X106634108Y-94099500D01*
X106564449Y-94118165D01*
X106506809Y-94133609D01*
X106392690Y-94199496D01*
X106392689Y-94199497D01*
X106392686Y-94199499D01*
X106392686Y-94199500D01*
X106321680Y-94270505D01*
X106267166Y-94298281D01*
X106251679Y-94299500D01*
X104360435Y-94299500D01*
X104284012Y-94319978D01*
X104224934Y-94354087D01*
X104215490Y-94359539D01*
X100058478Y-98516549D01*
X100003961Y-98544326D01*
X99943529Y-98534755D01*
X99938974Y-98532281D01*
X99827502Y-98467922D01*
X99827504Y-98467922D01*
X99760616Y-98450000D01*
X99700205Y-98433813D01*
X99568421Y-98433813D01*
X99508010Y-98450000D01*
X99441122Y-98467922D01*
X99327003Y-98533809D01*
X99233809Y-98627003D01*
X99167922Y-98741122D01*
X99157890Y-98778562D01*
X99133813Y-98868421D01*
X97293392Y-98868421D01*
X94429496Y-96004525D01*
X94401719Y-95950008D01*
X94400500Y-95934521D01*
X94400500Y-94945477D01*
X94402968Y-94937879D01*
X94401719Y-94929990D01*
X94412243Y-94909334D01*
X94419407Y-94887286D01*
X94429485Y-94875485D01*
X94525475Y-94779494D01*
X94579990Y-94751719D01*
X94595477Y-94750500D01*
X94695890Y-94750500D01*
X94695892Y-94750500D01*
X94823186Y-94716392D01*
X94823188Y-94716390D01*
X94823190Y-94716390D01*
X94937309Y-94650503D01*
X94937309Y-94650502D01*
X94937314Y-94650500D01*
X95030500Y-94557314D01*
X95040762Y-94539540D01*
X95096390Y-94443190D01*
X95096390Y-94443188D01*
X95096392Y-94443186D01*
X95130500Y-94315892D01*
X95130500Y-94184108D01*
X95096392Y-94056814D01*
X95096390Y-94056811D01*
X95096390Y-94056809D01*
X95030503Y-93942690D01*
X95030501Y-93942688D01*
X95030500Y-93942686D01*
X94937314Y-93849500D01*
X94937311Y-93849498D01*
X94937309Y-93849496D01*
X94823189Y-93783609D01*
X94823191Y-93783609D01*
X94773799Y-93770375D01*
X94695892Y-93749500D01*
X94564108Y-93749500D01*
X94486200Y-93770375D01*
X94436809Y-93783609D01*
X94322690Y-93849496D01*
X94229496Y-93942690D01*
X94163609Y-94056809D01*
X94129500Y-94184109D01*
X94129500Y-94284521D01*
X94110593Y-94342712D01*
X94100509Y-94354519D01*
X94012699Y-94442330D01*
X93927208Y-94527821D01*
X93872691Y-94555598D01*
X93812259Y-94546027D01*
X93768994Y-94502762D01*
X93759423Y-94442330D01*
X93771467Y-94408318D01*
X93826392Y-94313186D01*
X93860500Y-94185892D01*
X93860500Y-94054108D01*
X93826392Y-93926814D01*
X93826390Y-93926811D01*
X93826390Y-93926809D01*
X93760503Y-93812690D01*
X93760501Y-93812688D01*
X93760500Y-93812686D01*
X93667314Y-93719500D01*
X93667311Y-93719498D01*
X93667309Y-93719496D01*
X93553189Y-93653609D01*
X93553191Y-93653609D01*
X93475756Y-93632861D01*
X93425892Y-93619500D01*
X93294108Y-93619500D01*
X93244244Y-93632861D01*
X93166809Y-93653609D01*
X93052690Y-93719496D01*
X92959496Y-93812690D01*
X92893609Y-93926809D01*
X92882814Y-93967098D01*
X92859500Y-94054108D01*
X92859500Y-94185892D01*
X92865361Y-94207765D01*
X92893609Y-94313190D01*
X92959496Y-94427309D01*
X92959498Y-94427311D01*
X92959500Y-94427314D01*
X93030505Y-94498319D01*
X93058281Y-94552834D01*
X93059500Y-94568321D01*
X93059500Y-96299564D01*
X93079978Y-96375987D01*
X93117180Y-96440423D01*
X93117179Y-96440423D01*
X93117182Y-96440427D01*
X93119540Y-96444511D01*
X97855527Y-101180498D01*
X97883303Y-101235013D01*
X97873732Y-101295445D01*
X97830467Y-101338710D01*
X97785522Y-101349500D01*
X93715479Y-101349500D01*
X93657288Y-101330593D01*
X93645475Y-101320504D01*
X89190861Y-96865890D01*
X84734511Y-92409540D01*
X84734508Y-92409538D01*
X84665992Y-92369980D01*
X84665988Y-92369978D01*
X84589564Y-92349500D01*
X84589562Y-92349500D01*
X83579586Y-92349500D01*
X83521395Y-92330593D01*
X83485431Y-92281093D01*
X83485431Y-92219907D01*
X83521395Y-92170407D01*
X83552246Y-92155350D01*
X85036815Y-91728788D01*
X85063718Y-91724940D01*
X90797422Y-91700011D01*
X90802566Y-91700122D01*
G37*
%TD.AperFunction*%
%TA.AperFunction,Conductor*%
G36*
X112256908Y-101407663D02*
G01*
X112279806Y-101411290D01*
X112285454Y-101416938D01*
X112293052Y-101419407D01*
X112306679Y-101438163D01*
X112323071Y-101454555D01*
X112324320Y-101462444D01*
X112329016Y-101468907D01*
X112329016Y-101492092D01*
X112332642Y-101514987D01*
X112329016Y-101522103D01*
X112329016Y-101530093D01*
X112304866Y-101569501D01*
X112244023Y-101630345D01*
X112244020Y-101630348D01*
X112129058Y-101802402D01*
X112050000Y-101993264D01*
X112050000Y-101400500D01*
X112234861Y-101400500D01*
X112256908Y-101407663D01*
G37*
%TD.AperFunction*%
%TD*%
%TA.AperFunction,Conductor*%
%TO.N,GND_MOT*%
G36*
X117642116Y-114123979D02*
G01*
X117688084Y-114176597D01*
X117699500Y-114228566D01*
X117699500Y-116875238D01*
X117679815Y-116942277D01*
X117627011Y-116988032D01*
X117574745Y-116999236D01*
X74700000Y-116738335D01*
X74700000Y-114278502D01*
X117574997Y-114104567D01*
X117642116Y-114123979D01*
G37*
%TD.AperFunction*%
%TD*%
%TA.AperFunction,Conductor*%
%TO.N,GND_MOT*%
G36*
X74700000Y-116738336D02*
G01*
X74700000Y-116774327D01*
X74618492Y-116794659D01*
X74616353Y-116794570D01*
X74614470Y-116795592D01*
X74586658Y-116798333D01*
X68222677Y-116704744D01*
X68155934Y-116684075D01*
X68110960Y-116630604D01*
X68100500Y-116580757D01*
X68100500Y-108900000D01*
X74700000Y-108900000D01*
X74700000Y-116738336D01*
G37*
%TD.AperFunction*%
%TD*%
%TA.AperFunction,Conductor*%
%TO.N,/E_M1_A*%
G36*
X99921509Y-69183361D02*
G01*
X100343976Y-69466427D01*
X100447064Y-69535499D01*
X100452029Y-69542951D01*
X100451117Y-69550243D01*
X100018174Y-70460834D01*
X100011527Y-70466834D01*
X100007608Y-70467510D01*
X99822392Y-70467510D01*
X99814119Y-70464083D01*
X99811826Y-70460834D01*
X99378882Y-69550243D01*
X99378424Y-69541300D01*
X99382934Y-69535499D01*
X99908488Y-69183362D01*
X99917268Y-69181605D01*
X99921509Y-69183361D01*
G37*
%TD.AperFunction*%
%TD*%
%TA.AperFunction,Conductor*%
%TO.N,/PWM_GRB_O*%
G36*
X114059444Y-101003527D02*
G01*
X114874911Y-101202345D01*
X115878257Y-101446969D01*
X115885483Y-101452258D01*
X115886853Y-101461107D01*
X115886561Y-101462110D01*
X115602566Y-102295405D01*
X115596653Y-102302130D01*
X115596642Y-102302136D01*
X115596640Y-102302137D01*
X114760725Y-102711862D01*
X114751788Y-102712426D01*
X114745070Y-102706505D01*
X114744966Y-102706287D01*
X114046065Y-101202345D01*
X114044975Y-101197414D01*
X114044975Y-101014895D01*
X114048402Y-101006622D01*
X114056675Y-101003195D01*
X114059444Y-101003527D01*
G37*
%TD.AperFunction*%
%TD*%
M02*
